<?xml version="1.0" encoding="utf-8"?>
<!-- Generator: Adobe Illustrator 23.0.3, SVG Export Plug-In . SVG Version: 6.00 Build 0)  -->
<svg version="1.1" id="Layer_1" xmlns="http://www.w3.org/2000/svg" xmlns:xlink="http://www.w3.org/1999/xlink" x="0px" y="0px"
	 viewBox="0 0 695.3 107.2" style="enable-background:new 0 0 695.3 107.2;" xml:space="preserve">
<style type="text/css">
	.st0{clip-path:url(#SVGID_2_);fill:#F35C49;}
	.st1{fill:#F35C49;}
	.st2{clip-path:url(#SVGID_4_);fill:#F35C49;}
	.st3{clip-path:url(#SVGID_6_);fill:#F35C49;}
	.st4{clip-path:url(#SVGID_6_);fill:#23334B;}
	.st5{fill:#23334B;}
	.st6{clip-path:url(#SVGID_8_);fill:#23334B;}
</style>
<g>
	<g>
		<defs>
			<rect id="SVGID_1_" x="3" y="1" width="686" height="105.8"/>
		</defs>
		<clipPath id="SVGID_2_">
			<use xlink:href="#SVGID_1_"  style="overflow:visible;"/>
		</clipPath>
		<path class="st0" d="M226.5,99.3h9.9V87.2h-3c-3.6,0-4.6-1.2-4.6-5.1V65.3c0-8.9-3.8-10.3-8.3-11c4.5-0.7,8.3-2.1,8.3-11V26.6
			c0-3.8,1-5.1,4.6-5.1h3V9.3h-9.9c-6.7,0-11.2,4.5-11.2,11.2v18.7c0,7-2.2,9-9,9v12.1c6.7,0,9,2,9,9v18.7
			C215.3,94.8,219.8,99.3,226.5,99.3"/>
		<path class="st0" d="M260.8,83.9c12.6,0,21.5-5.5,25.8-16.2l-12.5-5.1c-2.9,6-7,9.3-13.3,9.3c-8.8,0-13-7.3-13-17.3
			s4.3-17.3,13-17.3c6.3,0,10.3,3.4,13.3,9.3l12.5-5.1c-4.3-10.7-13.2-16.2-25.8-16.2c-18.4,0-27.7,13.3-27.7,29.2
			S242.4,83.9,260.8,83.9"/>
		<path class="st0" d="M329.3,54.6c0,9.3-5.2,17.3-14.2,17.3c-9,0-14.2-8-14.2-17.3s5.2-17.3,14.2-17.3
			C324.1,37.3,329.3,45.3,329.3,54.6 M343.9,54.6c0-16.4-10.6-29.2-28.8-29.2c-18.2,0-28.8,12.8-28.8,29.2s10.6,29.2,28.8,29.2
			C333.4,83.9,343.9,71.1,343.9,54.6"/>
	</g>
	<rect x="347.5" y="3.4" class="st1" width="13.9" height="79.6"/>
	<rect x="370.6" y="3.4" class="st1" width="13.9" height="79.6"/>
	<g>
		<defs>
			<rect id="SVGID_3_" x="3" y="1" width="686" height="105.8"/>
		</defs>
		<clipPath id="SVGID_4_">
			<use xlink:href="#SVGID_3_"  style="overflow:visible;"/>
		</clipPath>
		<path class="st2" d="M427.5,48.1h-24.4c1-5.4,5.2-10.8,12.3-10.8C422.8,37.3,426.3,42.5,427.5,48.1 M441.8,59.1v-5.7
			c0-12.4-7.5-28-26.4-28c-19.5,0-27.2,15.9-27.2,29.2s7.8,29.2,27.2,29.2c13.7,0,21.4-6.5,25.7-16.5l-11.2-4.2
			c-3.4,5.8-7.3,8.8-13.7,8.8c-8.7,0-13-6.5-13.4-12.8H441.8z"/>
		<path class="st2" d="M472.9,83.9c12.6,0,21.5-5.5,25.8-16.2l-12.5-5.1c-2.9,6-7,9.3-13.3,9.3c-8.8,0-13-7.3-13-17.3
			s4.3-17.3,13-17.3c6.3,0,10.3,3.4,13.3,9.3l12.5-5.1c-4.3-10.7-13.2-16.2-25.8-16.2c-18.4,0-27.7,13.3-27.7,29.2
			S454.5,83.9,472.9,83.9"/>
		<path class="st2" d="M528.9,83.9c3,0,6.1-0.6,9.2-2l-3.3-11.2c-1.9,1-3.5,1.3-5.4,1.3c-4.7,0-7.4-2.2-7.4-9.2V38.2h15V26.3h-15
			V3.4l-13.9,8.8v14.2h-8.8v11.9h8.8V63C508.1,77,516,83.9,528.9,83.9"/>
		<path class="st2" d="M548.3,19c5.2,0,9-3.9,9-9c0-5.1-3.8-9-9-9s-9,3.9-9,9C539.3,15.1,543.1,19,548.3,19"/>
	</g>
	<rect x="541.3" y="26.3" class="st1" width="13.9" height="56.7"/>
	<polygon class="st1" points="577.5,83 590.1,83 609.3,26.3 595.3,26.3 583.8,65.8 572.3,26.3 558.3,26.3 	"/>
	<g>
		<defs>
			<rect id="SVGID_5_" x="3" y="1" width="686" height="105.8"/>
		</defs>
		<clipPath id="SVGID_6_">
			<use xlink:href="#SVGID_5_"  style="overflow:visible;"/>
		</clipPath>
		<path class="st3" d="M646.8,48.1h-24.4c1-5.4,5.2-10.8,12.3-10.8C642,37.3,645.5,42.5,646.8,48.1 M661,59.1v-5.7
			c0-12.4-7.5-28-26.4-28c-19.5,0-27.2,15.9-27.2,29.2s7.8,29.2,27.2,29.2c13.7,0,21.4-6.5,25.7-16.5l-11.2-4.2
			c-3.4,5.8-7.3,8.8-13.7,8.8c-8.7,0-13-6.5-13.4-12.8H661z"/>
		<path class="st3" d="M658.8,99.3h9.9c6.7,0,11.2-4.5,11.2-11.2V69.4c0-7,2.2-9,9-9V48.3c-6.7,0-9-2-9-9V20.6
			c0-6.7-4.5-11.2-11.2-11.2h-9.9v12.1h3c3.6,0,4.6,1.2,4.6,5.1v16.8c0,8.9,3.8,10.3,8.3,11c-4.5,0.7-8.3,2.1-8.3,11v16.8
			c0,3.8-1,5.1-4.6,5.1h-3V99.3z"/>
		<path class="st4" d="M36.6,60.3c0,7.3-6.4,11.7-12.7,11.7c-3.7,0-6.3-2.2-6.3-5.5c0-5.1,3.7-7.3,9.7-7.3h9.3V60.3z M50.6,83V49.1
			c0-15.9-8.9-23.7-23.8-23.7c-11.4,0-19.8,6.4-21.6,15.7l11.8,2.7c1.8-4.7,5.3-6.5,9.8-6.5c5.2,0,9.9,2.4,9.9,8.3v2.5h-9.9
			C12.2,48.1,3,55.4,3,66.7c0,11.2,7.5,17.2,17.2,17.2c8.1,0,13.5-3.3,17.4-8.1l1.5,7.2H50.6z"/>
		<path class="st4" d="M87.5,44.5c0,4.6-3.3,7.6-7.8,7.6c-4.5,0-7.8-3-7.8-7.6c0-4.7,3.3-7.9,7.8-7.9C84.2,36.6,87.5,39.8,87.5,44.5
			 M68.4,81.9c2,0.3,4.2,0.4,6.5,0.4h7.6c5.3,0,9.1,1.1,9.1,5.8c0,5.1-5.2,7-11.8,7c-7.3,0-12.7-2.7-12.7-8.1
			C67.1,84.9,67.5,83.2,68.4,81.9 M106.4,31.5l-5.5-9.2l-10.7,5.6c-3.1-1.6-6.6-2.5-10.5-2.5c-11.5,0-20.8,7.3-20.8,19.1
			c0,4.7,1.5,8.7,3.9,11.7c-4.2,2.5-7,6.5-7,11.9c0,3.6,1.1,6.6,2.9,8.8c-2.9,2.7-4.6,6.6-4.6,11.2c0,12.4,11.1,18.7,25.6,18.7
			c12.6,0,25.8-5.6,25.8-19.6c0-10.9-8-16.6-19.9-16.6H74.1c-3.4,0-5.3-1.5-5.3-4.2c0-1.8,1-3.3,2.7-4.3c2.5,0.8,5.3,1.2,8.2,1.2
			c11.5,0,20.8-7,20.8-18.9c0-3.4-0.8-6.4-2.2-9L106.4,31.5z"/>
		<path class="st4" d="M116.5,19c5.2,0,9-3.9,9-9c0-5.1-3.8-9-9-9s-9,3.9-9,9C107.5,15.1,111.4,19,116.5,19"/>
	</g>
	<rect x="109.6" y="26.3" class="st5" width="13.9" height="56.7"/>
	<rect x="130.6" y="3.4" class="st5" width="13.9" height="79.6"/>
	<g>
		<defs>
			<rect id="SVGID_7_" x="3" y="1" width="686" height="105.8"/>
		</defs>
		<clipPath id="SVGID_8_">
			<use xlink:href="#SVGID_7_"  style="overflow:visible;"/>
		</clipPath>
		<path class="st6" d="M188,48.1h-24.4c1-5.4,5.2-10.8,12.3-10.8C183.3,37.3,186.8,42.5,188,48.1 M202.3,59.1v-5.7
			c0-12.4-7.5-28-26.4-28c-19.5,0-27.2,15.9-27.2,29.2s7.8,29.2,27.2,29.2c13.7,0,21.4-6.5,25.7-16.5l-11.2-4.2
			C187,69,183.1,72,176.6,72c-8.7,0-13-6.5-13.4-12.8H202.3z"/>
	</g>
</g>
</svg>
