<svg id="Ms" xmlns="http://www.w3.org/2000/svg" xmlns:xlink="http://www.w3.org/1999/xlink" viewBox="0 0 191.51 71.64"><defs><style>.cls-1{fill:#4e56ff;opacity:0.2;}.cls-2{fill:url(#linear-gradient);}.cls-3{fill:url(#linear-gradient-2);}.cls-4{fill:url(#linear-gradient-3);}</style><linearGradient id="linear-gradient" x1="32.72" y1="21.71" x2="65.13" y2="54.13" gradientUnits="userSpaceOnUse"><stop offset="0.11" stop-color="#4e56ff" stop-opacity="0"/><stop offset="1" stop-color="#4e56ff"/></linearGradient><linearGradient id="linear-gradient-2" x1="57.23" y1="37.31" x2="87.98" y2="40" gradientUnits="userSpaceOnUse"><stop offset="0.11" stop-color="#4e56ff" stop-opacity="0"/><stop offset="1" stop-color="#4e56ff"/></linearGradient><linearGradient id="linear-gradient-3" x1="47.5" y1="21.49" x2="79.43" y2="53.42" xlink:href="#linear-gradient"/></defs><path d="M17,29.35c-1.29,2.13-4.44,3.06-6.44,3.06A10.5,10.5,0,0,1,0,21.62,10.51,10.51,0,0,1,10.57,10.83c1.91,0,4.88.76,6.44,3V11.28h5.41V32H17Zm-5.69-2.13A5.46,5.46,0,0,0,17,21.62,5.53,5.53,0,0,0,11.32,16a5.6,5.6,0,1,0,0,11.19ZM60.45,0a3.3,3.3,0,0,1,3.42,3.24,3.29,3.29,0,0,1-3.42,3.29A3.36,3.36,0,0,1,57,3.24,3.38,3.38,0,0,1,60.45,0Zm2.67,32H57.75V11.28h5.37ZM49.55,19.2c0-5.3-4.14-8.36-9.43-8.36s-9.5,3.06-9.5,8.36V32H36V21c0-3.56,1.93-4.84,4.15-4.84,2.5,0,4,1.43,4,4.91V32h5.34ZM94.1,51.13a10.79,10.79,0,0,1,21.58,0,10.79,10.79,0,1,1-21.58,0Zm16.2,0a5.42,5.42,0,1,0-10.83,0,5.42,5.42,0,1,0,10.83,0Zm17.77,10.43h-5.42V40.83h5.42v4.88c1.07-3.77,3.51-5.32,5.86-5.32a6.7,6.7,0,0,1,3.42.75v5.22a11.1,11.1,0,0,0-5.25-.57c-3.22.74-4,2.94-4,8.45Zm20.12-17.93c1.11-2.09,3.77-3.25,6.48-3.25,5.42,0,10.12,4.27,10.12,10.79S160.09,62,154.67,62c-2.71,0-5.37-1.11-6.48-3.2V71.64h-5.42V40.83h5.42Zm5.59,13.23a5.64,5.64,0,0,0,0-11.28,5.64,5.64,0,0,0,0,11.28Zm22.94,4.7h-5.41v-32h5.41V44c.94-2.48,4.4-3.64,6.44-3.64,5.37,0,8.35,3.56,8.35,9.64V61.56h-5.42V50.29a4.37,4.37,0,0,0-4.39-4.62c-2.27,0-5,1.24-5,4.84Z"/><path class="cls-1" d="M84.79,61.57H76.62V52.65ZM63.11,52.65v8.92h8.17Z"/><path class="cls-2" d="M57.88,46.94a8.19,8.19,0,0,0-.19,1.82V61.57L30.59,32H36v-11c0-3.56,1.93-4.84,4.15-4.84,2.51,0,4,1.43,4,4.91V32Z"/><path class="cls-3" d="M87.73,42.87a10,10,0,0,0-6.87-2.48,7.86,7.86,0,0,0-6.8,3.54,1.63,1.63,0,0,0-.11.17A7.84,7.84,0,0,0,67,40.39a11.46,11.46,0,0,0-1.56.1L57.69,32h5.42V16Zm-7.09,2.81c-2.51,0-4,1.43-4,4.91v2.06l8.17,8.92v-11C84.79,47,82.86,45.68,80.64,45.68Z"/><path class="cls-4" d="M65.48,40.49a9.45,9.45,0,0,0-5.67,2.73,7.48,7.48,0,0,0-1.93,3.72L44.18,32h5.34V21c0-3.48,8.17-8.58,8.17-5V32Zm1.78,5.19a3.76,3.76,0,0,0-3.49,1.87,5.91,5.91,0,0,0-.66,3v2.13l8.17,8.92v-11C71.28,47.11,69.77,45.68,67.26,45.68Z"/></svg>