<?xml version="1.0" encoding="utf-8"?>
<!-- Generator: Adobe Illustrator 25.4.1, SVG Export Plug-In . SVG Version: 6.00 Build 0)  -->
<svg version="1.1" id="Ms" xmlns="http://www.w3.org/2000/svg" xmlns:xlink="http://www.w3.org/1999/xlink" x="0px" y="0px"
	 viewBox="0 0 229.33 109.55" style="enable-background:new 0 0 229.33 109.55;" xml:space="preserve">
<style type="text/css">
	.st0{fill:#FFFFFF;}
	.st1{fill:#4E56FF;}
	.st2{fill:none;}
	.st3{fill:url(#SVGID_1_);}
	.st4{fill:url(#SVGID_00000145755275016239394910000001934726150287593600_);}
	.st5{fill:url(#SVGID_00000098187830851300130690000005140905709784150161_);}
	.st6{opacity:0.3;fill:#4E56FF;}
	.st7{fill:url(#SVGID_00000075883952744344498910000016499673597078141591_);}
	.st8{fill:url(#SVGID_00000139277532436222887980000004339846625668528550_);}
	.st9{fill:url(#SVGID_00000149377485831951103110000006892292341667532434_);}
	.st10{opacity:0.3;}
	.st11{opacity:0.2;fill:#4E56FF;}
	.st12{fill:url(#SVGID_00000066475498549072509980000016465655493122076350_);}
	.st13{fill:url(#SVGID_00000129892046042995540810000002839867371108691133_);}
	.st14{fill:url(#SVGID_00000094602528538325768410000014254172074117311883_);}
	.st15{fill:url(#SVGID_00000145767969233484841930000015101473056658606487_);}
	.st16{fill:url(#SVGID_00000080192152092490709750000006292911444624941455_);}
	.st17{fill:url(#SVGID_00000076602812415587625520000015206537060594859139_);}
	.st18{opacity:0.5;fill:#FFFFFF;}
	.st19{fill:url(#SVGID_00000111189700652045542950000017128399889905581744_);}
	.st20{fill:url(#SVGID_00000023986635020780658950000006332637687090502813_);}
	.st21{fill:url(#SVGID_00000135684776243329715460000015735918086871457460_);}
	.st22{fill:url(#SVGID_00000031894908998401289240000005358781640324398235_);}
	.st23{fill:url(#SVGID_00000149365550213313102770000003812937491051008702_);}
	.st24{fill:url(#SVGID_00000007426295140168125550000016229581498948979602_);}
	.st25{fill:url(#SVGID_00000165218483569828614420000000418847338265841073_);}
	.st26{fill:url(#SVGID_00000123412952216913451240000017288790087264363958_);}
	.st27{fill:url(#SVGID_00000056399133493700297600000018269550920982270106_);}
</style>
<path d="M35.88,48.3c-1.29,2.13-4.44,3.06-6.44,3.06c-5.46,0-10.57-4.17-10.57-10.79c0-6.62,5.11-10.79,10.57-10.79
	c1.91,0,4.88,0.75,6.44,3.02v-2.58h5.42v20.73h-5.42V48.3z M30.19,46.17c2.97,0,5.68-2.04,5.68-5.59c0-3.55-2.84-5.59-5.68-5.59
	c-3.02,0-5.73,2.22-5.73,5.59C24.46,43.95,27.17,46.17,30.19,46.17z M79.32,18.96c1.91,0,3.42,1.42,3.42,3.24
	c0,1.91-1.51,3.29-3.42,3.29c-1.91,0-3.51-1.38-3.51-3.29C75.82,20.38,77.42,18.96,79.32,18.96z M81.99,50.97h-5.37V30.23h5.37
	V50.97z M68.42,38.16c0-5.3-4.14-8.36-9.43-8.36s-9.5,3.07-9.5,8.36v12.81h5.42V39.91c0-3.55,1.93-4.84,4.15-4.84
	c2.51,0,4.02,1.43,4.02,4.91v10.99h5.34C68.42,50.97,68.42,38.16,68.42,38.16z M112.97,70.08c0-6.57,4.93-10.74,10.79-10.74
	c5.86,0,10.79,4.17,10.79,10.74c0,6.53-4.93,10.83-10.79,10.83C117.9,80.92,112.97,76.61,112.97,70.08z M129.17,70.08
	c0-3.33-2.4-5.42-5.42-5.42c-3.02,0-5.42,2.09-5.42,5.42c0,3.37,2.4,5.55,5.42,5.55C126.78,75.63,129.17,73.46,129.17,70.08z
	 M146.94,80.52h-5.42V59.78h5.42v4.88c1.07-3.77,3.51-5.33,5.86-5.33c1.47,0,2.58,0.27,3.42,0.75v5.21
	c-1.29-0.58-4.01-0.85-5.26-0.56c-3.21,0.74-4.02,2.94-4.02,8.44V80.52z M167.06,62.58c1.11-2.09,3.77-3.24,6.48-3.24
	c5.42,0,10.12,4.26,10.12,10.79c0,6.62-4.71,10.83-10.12,10.83c-2.71,0-5.37-1.11-6.48-3.2V90.6h-5.42V59.78h5.42V62.58z
	 M172.65,75.81c2.97,0,5.46-2.22,5.46-5.59c0-3.42-2.49-5.68-5.46-5.68s-5.51,2.22-5.51,5.68
	C167.15,73.77,169.81,75.81,172.65,75.81z M195.59,80.52h-5.42V48.51h5.42v14.47c0.93-2.49,4.4-3.64,6.44-3.64
	c5.37,0,8.35,3.55,8.35,9.63v11.54h-5.42V69.24c0-2.97-2.18-4.62-4.4-4.62c-2.26,0-4.97,1.24-4.97,4.84V80.52z"/>
<path class="st11" d="M103.66,80.52h-8.17V71.6L103.66,80.52z M81.98,71.6v8.92h8.17L81.98,71.6z"/>
<linearGradient id="SVGID_1_" gradientUnits="userSpaceOnUse" x1="51.5881" y1="40.6676" x2="84.0043" y2="73.0839">
	<stop  offset="0.112" style="stop-color:#4E56FF;stop-opacity:0"/>
	<stop  offset="1" style="stop-color:#4E56FF"/>
</linearGradient>
<path class="st3" d="M76.75,65.89c-0.13,0.57-0.19,1.18-0.19,1.82v12.81l-27.1-29.59h5.42V39.88c0-3.56,1.93-4.84,4.15-4.84
	c2.51,0,4.02,1.43,4.02,4.91v10.98L76.75,65.89z"/>
<linearGradient id="SVGID_00000103237786378742392730000003453209348758005412_" gradientUnits="userSpaceOnUse" x1="76.0977" y1="56.2677" x2="106.855" y2="58.9586">
	<stop  offset="0.1076" style="stop-color:#4E56FF;stop-opacity:0"/>
	<stop  offset="1" style="stop-color:#4E56FF"/>
</linearGradient>
<path style="fill:url(#SVGID_00000103237786378742392730000003453209348758005412_);" d="M106.6,61.83
	c-1.73-1.61-4.2-2.48-6.87-2.48c-1.54,0-4.86,0.42-6.8,3.54c-0.04,0.06-0.08,0.11-0.11,0.17c-1.93-3.28-5.34-3.71-6.91-3.71
	c-0.53,0-1.05,0.03-1.56,0.1l-7.79-8.51h5.42v-16L106.6,61.83z M99.51,64.63c-2.51,0-4.02,1.43-4.02,4.91v2.06l8.17,8.92V69.47
	C103.66,65.91,101.73,64.63,99.51,64.63z"/>
<linearGradient id="SVGID_00000165221687820573536240000005510461031240857020_" gradientUnits="userSpaceOnUse" x1="66.3745" y1="40.446" x2="98.3034" y2="72.3749">
	<stop  offset="0.112" style="stop-color:#4E56FF;stop-opacity:0"/>
	<stop  offset="1" style="stop-color:#4E56FF"/>
</linearGradient>
<path style="fill:url(#SVGID_00000165221687820573536240000005510461031240857020_);" d="M84.35,59.44
	c-2.24,0.3-4.25,1.23-5.67,2.73c-0.95,1-1.63,2.24-1.93,3.72l-13.7-14.96h5.34V39.95c0-3.48,8.17-8.58,8.17-5.02v16L84.35,59.44z
	 M86.13,64.63c-1.43,0-2.74,0.53-3.49,1.87c-0.42,0.73-0.66,1.71-0.66,2.97v2.13l8.17,8.92V69.54
	C90.15,66.06,88.64,64.63,86.13,64.63z"/>
</svg>
