<?xml version="1.0" standalone="no"?>
<!DOCTYPE svg PUBLIC "-//W3C//DTD SVG 20010904//EN"
 "http://www.w3.org/TR/2001/REC-SVG-20010904/DTD/svg10.dtd">
<svg version="1.0" xmlns="http://www.w3.org/2000/svg"
 width="8920.000000pt" height="2510.000000pt" viewBox="0 0 8920.000000 2510.000000"
 preserveAspectRatio="xMidYMid meet">
<metadata>
Created by potrace 1.13, written by Peter Selinger 2001-2015
</metadata>
<g transform="translate(0.000000,2510.000000) scale(0.100000,-0.100000)"
fill="#000000" stroke="none">
<path d="M48865 17354 c-1031 -67 -1835 -330 -2355 -772 -64 -54 -166 -159
-261 -268 -268 -307 -455 -476 -821 -742 -220 -160 -316 -234 -413 -321 -425
-378 -625 -917 -717 -1931 -19 -216 -16 -812 6 -1015 56 -525 161 -990 333
-1470 187 -525 512 -1144 796 -1520 165 -217 583 -596 885 -803 162 -110 281
-172 457 -235 83 -30 279 -107 436 -170 576 -233 900 -325 1257 -358 170 -16
328 -2 517 46 304 77 504 100 960 110 264 6 298 9 385 32 52 13 218 49 368 79
150 30 327 67 392 84 334 84 578 197 696 322 23 23 95 122 160 218 133 198
226 298 324 353 36 19 133 62 215 95 419 167 617 299 695 464 38 81 39 147 4
277 -30 107 -35 187 -15 245 28 81 102 139 346 266 232 122 328 195 365 282
39 92 16 154 -111 298 -91 104 -118 154 -119 219 0 103 75 190 296 341 202
139 280 204 314 264 37 63 37 78 4 145 -29 57 -102 121 -233 205 -136 87 -221
185 -221 256 0 68 55 134 235 282 154 127 200 194 199 288 -1 109 -91 219
-289 352 -214 145 -285 219 -285 302 0 56 34 95 137 157 232 139 282 213 215
320 -43 67 -106 117 -347 277 -389 257 -429 327 -293 514 89 123 110 170 116
256 6 98 -14 148 -89 222 -74 73 -199 138 -414 215 -205 73 -266 102 -341 158
-123 91 -164 187 -164 383 0 146 -9 170 -89 250 -140 138 -397 246 -1061 444
-621 185 -842 269 -968 369 -118 92 -340 156 -687 196 -135 16 -676 28 -820
19z"/>
<path d="M14306 17278 c-7 -18 -939 -2116 -2071 -4663 -1132 -2546 -2063
-4642 -2069 -4658 -10 -25 -7 -31 29 -66 l40 -39 4433 -5 4433 -5 10 26 c6 15
13 41 15 57 4 24 -433 1016 -2073 4705 l-2078 4675 -327 3 -328 2 -14 -32z"/>
<path d="M34039 17239 c-20 -12 -46 -39 -58 -59 l-21 -38 0 -4568 0 -4568 21
-43 c29 -60 109 -129 162 -140 49 -10 1658 6 1670 16 4 4 154 335 333 737 179
401 332 739 339 750 21 32 52 36 79 11 13 -12 45 -71 71 -132 49 -113 466
-1021 573 -1248 l61 -127 1038 2 1038 3 333 745 c183 410 341 753 351 764 13
13 27 17 44 12 27 -6 8 32 480 -981 l242 -520 790 -3 c582 -2 801 0 833 9 59
16 117 61 142 108 l20 40 0 4532 0 4532 -21 33 c-25 41 -47 54 -89 54 -56 0
-105 -39 -269 -214 -321 -343 -3726 -3718 -3807 -3773 -54 -37 -101 -39 -161
-6 -52 29 -596 572 -3078 3078 -972 982 -1001 1010 -1040 1013 -27 1 -52 -5
-76 -19z"/>
<path d="M70918 17237 c-59 -36 -115 -113 -183 -252 -76 -154 -109 -249 -209
-592 -277 -956 -368 -1369 -417 -1893 -17 -179 -17 -680 -1 -840 54 -520 129
-811 547 -2120 200 -624 260 -1029 272 -1835 11 -743 -46 -1472 -128 -1637
-53 -106 -29 -180 67 -207 26 -7 221 -11 581 -11 541 0 542 0 554 21 61 114
200 643 248 944 48 299 46 466 -8 790 -42 253 -54 376 -48 470 7 123 54 208
133 241 138 58 1263 80 3439 69 831 -5 1546 -9 1591 -10 177 -5 285 -79 325
-225 30 -113 -2 -886 -57 -1360 -52 -450 -117 -690 -223 -829 -22 -30 -41 -58
-41 -61 0 -16 42 -43 91 -57 117 -34 669 -27 1014 12 l120 14 37 41 c108 121
230 361 291 577 83 290 112 522 111 908 -1 356 -19 571 -80 940 -110 663 -273
1093 -632 1660 -223 353 -309 509 -383 699 -170 436 -227 994 -178 1751 27
424 112 890 230 1260 149 470 400 932 651 1201 51 54 62 73 69 112 10 64 -3
127 -32 159 -50 54 -61 55 -519 64 -234 4 -487 8 -562 8 l-138 1 -161 -327
c-414 -839 -578 -1221 -618 -1438 -11 -60 -29 -162 -41 -225 -33 -179 -60
-249 -133 -343 -16 -21 -48 -73 -71 -114 -53 -99 -74 -113 -178 -124 -72 -8
-759 -21 -3078 -59 -714 -12 -1643 -13 -1655 -2 -6 5 -29 14 -51 20 -129 37
-169 161 -124 392 70 372 368 1383 552 1880 59 157 103 250 129 268 27 18 24
37 -8 52 -38 19 -240 23 -633 13 -250 -7 -319 -6 -335 4 -30 20 -86 15 -127
-10z"/>
<path d="M20510 17140 c-279 -5 -286 -5 -324 -29 -26 -16 -46 -40 -62 -75
l-24 -51 0 -4539 c0 -4517 0 -4540 20 -4581 29 -59 71 -96 127 -109 33 -8 207
-10 566 -8 l517 3 -1 1477 c-1 812 -4 2496 -8 3742 -3 1246 -6 2266 -5 2268 1
2 1459 -1661 3239 -3695 1781 -2034 3256 -3717 3279 -3740 l41 -42 317 -2 318
-2 46 29 c82 50 143 164 164 302 7 45 10 1499 8 4482 l-3 4415 -24 45 c-31 59
-48 78 -93 101 -36 19 -127 19 -3925 17 -2138 -1 -4016 -5 -4173 -8z"/>
<path d="M30766 17112 c-15 -18 -16 -335 -16 -4576 0 -4228 1 -4560 17 -4586
9 -16 26 -33 39 -39 14 -6 206 -11 522 -12 482 -2 502 -1 539 18 l38 20 3
4544 c2 4153 1 4548 -14 4587 -9 23 -24 47 -34 52 -12 6 -218 10 -548 10 -501
0 -530 -1 -546 -18z"/>
<path d="M55905 17080 c-126 -4 -231 -7 -231 -8 -1 -1 -5 -134 -8 -294 -8
-310 3 -547 29 -665 24 -114 50 -381 80 -823 69 -1048 75 -1858 20 -2580 -32
-407 -60 -652 -121 -1050 -47 -304 -64 -483 -64 -687 0 -396 41 -734 166
-1368 30 -154 60 -334 66 -400 7 -78 8 -332 5 -727 l-6 -607 32 4 c18 3 253
12 522 21 270 9 493 19 496 23 10 9 56 354 74 550 23 255 30 562 15 756 -14
191 -32 309 -84 535 -62 274 -110 649 -146 1145 -24 339 -46 1015 -36 1106 l7
66 59 6 c143 15 424 19 580 8 387 -28 681 -99 935 -227 232 -116 313 -190 830
-754 867 -946 1687 -1907 2025 -2371 148 -204 231 -342 280 -466 49 -124 119
-269 150 -313 l21 -30 665 0 c365 0 664 4 664 8 0 13 -160 295 -270 477 -507
835 -907 1349 -1245 1600 -309 228 -573 553 -1321 1622 -169 241 -347 490
-395 554 -89 116 -178 209 -201 209 -27 0 11 19 112 55 539 192 971 460 1242
769 426 486 545 1081 357 1785 -99 371 -285 750 -504 1026 -84 106 -268 288
-375 369 -330 253 -668 400 -1264 551 -331 84 -491 103 -1046 125 -258 10
-1722 10 -2115 0z"/>
<path d="M63893 17083 c-40 -2 -76 -9 -81 -16 -31 -39 -139 -645 -197 -1109
-98 -790 -136 -1357 -136 -2048 0 -466 10 -659 56 -1070 123 -1101 164 -2022
193 -4375 l7 -550 558 -3 c426 -2 557 1 557 10 0 6 9 30 19 52 29 62 52 348
83 1001 17 369 17 1311 0 1475 -47 455 -104 852 -198 1373 -20 109 -33 201
-29 205 4 4 169 10 368 14 828 15 1864 74 2282 129 823 109 1196 429 1465
1255 99 305 233 924 285 1314 46 345 23 664 -66 949 -41 130 -154 356 -233
466 -259 360 -657 634 -1166 802 -282 93 -283 94 -825 103 -1305 24 -2696 34
-2942 23z"/>
</g>
</svg>
