<svg xmlns="http://www.w3.org/2000/svg" viewBox="0 0 747.51 267.1"><defs><style>.cls-1{fill:#1d1d1b;}</style></defs><title>Asset 1</title><g id="Layer_2" data-name="Layer 2"><g id="Layer_1-2" data-name="Layer 1"><path class="cls-1" d="M351.22,103.57c-1-6.85-3.86-12.27-8.62-16.11a28.31,28.31,0,0,0-13.45-5.94,27.05,27.05,0,0,0,10.34-10,25.84,25.84,0,0,0,3-16.91,26.29,26.29,0,0,0-12.54-19.44c-7.48-4.82-17.41-6.41-29.53-4.71L256,36.7l15.39,109.5L316,139.93c7.7-1.08,14-2.9,18.85-5.41C347.62,127.62,353.14,117.21,351.22,103.57ZM315.44,51.29a12.39,12.39,0,0,1,5.43,9.14,12,12,0,0,1-2.78,10.2C315.63,73.4,311.55,75.2,306,76l-22.06,3.1-3.73-26.56L302.4,49.4C308,48.62,312.37,49.25,315.44,51.29Zm-25.21,72.87L286.57,98.1l22.56-3.17c5.81-.82,10.3-.19,13.37,1.84a13.26,13.26,0,0,1,2.81,18.83c-2.28,2.73-6.49,4.54-12.52,5.39Z"/><polygon class="cls-1" points="380.62 18.8 359.15 21.98 374.52 131.34 396.01 128.31 380.62 18.8"/><path class="cls-1" d="M482.31,63.46a37.9,37.9,0,0,0-4.59-14.1C471,38.12,459.08,33.62,442.15,36c-11.73,1.65-20.73,5.07-26.73,10.16s-8.57,12.65-7.24,22.13l.14,1L431.64,66l-.14-1a9.27,9.27,0,0,1,2.64-8.45c2.31-2.27,6-3.77,10.86-4.46s8.47.08,10.88,2.26,4.09,6.07,4.84,11.44l.95,6.71a93.26,93.26,0,0,0-21.64.11c-10.32,1.45-18.3,4.7-23.71,9.67s-7.76,11.57-6.67,19.33a25.29,25.29,0,0,0,11,18c5,3.28,11.11,4.94,18.32,4.94a55.54,55.54,0,0,0,7.63-.56c10.08-1.42,17.36-6.34,21.66-14.63l2.52,8.86,18.89-2.65ZM463.65,86.94a19,19,0,0,1-3.54,12.83,16.94,16.94,0,0,1-11.84,6.86c-5.09.71-8.94.23-11.46-1.44a9,9,0,0,1-4.3-6.51C431.6,92.2,436,88.36,446.09,87a59.43,59.43,0,0,1,8.4-.56A79.11,79.11,0,0,1,463.65,86.94Z"/><polygon class="cls-1" points="544.54 55.3 577.16 19.15 547.61 23.3 520.95 54.72 513.26 0 491.77 3.07 507.23 113.08 528.72 110.06 524.18 77.73 531.05 70.14 563.7 105.15 590 101.45 544.54 55.3"/><path class="cls-1" d="M639.63,66.4l-.06.79c-.52,6.82-4.47,10.66-12.08,11.73-5.8.81-10.25-.48-13.61-3.93s-5.44-7.94-6.59-13.73L659.15,54v-.85a76.82,76.82,0,0,0-.82-10.67,46.78,46.78,0,0,0-3.94-12.75h0A38.59,38.59,0,0,0,646.24,18c-7.49-7.15-17.07-10-28.49-8.37-10.94,1.54-19.61,6.73-25.76,15.42-6.42,9.06-8.74,20.3-6.89,33.42,1.79,12.79,7.11,22.9,15.81,30.05A36.11,36.11,0,0,0,624.23,97a41.81,41.81,0,0,0,5.74-.41c9.24-1.3,16.84-4.94,22.57-10.81a30.27,30.27,0,0,0,8.71-21.29l0-1.15ZM605.5,46.86a23.18,23.18,0,0,1,3.4-13c2.45-3.81,6.2-6,11.48-6.76a19.35,19.35,0,0,1,2.78-.2,13.62,13.62,0,0,1,4.6.73c5.41,2,8.68,6.81,10,14.65Z"/><path class="cls-1" d="M477.68,213c-1.76-12.51-7.92-23.21-17.36-30.16s-21.48-9.7-34.1-7.94c-26.28,3.7-42.72,25.07-39.1,50.83,1.75,12.5,7.95,23.23,17.45,30.22a45.07,45.07,0,0,0,26.9,8.52,52.91,52.91,0,0,0,7.27-.51c12.6-1.77,23.46-7.85,30.58-17.12S479.44,225.52,477.68,213ZM451.3,234.77a22.67,22.67,0,0,1-15.43,8.8c-13.55,1.92-24.4-6.72-26.41-21-1-7.17.41-13.58,4.11-18.54a23,23,0,0,1,15.52-8.76,27.77,27.77,0,0,1,3.81-.27c11.79,0,20.6,8.1,22.43,21.12C456.34,223.35,455,229.79,451.3,234.77Z"/><path class="cls-1" d="M562.67,158.45l-21.5,3,5.73,40.72c.86,7.72-.36,14.22-3.63,19.3a17.28,17.28,0,0,1-5.64,5.36,23.89,23.89,0,0,1-8.79,2.77,11.65,11.65,0,0,1-9.17-2.39c-2.68-2.06-4.4-5.65-5.1-10.67l-7.08-50.35-21.5,3,7.36,52.34a37.11,37.11,0,0,0,4.59,14.09c5.29,9.14,13.64,13.75,24.88,13.75a46.65,46.65,0,0,0,6.62-.49c10.35-1.45,17.63-7,21.71-16.49l1.64,11.69,21.5-3Z"/><path class="cls-1" d="M660.66,204.76a18,18,0,0,0-7.23-12.63c-3.93-2.86-9.32-4.94-16-6.16l-20.13-4.46c-6.27-.89-9.69-3-10.16-6.41-.27-1.9.53-3.71,2.45-5.54s5-3.14,9.12-3.71,7.36-.3,9.7.83a7.16,7.16,0,0,1,4.17,5.1l.2.88,20.29-2.86-.17-1a23.37,23.37,0,0,0-11.56-16.51c-6.39-3.85-15-5.06-25.46-3.58s-18.67,4.82-24.34,9.93-8.2,11.49-7.2,18.65c1.5,10.68,9.4,17.51,23.45,20.28l18.49,3.84a24,24,0,0,1,8,2.42,5.88,5.88,0,0,1,2.81,4.58c.29,2.1-.64,4.09-2.85,6.08a17.33,17.33,0,0,1-9.45,3.95c-10.41,1.47-16-1.24-17.24-8.27l-.16-.94-20.16,2.83.15,1c1.35,8.78,5.8,15.22,13.24,19.13a39.5,39.5,0,0,0,18.62,4.16,63.64,63.64,0,0,0,8.81-.65c10.89-1.53,19.42-5.41,25.35-11.54C659.18,218.19,661.63,211.67,660.66,204.76Z"/><path class="cls-1" d="M725.86,193l-.06.79c-.51,6.82-4.47,10.66-12.08,11.73-5.81.8-10.26-.47-13.61-3.93s-5.43-7.94-6.59-13.72l51.86-7.29v-.85a77,77,0,0,0-.81-10.68,47.23,47.23,0,0,0-4-12.74h0a38.41,38.41,0,0,0-8.15-11.69c-7.48-7.16-17.06-10-28.49-8.37-10.94,1.54-19.6,6.73-25.76,15.42-6.41,9.06-8.74,20.3-6.89,33.42,1.8,12.79,7.11,22.9,15.81,30.05a36.1,36.1,0,0,0,23.31,8.47,40.32,40.32,0,0,0,5.75-.41c9.24-1.29,16.84-4.93,22.58-10.81a30.22,30.22,0,0,0,8.7-21.28l0-1.15Zm-34.12-19.54a23.09,23.09,0,0,1,3.39-13c2.45-3.81,6.21-6,11.48-6.76a15.63,15.63,0,0,1,7.38.53c5.41,2,8.68,6.81,10,14.65Z"/><polygon class="cls-1" points="310.32 267.1 305.43 232.31 350.39 226 356.16 267.1 378.08 267.1 362.9 159.06 341.4 162.08 347.72 206.98 302.76 213.3 296.45 168.39 274.95 171.42 288.4 267.1 310.32 267.1"/><polygon class="cls-1" points="230.82 39.91 0 72.35 27.37 267.1 262.74 267.1 230.82 39.91"/></g></g></svg>