<?xml version="1.0" encoding="UTF-8" standalone="no"?><!DOCTYPE svg PUBLIC "-//W3C//DTD SVG 1.1//EN" "http://www.w3.org/Graphics/SVG/1.1/DTD/svg11.dtd"><svg width="100%" height="100%" viewBox="0 0 364 122" version="1.1" xmlns="http://www.w3.org/2000/svg" xmlns:xlink="http://www.w3.org/1999/xlink" xml:space="preserve" style="fill-rule:evenodd;clip-rule:evenodd;stroke-linecap:round;stroke-linejoin:round;stroke-miterlimit:10;"><path d="M124.939,104.067c0,-0.816 -0.212,-1.423 -0.641,-1.824c-0.427,-0.4 -1.048,-0.601 -1.863,-0.601c-0.562,0 -1.083,0.101 -1.563,0.301c-0.481,0.2 -0.888,0.467 -1.223,0.801l-0.761,-0.901c0.388,-0.389 0.899,-0.71 1.533,-0.962c0.635,-0.255 1.352,-0.381 2.154,-0.381c0.509,0 0.982,0.07 1.423,0.21c0.44,0.141 0.829,0.351 1.162,0.632c0.335,0.28 0.595,0.633 0.781,1.062c0.189,0.427 0.281,0.928 0.281,1.503l0,4.108c0,0.36 0.014,0.733 0.04,1.122c0.028,0.387 0.068,0.713 0.12,0.982l-1.222,0c-0.04,-0.229 -0.072,-0.475 -0.1,-0.742c-0.026,-0.268 -0.04,-0.529 -0.04,-0.781l-0.04,0c-0.427,0.627 -0.912,1.078 -1.453,1.353c-0.541,0.272 -1.193,0.41 -1.954,0.41c-0.361,0 -0.732,-0.05 -1.112,-0.15c-0.381,-0.1 -0.728,-0.264 -1.042,-0.491c-0.313,-0.228 -0.573,-0.521 -0.782,-0.882c-0.206,-0.36 -0.31,-0.801 -0.31,-1.322c0,-0.722 0.184,-1.293 0.551,-1.714c0.368,-0.42 0.859,-0.735 1.473,-0.941c0.615,-0.209 1.32,-0.341 2.114,-0.401c0.795,-0.06 1.621,-0.09 2.474,-0.09l0,-0.301Zm-0.4,1.363c-0.561,0 -1.125,0.022 -1.694,0.07c-0.567,0.046 -1.082,0.14 -1.543,0.28c-0.461,0.141 -0.837,0.343 -1.132,0.612c-0.292,0.266 -0.441,0.621 -0.441,1.062c0,0.332 0.064,0.613 0.191,0.841c0.128,0.227 0.298,0.411 0.511,0.551c0.214,0.141 0.451,0.241 0.711,0.301c0.261,0.06 0.525,0.09 0.792,0.09c0.481,0 0.909,-0.084 1.282,-0.25c0.375,-0.169 0.689,-0.395 0.942,-0.682c0.254,-0.288 0.449,-0.619 0.581,-0.992c0.134,-0.374 0.2,-0.769 0.2,-1.182l0,-0.701l-0.4,0Z" style="fill:#185c63;fill-rule:nonzero;"/><path d="M140.69,102.885c-0.226,-0.361 -0.557,-0.66 -0.992,-0.892c-0.433,-0.234 -0.903,-0.351 -1.412,-0.351c-0.548,0 -1.043,0.096 -1.483,0.291c-0.441,0.192 -0.818,0.461 -1.133,0.801c-0.312,0.341 -0.553,0.742 -0.721,1.203c-0.166,0.461 -0.25,0.958 -0.25,1.493c0,0.533 0.084,1.028 0.25,1.483c0.168,0.452 0.405,0.851 0.711,1.192c0.309,0.341 0.682,0.607 1.123,0.801c0.44,0.193 0.935,0.291 1.482,0.291c0.602,0 1.111,-0.114 1.523,-0.341c0.415,-0.228 0.756,-0.521 1.022,-0.881l1.022,0.761c-0.4,0.493 -0.891,0.888 -1.472,1.182c-0.582,0.293 -1.279,0.441 -2.095,0.441c-0.761,0 -1.448,-0.124 -2.064,-0.37c-0.613,-0.249 -1.138,-0.592 -1.573,-1.032c-0.432,-0.441 -0.771,-0.962 -1.012,-1.563c-0.24,-0.602 -0.36,-1.257 -0.36,-1.964c0,-0.71 0.12,-1.363 0.36,-1.964c0.241,-0.601 0.58,-1.122 1.012,-1.563c0.435,-0.441 0.96,-0.786 1.573,-1.032c0.616,-0.249 1.303,-0.371 2.064,-0.371c0.63,0 1.267,0.136 1.914,0.411c0.649,0.272 1.172,0.677 1.573,1.212l-1.062,0.762Z" style="fill:#185c63;fill-rule:nonzero;"/><path d="M152.874,105.43c0,0.707 -0.122,1.362 -0.371,1.964c-0.246,0.601 -0.591,1.122 -1.032,1.563c-0.441,0.44 -0.968,0.783 -1.583,1.032c-0.613,0.246 -1.288,0.37 -2.024,0.37c-0.721,0 -1.389,-0.124 -2.004,-0.37c-0.613,-0.249 -1.142,-0.592 -1.583,-1.032c-0.441,-0.441 -0.783,-0.962 -1.032,-1.563c-0.246,-0.602 -0.371,-1.257 -0.371,-1.964c0,-0.71 0.125,-1.363 0.371,-1.964c0.249,-0.601 0.591,-1.122 1.032,-1.563c0.441,-0.441 0.97,-0.786 1.583,-1.032c0.615,-0.249 1.283,-0.371 2.004,-0.371c0.736,0 1.411,0.122 2.024,0.371c0.615,0.246 1.142,0.591 1.583,1.032c0.441,0.441 0.786,0.962 1.032,1.563c0.249,0.601 0.371,1.254 0.371,1.964Zm-1.443,0c0,-0.521 -0.082,-1.012 -0.25,-1.473c-0.167,-0.461 -0.403,-0.862 -0.712,-1.203c-0.306,-0.34 -0.681,-0.611 -1.122,-0.811c-0.441,-0.2 -0.934,-0.301 -1.483,-0.301c-0.547,0 -1.038,0.101 -1.473,0.301c-0.433,0.2 -0.803,0.471 -1.112,0.811c-0.306,0.341 -0.543,0.742 -0.711,1.203c-0.167,0.461 -0.251,0.952 -0.251,1.473c0,0.521 0.084,1.012 0.251,1.473c0.168,0.46 0.405,0.861 0.711,1.202c0.309,0.341 0.679,0.607 1.112,0.801c0.435,0.193 0.926,0.291 1.473,0.291c0.549,0 1.042,-0.098 1.483,-0.291c0.441,-0.194 0.816,-0.46 1.122,-0.801c0.309,-0.341 0.545,-0.742 0.712,-1.202c0.168,-0.461 0.25,-0.952 0.25,-1.473Z" style="fill:#185c63;fill-rule:nonzero;"/><rect x="154.557" y="104.688" width="4.489" height="1.142" style="fill:#185c63;fill-rule:nonzero;"/><path d="M170.729,105.43c0,0.707 -0.122,1.362 -0.371,1.964c-0.246,0.601 -0.591,1.122 -1.032,1.563c-0.441,0.44 -0.968,0.783 -1.583,1.032c-0.613,0.246 -1.289,0.37 -2.024,0.37c-0.721,0 -1.389,-0.124 -2.004,-0.37c-0.613,-0.249 -1.142,-0.592 -1.583,-1.032c-0.441,-0.441 -0.783,-0.962 -1.032,-1.563c-0.246,-0.602 -0.371,-1.257 -0.371,-1.964c0,-0.71 0.125,-1.363 0.371,-1.964c0.249,-0.601 0.591,-1.122 1.032,-1.563c0.441,-0.441 0.97,-0.786 1.583,-1.032c0.615,-0.249 1.283,-0.371 2.004,-0.371c0.735,0 1.411,0.122 2.024,0.371c0.615,0.246 1.142,0.591 1.583,1.032c0.441,0.441 0.786,0.962 1.032,1.563c0.249,0.601 0.371,1.254 0.371,1.964Zm-1.443,0c0,-0.521 -0.082,-1.012 -0.25,-1.473c-0.167,-0.461 -0.403,-0.862 -0.712,-1.203c-0.306,-0.34 -0.681,-0.611 -1.122,-0.811c-0.441,-0.2 -0.934,-0.301 -1.483,-0.301c-0.547,0 -1.038,0.101 -1.473,0.301c-0.433,0.2 -0.803,0.471 -1.112,0.811c-0.307,0.341 -0.543,0.742 -0.711,1.203c-0.167,0.461 -0.251,0.952 -0.251,1.473c0,0.521 0.084,1.012 0.251,1.473c0.168,0.46 0.404,0.861 0.711,1.202c0.309,0.341 0.679,0.607 1.112,0.801c0.435,0.193 0.926,0.291 1.473,0.291c0.549,0 1.042,-0.098 1.483,-0.291c0.441,-0.194 0.816,-0.46 1.122,-0.801c0.309,-0.341 0.545,-0.742 0.712,-1.202c0.168,-0.461 0.25,-0.952 0.25,-1.473Z" style="fill:#185c63;fill-rule:nonzero;"/><path d="M174.616,114.928l-1.362,0l0,-14.187l1.362,0l0,1.623l0.061,0c0.388,-0.615 0.905,-1.08 1.553,-1.393c0.649,-0.315 1.306,-0.471 1.973,-0.471c0.736,0 1.401,0.126 1.994,0.381c0.595,0.252 1.102,0.601 1.523,1.042c0.421,0.441 0.75,0.962 0.982,1.563c0.235,0.601 0.351,1.248 0.351,1.944c0,0.693 -0.116,1.342 -0.351,1.943c-0.232,0.602 -0.561,1.123 -0.982,1.564c-0.421,0.44 -0.928,0.787 -1.523,1.042c-0.593,0.252 -1.258,0.38 -1.994,0.38c-0.667,0 -1.324,-0.158 -1.973,-0.471c-0.648,-0.314 -1.165,-0.765 -1.553,-1.352l-0.061,0l0,6.392Zm6.994,-9.498c0,-0.521 -0.08,-1.012 -0.24,-1.473c-0.161,-0.461 -0.391,-0.862 -0.692,-1.203c-0.3,-0.34 -0.671,-0.611 -1.112,-0.811c-0.441,-0.2 -0.942,-0.301 -1.503,-0.301c-0.521,0 -1.002,0.096 -1.443,0.291c-0.441,0.192 -0.821,0.461 -1.142,0.801c-0.321,0.341 -0.571,0.742 -0.751,1.203c-0.181,0.461 -0.271,0.958 -0.271,1.493c0,0.533 0.09,1.032 0.271,1.493c0.18,0.461 0.43,0.857 0.751,1.192c0.321,0.333 0.701,0.597 1.142,0.791c0.441,0.193 0.922,0.291 1.443,0.291c0.561,0 1.062,-0.098 1.503,-0.291c0.441,-0.194 0.812,-0.46 1.112,-0.801c0.301,-0.341 0.531,-0.742 0.692,-1.202c0.16,-0.461 0.24,-0.952 0.24,-1.473Z" style="fill:#185c63;fill-rule:nonzero;"/><path d="M192.732,104.708c-0.04,-0.881 -0.323,-1.613 -0.852,-2.194c-0.527,-0.581 -1.278,-0.872 -2.254,-0.872c-0.453,0 -0.874,0.082 -1.263,0.251c-0.387,0.166 -0.727,0.393 -1.022,0.681c-0.292,0.287 -0.527,0.613 -0.701,0.982c-0.172,0.367 -0.273,0.752 -0.301,1.152l6.393,0Zm1.382,0.441c0,0.092 0,0.193 0,0.301c0,0.106 -0.006,0.22 -0.02,0.34l-7.775,0c0.014,0.467 0.108,0.908 0.281,1.323c0.174,0.413 0.415,0.773 0.721,1.082c0.309,0.307 0.669,0.551 1.082,0.732c0.415,0.18 0.862,0.27 1.343,0.27c0.709,0 1.32,-0.164 1.833,-0.491c0.515,-0.329 0.906,-0.705 1.173,-1.132l1.022,0.801c-0.561,0.708 -1.179,1.215 -1.854,1.523c-0.673,0.307 -1.399,0.461 -2.174,0.461c-0.693,0 -1.339,-0.124 -1.934,-0.37c-0.593,-0.249 -1.104,-0.592 -1.533,-1.032c-0.427,-0.441 -0.763,-0.962 -1.012,-1.563c-0.246,-0.602 -0.371,-1.257 -0.371,-1.964c0,-0.71 0.121,-1.363 0.361,-1.964c0.241,-0.601 0.575,-1.122 1.002,-1.563c0.429,-0.441 0.93,-0.786 1.503,-1.032c0.575,-0.249 1.196,-0.371 1.864,-0.371c0.735,0 1.382,0.122 1.943,0.371c0.562,0.246 1.03,0.581 1.403,1.002c0.375,0.421 0.659,0.912 0.852,1.473c0.194,0.561 0.29,1.162 0.29,1.803Z" style="fill:#185c63;fill-rule:nonzero;"/><path d="M196.639,102.805c0,-0.255 -0.006,-0.582 -0.02,-0.982c-0.012,-0.401 -0.032,-0.762 -0.06,-1.082l1.303,0c0.028,0.252 0.048,0.533 0.06,0.841c0.014,0.307 0.02,0.561 0.02,0.762l0.04,0c0.269,-0.549 0.669,-0.992 1.202,-1.333c0.535,-0.341 1.137,-0.511 1.804,-0.511c0.174,0 0.33,0.006 0.471,0.02c0.14,0.012 0.284,0.04 0.431,0.08l-0.181,1.283c-0.08,-0.028 -0.212,-0.054 -0.401,-0.08c-0.186,-0.028 -0.372,-0.04 -0.561,-0.04c-0.36,0 -0.707,0.066 -1.042,0.2c-0.332,0.132 -0.623,0.343 -0.871,0.631c-0.247,0.287 -0.447,0.653 -0.602,1.102c-0.152,0.447 -0.23,0.984 -0.23,1.613l0,4.81l-1.363,0l0,-7.314Z" style="fill:#185c63;fill-rule:nonzero;"/><path d="M209.124,104.067c0,-0.816 -0.213,-1.423 -0.642,-1.824c-0.426,-0.4 -1.048,-0.601 -1.863,-0.601c-0.561,0 -1.082,0.101 -1.563,0.301c-0.481,0.2 -0.888,0.467 -1.223,0.801l-0.761,-0.901c0.389,-0.389 0.9,-0.71 1.533,-0.962c0.635,-0.255 1.353,-0.381 2.154,-0.381c0.509,0 0.982,0.07 1.423,0.21c0.441,0.141 0.829,0.351 1.162,0.632c0.335,0.28 0.595,0.633 0.782,1.062c0.188,0.427 0.28,0.928 0.28,1.503l0,4.108c0,0.36 0.014,0.733 0.04,1.122c0.028,0.387 0.068,0.713 0.121,0.982l-1.223,0c-0.04,-0.229 -0.072,-0.475 -0.1,-0.742c-0.026,-0.268 -0.04,-0.529 -0.04,-0.781l-0.04,0c-0.427,0.627 -0.912,1.078 -1.453,1.353c-0.541,0.272 -1.192,0.41 -1.954,0.41c-0.361,0 -0.731,-0.05 -1.112,-0.15c-0.381,-0.1 -0.727,-0.264 -1.042,-0.491c-0.313,-0.228 -0.573,-0.521 -0.782,-0.882c-0.206,-0.36 -0.31,-0.801 -0.31,-1.322c0,-0.722 0.184,-1.293 0.551,-1.714c0.369,-0.42 0.86,-0.735 1.473,-0.941c0.615,-0.209 1.32,-0.341 2.114,-0.401c0.795,-0.06 1.621,-0.09 2.475,-0.09l0,-0.301Zm-0.401,1.363c-0.561,0 -1.124,0.022 -1.693,0.07c-0.567,0.046 -1.082,0.14 -1.543,0.28c-0.461,0.141 -0.838,0.343 -1.133,0.612c-0.292,0.266 -0.44,0.621 -0.44,1.062c0,0.332 0.064,0.613 0.19,0.841c0.128,0.227 0.299,0.411 0.511,0.551c0.214,0.141 0.451,0.241 0.711,0.301c0.261,0.06 0.525,0.09 0.792,0.09c0.481,0 0.91,-0.084 1.282,-0.25c0.375,-0.169 0.69,-0.395 0.942,-0.682c0.255,-0.288 0.449,-0.619 0.581,-0.992c0.135,-0.374 0.201,-0.769 0.201,-1.182l0,-0.701l-0.401,0Z" style="fill:#185c63;fill-rule:nonzero;"/><path d="M217.54,101.883l-2.645,0l0,5.47c0,0.347 0.034,0.634 0.1,0.862c0.068,0.227 0.164,0.403 0.291,0.531c0.128,0.126 0.278,0.213 0.451,0.261c0.174,0.046 0.36,0.07 0.561,0.07c0.188,0 0.384,-0.028 0.591,-0.08c0.208,-0.054 0.405,-0.129 0.591,-0.221l0.06,1.183c-0.24,0.092 -0.491,0.162 -0.751,0.21c-0.261,0.046 -0.543,0.07 -0.852,0.07c-0.252,0 -0.521,-0.034 -0.802,-0.1c-0.28,-0.068 -0.541,-0.194 -0.781,-0.381c-0.241,-0.188 -0.437,-0.441 -0.591,-0.761c-0.153,-0.321 -0.231,-0.742 -0.231,-1.263l0,-5.851l-1.943,0l0,-1.142l1.943,0l0,-2.646l1.363,0l0,2.646l2.645,0l0,1.142Z" style="fill:#185c63;fill-rule:nonzero;"/><path d="M220.646,110.119l-1.362,0l0,-9.378l1.362,0l0,9.378Zm0.281,-12.985c0,0.28 -0.1,0.511 -0.301,0.691c-0.2,0.18 -0.421,0.27 -0.661,0.27c-0.241,0 -0.461,-0.09 -0.661,-0.27c-0.201,-0.18 -0.301,-0.411 -0.301,-0.691c0,-0.281 0.1,-0.511 0.301,-0.692c0.2,-0.18 0.42,-0.27 0.661,-0.27c0.24,0 0.461,0.09 0.661,0.27c0.201,0.181 0.301,0.411 0.301,0.692Z" style="fill:#185c63;fill-rule:nonzero;"/><path d="M227.72,110.119l-1.503,0l-3.827,-9.378l1.523,0l3.046,7.935l0.04,0l3.066,-7.935l1.462,0l-3.807,9.378Z" style="fill:#185c63;fill-rule:nonzero;"/><path d="M240.405,104.708c-0.04,-0.881 -0.323,-1.613 -0.852,-2.194c-0.527,-0.581 -1.278,-0.872 -2.254,-0.872c-0.453,0 -0.874,0.082 -1.263,0.251c-0.387,0.166 -0.727,0.393 -1.022,0.681c-0.292,0.287 -0.527,0.613 -0.701,0.982c-0.172,0.367 -0.273,0.752 -0.301,1.152l6.393,0Zm1.382,0.441c0,0.092 0,0.193 0,0.301c0,0.106 -0.006,0.22 -0.02,0.34l-7.775,0c0.014,0.467 0.108,0.908 0.281,1.323c0.174,0.413 0.415,0.773 0.721,1.082c0.309,0.307 0.669,0.551 1.082,0.732c0.415,0.18 0.862,0.27 1.343,0.27c0.709,0 1.32,-0.164 1.834,-0.491c0.515,-0.329 0.905,-0.705 1.172,-1.132l1.022,0.801c-0.561,0.708 -1.179,1.215 -1.854,1.523c-0.673,0.307 -1.399,0.461 -2.174,0.461c-0.693,0 -1.339,-0.124 -1.934,-0.37c-0.593,-0.249 -1.104,-0.592 -1.533,-1.032c-0.427,-0.441 -0.763,-0.962 -1.012,-1.563c-0.246,-0.602 -0.371,-1.257 -0.371,-1.964c0,-0.71 0.121,-1.363 0.361,-1.964c0.241,-0.601 0.575,-1.122 1.002,-1.563c0.429,-0.441 0.93,-0.786 1.503,-1.032c0.575,-0.249 1.196,-0.371 1.864,-0.371c0.735,0 1.382,0.122 1.943,0.371c0.562,0.246 1.03,0.581 1.403,1.002c0.375,0.421 0.66,0.912 0.852,1.473c0.194,0.561 0.29,1.162 0.29,1.803Z" style="fill:#185c63;fill-rule:nonzero;"/><path d="M255.675,102.885c-0.227,-0.361 -0.558,-0.66 -0.992,-0.892c-0.433,-0.234 -0.904,-0.351 -1.413,-0.351c-0.547,0 -1.042,0.096 -1.483,0.291c-0.441,0.192 -0.818,0.461 -1.132,0.801c-0.313,0.341 -0.553,0.742 -0.722,1.203c-0.166,0.461 -0.25,0.958 -0.25,1.493c0,0.533 0.084,1.028 0.25,1.483c0.169,0.452 0.405,0.851 0.712,1.192c0.308,0.341 0.681,0.607 1.122,0.801c0.441,0.193 0.936,0.291 1.483,0.291c0.601,0 1.11,-0.114 1.523,-0.341c0.415,-0.228 0.755,-0.521 1.022,-0.881l1.022,0.761c-0.401,0.493 -0.892,0.888 -1.473,1.182c-0.581,0.293 -1.279,0.441 -2.094,0.441c-0.762,0 -1.449,-0.124 -2.064,-0.37c-0.613,-0.249 -1.138,-0.592 -1.573,-1.032c-0.433,-0.441 -0.772,-0.962 -1.012,-1.563c-0.241,-0.602 -0.361,-1.257 -0.361,-1.964c0,-0.71 0.12,-1.363 0.361,-1.964c0.24,-0.601 0.579,-1.122 1.012,-1.563c0.435,-0.441 0.96,-0.786 1.573,-1.032c0.615,-0.249 1.302,-0.371 2.064,-0.371c0.629,0 1.266,0.136 1.914,0.411c0.649,0.272 1.172,0.677 1.573,1.212l-1.062,0.762Z" style="fill:#185c63;fill-rule:nonzero;"/><path d="M267.858,105.43c0,0.707 -0.122,1.362 -0.37,1.964c-0.247,0.601 -0.592,1.122 -1.032,1.563c-0.441,0.44 -0.968,0.783 -1.584,1.032c-0.613,0.246 -1.288,0.37 -2.023,0.37c-0.722,0 -1.389,-0.124 -2.004,-0.37c-0.614,-0.249 -1.143,-0.592 -1.583,-1.032c-0.441,-0.441 -0.784,-0.962 -1.032,-1.563c-0.247,-0.602 -0.371,-1.257 -0.371,-1.964c0,-0.71 0.124,-1.363 0.371,-1.964c0.248,-0.601 0.591,-1.122 1.032,-1.563c0.44,-0.441 0.969,-0.786 1.583,-1.032c0.615,-0.249 1.282,-0.371 2.004,-0.371c0.735,0 1.41,0.122 2.023,0.371c0.616,0.246 1.143,0.591 1.584,1.032c0.44,0.441 0.785,0.962 1.032,1.563c0.248,0.601 0.37,1.254 0.37,1.964Zm-1.443,0c0,-0.521 -0.082,-1.012 -0.25,-1.473c-0.166,-0.461 -0.403,-0.862 -0.711,-1.203c-0.307,-0.34 -0.682,-0.611 -1.123,-0.811c-0.44,-0.2 -0.933,-0.301 -1.482,-0.301c-0.548,0 -1.038,0.101 -1.473,0.301c-0.433,0.2 -0.804,0.471 -1.113,0.811c-0.306,0.341 -0.543,0.742 -0.711,1.203c-0.166,0.461 -0.25,0.952 -0.25,1.473c0,0.521 0.084,1.012 0.25,1.473c0.168,0.46 0.405,0.861 0.711,1.202c0.309,0.341 0.68,0.607 1.113,0.801c0.435,0.193 0.925,0.291 1.473,0.291c0.549,0 1.042,-0.098 1.482,-0.291c0.441,-0.194 0.816,-0.46 1.123,-0.801c0.308,-0.341 0.545,-0.742 0.711,-1.202c0.168,-0.461 0.25,-0.952 0.25,-1.473Z" style="fill:#185c63;fill-rule:nonzero;"/><path d="M271.606,100.741c0.028,0.252 0.048,0.533 0.06,0.841c0.014,0.307 0.02,0.561 0.02,0.762l0.04,0c0.268,-0.549 0.701,-0.992 1.302,-1.333c0.602,-0.341 1.237,-0.511 1.904,-0.511c1.19,0 2.082,0.353 2.675,1.062c0.595,0.708 0.892,1.643 0.892,2.806l0,5.751l-1.363,0l0,-5.19c0,-0.495 -0.04,-0.942 -0.12,-1.343c-0.08,-0.401 -0.216,-0.745 -0.411,-1.032c-0.192,-0.288 -0.453,-0.511 -0.781,-0.671c-0.327,-0.161 -0.738,-0.241 -1.233,-0.241c-0.36,0 -0.711,0.072 -1.052,0.221c-0.34,0.146 -0.643,0.37 -0.911,0.671c-0.267,0.301 -0.481,0.681 -0.642,1.142c-0.16,0.461 -0.24,1.004 -0.24,1.633l0,4.81l-1.363,0l0,-7.314c0,-0.255 -0.006,-0.582 -0.02,-0.982c-0.012,-0.401 -0.032,-0.762 -0.06,-1.082l1.303,0Z" style="fill:#185c63;fill-rule:nonzero;"/><path d="M286.615,102.965c-0.2,-0.389 -0.503,-0.705 -0.912,-0.952c-0.407,-0.248 -0.872,-0.371 -1.393,-0.371c-0.24,0 -0.481,0.026 -0.721,0.08c-0.24,0.053 -0.453,0.141 -0.641,0.261c-0.187,0.12 -0.337,0.273 -0.451,0.461c-0.112,0.186 -0.17,0.407 -0.17,0.661c0,0.441 0.18,0.778 0.541,1.012c0.36,0.233 0.929,0.431 1.703,0.591c1.11,0.227 1.928,0.557 2.455,0.992c0.529,0.433 0.791,1.018 0.791,1.754c0,0.533 -0.102,0.984 -0.31,1.352c-0.207,0.367 -0.477,0.668 -0.812,0.902c-0.333,0.232 -0.711,0.401 -1.132,0.501c-0.421,0.1 -0.844,0.15 -1.273,0.15c-0.707,0 -1.394,-0.148 -2.064,-0.441c-0.667,-0.294 -1.214,-0.755 -1.643,-1.382l1.082,-0.802c0.241,0.413 0.595,0.762 1.062,1.042c0.469,0.281 0.982,0.421 1.543,0.421c0.295,0 0.575,-0.028 0.842,-0.08c0.268,-0.054 0.501,-0.148 0.701,-0.281c0.201,-0.134 0.361,-0.304 0.481,-0.511c0.121,-0.208 0.181,-0.465 0.181,-0.771c0,-0.495 -0.237,-0.866 -0.712,-1.112c-0.473,-0.249 -1.158,-0.479 -2.054,-0.692c-0.28,-0.068 -0.577,-0.15 -0.892,-0.25c-0.312,-0.1 -0.603,-0.249 -0.871,-0.441c-0.267,-0.194 -0.487,-0.439 -0.661,-0.731c-0.173,-0.295 -0.261,-0.662 -0.261,-1.103c0,-0.481 0.094,-0.891 0.281,-1.232c0.188,-0.341 0.438,-0.621 0.751,-0.842c0.315,-0.22 0.671,-0.384 1.072,-0.491c0.401,-0.108 0.816,-0.16 1.243,-0.16c0.655,0 1.29,0.146 1.903,0.441c0.615,0.293 1.076,0.707 1.383,1.242l-1.042,0.782Z" style="fill:#185c63;fill-rule:nonzero;"/><path d="M296.935,110.119c-0.026,-0.255 -0.046,-0.535 -0.06,-0.842c-0.012,-0.308 -0.02,-0.561 -0.02,-0.761l-0.04,0c-0.267,0.547 -0.702,0.992 -1.303,1.332c-0.601,0.341 -1.234,0.511 -1.903,0.511c-1.189,0 -2.081,-0.354 -2.676,-1.062c-0.593,-0.709 -0.891,-1.643 -0.891,-2.805l0,-5.751l1.362,0l0,5.19c0,0.493 0.04,0.942 0.12,1.342c0.081,0.401 0.219,0.744 0.411,1.032c0.195,0.287 0.455,0.511 0.782,0.672c0.328,0.16 0.739,0.24 1.232,0.24c0.361,0 0.712,-0.074 1.052,-0.22c0.341,-0.149 0.646,-0.371 0.912,-0.672c0.269,-0.3 0.481,-0.681 0.641,-1.142c0.161,-0.461 0.241,-1.006 0.241,-1.633l0,-4.809l1.362,0l0,7.314c0,0.252 0.008,0.581 0.02,0.982c0.014,0.401 0.035,0.761 0.061,1.082l-1.303,0Z" style="fill:#185c63;fill-rule:nonzero;"/><rect x="301.404" y="94.969" width="1.363" height="15.15" style="fill:#185c63;fill-rule:nonzero;"/><path d="M310.241,101.883l-2.645,0l0,5.47c0,0.347 0.034,0.634 0.1,0.862c0.068,0.227 0.164,0.403 0.291,0.531c0.128,0.126 0.278,0.213 0.45,0.261c0.175,0.046 0.361,0.07 0.562,0.07c0.188,0 0.384,-0.028 0.591,-0.08c0.208,-0.054 0.405,-0.129 0.591,-0.221l0.06,1.183c-0.24,0.092 -0.491,0.162 -0.751,0.21c-0.261,0.046 -0.544,0.07 -0.852,0.07c-0.253,0 -0.521,-0.034 -0.802,-0.1c-0.28,-0.068 -0.541,-0.194 -0.781,-0.381c-0.241,-0.188 -0.437,-0.441 -0.591,-0.761c-0.153,-0.321 -0.231,-0.742 -0.231,-1.263l0,-5.851l-1.944,0l0,-1.142l1.944,0l0,-2.646l1.363,0l0,2.646l2.645,0l0,1.142Z" style="fill:#185c63;fill-rule:nonzero;"/><path d="M317.876,104.067c0,-0.816 -0.213,-1.423 -0.641,-1.824c-0.427,-0.4 -1.048,-0.601 -1.864,-0.601c-0.561,0 -1.082,0.101 -1.563,0.301c-0.481,0.2 -0.888,0.467 -1.222,0.801l-0.762,-0.901c0.389,-0.389 0.9,-0.71 1.533,-0.962c0.635,-0.255 1.353,-0.381 2.154,-0.381c0.509,0 0.982,0.07 1.423,0.21c0.441,0.141 0.83,0.351 1.162,0.632c0.335,0.28 0.595,0.633 0.782,1.062c0.188,0.427 0.28,0.928 0.28,1.503l0,4.108c0,0.36 0.014,0.733 0.04,1.122c0.029,0.387 0.069,0.713 0.121,0.982l-1.223,0c-0.04,-0.229 -0.072,-0.475 -0.1,-0.742c-0.026,-0.268 -0.04,-0.529 -0.04,-0.781l-0.04,0c-0.427,0.627 -0.912,1.078 -1.453,1.353c-0.541,0.272 -1.192,0.41 -1.954,0.41c-0.36,0 -0.731,-0.05 -1.112,-0.15c-0.381,-0.1 -0.727,-0.264 -1.042,-0.491c-0.312,-0.228 -0.573,-0.521 -0.781,-0.882c-0.207,-0.36 -0.311,-0.801 -0.311,-1.322c0,-0.722 0.184,-1.293 0.551,-1.714c0.369,-0.42 0.86,-0.735 1.473,-0.941c0.615,-0.209 1.321,-0.341 2.114,-0.401c0.796,-0.06 1.621,-0.09 2.475,-0.09l0,-0.301Zm-0.401,1.363c-0.561,0 -1.124,0.022 -1.693,0.07c-0.567,0.046 -1.082,0.14 -1.543,0.28c-0.461,0.141 -0.838,0.343 -1.132,0.612c-0.293,0.266 -0.441,0.621 -0.441,1.062c0,0.332 0.064,0.613 0.19,0.841c0.128,0.227 0.299,0.411 0.511,0.551c0.215,0.141 0.451,0.241 0.711,0.301c0.261,0.06 0.526,0.09 0.792,0.09c0.481,0 0.91,-0.084 1.283,-0.25c0.374,-0.169 0.689,-0.395 0.941,-0.682c0.255,-0.288 0.449,-0.619 0.582,-0.992c0.134,-0.374 0.2,-0.769 0.2,-1.182l0,-0.701l-0.401,0Z" style="fill:#185c63;fill-rule:nonzero;"/><path d="M323.487,100.741c0.028,0.252 0.048,0.533 0.06,0.841c0.014,0.307 0.02,0.561 0.02,0.762l0.04,0c0.269,-0.549 0.701,-0.992 1.303,-1.333c0.601,-0.341 1.236,-0.511 1.903,-0.511c1.191,0 2.082,0.353 2.676,1.062c0.595,0.708 0.891,1.643 0.891,2.806l0,5.751l-1.362,0l0,-5.19c0,-0.495 -0.04,-0.942 -0.121,-1.343c-0.08,-0.401 -0.216,-0.745 -0.41,-1.032c-0.193,-0.288 -0.453,-0.511 -0.782,-0.671c-0.327,-0.161 -0.737,-0.241 -1.232,-0.241c-0.361,0 -0.712,0.072 -1.052,0.221c-0.341,0.146 -0.644,0.37 -0.912,0.671c-0.267,0.301 -0.481,0.681 -0.641,1.142c-0.161,0.461 -0.241,1.004 -0.241,1.633l0,4.81l-1.363,0l0,-7.314c0,-0.255 -0.006,-0.582 -0.02,-0.982c-0.012,-0.401 -0.032,-0.762 -0.06,-1.082l1.303,0Z" style="fill:#185c63;fill-rule:nonzero;"/><path d="M340.26,102.885c-0.227,-0.361 -0.558,-0.66 -0.992,-0.892c-0.433,-0.234 -0.904,-0.351 -1.413,-0.351c-0.547,0 -1.042,0.096 -1.483,0.291c-0.441,0.192 -0.818,0.461 -1.132,0.801c-0.313,0.341 -0.553,0.742 -0.722,1.203c-0.166,0.461 -0.25,0.958 -0.25,1.493c0,0.533 0.084,1.028 0.25,1.483c0.169,0.452 0.405,0.851 0.712,1.192c0.308,0.341 0.681,0.607 1.122,0.801c0.441,0.193 0.936,0.291 1.483,0.291c0.601,0 1.11,-0.114 1.523,-0.341c0.415,-0.228 0.755,-0.521 1.022,-0.881l1.022,0.761c-0.401,0.493 -0.892,0.888 -1.473,1.182c-0.581,0.293 -1.279,0.441 -2.094,0.441c-0.762,0 -1.449,-0.124 -2.064,-0.37c-0.613,-0.249 -1.138,-0.592 -1.573,-1.032c-0.433,-0.441 -0.772,-0.962 -1.012,-1.563c-0.241,-0.602 -0.361,-1.257 -0.361,-1.964c0,-0.71 0.12,-1.363 0.361,-1.964c0.24,-0.601 0.579,-1.122 1.012,-1.563c0.435,-0.441 0.96,-0.786 1.573,-1.032c0.615,-0.249 1.302,-0.371 2.064,-0.371c0.629,0 1.266,0.136 1.914,0.411c0.649,0.272 1.172,0.677 1.573,1.212l-1.062,0.762Z" style="fill:#185c63;fill-rule:nonzero;"/><path d="M346.351,108.656l0.041,0l2.905,-7.915l1.483,0l-4.669,11.803c-0.281,0.721 -0.637,1.298 -1.072,1.733c-0.433,0.433 -1.058,0.651 -1.874,0.651c-0.413,0 -0.821,-0.04 -1.222,-0.12l0.14,-1.242c0.321,0.106 0.655,0.16 1.002,0.16c0.469,0 0.836,-0.144 1.102,-0.431c0.269,-0.289 0.501,-0.699 0.702,-1.232l0.761,-1.964l-4.008,-9.358l1.523,0l3.186,7.915Z" style="fill:#185c63;fill-rule:nonzero;"/><path d="M155.958,78.171c-5.421,1.442 -9.905,2.212 -13.739,2.212c-11.494,0 -15.981,-7.118 -15.981,-24.72c0,-10.389 2.431,-20.007 8.599,-20.007c7.102,0 11.216,13.851 15.981,13.851c3.084,0 5.14,-7.022 5.14,-13.467c-6.821,-2.116 -13.55,-3.27 -19.72,-3.27c-15.234,0 -26.823,7.214 -26.823,24.72c0,19.815 14.3,26.067 29.534,26.067c5.795,0 11.683,-0.866 17.009,-2.308l0,-3.078Z" style="fill:#185c63;fill-rule:nonzero;"/><path d="M213.063,61.049c0.656,-2.693 0.936,-5.29 0.936,-7.695c0,-12.697 -9.16,-20.584 -23.46,-20.584c-17.664,0 -25.888,11.35 -25.888,25.393c0,19.527 14.767,25.394 29.628,25.394c5.887,0 11.869,-0.962 16.917,-2.308l0,-3.078c-5.329,1.442 -10.002,2.116 -14.02,2.116c-10.001,0 -15.983,-4.81 -16.636,-19.238l32.523,0Zm-23.363,-25.393c7.102,0 8.41,6.829 8.41,15.582l0,6.925l-17.57,0c0,-12.408 0.467,-22.507 9.16,-22.507Z" style="fill:#185c63;fill-rule:nonzero;"/><path d="M222.69,37.002l7.479,0l0,30.299c0,12.12 8.877,16.256 18.223,16.256c4.393,0 8.88,-0.866 12.619,-2.308l0,-2.886c-2.523,0.962 -4.86,1.539 -7.01,1.539c-4.581,0 -7.945,-2.597 -7.945,-9.234l0,-33.666l14.019,0l0,-2.885l-14.019,0l0,-14.429l-4.673,0c-3.645,0 -4.766,0.578 -6.074,3.175l-3.178,6.156c-1.589,2.981 -2.523,3.943 -6.824,5.001l-2.617,0.674l0,2.308Z" style="fill:#185c63;fill-rule:nonzero;"/><path d="M289.797,11.993c0,-1.539 -0.375,-1.923 -2.803,-1.923l-9.347,0c-2.43,0 -2.803,0.384 -2.803,1.923l0,11.543c0,1.539 0.373,1.924 2.803,1.924l9.347,0c2.428,0 2.803,-0.385 2.803,-1.924l0,-11.543Zm-15.422,64.061c0,1.539 -0.281,2.213 -2.803,2.886l-3.738,0.962l0,2.308l28.973,0l0,-2.308l-3.74,-0.962c-2.522,-0.673 -2.803,-1.347 -2.803,-2.886l0,-38.09c0,-2.886 -1.309,-3.847 -5.607,-3.847l-16.823,0l0,2.308l3.738,0.962c2.522,0.673 2.803,1.347 2.803,2.886l0,35.781Z" style="fill:#185c63;fill-rule:nonzero;"/><path d="M310.359,68.84c-2.992,0 -3.925,2.405 -3.925,5.098c0,2.02 0.561,4.233 0.933,5.483c4.207,1.924 13.272,4.136 23.274,4.136c11.402,0 20.654,-2.886 20.654,-12.504c0,-15.968 -30.842,-21.643 -30.842,-31.55c0,-2.308 1.589,-3.847 5.234,-3.847c9.905,0 15.795,10.003 20.749,10.003c2.428,0 3.925,-4.136 3.925,-10.581c-3.925,-0.961 -12.711,-2.308 -21.309,-2.308c-11.403,0 -21.685,2.405 -21.685,12.12c0,15.678 30.843,22.988 30.843,31.934c0,2.597 -2.149,3.847 -5.513,3.847c-10.655,0 -15.516,-11.831 -22.338,-11.831Z" style="fill:#185c63;fill-rule:nonzero;"/><g><path d="M29.121,41.026c-2.965,5.12 -4.662,11.064 -4.662,17.4l-12.916,0c0,-2.499 0.197,-4.996 0.588,-7.465l-6.055,-0.957c0.49,-3.098 1.25,-6.144 2.271,-9.108l-8.347,-2.874c1.307,-3.795 2.975,-7.456 4.982,-10.933l24.139,13.937Z" style="fill:#dd9e34;"/><path d="M47.928,25.514c-2.901,1 -5.629,2.372 -8.127,4.062l-9.664,-14.328c1.759,-1.187 3.589,-2.265 5.479,-3.227l-4.409,-8.652c2.564,-1.307 5.215,-2.431 7.936,-3.369l8.785,25.514Z" style="fill:#dd9e34;"/><path d="M59.26,23.624c-3.54,0 -6.957,0.529 -10.177,1.515l-4.276,-13.987c2.477,-0.756 5.009,-1.319 7.574,-1.678l0.491,3.495c2.116,-0.296 4.251,-0.445 6.388,-0.445l0,11.1Z" style="fill:#dd9e34;"/><path d="M38.807,30.273c-1.639,1.194 -3.17,2.527 -4.576,3.982l-20.055,-19.366c2.534,-2.625 5.293,-5.024 8.245,-7.168l16.386,22.552Z" style="fill:#dd9e34;"/><path d="M33.402,35.145c-1.352,1.5 -2.576,3.12 -3.654,4.839l-16.153,-10.092c1.661,-2.659 3.551,-5.168 5.649,-7.496l14.158,12.749Z" style="fill:#dd9e34;"/><path d="M59.26,23.624c19.208,0 34.802,15.595 34.802,34.802c0,19.207 -15.594,34.802 -34.802,34.802c-19.207,0 -34.801,-15.595 -34.801,-34.802c0,-19.207 15.594,-34.802 34.801,-34.802Zm0,17.402c9.604,0 17.402,7.797 17.402,17.4c0,9.605 -7.798,17.402 -17.402,17.402c-9.603,0 -17.401,-7.797 -17.401,-17.402c0,-9.603 7.798,-17.4 17.401,-17.4Z" style="fill:#8aadb1;"/><path d="M59.26,41.026c-9.604,0 -17.401,7.797 -17.401,17.4l-17.4,0c0,-19.22 15.581,-34.802 34.801,-34.802l0,17.402Z" style="fill:#185c63;"/><path d="M59.26,41.026c9.604,0 17.402,7.797 17.402,17.4c0,9.605 -7.798,17.402 -17.402,17.402c-9.603,0 -17.401,-7.797 -17.401,-17.402c0,-9.603 7.798,-17.4 17.401,-17.4Z" style="fill:#fff;stroke:#fff;stroke-width:2px;"/><path d="M59.26,43.469c8.256,0 14.959,6.701 14.959,14.957c0,8.256 -6.703,14.959 -14.959,14.959c-8.255,0 -14.958,-6.703 -14.958,-14.959c0,-8.256 6.703,-14.957 14.958,-14.957Z" style="fill:none;stroke:#185c63;stroke-width:3px;"/></g></svg>