<?xml version="1.0" encoding="UTF-8"?>
<svg version="1.1" xmlns="http://www.w3.org/2000/svg" width="362" height="170">
<path d="M0 0 C4.06639458 2.83863947 6.91424003 6.7056189 8.82421875 11.2734375 C9.29474002 14.96937268 9.24051243 18.67555029 9.26171875 22.3984375 C9.29458984 23.39359375 9.32746094 24.38875 9.36132812 25.4140625 C9.4239072 34.1296204 6.69572138 40.60467751 1.57421875 47.5859375 C-6.57313377 55.54812292 -14.96921204 57.2734375 -26.17578125 57.2734375 C-26.17578125 64.2034375 -26.17578125 71.1334375 -26.17578125 78.2734375 C-28.73328125 78.7684375 -31.29078125 79.2634375 -33.92578125 79.7734375 C-34.72467773 79.93005859 -35.52357422 80.08667969 -36.34667969 80.24804688 C-39.71116611 80.88874001 -42.73769705 81.2734375 -46.17578125 81.2734375 C-46.50578125 69.0634375 -46.83578125 56.8534375 -47.17578125 44.2734375 C-49.15578125 48.2334375 -51.13578125 52.1934375 -53.17578125 56.2734375 C-60.22660923 63.72336895 -68.81874643 67.15251222 -78.98828125 67.5234375 C-85.45655762 67.4368088 -90.09840604 66.0346904 -95.05078125 61.8359375 C-96.84643549 59.67058974 -98.12116064 57.86205172 -99.17578125 55.2734375 C-99.83578125 55.2734375 -100.49578125 55.2734375 -101.17578125 55.2734375 C-101.42585938 55.99660156 -101.6759375 56.71976563 -101.93359375 57.46484375 C-105.62183938 65.80399032 -112.83302725 71.55230768 -120.9921875 75.2109375 C-128.71535338 77.78848488 -136.59290597 78.36064671 -144.23828125 75.296875 C-148.49368567 73.04906057 -151.4880631 70.30501473 -154.17578125 66.2734375 C-154.59988281 66.92570312 -155.02398437 67.57796875 -155.4609375 68.25 C-161.31934744 76.97967459 -166.9937352 83.34024193 -177.5234375 85.828125 C-184.69958508 87.03295685 -192.00123932 87.39327159 -198.42578125 83.60546875 C-203.57046511 79.68953751 -206.535122 75.5526879 -208.17578125 69.2734375 C-209.18012221 57.4549137 -208.62344345 47.54928073 -200.98828125 37.9609375 C-195.25137002 31.86700819 -187.35862979 27.7631054 -178.9921875 26.97265625 C-170.49821215 26.9420657 -164.84857016 27.66829481 -158.17578125 33.2734375 C-159.75359048 36.98388997 -162.08281373 39.57250134 -164.80078125 42.5234375 C-165.61804688 43.41546875 -166.4353125 44.3075 -167.27734375 45.2265625 C-167.90382812 45.90203125 -168.5303125 46.5775 -169.17578125 47.2734375 C-169.78679687 46.96019531 -170.3978125 46.64695313 -171.02734375 46.32421875 C-174.91502177 44.42279077 -177.12286646 43.91544647 -181.30078125 45.3359375 C-184.93088228 47.78230994 -185.85207737 49.08170855 -187.17578125 53.2734375 C-188.12720442 60.53279413 -188.12720442 60.53279413 -185.8515625 67.12109375 C-184.074615 68.54887008 -184.074615 68.54887008 -180.98828125 68.5234375 C-175.32871152 67.32758699 -172.3184193 62.80270066 -169.17578125 58.2734375 C-167.0223235 54.62614779 -165.03508929 50.88975278 -163.03027344 47.15942383 C-156.45778663 35.0710113 -149.10186141 24.67846962 -135.92578125 19.3984375 C-129.13940466 17.3982423 -120.84423253 16.87352891 -114.17578125 19.5234375 C-106.94048713 23.74402574 -106.94048713 23.74402574 -105.17578125 27.2734375 C-104.51578125 27.2734375 -103.85578125 27.2734375 -103.17578125 27.2734375 C-101.60929267 25.68606351 -101.60929267 25.68606351 -99.98828125 23.6484375 C-92.99994145 15.4929729 -85.29902222 9.20037425 -74.17578125 8.2734375 C-66.23415359 7.67855902 -60.60082674 9.03398468 -53.92578125 13.3984375 C-51.17578125 16.2734375 -51.17578125 16.2734375 -47.17578125 25.2734375 C-46.84578125 18.3434375 -46.51578125 11.4134375 -46.17578125 4.2734375 C-39.90578125 3.2834375 -33.63578125 2.2934375 -27.17578125 1.2734375 C-27.17578125 1.9334375 -27.17578125 2.5934375 -27.17578125 3.2734375 C-26.5725 2.92410156 -25.96921875 2.57476562 -25.34765625 2.21484375 C-24.5484375 1.75980469 -23.74921875 1.30476563 -22.92578125 0.8359375 C-22.136875 0.38347656 -21.34796875 -0.06898437 -20.53515625 -0.53515625 C-13.63256406 -4.02073674 -6.6726633 -3.696839 0 0 Z M-25.17578125 19.2734375 C-25.26278467 20.90816632 -25.28279188 22.54657805 -25.2734375 24.18359375 C-25.27021484 25.17294922 -25.26699219 26.16230469 -25.26367188 27.18164062 C-25.25529297 28.22255859 -25.24691406 29.26347656 -25.23828125 30.3359375 C-25.23376953 31.38072266 -25.22925781 32.42550781 -25.22460938 33.50195312 C-25.21278038 36.0925041 -25.19629814 38.68294309 -25.17578125 41.2734375 C-19.90143473 40.64200165 -16.9136365 40.21895138 -13.17578125 36.2734375 C-10.55049252 31.47549604 -9.58140395 27.72189611 -10.17578125 22.2734375 C-11.72209409 18.48495793 -11.72209409 18.48495793 -14.17578125 15.2734375 C-18.68978435 14.7718816 -21.93896081 16.03661706 -25.17578125 19.2734375 Z M-78.92578125 27.3359375 C-82.88980167 32.51118639 -83.75952042 37.85230658 -83.17578125 44.2734375 C-81.61343499 48.7786955 -81.61343499 48.7786955 -77.86328125 51.3984375 C-73.90548499 51.21435395 -72.14494735 49.85532106 -69.17578125 47.2734375 C-66.12554026 42.08802782 -65.32547091 37.17039492 -66.17578125 31.2734375 C-67.33473965 28.85474172 -68.29900221 27.15021654 -70.17578125 25.2734375 C-74.12992397 24.73423622 -75.68925775 24.90854488 -78.92578125 27.3359375 Z M-133.17578125 37.2734375 C-137.35256739 42.04690738 -137.46776537 46.47863638 -137.38671875 52.59765625 C-137.12096756 55.96875932 -136.63573658 57.89548068 -134.17578125 60.2734375 C-130.34866749 61.02222063 -128.71796294 60.61846221 -125.42578125 58.5234375 C-121.40119483 54.49885108 -120.88273447 51.42784132 -120.86328125 45.7734375 C-120.84652344 44.649375 -120.82976562 43.5253125 -120.8125 42.3671875 C-121.20703507 39.00727594 -121.85271943 37.67601733 -124.17578125 35.2734375 C-127.94366063 33.38949781 -129.97707518 34.89491247 -133.17578125 37.2734375 Z " fill="#231F20" transform="translate(353.17578125,77.7265625)"/>
<path d="M0 0 C3.02915857 2.11570942 4.70395176 4.49070512 6.3125 7.8125 C7.11416143 13.58301787 7.15691712 18.99375543 4.6875 24.3125 C-3.84916724 33.29846551 -12.85014908 34.98836044 -24.6875 37.8125 C-21.16337836 39.57456082 -17.53414757 39.3537076 -13.6875 38.8125 C-10.97690881 37.71639232 -8.49325333 36.44183884 -5.94921875 35.00390625 C-3.83647037 33.89097317 -2.01773622 33.27641431 0.3125 32.8125 C1.348469 34.38597176 2.36581732 35.97171546 3.375 37.5625 C4.22771484 38.88507813 4.22771484 38.88507813 5.09765625 40.234375 C6.3125 42.8125 6.3125 42.8125 6.23046875 44.953125 C3.39354576 50.69940305 -4.31212891 53.25731992 -10 55.1875 C-18.74943902 57.61733254 -27.41065377 58.4609948 -35.71484375 54.2109375 C-41.12343381 50.3767291 -43.97650961 45.10956964 -45.6875 38.8125 C-45.953125 35.59375 -45.953125 35.59375 -45.9375 32.3125 C-45.94523437 30.68828125 -45.94523437 30.68828125 -45.953125 29.03125 C-45.67629794 25.67675744 -44.87802385 22.94943587 -43.6875 19.8125 C-50.98793864 22.62839558 -50.98793864 22.62839558 -56.6875 27.8125 C-57.84589043 31.28767129 -57.91551218 34.4852002 -58.00390625 38.10546875 C-58.0350779 39.16451164 -58.0350779 39.16451164 -58.06687927 40.24494934 C-58.13217491 42.49653551 -58.19116647 44.74823662 -58.25 47 C-58.29320425 48.5280066 -58.33681916 50.05600164 -58.38085938 51.58398438 C-58.48783574 55.32670562 -58.58915922 59.0695423 -58.6875 62.8125 C-60.89405075 63.32030894 -63.10283605 63.81841365 -65.3125 64.3125 C-66.54226562 64.5909375 -67.77203125 64.869375 -69.0390625 65.15625 C-72.35902228 65.75341621 -75.32658451 65.93659534 -78.6875 65.8125 C-79.0175 62.5125 -79.3475 59.2125 -79.6875 55.8125 C-80.23277344 56.47636719 -80.77804688 57.14023438 -81.33984375 57.82421875 C-87.00811957 64.46143061 -92.80952166 70.19832212 -101.6875 71.8125 C-118.24861627 72.97635725 -118.24861627 72.97635725 -124.6875 67.8125 C-129.5847551 63.31914222 -131.67458991 58.21528882 -132.0234375 51.640625 C-132.24449218 40.4530718 -131.52807717 30.96891198 -123.515625 22.41015625 C-115.80806167 15.67427291 -107.2313121 12.26606499 -96.984375 12.56640625 C-91.22460959 13.18352397 -86.41414787 14.77297322 -82.125 18.75 C-79.6875 21.8125 -79.6875 21.8125 -79.6875 25.8125 C-81.80864201 27.44966313 -83.75572822 28.74851608 -86.0625 30.0625 C-86.66578125 30.42601562 -87.2690625 30.78953125 -87.890625 31.1640625 C-92.37106438 33.8125 -92.37106438 33.8125 -94.6875 33.8125 C-95.1 33.3175 -95.5125 32.8225 -95.9375 32.3125 C-97.6793247 30.53272298 -97.6793247 30.53272298 -100.625 30.5 C-104.46975542 30.88973682 -104.46975542 30.88973682 -107.6875 32.8125 C-110.48622432 37.16607117 -111.89593931 41.64122009 -111.6875 46.8125 C-110.92931698 49.36714215 -109.92783551 51.43105582 -108.6875 53.8125 C-104.01490781 54.1384948 -101.39472917 53.73925987 -97.6875 50.8125 C-96.3675 48.8325 -95.0475 46.8525 -93.6875 44.8125 C-88.7375 47.1225 -83.7875 49.4325 -78.6875 51.8125 C-78.6875 38.2825 -78.6875 24.7525 -78.6875 10.8125 C-65.6875 7.8125 -65.6875 7.8125 -59.6875 7.8125 C-59.1925 9.2975 -59.1925 9.2975 -58.6875 10.8125 C-58.03394531 10.19761719 -58.03394531 10.19761719 -57.3671875 9.5703125 C-51.38674565 4.15943654 -46.88380741 2.4846477 -38.6875 2.8125 C-37.64300089 5.94599732 -37.75326355 6.80218256 -38.6875 9.8125 C-38.16542969 9.28140625 -37.64335938 8.7503125 -37.10546875 8.203125 C-27.65930005 -0.86255004 -12.53984932 -7.28417718 0 0 Z M-41.6875 12.8125 C-40.6875 14.8125 -40.6875 14.8125 -40.6875 14.8125 Z M-22.6875 16.8125 C-25.77658688 19.84998893 -25.77658688 19.84998893 -26.6875 23.8125 C-17.85196764 22.76710286 -17.85196764 22.76710286 -10.6875 17.8125 C-11.0175 16.4925 -11.3475 15.1725 -11.6875 13.8125 C-15.97866616 11.75274025 -19.23002767 14.24546718 -22.6875 16.8125 Z " fill="#231F20" transform="translate(131.6875,47.1875)"/>
<path d="M0 0 C4.57760556 3.43320417 7.17559617 6.09349741 8.19921875 11.71484375 C8.23136591 13.0803564 8.22652788 14.44716669 8.1875 15.8125 C8.17243408 16.52253174 8.15736816 17.23256348 8.1418457 17.96411133 C7.9381786 21.8571652 7.57322567 24.92776743 5.1875 28.0625 C-2.42398458 34.87371167 -12.77188323 36.97268146 -22.5 38.875 C-18.48298104 41.28159244 -16.2622776 40.75389818 -11.87890625 39.65625 C-8.8249681 38.65331465 -6.10680794 37.27807207 -3.32421875 35.6796875 C-1.5 34.875 -1.5 34.875 2.5 34.875 C3.984375 36.44921875 3.984375 36.44921875 5.25 38.5625 C5.67796875 39.24699219 6.1059375 39.93148437 6.546875 40.63671875 C7.6874971 43.31531082 7.94149987 44.99363241 7.5 47.875 C1.39214787 54.58258954 -9.26590384 57.29277364 -17.94140625 58.2578125 C-24.60131137 58.48932716 -30.13112399 58.05758677 -35.5 53.875 C-41.39642704 48.30835076 -43.63173059 43.20144529 -44.125 35.0625 C-44.23714844 33.32033203 -44.23714844 33.32033203 -44.3515625 31.54296875 C-44.42503906 30.22232422 -44.42503906 30.22232422 -44.5 28.875 C-44.78496338 29.91954346 -45.06992676 30.96408691 -45.36352539 32.0402832 C-46.44485398 35.93555819 -47.61072645 39.80119393 -48.80297852 43.66381836 C-49.30566178 45.33409702 -49.78558401 47.01141078 -50.24145508 48.69506836 C-53.94600198 62.2864516 -53.94600198 62.2864516 -58.19793701 64.93109131 C-64.06901037 67.14404157 -70.30643594 66.94990719 -76.5 66.875 C-80.37623386 57.66582383 -84.11181611 48.40570552 -87.8125 39.125 C-90.6278125 32.07125 -90.6278125 32.07125 -93.5 24.875 C-93.83 40.055 -94.16 55.235 -94.5 70.875 C-110.5 73.875 -110.5 73.875 -113.5 73.875 C-113.5 55.395 -113.5 36.915 -113.5 17.875 C-108.323125 16.885 -103.14625 15.895 -97.8125 14.875 C-96.18739502 14.56175781 -94.56229004 14.24851562 -92.88793945 13.92578125 C-91.60105225 13.68214844 -90.31416504 13.43851563 -88.98828125 13.1875 C-88.32292358 13.05794922 -87.65756592 12.92839844 -86.9720459 12.79492188 C-83.34941901 12.11504701 -80.22988781 11.875 -76.5 11.875 C-71.55 26.23 -71.55 26.23 -66.5 40.875 C-63.53 29.985 -60.56 19.095 -57.5 7.875 C-41.5 4.875 -41.5 4.875 -37.5 4.875 C-38.16 8.175 -38.82 11.475 -39.5 14.875 C-38.96632813 14.21113281 -38.43265625 13.54726563 -37.8828125 12.86328125 C-28.19707033 1.38450377 -15.10871903 -4.85637398 0 0 Z M-22.1171875 19.171875 C-23.65674961 21.06805884 -24.09538758 22.4888242 -24.5 24.875 C-22.74788218 24.61822411 -20.99832064 24.34397047 -19.25 24.0625 C-18.27546875 23.91167969 -17.3009375 23.76085938 -16.296875 23.60546875 C-13.3360617 22.83218371 -11.69653214 21.98864413 -9.5 19.875 C-9.16574265 17.24874861 -9.16574265 17.24874861 -9.5 14.875 C-15.3806446 14.15492107 -17.88983406 15.41844011 -22.1171875 19.171875 Z M-41.5 16.875 C-40.5 18.875 -40.5 18.875 -40.5 18.875 Z M-42.5 19.875 C-41.5 21.875 -41.5 21.875 -41.5 21.875 Z M-43.5 22.875 C-42.5 25.875 -42.5 25.875 -42.5 25.875 Z " fill="#231F20" transform="translate(354.5,6.125)"/>
<path d="M0 0 C0 18.15 0 36.3 0 55 C-4.71752457 56.34786416 -8.11789102 57.27044212 -12.8125 57.625 C-13.74707031 57.69976562 -14.68164062 57.77453125 -15.64453125 57.8515625 C-17.09432114 57.94292571 -18.54733419 58 -20 58 C-21.29893978 58.65238231 -22.58932852 59.32184362 -23.875 60 C-29.99760426 62.76504709 -36.73090284 63.4306831 -43.1796875 61.26953125 C-48.47261079 58.48677115 -51.5475082 54.55985245 -53.75 49.125 C-57.12622372 38.01314282 -55.68811178 25.96643336 -50.3125 15.8125 C-44.64918847 8.92468868 -39.0448565 4.28216764 -30 3 C-26.12503673 3.02359186 -22.49505361 3.2524732 -19 5 C-18.34 4.01 -17.68 3.02 -17 2 C-14.609375 1.26953125 -14.609375 1.26953125 -11.75 0.8125 C-10.35007812 0.57466797 -10.35007812 0.57466797 -8.921875 0.33203125 C-6 0 -6 0 0 0 Z M-32 22 C-34.89325912 25.92012327 -35.38530195 28.72957024 -35.3125 33.5625 C-35.30863281 34.67753906 -35.30476563 35.79257813 -35.30078125 36.94140625 C-35.01111733 39.88694978 -34.71268351 41.60562339 -33 44 C-29.67583445 45.17761741 -29.67583445 45.17761741 -26 45 C-21.91381371 42.63909236 -20.44103876 40.39963161 -19 36 C-18.45606733 31.08341378 -18.42148063 26.5224194 -20.1875 21.875 C-21.89792698 19.85986606 -21.89792698 19.85986606 -24.375 19 C-27.83443231 19 -29.29619141 19.86541427 -32 22 Z " fill="#231F20" transform="translate(194,33)"/>
<path d="M0 0 C0.495 7.92 0.495 7.92 1 16 C7.93 15.01 7.93 15.01 15 14 C15 18.95 15 23.9 15 29 C9.76148736 30.11754936 5.37414597 31 0 31 C0.33 38.26 0.66 45.52 1 53 C6.01840022 54.07788722 6.01840022 54.07788722 10.3125 52.5625 C11.00988281 52.27503906 11.70726562 51.98757812 12.42578125 51.69140625 C13.20501953 51.34916016 13.20501953 51.34916016 14 51 C14.8680908 52.91040052 15.71901783 54.82860737 16.5625 56.75 C17.03816406 57.81734375 17.51382813 58.8846875 18.00390625 59.984375 C19 63 19 63 18.94140625 65.2265625 C16.48379234 69.85625842 9.14718502 71.56980562 4.5 73.3125 C-1.46451187 74.48410055 -7.35151297 75.20932746 -12.9375 72.375 C-17.2760808 69.01038632 -18.94415241 65.27864644 -20 60 C-20.08059997 58.0482673 -20.10762243 56.09399582 -20.09765625 54.140625 C-20.09282227 52.46806641 -20.09282227 52.46806641 -20.08789062 50.76171875 C-20.07951172 49.60285156 -20.07113281 48.44398437 -20.0625 47.25 C-20.05798828 46.07566406 -20.05347656 44.90132812 -20.04882812 43.69140625 C-20.03705094 40.79421928 -20.02060326 37.89713546 -20 35 C-22.97 35.495 -22.97 35.495 -26 36 C-26 31.05 -26 26.1 -26 21 C-24.35 20.67 -22.7 20.34 -21 20 C-20.67 14.39 -20.34 8.78 -20 3 C-17.4425 2.505 -14.885 2.01 -12.25 1.5 C-11.45110352 1.34337891 -10.65220703 1.18675781 -9.82910156 1.02539062 C-6.46461514 0.38469749 -3.4380842 0 0 0 Z " fill="#231F20" transform="translate(221,11)"/>
<path d="M0 0 C3.31451531 2.87839487 3.93855902 4.56991313 4.5625 8.9375 C4.33018407 13.6553005 2.35543001 15.8006365 -1 19 C-5.70039892 20.56679964 -9.40034171 20.74877622 -13.9375 18.625 C-16.66579142 15.1526291 -16.65368568 12.73588037 -16.41796875 8.41015625 C-15.81368774 4.92565735 -14.69495581 3.26943647 -12 1 C-7.71501687 -1.04933976 -4.54119686 -1.48082506 0 0 Z " fill="#231F20" transform="translate(257,1)"/>
<path d="M0 0 C2.84985951 3.3527759 3.42881948 6.14236056 3.125 10.5 C1.53343117 14.26950512 -0.44121374 16.33866291 -3.875 18.5 C-6.34765625 18.8984375 -6.34765625 18.8984375 -8.9375 18.875 C-9.79472656 18.88273437 -10.65195313 18.89046875 -11.53515625 18.8984375 C-14.36339487 18.41683426 -15.21637211 17.81689583 -16.875 15.5 C-18.34717052 10.87191903 -18.32922264 7.42526834 -16.1875 3.0625 C-11.59158036 -2.03027582 -6.35981587 -3.3181648 0 0 Z " fill="#231F20" transform="translate(143.875,151.5)"/>
</svg>
