<svg xmlns="http://www.w3.org/2000/svg" viewBox="0 20 438.21 210"><defs><style>.cls-1{fill:#fff;}.cls-2{fill:#231f20;}</style></defs><title>Asset 3</title><g id="Layer_2" data-name="Layer 2"><g id="Layer_1-2" data-name="Layer 1"><rect class="cls-1" x="0.01" y="204.78" height="233.42"/><polygon class="cls-1" points="438.19 84.26 438.2 84.26 438.2 166.26 438.19 166.26 438.19 202.87 438.2 202.87 438.2 44.6 438.19 44.6 438.19 84.26"/><rect class="cls-1" x="0.01" width="438.2"/><path class="cls-1" d="M121.74,159.27c0,28.17,14.82,40.19,49.56,40.19h32.18v-32H180.89c-16.46,0-18.91-10-18.91-16V98.37c0-6.15,2.45-16.46,18.91-16.46l22.62.12,5.28,0V199.46h77.9c19.59,0,32.82-3.84,40.66-12.23-5-7.08-7.44-16.37-7.44-28V89.9c0-11.7,2.44-21,7.46-28.16-7.83-8.41-21.07-12.26-40.68-12.26H171.3c-34.74,0-49.56,12.09-49.56,40.42Zm127.07,3.34V81.46h31.86c10,0,15.79,5.84,15.79,16v54.21c0,10.47-5.61,16.23-15.79,16.23H248.81Z"/><path class="cls-1" d="M325.22,159.27c0,28.17,14.82,40.19,49.57,40.19h58.09v-32h-48.5c-16.46,0-18.92-10-18.92-16V98.37c0-6.15,2.46-16.46,18.92-16.46h48.5V49.48H374.79c-34.75,0-49.57,12.09-49.57,40.42Z"/><path class="cls-1" d="M123.87,187.23c-5-7.08-7.44-16.37-7.44-28V89.9c0-11.7,2.44-21.05,7.46-28.17-7.83-8.4-21.08-12.25-40.69-12.25H5.31v150H83.2C102.8,199.46,116,195.62,123.87,187.23ZM50.63,167.92H45.32V81.46H77.18c10,0,15.8,5.84,15.8,16v54.21c0,10.47-5.61,16.23-15.8,16.23Z"/><path class="cls-2" d="M280.67,167.92c10.18,0,15.79-5.76,15.79-16.23V97.48c0-10.18-5.76-16-15.79-16H248.81v86.46h31.86Z"/><path class="cls-2" d="M93,151.69V97.48c0-10.18-5.76-16-15.8-16H45.32v86.46H77.18C87.37,167.92,93,162.16,93,151.69Z"/><path class="cls-2" d="M438.21,202.87h0V166.26h0v-82h0V44.6h0V0H0V44.17H0V204.78H0V438.19h438.2V202.87ZM374.79,49.48h58.09V81.91h-48.5c-16.46,0-18.92,10.31-18.92,16.46v53.09c0,6,2.46,16,18.92,16h48.5v32H374.79c-34.75,0-49.57-12-49.57-40.19V89.9C325.22,61.57,340,49.48,374.79,49.48Zm20.62,353.28c-1,0-1.51.72-2.26,2.17v10.21h-2.21v-9.92c0-1.63-.4-2.46-1.45-2.46s-1.62.72-2.32,2.17v10.21h-2.38V401h1.92l.2,1.86H387a3.49,3.49,0,0,1,3.22-2.21c1.39,0,2.26.82,2.67,2.44.81-1.51,1.68-2.44,3.3-2.44,2,0,3.14,1.54,3.14,4.36v10.09h-2.38v-9.92C396.92,403.59,396.45,402.76,395.41,402.76ZM373.6,413.43c1.63,0,2.81-.78,4.38-2.61V401h2.38v14.1h-1.94l-.21-2.47h-.11a6.85,6.85,0,0,1-5.25,2.82c-3.37,0-4.9-2-4.9-5.69V401h2.4v8.44C370.35,412.15,371.25,413.43,373.6,413.43ZM350.92,403V401h8.94v14.1h-2.38V403Zm7.49-4.91a1.81,1.81,0,0,1-1.92-1.85,1.92,1.92,0,0,1,3.83,0A1.81,1.81,0,0,1,358.41,398.08ZM332.91,403v-1.8L337,401l.32-4.52h2V401h6.93V403h-6.93v6.7c0,2.52.84,3.86,3.56,3.86a9.49,9.49,0,0,0,3.4-.64l.52,1.74a12.41,12.41,0,0,1-4.41.84c-4.12,0-5.45-2.35-5.45-5.83V403Zm7.86-24.22a7.71,7.71,0,0,0,4.3-1.33l.87,1.57a9.75,9.75,0,0,1-5.46,1.68c-4.23,0-7.6-2.73-7.6-7.43a7.09,7.09,0,0,1,7.2-7.36c4.06,0,6.44,2.63,6.44,6.61a9.5,9.5,0,0,1-.12,1.45H335.29C335.58,377.15,337.84,378.77,340.77,378.77Zm-17.16,1.57h-2.67L315,366.24h2.41l3.25,8c.58,1.42,1.1,2.81,1.59,4.15h.12c.49-1.34,1-2.73,1.54-4.15l3.25-8h2.29Zm5.48,20.93-.55,2.07a6.53,6.53,0,0,0-2.61-.5c-2.12,0-4.12,1.1-5.8,4v8.27h-2.38V401h2l.2,3.34H320a7.5,7.5,0,0,1,6.29-3.69A6,6,0,0,1,329.09,401.27ZM171.3,49.48H286.69c19.61,0,32.85,3.85,40.68,12.26-5,7.12-7.46,16.46-7.46,28.16v69.37c0,11.59,2.43,20.88,7.44,28-7.84,8.39-21.07,12.23-40.66,12.23h-77.9V82.05l-5.28,0-22.62-.12C164.43,81.91,162,92.22,162,98.37v53.09c0,6,2.45,16,18.91,16h22.59v32H171.3c-34.74,0-49.56-12-49.56-40.19V89.9C121.74,61.57,136.56,49.48,171.3,49.48ZM307.66,366.24v14.1h-2.38V368.19h-6.56v-1.95Zm-3.37-4.81a1.92,1.92,0,0,1,3.83,0,1.92,1.92,0,0,1-3.83,0Zm.52,39.26c3.72,0,7,2.7,7,7.43s-3.25,7.37-7,7.37-7-2.7-7-7.37S301.1,400.69,304.81,400.69Zm-17.66,8.13c-3.65-.76-5.51-2-5.51-4.12s2-4,5.86-4a10.67,10.67,0,0,1,5.69,1.8L292,404a8.33,8.33,0,0,0-4.73-1.48c-2.41,0-3.25,1-3.25,2,0,1.22,1.22,1.74,4.09,2.35,4.7,1,5.83,2.21,5.83,4.35,0,2.29-2.23,4.21-6.27,4.21a12.39,12.39,0,0,1-6.93-2.21l1.1-1.56a10,10,0,0,0,6.12,1.91c2.38,0,3.57-1,3.57-2.2S291,409.6,287.15,408.82Zm3-28.13c-4.12,0-5.45-2.35-5.45-5.83v-6.67h-4v-1.8l4.07-.15.31-4.52h2v4.52H294v1.95h-6.93v6.7c0,2.52.84,3.86,3.56,3.86a9.49,9.49,0,0,0,3.4-.64l.52,1.74A12.41,12.41,0,0,1,290.14,380.69Zm-19.28,22.07c-1.69,0-2.82.83-4.47,2.55v9.83H264V401h2l.21,2.41h.11c1.48-1.57,3.11-2.76,5.31-2.76,3.34,0,4.87,2,4.87,5.69v8.76h-2.37V406.7C274.11,404,273.18,402.76,270.86,402.76Zm-.73-34.89a9.84,9.84,0,0,0-4.93,1.68l-.93-1.63a12.22,12.22,0,0,1,6.27-2c3.86,0,5.71,2.29,5.71,5.8v8.64h-1.94l-.2-1.91H274a9.63,9.63,0,0,1-5.57,2.26c-2.64,0-4.79-1.48-4.79-4,0-3.17,2.93-4.7,10.21-5.28C273.82,369.49,272.86,367.87,270.13,367.87Zm-17.52,32.82c3.72,0,7,2.7,7,7.43s-3.25,7.37-7,7.37-7-2.7-7-7.37S248.9,400.69,252.61,400.69Zm-4.46-20.35v-14.1h2l.2,3.34h.09a7.49,7.49,0,0,1,6.29-3.68,5.88,5.88,0,0,1,2.79.58l-.55,2a6.7,6.7,0,0,0-2.61-.49c-2.12,0-4.12,1.1-5.8,4v8.27Zm-11.77-1.57a7.7,7.7,0,0,0,4.29-1.33l.87,1.57a9.71,9.71,0,0,1-5.45,1.68c-4.24,0-7.6-2.73-7.6-7.43a7.08,7.08,0,0,1,7.19-7.36c4.06,0,6.44,2.63,6.44,6.61A9.5,9.5,0,0,1,242,374H230.89C231.18,377.15,233.45,378.77,236.38,378.77Zm.55,17a7.09,7.09,0,0,1,5.19,2.32l-1.36,1.54a5.16,5.16,0,0,0-3.83-1.74c-3.66,0-6,3-6,7.69s2.38,7.8,6,7.8a5.5,5.5,0,0,0,4.29-2.12l1.36,1.48a7.39,7.39,0,0,1-5.88,2.76c-4.7,0-8.3-3.66-8.3-9.86S232,395.76,236.93,395.76Zm-22.74-14.23v4.76h-2.38V366.24h2L214,368h.08A7.43,7.43,0,0,1,219,365.9c3.8,0,5.83,2.81,5.83,7.19,0,4.78-3,7.6-6.41,7.6a6.63,6.63,0,0,1-4.21-1.83h-.09ZM193.72,403v-1.8l4.06-.15.32-4.52h2V401H207V403h-6.93v6.7c0,2.52.84,3.86,3.57,3.86a9.48,9.48,0,0,0,3.39-.64l.52,1.74a12.36,12.36,0,0,1-4.41.84c-4.12,0-5.45-2.35-5.45-5.83V403Zm-.27-29.67c0-4.73,3.25-7.42,7-7.42s7,2.69,7,7.42-3.25,7.37-7,7.37S193.45,378,193.45,373.32Zm-9.59,29.44c-1.68,0-2.82.83-4.47,2.55v9.83H177V401h2l.21,2.41h.11c1.48-1.57,3.11-2.76,5.31-2.76,3.34,0,4.88,2,4.88,5.69v8.76h-2.38V406.7C187.11,404,186.18,402.76,183.86,402.76ZM183,380.69c-3.72,0-7-2.7-7-7.37s3.25-7.42,7-7.42,7,2.69,7,7.42S186.73,380.69,183,380.69Zm-16.24,32.88a7.7,7.7,0,0,0,4.29-1.33l.87,1.57a9.71,9.71,0,0,1-5.45,1.68c-4.24,0-7.6-2.73-7.6-7.43a7.09,7.09,0,0,1,7.19-7.37c4.06,0,6.44,2.65,6.44,6.62a9.5,9.5,0,0,1-.12,1.45H161.29C161.58,412,163.85,413.57,166.78,413.57Zm.32-32.88c-4.7,0-8.3-3.66-8.3-9.86s3.57-9.87,8.53-9.87a7.09,7.09,0,0,1,5.19,2.32l-1.36,1.54a5.16,5.16,0,0,0-3.83-1.74c-3.66,0-6,3-6,7.69s2.38,7.8,6,7.8a5.5,5.5,0,0,0,4.29-2.12l1.37,1.48A7.41,7.41,0,0,1,167.1,380.69Zm-15.29,22.07c-1,0-1.5.72-2.26,2.17v10.21h-2.2v-9.92c0-1.63-.41-2.46-1.45-2.46s-1.63.72-2.33,2.17v10.21H141.2V401h1.91l.2,1.86h.06a3.51,3.51,0,0,1,3.22-2.21c1.39,0,2.26.82,2.67,2.44.81-1.51,1.68-2.44,3.31-2.44,2,0,3.13,1.54,3.13,4.36v10.09h-2.38v-9.92C153.32,403.59,152.86,402.76,151.81,402.76Zm-24.62,13.57v4.76h-2.38V401h2l.21,1.8h.08a7.44,7.44,0,0,1,4.88-2.15c3.8,0,5.83,2.82,5.83,7.2,0,4.78-3,7.6-6.41,7.6a6.63,6.63,0,0,1-4.21-1.83h-.09Zm7.25-37.61a6.4,6.4,0,0,0,2.64-.64l.61,1.77a8.55,8.55,0,0,1-3.77.84c-3,0-4.64-1.74-4.64-5.08v-14h-4.82v-1.94h7.2v16.1C131.66,377.85,132.76,378.72,134.44,378.72ZM5.31,49.48H83.2c19.61,0,32.86,3.85,40.69,12.25-5,7.12-7.46,16.47-7.46,28.17v69.37c0,11.59,2.43,20.88,7.44,28-7.84,8.39-21.07,12.23-40.67,12.23H5.31ZM113.53,367.87a9.88,9.88,0,0,0-4.93,1.68l-.93-1.63a12.26,12.26,0,0,1,6.27-2c3.86,0,5.71,2.29,5.71,5.8v8.64h-1.94l-.2-1.91h-.09a9.63,9.63,0,0,1-5.57,2.26c-2.64,0-4.78-1.48-4.78-4,0-3.17,2.92-4.7,10.21-5.28C117.22,369.49,116.26,367.87,113.53,367.87Zm-.11,32.82c3.71,0,7,2.7,7,7.43s-3.25,7.37-7,7.37-7-2.7-7-7.37S109.7,400.69,113.42,400.69Zm-23.76-4.26v-1.94h7.2v16.1c0,2.06,1.1,2.93,2.78,2.93a6.4,6.4,0,0,0,2.64-.64l.61,1.77a8.55,8.55,0,0,1-3.77.84c-3,0-4.64-1.74-4.64-5.08v-14Zm9.08-15.74c-4.12,0-5.45-2.35-5.45-5.83v-6.67h-4v-1.8l4.06-.15.32-4.52h2v4.52h6.93v1.95H95.67v6.7c0,2.52.84,3.86,3.57,3.86a9.43,9.43,0,0,0,3.39-.64l.52,1.74A12.36,12.36,0,0,1,98.74,380.69Zm-19,32.88a7.7,7.7,0,0,0,4.29-1.33l.87,1.57a9.71,9.71,0,0,1-5.45,1.68c-4.24,0-7.6-2.73-7.6-7.43a7.09,7.09,0,0,1,7.19-7.37c4.06,0,6.44,2.65,6.44,6.62a11.17,11.17,0,0,1-.11,1.45H74.3C74.59,412,76.85,413.57,79.78,413.57Zm1.68-47.33v14.1H79.08V368.19H72.53v-1.95Zm-3.36-4.81a1.91,1.91,0,0,1,3.82,0,1.91,1.91,0,0,1-3.82,0Zm-17,25.41c-4.12,0-6.49-1.42-6.49-3.92,0-1.13.81-2.26,2.32-3.13v-.12a2.54,2.54,0,0,1-1.45-2.32,3.41,3.41,0,0,1,1.68-2.64v-.11a4.51,4.51,0,0,1-1.74-3.66c0-3.07,2.55-5,5.54-5a5.8,5.8,0,0,1,2.09.34h5.83v1.95H65.22A4.23,4.23,0,0,1,66.41,371c0,3-2.41,4.84-5.45,4.84a6,6,0,0,1-2.38-.52,1.94,1.94,0,0,0-1.1,1.63c0,1.1,1.07,1.62,2.93,1.62h3.16c3.62,0,5.36.93,5.36,3.31C68.93,384.55,65.89,386.84,61.1,386.84ZM68.44,401l-5.83,14.1H59.94L54,401h2.4l3.25,8c.58,1.42,1.1,2.81,1.6,4.15h.11c.5-1.34,1-2.73,1.54-4.15l3.25-8ZM45,413.57a7.7,7.7,0,0,0,4.29-1.33l.87,1.57a9.71,9.71,0,0,1-5.45,1.68c-4.24,0-7.6-2.73-7.6-7.43a7.09,7.09,0,0,1,7.19-7.37c4.06,0,6.44,2.65,6.44,6.62a11.17,11.17,0,0,1-.11,1.45H39.5C39.79,412,42.05,413.57,45,413.57Zm1.68-47.33v14.1H44.28V368.19H37.73v-1.95Zm-3.36-4.81a1.91,1.91,0,0,1,3.82,0,1.91,1.91,0,0,1-3.82,0ZM25.06,380.34H20.24v-19h4.7c5.71,0,8.82,3.4,8.82,9.43S30.65,380.34,25.06,380.34Zm8.7,25.2c0,6.06-3.11,9.6-8.7,9.6H20.24v-19h4.7C30.65,396.11,33.76,399.51,33.76,405.54Z"/><path class="cls-2" d="M24.77,363.28H22.65v15.09h2.12c4.35,0,6.49-2.82,6.49-7.63S29.12,363.28,24.77,363.28Z"/><path class="cls-2" d="M340.14,367.78a4.78,4.78,0,0,0-4.79,4.32h9C344.14,369.2,342.54,367.78,340.14,367.78Z"/><path class="cls-2" d="M183,367.87c-2.7,0-4.5,2.2-4.5,5.45s1.8,5.4,4.5,5.4,4.49-2.18,4.49-5.4S185.71,367.87,183,367.87Z"/><path class="cls-2" d="M200.42,378.72c2.69,0,4.49-2.18,4.49-5.4s-1.8-5.45-4.49-5.45-4.5,2.2-4.5,5.45S197.72,378.72,200.42,378.72Z"/><path class="cls-2" d="M235.74,367.78A4.79,4.79,0,0,0,231,372.1h9C239.74,369.2,238.15,367.78,235.74,367.78Z"/><path class="cls-2" d="M269.09,378.77a7.62,7.62,0,0,0,4.78-2.08V373c-6,.5-7.89,1.69-7.89,3.54C266,378.11,267.46,378.77,269.09,378.77Z"/><path class="cls-2" d="M304.81,413.52c2.7,0,4.5-2.18,4.5-5.4s-1.8-5.45-4.5-5.45-4.49,2.2-4.49,5.45S302.12,413.52,304.81,413.52Z"/><path class="cls-2" d="M24.77,398.08H22.65v15.09h2.12c4.35,0,6.49-2.82,6.49-7.63S29.12,398.08,24.77,398.08Z"/><path class="cls-2" d="M222.31,373.09c0-3.1-1.16-5.19-4-5.19a6.14,6.14,0,0,0-4.15,2.11v7a6.07,6.07,0,0,0,3.77,1.66C220.49,378.69,222.31,376.57,222.31,373.09Z"/><path class="cls-2" d="M61,374.28a3.32,3.32,0,1,0-3.25-3.34A3.18,3.18,0,0,0,61,374.28Z"/><path class="cls-2" d="M112.49,378.77a7.66,7.66,0,0,0,4.79-2.08V373c-6,.5-7.89,1.69-7.89,3.54C109.39,378.11,110.86,378.77,112.49,378.77Z"/><path class="cls-2" d="M79.14,402.58a4.79,4.79,0,0,0-4.79,4.32h9C83.14,404,81.55,402.58,79.14,402.58Z"/><path class="cls-2" d="M252.61,413.52c2.7,0,4.5-2.18,4.5-5.4s-1.8-5.45-4.5-5.45-4.49,2.2-4.49,5.45S249.92,413.52,252.61,413.52Z"/><path class="cls-2" d="M113.42,413.52c2.69,0,4.49-2.18,4.49-5.4s-1.8-5.45-4.49-5.45-4.5,2.2-4.5,5.45S110.72,413.52,113.42,413.52Z"/><path class="cls-2" d="M166.14,402.58a4.79,4.79,0,0,0-4.79,4.32h9C170.14,404,168.55,402.58,166.14,402.58Z"/><path class="cls-2" d="M63.36,380.57H60.61a8.19,8.19,0,0,1-2.15-.23c-1.33.73-1.8,1.54-1.8,2.35,0,1.48,1.6,2.41,4.62,2.41,3.27,0,5.3-1.37,5.3-2.82S65.51,380.57,63.36,380.57Z"/><path class="cls-2" d="M135.31,407.89c0-3.11-1.16-5.19-4-5.19a6.14,6.14,0,0,0-4.15,2.11v7a6.09,6.09,0,0,0,3.77,1.66C133.49,413.49,135.31,411.37,135.31,407.89Z"/><path class="cls-2" d="M44.34,402.58a4.79,4.79,0,0,0-4.79,4.32h9C48.34,404,46.75,402.58,44.34,402.58Z"/><path class="cls-1" d="M24.94,361.31h-4.7v19h4.82c5.59,0,8.7-3.54,8.7-9.6S30.65,361.31,24.94,361.31Zm-.17,17.06H22.65V363.28h2.12c4.35,0,6.49,2.67,6.49,7.46S29.12,378.37,24.77,378.37Z"/><path class="cls-1" d="M47.12,361.43a1.91,1.91,0,0,0-3.82,0,1.91,1.91,0,0,0,3.82,0Z"/><polygon class="cls-1" points="37.73 368.19 44.28 368.19 44.28 380.34 46.66 380.34 46.66 366.24 37.73 366.24 37.73 368.19"/><path class="cls-1" d="M63.57,378.6H60.41c-1.86,0-2.93-.52-2.93-1.62a1.94,1.94,0,0,1,1.1-1.63,6,6,0,0,0,2.38.52c3,0,5.45-1.82,5.45-4.84a4.23,4.23,0,0,0-1.19-2.84h3.66v-1.95H63.05A5.8,5.8,0,0,0,61,365.9c-3,0-5.54,2-5.54,5a4.51,4.51,0,0,0,1.74,3.66v.11a3.41,3.41,0,0,0-1.68,2.64,2.54,2.54,0,0,0,1.45,2.32v.12c-1.51.87-2.32,2-2.32,3.13,0,2.5,2.37,3.92,6.49,3.92,4.79,0,7.83-2.29,7.83-4.93C68.93,379.53,67.19,378.6,63.57,378.6Zm-2.61-11a3.32,3.32,0,1,1-3.25,3.3A3.18,3.18,0,0,1,61,367.64Zm.32,17.46c-3,0-4.62-.93-4.62-2.41,0-.81.47-1.62,1.8-2.35a8.19,8.19,0,0,0,2.15.23h2.75c2.15,0,3.22.38,3.22,1.71S64.55,385.1,61.28,385.1Z"/><path class="cls-1" d="M81.92,361.43a1.91,1.91,0,0,0-3.82,0,1.91,1.91,0,0,0,3.82,0Z"/><polygon class="cls-1" points="72.53 368.19 79.08 368.19 79.08 380.34 81.46 380.34 81.46 366.24 72.53 366.24 72.53 368.19"/><path class="cls-1" d="M102.63,378.11a9.43,9.43,0,0,1-3.39.64c-2.73,0-3.57-1.34-3.57-3.86v-6.7h6.93v-1.95H95.67v-4.52h-2l-.32,4.52-4.06.15v1.8h4v6.67c0,3.48,1.33,5.83,5.45,5.83a12.36,12.36,0,0,0,4.41-.84Z"/><path class="cls-1" d="M107.07,376.69c0,2.52,2.14,4,4.78,4a9.63,9.63,0,0,0,5.57-2.26h.09l.2,1.91h1.94V371.7c0-3.51-1.85-5.8-5.71-5.8a12.26,12.26,0,0,0-6.27,2l.93,1.63a9.88,9.88,0,0,1,4.93-1.68c2.73,0,3.69,1.62,3.75,3.54C110,372,107.07,373.52,107.07,376.69ZM117.28,373v3.72a7.66,7.66,0,0,1-4.79,2.08c-1.63,0-3.1-.66-3.1-2.26C109.39,374.66,111.24,373.47,117.28,373Z"/><path class="cls-1" d="M124.46,359.69v1.94h4.82v14c0,3.34,1.65,5.08,4.64,5.08a8.55,8.55,0,0,0,3.77-.84l-.61-1.77a6.4,6.4,0,0,1-2.64.64c-1.68,0-2.78-.87-2.78-2.93v-16.1Z"/><path class="cls-1" d="M171.62,376.45a5.5,5.5,0,0,1-4.29,2.12c-3.66,0-6-3-6-7.8s2.38-7.69,6-7.69a5.16,5.16,0,0,1,3.83,1.74l1.36-1.54a7.09,7.09,0,0,0-5.19-2.32c-5,0-8.53,3.75-8.53,9.87s3.6,9.86,8.3,9.86a7.41,7.41,0,0,0,5.89-2.76Z"/><path class="cls-1" d="M183,365.9c-3.72,0-7,2.69-7,7.42s3.25,7.37,7,7.37,7-2.7,7-7.37S186.73,365.9,183,365.9Zm0,12.82c-2.7,0-4.5-2.18-4.5-5.4s1.8-5.45,4.5-5.45,4.49,2.2,4.49,5.45S185.71,378.72,183,378.72Z"/><path class="cls-1" d="M200.42,380.69c3.71,0,7-2.7,7-7.37s-3.25-7.42-7-7.42-7,2.69-7,7.42S196.7,380.69,200.42,380.69Zm0-12.82c2.69,0,4.49,2.2,4.49,5.45s-1.8,5.4-4.49,5.4-4.5-2.18-4.5-5.4S197.72,367.87,200.42,367.87Z"/><path class="cls-1" d="M218.37,380.69c3.39,0,6.41-2.82,6.41-7.6,0-4.38-2-7.19-5.83-7.19a7.43,7.43,0,0,0-4.88,2.14H214l-.21-1.8h-2v20.05h2.38v-4.76l-.12-2.67h.09A6.63,6.63,0,0,0,218.37,380.69ZM214.19,370a6.14,6.14,0,0,1,4.15-2.11c2.81,0,4,2.09,4,5.19,0,3.48-1.82,5.6-4.35,5.6a6.07,6.07,0,0,1-3.77-1.66Z"/><path class="cls-1" d="M242.12,372.51c0-4-2.38-6.61-6.44-6.61a7.08,7.08,0,0,0-7.19,7.36c0,4.7,3.36,7.43,7.6,7.43a9.71,9.71,0,0,0,5.45-1.68l-.87-1.57a7.7,7.7,0,0,1-4.29,1.33c-2.93,0-5.2-1.62-5.49-4.81H242A9.5,9.5,0,0,0,242.12,372.51ZM231,372.1a4.79,4.79,0,0,1,4.79-4.32c2.41,0,4,1.42,4.2,4.32Z"/><path class="cls-1" d="M256.33,368a6.7,6.7,0,0,1,2.61.49l.55-2a5.88,5.88,0,0,0-2.79-.58,7.49,7.49,0,0,0-6.29,3.68h-.09l-.2-3.34h-2v14.1h2.38v-8.27C252.21,369.14,254.21,368,256.33,368Z"/><path class="cls-1" d="M263.66,376.69c0,2.52,2.15,4,4.79,4a9.63,9.63,0,0,0,5.57-2.26h.09l.2,1.91h1.94V371.7c0-3.51-1.85-5.8-5.71-5.8a12.22,12.22,0,0,0-6.27,2l.93,1.63a9.84,9.84,0,0,1,4.93-1.68c2.73,0,3.69,1.62,3.74,3.54C266.59,372,263.66,373.52,263.66,376.69ZM273.87,373v3.72a7.62,7.62,0,0,1-4.78,2.08c-1.63,0-3.11-.66-3.11-2.26C266,374.66,267.84,373.47,273.87,373Z"/><path class="cls-1" d="M294,378.11a9.49,9.49,0,0,1-3.4.64c-2.72,0-3.56-1.34-3.56-3.86v-6.7H294v-1.95h-6.93v-4.52h-2l-.31,4.52-4.07.15v1.8h4v6.67c0,3.48,1.33,5.83,5.45,5.83a12.41,12.41,0,0,0,4.41-.84Z"/><polygon class="cls-1" points="298.72 368.19 305.28 368.19 305.28 380.34 307.66 380.34 307.66 366.24 298.72 366.24 298.72 368.19"/><path class="cls-1" d="M308.12,361.43a1.92,1.92,0,0,0-3.83,0,1.92,1.92,0,0,0,3.83,0Z"/><path class="cls-1" d="M327.15,366.24l-3.25,8c-.58,1.42-1,2.81-1.54,4.15h-.12c-.49-1.34-1-2.73-1.59-4.15l-3.25-8H315l5.95,14.1h2.67l5.83-14.1Z"/><path class="cls-1" d="M346.52,372.51c0-4-2.38-6.61-6.44-6.61a7.09,7.09,0,0,0-7.2,7.36c0,4.7,3.37,7.43,7.6,7.43a9.75,9.75,0,0,0,5.46-1.68l-.87-1.57a7.71,7.71,0,0,1-4.3,1.33c-2.93,0-5.19-1.62-5.48-4.81H346.4A9.5,9.5,0,0,0,346.52,372.51Zm-11.17-.41a4.78,4.78,0,0,1,4.79-4.32c2.4,0,4,1.42,4.2,4.32Z"/><path class="cls-1" d="M24.94,396.11h-4.7v19h4.82c5.59,0,8.7-3.54,8.7-9.6S30.65,396.11,24.94,396.11Zm-.17,17.06H22.65V398.08h2.12c4.35,0,6.49,2.67,6.49,7.46S29.12,413.17,24.77,413.17Z"/><path class="cls-1" d="M50.72,407.31c0-4-2.38-6.62-6.44-6.62a7.09,7.09,0,0,0-7.19,7.37c0,4.7,3.36,7.43,7.6,7.43a9.71,9.71,0,0,0,5.45-1.68l-.87-1.57A7.7,7.7,0,0,1,45,413.57c-2.93,0-5.19-1.62-5.48-4.81H50.61A11.17,11.17,0,0,0,50.72,407.31Zm-11.17-.41a4.79,4.79,0,0,1,4.79-4.32c2.41,0,4,1.42,4.21,4.32Z"/><path class="cls-1" d="M62.9,409.05c-.58,1.42-1,2.81-1.54,4.15h-.11c-.5-1.34-1-2.73-1.6-4.15l-3.25-8H54l5.94,14.1h2.67L68.44,401H66.15Z"/><path class="cls-1" d="M85.52,407.31c0-4-2.38-6.62-6.44-6.62a7.09,7.09,0,0,0-7.19,7.37c0,4.7,3.36,7.43,7.6,7.43a9.71,9.71,0,0,0,5.45-1.68l-.87-1.57a7.7,7.7,0,0,1-4.29,1.33c-2.93,0-5.19-1.62-5.48-4.81H85.41A11.17,11.17,0,0,0,85.52,407.31Zm-11.17-.41a4.79,4.79,0,0,1,4.79-4.32c2.41,0,4,1.42,4.21,4.32Z"/><path class="cls-1" d="M99.12,415.49a8.55,8.55,0,0,0,3.77-.84l-.61-1.77a6.4,6.4,0,0,1-2.64.64c-1.68,0-2.78-.87-2.78-2.93v-16.1h-7.2v1.94h4.82v14C94.48,413.75,96.13,415.49,99.12,415.49Z"/><path class="cls-1" d="M113.42,415.49c3.71,0,7-2.7,7-7.37s-3.25-7.43-7-7.43-7,2.7-7,7.43S109.7,415.49,113.42,415.49Zm0-12.82c2.69,0,4.49,2.2,4.49,5.45s-1.8,5.4-4.49,5.4-4.5-2.18-4.5-5.4S110.72,402.67,113.42,402.67Z"/><path class="cls-1" d="M131.37,415.49c3.39,0,6.41-2.82,6.41-7.6,0-4.38-2-7.2-5.83-7.2a7.44,7.44,0,0,0-4.88,2.15H127l-.21-1.8h-2v20h2.38v-4.76l-.12-2.67h.09A6.63,6.63,0,0,0,131.37,415.49Zm-4.18-10.68a6.14,6.14,0,0,1,4.15-2.11c2.81,0,4,2.08,4,5.19,0,3.48-1.82,5.6-4.35,5.6a6.09,6.09,0,0,1-3.77-1.66Z"/><path class="cls-1" d="M155.7,415.14V405.05c0-2.82-1.16-4.36-3.13-4.36-1.63,0-2.5.93-3.31,2.44-.41-1.62-1.28-2.44-2.67-2.44a3.51,3.51,0,0,0-3.22,2.21h-.06l-.2-1.86H141.2v14.1h2.37V404.93c.7-1.45,1.34-2.17,2.33-2.17s1.45.83,1.45,2.46v9.92h2.2V404.93c.76-1.45,1.28-2.17,2.26-2.17s1.51.83,1.51,2.46v9.92Z"/><path class="cls-1" d="M172.52,407.31c0-4-2.38-6.62-6.44-6.62a7.09,7.09,0,0,0-7.19,7.37c0,4.7,3.36,7.43,7.6,7.43a9.71,9.71,0,0,0,5.45-1.68l-.87-1.57a7.7,7.7,0,0,1-4.29,1.33c-2.93,0-5.2-1.62-5.49-4.81H172.4A9.5,9.5,0,0,0,172.52,407.31Zm-11.17-.41a4.79,4.79,0,0,1,4.79-4.32c2.41,0,4,1.42,4.21,4.32Z"/><path class="cls-1" d="M189.49,415.14v-8.76c0-3.71-1.54-5.69-4.88-5.69-2.2,0-3.83,1.19-5.31,2.76h-.11L179,401h-2v14.1h2.38v-9.83c1.65-1.72,2.79-2.55,4.47-2.55,2.32,0,3.25,1.27,3.25,3.94v8.44Z"/><path class="cls-1" d="M203.14,415.49a12.36,12.36,0,0,0,4.41-.84l-.52-1.74a9.48,9.48,0,0,1-3.39.64c-2.73,0-3.57-1.34-3.57-3.86V403H207V401h-6.93v-4.52h-2l-.32,4.52-4.06.15V403h4v6.67C197.69,413.14,199,415.49,203.14,415.49Z"/><path class="cls-1" d="M236.7,415.49a7.39,7.39,0,0,0,5.88-2.76l-1.36-1.48a5.5,5.5,0,0,1-4.29,2.12c-3.66,0-6-3-6-7.8s2.38-7.69,6-7.69a5.16,5.16,0,0,1,3.83,1.74l1.36-1.54a7.09,7.09,0,0,0-5.19-2.32c-5,0-8.53,3.75-8.53,9.87S232,415.49,236.7,415.49Z"/><path class="cls-1" d="M245.65,408.12c0,4.67,3.25,7.37,7,7.37s7-2.7,7-7.37-3.25-7.43-7-7.43S245.65,403.39,245.65,408.12Zm7-5.45c2.7,0,4.5,2.2,4.5,5.45s-1.8,5.4-4.5,5.4-4.49-2.18-4.49-5.4S249.92,402.67,252.61,402.67Z"/><path class="cls-1" d="M276.48,415.14v-8.76c0-3.71-1.53-5.69-4.87-5.69-2.2,0-3.83,1.19-5.31,2.76h-.11L266,401h-2v14.1h2.38v-9.83c1.65-1.72,2.78-2.55,4.47-2.55,2.32,0,3.25,1.27,3.25,3.94v8.44Z"/><path class="cls-1" d="M288,413.63a10,10,0,0,1-6.12-1.91l-1.1,1.56a12.39,12.39,0,0,0,6.93,2.21c4,0,6.27-1.92,6.27-4.21,0-2.14-1.13-3.33-5.83-4.35-2.87-.61-4.09-1.13-4.09-2.35,0-1.07.84-2,3.25-2A8.33,8.33,0,0,1,292,404l1.16-1.54a10.67,10.67,0,0,0-5.69-1.8c-3.86,0-5.86,1.74-5.86,4s1.86,3.36,5.51,4.12c3.83.78,4.41,1.53,4.41,2.61S290.37,413.63,288,413.63Z"/><path class="cls-1" d="M304.81,415.49c3.72,0,7-2.7,7-7.37s-3.25-7.43-7-7.43-7,2.7-7,7.43S301.1,415.49,304.81,415.49Zm0-12.82c2.7,0,4.5,2.2,4.5,5.45s-1.8,5.4-4.5,5.4-4.49-2.18-4.49-5.4S302.12,402.67,304.81,402.67Z"/><path class="cls-1" d="M320,404.38h-.09l-.2-3.34h-2v14.1h2.38v-8.27c1.68-2.93,3.68-4,5.8-4a6.53,6.53,0,0,1,2.61.5l.55-2.07a6,6,0,0,0-2.79-.58A7.5,7.5,0,0,0,320,404.38Z"/><path class="cls-1" d="M342.34,415.49a12.41,12.41,0,0,0,4.41-.84l-.52-1.74a9.49,9.49,0,0,1-3.4.64c-2.72,0-3.56-1.34-3.56-3.86V403h6.93V401h-6.93v-4.52h-2L337,401l-4.06.15V403h4v6.67C336.89,413.14,338.22,415.49,342.34,415.49Z"/><polygon class="cls-1" points="359.86 415.14 359.86 401.04 350.92 401.04 350.92 402.99 357.48 402.99 357.48 415.14 359.86 415.14"/><path class="cls-1" d="M358.41,394.37a1.83,1.83,0,0,0-1.92,1.86,1.92,1.92,0,0,0,3.83,0A1.83,1.83,0,0,0,358.41,394.37Z"/><path class="cls-1" d="M368,401v8.76c0,3.72,1.53,5.69,4.9,5.69a6.85,6.85,0,0,0,5.25-2.82h.11l.21,2.47h1.94V401H378v9.78c-1.57,1.83-2.75,2.61-4.38,2.61-2.35,0-3.25-1.28-3.25-3.95V401Z"/><path class="cls-1" d="M399.3,415.14V405.05c0-2.82-1.16-4.36-3.14-4.36-1.62,0-2.49.93-3.3,2.44-.41-1.62-1.28-2.44-2.67-2.44A3.49,3.49,0,0,0,387,402.9h-.06l-.2-1.86h-1.92v14.1h2.38V404.93c.7-1.45,1.34-2.17,2.32-2.17s1.45.83,1.45,2.46v9.92h2.21V404.93c.75-1.45,1.27-2.17,2.26-2.17s1.51.83,1.51,2.46v9.92Z"/></g></g></svg>