<?xml version="1.0" encoding="UTF-8"?>
<svg width="895px" height="394px" viewBox="0 0 895 394" version="1.1" xmlns="http://www.w3.org/2000/svg" xmlns:xlink="http://www.w3.org/1999/xlink">
    <!-- Generator: Sketch 53.2 (72643) - https://sketchapp.com -->
    <title>Logo_H_for_white_bg - SVG</title>
    <desc>Created with Sketch.</desc>
    <defs>
        <path d="M741.882353,87.0588235 L741.882353,218.823529 C705.496534,218.823529 676,189.326995 676,152.941176 C676,116.555358 705.496534,87.0588235 741.882353,87.0588235 Z" id="path-1"></path>
        <rect id="path-3" x="153.647059" y="152.941176" width="150.588235" height="150.588235"></rect>
    </defs>
    <g id="Logo" stroke="none" stroke-width="1" fill="none" fill-rule="evenodd">
        <g id="S">
            <g id="Group">
                <g id="logo">
                    <g id="FAC" transform="translate(0.705882, 0.000000)">
                        <g id="c" transform="translate(545.235294, 0.000000)">
                            <path d="M195.941176,0 C280.408256,0 348.882353,68.4740971 348.882353,152.941176 C348.882353,237.408256 280.408256,305.882353 195.941176,305.882353 L195.941176,0 Z" id="black_semicircle" fill="#121212"></path>
                            <path d="M194.941176,304.879131 L194.941176,1.00322177 C111.486608,1.54110005 44,69.3599673 44,152.941176 C44,236.522386 111.486608,304.341253 194.941176,304.879131 Z" id="white_semicircle" stroke="#121212" stroke-width="2" fill="#FFFFFF"></path>
                            <g id="Combined-Shape" transform="translate(0.058824, 9.058824)">
                                <g id="stripes"></g>
                            </g>
                            <polygon id="Path-2" fill="#FFFFFF" points="193.87482 2.00714275 195.941176 2.00714275 195.941176 303.947705 190.06601 303.765655"></polygon>
                        </g>
                        <g id="A" transform="translate(319.294118, 0.000000)">
                            <polygon id="big_triangle_bg" fill="#121212" points="152.941176 0 305.882353 305.882353 0 305.882353"></polygon>
                            <g id="stripes_triange" transform="translate(77.470588, 153.941176)" fill="#FFFFFF">
                                <path d="M0.914612286,1.42108547e-14 L12.5740752,1.42108547e-14 L105.330495,92.7564201 L101.444008,100.529395 L0.914612286,1.42108547e-14 Z M15.9536297,1.42108547e-14 L27.6130926,1.42108547e-14 L110.343501,82.7304085 L106.457013,90.5033838 L15.9536297,1.42108547e-14 Z M30.9926471,7.10542736e-15 L42.65211,1.0658141e-14 L115.356507,72.7043969 L111.470019,80.4773722 L30.9926471,7.10542736e-15 Z M46.0316644,1.42108547e-14 L57.6911274,1.42108547e-14 L120.369513,62.6783853 L116.483025,70.4513606 L46.0316644,1.42108547e-14 Z M61.0706818,1.42108547e-14 L72.7301447,1.42108547e-14 L125.382519,52.6523738 L121.496031,60.425349 L61.0706818,1.42108547e-14 Z M76.1096992,1.42108547e-14 L87.7691621,1.42108547e-14 L130.395524,42.6263622 L126.509037,50.3993374 L76.1096992,1.42108547e-14 L76.1096992,1.42108547e-14 Z M91.1487166,1.42108547e-14 L102.80818,1.42108547e-14 L135.40853,32.6003506 L131.522042,40.3733258 L91.1487166,1.42108547e-14 L91.1487166,1.42108547e-14 Z M106.187734,0 L117.847197,1.42108547e-14 L140.421536,22.574339 L136.535048,30.3473143 L106.187734,0 L106.187734,0 Z M121.226751,0 L132.886214,1.42108547e-14 L145.434542,12.5483274 L141.548054,20.3213027 L121.226751,0 L121.226751,0 Z M136.265769,1.42108547e-14 L147.925232,1.42108547e-14 L150.447547,2.5223158 L146.56106,10.2952911 L136.265769,1.42108547e-14 L136.265769,1.42108547e-14 Z M151.304786,1.41553436e-14 L151.708705,1.41553436e-14 L151.574066,0.269279485 L151.304786,-5.55111512e-17 L151.304786,1.41553436e-14 Z M100.31749,102.782432 L96.4310019,110.555407 L11.6594629,25.783868 L0,2.46494218 L100.31749,102.782432 L100.31749,102.782432 Z M95.3044837,112.808443 L91.4179961,120.581419 L26.6984803,55.8619028 L15.0390174,32.542977 L95.3044837,112.808443 L95.3044837,112.808443 Z M90.2914779,122.834455 L86.4049903,130.60743 L41.7374977,85.9399376 L30.0780348,62.6210117 L90.2914779,122.834455 L90.2914779,122.834455 Z M85.2784721,132.860466 L81.3919845,140.633442 L56.7765151,116.017972 L45.1170522,92.6990465 L85.2784721,132.860466 L85.2784721,132.860466 Z M80.2654663,142.886478 L76.3789787,150.659453 L71.8155325,146.096007 L60.1560695,122.777081 L80.2654663,142.886478 L80.2654663,142.886478 Z" id="Shape"></path>
                            </g>
                            <polygon id="Path" fill="#121212" points="229.941176 154 75.9411765 154 152.941176 0 229.941176 154"></polygon>
                            <polygon id="Path" fill="#FFFFFF" points="78.1720046 154 152.941176 4.44148338 227.693895 154"></polygon>
                        </g>
                        <g id="F">
                            <rect id="big_square" stroke="#121212" stroke-width="2" fill="#121212" x="1" y="1" width="303.882353" height="303.882353"></rect>
                            <rect id="black_square" fill="#FFFFFF" x="2.35294118" y="152.941176" width="151.764706" height="150.588235"></rect>
                            <g id="stripes" transform="translate(152.941176, 152.941176)"></g>
                        </g>
                    </g>
                    <mask id="mask-2" fill="white">
                        <use xlink:href="#path-1"></use>
                    </mask>
                    <use id="Mask" fill="#FFFFFF" xlink:href="#path-1"></use>
                    <path d="M681.939392,315.430422 L852.606892,144.762921 L854.29667,146.452698 L683.629169,317.120199 L681.939392,315.430422 Z M689.4589,322.949931 L860.126401,152.28243 L861.816178,153.972207 L691.148678,324.639708 L689.4589,322.949931 Z M696.978409,330.469439 L867.64591,159.801939 L869.335687,161.491716 L698.668186,332.159216 L696.978409,330.469439 Z M674.419883,307.910913 L845.087384,137.243412 L846.777161,138.93319 L676.10966,309.60069 L674.419883,307.910913 Z M666.900374,300.391404 L837.567875,129.723904 L839.257652,131.413681 L668.590152,302.081182 L666.900374,300.391404 Z M659.380866,292.871896 L830.048366,122.204395 L831.738144,123.894172 L661.070643,294.561673 L659.380866,292.871896 Z M651.861357,285.352387 L822.528858,114.684886 L824.218635,116.374664 L653.551134,287.042164 L651.861357,285.352387 Z M644.341848,277.832878 L815.009349,107.165378 L816.699126,108.855155 L646.031626,279.522656 L644.341848,277.832878 Z M636.82234,270.31337 L807.48984,99.645869 L809.179618,101.335646 L638.512117,272.003147 L636.82234,270.31337 Z M629.302831,262.793861 L799.970332,92.1263603 L801.660109,93.8161376 L630.992608,264.483638 L629.302831,262.793861 Z M621.783322,255.274352 L792.450823,84.6068516 L794.1406,86.2966289 L623.473099,256.96413 L621.783322,255.274352 Z M614.263814,247.754844 L784.931314,77.0873429 L786.621091,78.7771202 L615.953591,249.444621 L614.263814,247.754844 Z M606.744305,240.235335 L777.411806,69.5678343 L779.101583,71.2576115 L608.434082,241.925112 L606.744305,240.235335 Z M599.224796,232.715826 L769.892297,62.0483256 L771.582074,63.7381028 L600.914573,234.405603 L599.224796,232.715826 Z M591.705287,225.196318 L762.372788,54.5288169 L764.062565,56.2185941 L593.395065,226.886095 L591.705287,225.196318 Z M584.185779,217.676809 L754.853279,47.0093082 L756.543057,48.6990854 L585.875556,219.366586 L584.185779,217.676809 Z M576.66627,210.1573 L747.333771,39.4897995 L749.023548,41.1795767 L578.356047,211.847077 L576.66627,210.1573 Z M569.146761,202.637791 L739.814262,31.9702908 L741.504039,33.660068 L570.836539,204.327569 L569.146761,202.637791 Z M561.627253,195.118283 L732.294753,24.4507821 L733.984531,26.1405593 L563.31703,196.80806 L561.627253,195.118283 Z M554.107744,187.598774 L724.775245,16.9312734 L726.465022,18.6210506 L555.797521,189.288551 L554.107744,187.598774 Z M546.588235,180.079265 L717.255736,9.41176471 L718.945513,11.1015419 L548.278013,181.769043 L546.588235,180.079265 Z" id="Shape" fill="#121212" mask="url(#mask-2)"></path>
                    <mask id="mask-4" fill="white">
                        <use xlink:href="#path-3"></use>
                    </mask>
                    <use id="Mask" fill="#FFFFFF" transform="translate(228.941176, 228.235294) rotate(-360.000000) translate(-228.941176, -228.235294) " xlink:href="#path-3"></use>
                    <path d="M206.645274,373.077481 L377.312775,202.40998 L379.002552,204.099757 L208.335051,374.767258 L206.645274,373.077481 Z M214.164783,380.596989 L384.832283,209.929489 L386.522061,211.619266 L215.85456,382.286767 L214.164783,380.596989 Z M221.684292,388.116498 L392.351792,217.448997 L394.041569,219.138775 L223.374069,389.806275 L221.684292,388.116498 Z M199.125765,365.557972 L369.793266,194.890471 L371.483043,196.580249 L200.815543,367.247749 L199.125765,365.557972 Z M191.606257,358.038463 L362.273757,187.370963 L363.963535,189.06074 L193.296034,359.728241 L191.606257,358.038463 Z M184.086748,350.518955 L354.754249,179.851454 L356.444026,181.541231 L185.776525,352.208732 L184.086748,350.518955 Z M176.567239,342.999446 L347.23474,172.331945 L348.924517,174.021722 L178.257017,344.689223 L176.567239,342.999446 Z M169.047731,335.479937 L339.715231,164.812437 L341.405009,166.502214 L170.737508,337.169714 L169.047731,335.479937 Z M161.528222,327.960429 L332.195723,157.292928 L333.8855,158.982705 L163.217999,329.650206 L161.528222,327.960429 Z M154.008713,320.44092 L324.676214,149.773419 L326.365991,151.463196 L155.698491,322.130697 L154.008713,320.44092 Z M146.489205,312.921411 L317.156705,142.25391 L318.846482,143.943688 L148.178982,314.611188 L146.489205,312.921411 Z M138.969696,305.401902 L309.637197,134.734402 L311.326974,136.424179 L140.659473,307.09168 L138.969696,305.401902 Z M131.450187,297.882394 L302.117688,127.214893 L303.807465,128.90467 L133.139964,299.572171 L131.450187,297.882394 Z M123.930679,290.362885 L294.598179,119.695384 L296.287956,121.385162 L125.620456,292.052662 L123.930679,290.362885 Z M116.41117,282.843376 L287.07867,112.175876 L288.768448,113.865653 L118.100947,284.533154 L116.41117,282.843376 Z M108.891661,275.323868 L279.559162,104.656367 L281.248939,106.346144 L110.581438,277.013645 L108.891661,275.323868 Z M101.372152,267.804359 L272.039653,97.1368583 L273.72943,98.8266355 L103.06193,269.494136 L101.372152,267.804359 Z M93.8526437,260.28485 L264.520144,89.6173496 L266.209922,91.3071268 L95.542421,261.974628 L93.8526437,260.28485 Z M86.333135,252.765342 L257.000636,82.0978409 L258.690413,83.7876182 L88.0229123,254.455119 L86.333135,252.765342 Z M78.8136263,245.245833 L249.481127,74.5783322 L251.170904,76.2681095 L80.5034036,246.93561 L78.8136263,245.245833 Z M71.2941176,237.726324 L241.961618,67.0588235 L243.651396,68.7486008 L72.9838949,239.416101 L71.2941176,237.726324 Z" id="Shape" fill="#121212" mask="url(#mask-4)"></path>
                </g>
                <g id="writing" transform="translate(0.000000, 341.176471)" fill="#121212">
                    <path d="M27.1920196,1.08209147 L27.1920196,6.34826998 L7.49547592,6.34826998 C6.68879154,6.34826998 6.21822564,6.27613055 5.81488345,6.13185169 L5.68043606,6.20399112 C5.81488345,6.63682771 5.88210715,7.21394316 5.88210715,8.00747691 L5.88210715,20.7040169 C5.88210715,21.4975506 5.81488345,22.1468055 5.68043606,22.5075027 L5.81488345,22.6517815 C6.21822564,22.4353632 6.68879154,22.3632238 7.49547592,22.3632238 L25.5114272,22.3632238 L25.5114272,27.6294023 L7.49547592,27.6294023 C6.68879154,27.6294023 6.21822564,27.6294023 5.81488345,27.412984 L5.68043606,27.5572629 C5.81488345,27.91796 5.88210715,28.4950755 5.88210715,29.2886092 L5.88210715,51.5796936 L0.705882353,51.5796936 L0.705882353,1.08209147 L27.1920196,1.08209147 Z M63.5175834,0 C77.7690075,0 88.0542334,11.037333 88.0542334,26.3308925 C88.0542334,41.6244521 77.7690075,52.6617851 63.5175834,52.6617851 C49.2661593,52.6617851 38.9809334,41.6244521 38.9809334,26.3308925 C38.9809334,11.037333 49.2661593,0 63.5175834,0 Z M63.5175834,5.62687567 C52.4928968,5.62687567 44.6277241,14.2836075 44.6277241,26.3308925 C44.6277241,38.3781776 52.4928968,47.0349094 63.5175834,47.0349094 C74.6094937,47.0349094 82.4746664,38.3781776 82.4746664,26.3308925 C82.4746664,14.2836075 74.6094937,5.62687567 63.5175834,5.62687567 Z M138.832892,1.08209147 L138.832892,32.8955808 C138.832892,45.0871448 131.841628,52.5896457 120.749717,52.5896457 C109.725031,52.5896457 102.666543,45.0871448 102.666543,32.8955808 L102.666543,1.08209147 L108.044438,1.08209147 L108.044438,32.5348837 C108.044438,41.6244521 112.951768,46.96277 120.749717,46.96277 C128.547667,46.96277 133.454997,41.6244521 133.454997,32.5348837 L133.454997,1.08209147 L138.832892,1.08209147 Z M156.671939,0.360697158 L185.376458,34.7712061 C186.922603,36.6468313 188.468749,38.8831537 189.073762,40.4702212 L189.275433,40.3980817 C188.872091,38.1617593 188.737643,35.4926004 188.737643,31.3085133 L188.737643,1.08209147 L193.913868,1.08209147 L193.913868,52.3010879 L193.308855,52.3010879 L164.671559,17.890579 C163.125414,16.0149538 161.579269,13.7786314 160.974256,12.1915639 L160.705361,12.2637034 C161.108703,14.5000258 161.310374,17.1691847 161.310374,21.2811323 L161.310374,51.5796936 L156.134149,51.5796936 L156.134149,0.360697158 L156.671939,0.360697158 Z M226.20601,1.08209147 C240.726329,1.08209147 250.20487,11.1094725 250.20487,26.3308925 C250.20487,41.5523126 240.726329,51.5796936 226.20601,51.5796936 L211.752915,51.5796936 L211.752915,1.08209147 L226.20601,1.08209147 Z M216.861916,6.13185169 L216.727468,6.20399112 C216.861916,6.63682771 216.92914,7.21394316 216.92914,8.00747691 L216.92914,44.6543082 C216.92914,45.4478419 216.861916,46.0249574 216.727468,46.457794 L216.861916,46.5299334 C217.265258,46.3856545 217.601377,46.3135151 218.542508,46.3135151 L226.273234,46.3135151 C237.566815,46.3135151 244.55808,38.6667354 244.55808,26.3308925 C244.55808,13.9950497 237.499591,6.34826998 226.273234,6.34826998 L218.542508,6.34826998 C217.601377,6.34826998 217.265258,6.27613055 216.861916,6.13185169 Z M291.572212,1.08209147 L291.572212,6.34826998 L272.144563,6.34826998 C271.337878,6.34826998 270.867312,6.27613055 270.46397,6.13185169 L270.329523,6.20399112 C270.46397,6.63682771 270.531194,7.21394316 270.531194,8.00747691 L270.531194,19.6219254 C270.531194,20.3433197 270.46397,20.9925746 270.329523,21.3532718 L270.46397,21.4975506 C270.867312,21.2811323 271.337878,21.2811323 272.144563,21.2811323 L289.421053,21.2811323 L289.421053,26.4751714 L272.144563,26.4751714 C271.337878,26.4751714 270.867312,26.4751714 270.46397,26.2587531 L270.329523,26.403032 C270.46397,26.7637291 270.531194,27.412984 270.531194,28.2065178 L270.531194,44.6543082 C270.531194,45.4478419 270.46397,46.0249574 270.329523,46.457794 L270.46397,46.5299334 C270.867312,46.3856545 271.337878,46.3135151 272.144563,46.3135151 L291.841106,46.3135151 L291.841106,51.5796936 L265.354969,51.5796936 L265.354969,1.08209147 L291.572212,1.08209147 Z M322.250985,1.08209147 C330.721171,1.08209147 336.031843,6.20399112 336.031843,14.5721652 C336.031843,22.5796421 330.183381,27.6294023 323.864353,27.6294023 C323.057669,27.6294023 322.250985,27.4851235 321.511524,27.2687052 L321.511524,27.5572629 C322.923222,28.1343783 323.998801,29.2164698 325.276051,30.8756767 L340.401383,51.5796936 L333.679013,51.5796936 L316.53697,27.91796 L313.848022,27.91796 C312.906891,27.91796 312.503548,27.91796 312.16743,27.7015418 L312.032982,27.8458206 C312.16743,28.2786572 312.234654,28.8557727 312.234654,29.6493064 L312.234654,51.5796936 L307.058429,51.5796936 L307.058429,1.08209147 L322.250985,1.08209147 Z M312.16743,6.13185169 L312.032982,6.20399112 C312.16743,6.63682771 312.234654,7.21394316 312.234654,8.00747691 L312.234654,20.9204352 C312.234654,21.7139689 312.16743,22.3632238 312.032982,22.723921 L312.16743,22.8681998 C312.570772,22.6517815 312.974114,22.5796421 313.848022,22.5796421 L322.318208,22.5796421 C327.494433,22.5796421 330.5195,19.6219254 330.5195,14.5000258 C330.5195,9.59454441 327.628881,6.34826998 322.318208,6.34826998 L313.848022,6.34826998 C312.906891,6.34826998 312.570772,6.27613055 312.16743,6.13185169 Z M365.635037,0 C369.937354,0 373.970775,1.29850977 377.600855,3.17413499 L375.180802,8.51245293 C371.954064,6.63682771 368.727327,5.62687567 365.567813,5.62687567 C360.929378,5.62687567 358.509325,7.79105862 358.509325,11.3980302 C358.509325,14.2836075 359.853799,16.375651 363.483878,19.1890888 L371.214604,25.3209405 C376.726947,29.6493064 379.147,33.4726963 379.147,39.099572 C379.147,47.7563037 373.365762,52.6617851 364.559458,52.6617851 C358.979891,52.6617851 353.601995,50.7140204 349.70302,48.0448615 L352.190297,42.8508224 C355.685929,45.1592842 360.05547,47.0349094 364.559458,47.0349094 C370.407919,47.0349094 373.634657,43.9329139 373.634657,39.4602691 C373.634657,36.0697158 371.886841,33.4726963 367.584524,30.082143 L359.921022,23.8060124 C355.215364,20.054762 352.929758,16.5920693 352.929758,11.6144485 C352.929758,4.40050533 357.635417,0 365.635037,0 Z M417.648489,51.5796936 L439.29452,0 L439.832309,0 L461.47834,51.5796936 L455.697102,51.5796936 L449.646969,36.6468313 L429.547084,36.6468313 L423.429727,51.5796936 L417.648489,51.5796936 Z M430.958781,32.0299076 C431.563795,31.9577682 432.706597,31.8856288 434.723308,31.8856288 L444.403521,31.8856288 C446.487456,31.8856288 447.563035,31.9577682 448.168048,32.0299076 L448.235272,31.9577682 C447.697482,31.1642345 447.092469,30.082143 446.151337,27.7736812 L441.445678,15.7985355 C440.437323,13.1293766 439.832309,11.1094725 439.697862,9.8109627 L439.428967,9.8109627 C439.29452,11.1094725 438.75673,13.1293766 437.681151,15.7985355 L432.975492,27.7736812 C432.101584,30.082143 431.496571,31.1642345 430.958781,31.9577682 L430.958781,32.0299076 Z M475.418413,0.360697158 L504.122932,34.7712061 C505.669077,36.6468313 507.215222,38.8831537 507.820235,40.4702212 L508.021906,40.3980817 C507.618564,38.1617593 507.484117,35.4926004 507.484117,31.3085133 L507.484117,1.08209147 L512.660342,1.08209147 L512.660342,52.3010879 L512.055328,52.3010879 L483.418033,17.890579 C481.871888,16.0149538 480.325743,13.7786314 479.720729,12.1915639 L479.451834,12.2637034 C479.855177,14.5000258 480.056848,17.1691847 480.056848,21.2811323 L480.056848,51.5796936 L474.880623,51.5796936 L474.880623,0.360697158 L475.418413,0.360697158 Z M544.952483,1.08209147 C559.472802,1.08209147 568.951344,11.1094725 568.951344,26.3308925 C568.951344,41.5523126 559.472802,51.5796936 544.952483,51.5796936 L530.499388,51.5796936 L530.499388,1.08209147 L544.952483,1.08209147 Z M535.608389,6.13185169 L535.473942,6.20399112 C535.608389,6.63682771 535.675613,7.21394316 535.675613,8.00747691 L535.675613,44.6543082 C535.675613,45.4478419 535.608389,46.0249574 535.473942,46.457794 L535.608389,46.5299334 C536.011732,46.3856545 536.34785,46.3135151 537.288982,46.3135151 L545.019707,46.3135151 C556.313289,46.3135151 563.304553,38.6667354 563.304553,26.3308925 C563.304553,13.9950497 556.246065,6.34826998 545.019707,6.34826998 L537.288982,6.34826998 C536.34785,6.34826998 536.011732,6.27613055 535.608389,6.13185169 Z M634.67843,52.6617851 C619.687546,52.6617851 609.536767,41.9851492 609.536767,26.3308925 C609.536767,10.6766359 619.687546,0 634.67843,0 C640.930234,0 646.173683,1.80348579 651.081013,5.6990151 L647.921499,10.532357 C643.75363,7.21394316 639.384089,5.62687567 634.476759,5.62687567 C623.048731,5.62687567 615.183558,14.1393286 615.183558,26.3308925 C615.183558,38.5224565 623.048731,47.0349094 634.476759,47.0349094 C639.384089,47.0349094 643.75363,45.4478419 647.921499,42.1294281 L651.081013,46.96277 C646.173683,50.8582993 640.930234,52.6617851 634.67843,52.6617851 Z M687.742695,0 C701.994119,0 712.279345,11.037333 712.279345,26.3308925 C712.279345,41.6244521 701.994119,52.6617851 687.742695,52.6617851 C673.491271,52.6617851 663.206045,41.6244521 663.206045,26.3308925 C663.206045,11.037333 673.491271,0 687.742695,0 Z M687.742695,5.62687567 C676.718009,5.62687567 668.852836,14.2836075 668.852836,26.3308925 C668.852836,38.3781776 676.718009,47.0349094 687.742695,47.0349094 C698.834606,47.0349094 706.699778,38.3781776 706.699778,26.3308925 C706.699778,14.2836075 698.834606,5.62687567 687.742695,5.62687567 Z M741.882539,1.08209147 C756.402858,1.08209147 765.8814,11.1094725 765.8814,26.3308925 C765.8814,41.5523126 756.402858,51.5796936 741.882539,51.5796936 L727.429444,51.5796936 L727.429444,1.08209147 L741.882539,1.08209147 Z M732.538445,6.13185169 L732.403998,6.20399112 C732.538445,6.63682771 732.605669,7.21394316 732.605669,8.00747691 L732.605669,44.6543082 C732.605669,45.4478419 732.538445,46.0249574 732.403998,46.457794 L732.538445,46.5299334 C732.941787,46.3856545 733.277906,46.3135151 734.219037,46.3135151 L741.949763,46.3135151 C753.243344,46.3135151 760.234609,38.6667354 760.234609,26.3308925 C760.234609,13.9950497 753.176121,6.34826998 741.949763,6.34826998 L734.219037,6.34826998 C733.277906,6.34826998 732.941787,6.27613055 732.538445,6.13185169 Z M807.248741,1.08209147 L807.248741,6.34826998 L787.821092,6.34826998 C787.014407,6.34826998 786.543842,6.27613055 786.140499,6.13185169 L786.006052,6.20399112 C786.140499,6.63682771 786.207723,7.21394316 786.207723,8.00747691 L786.207723,19.6219254 C786.207723,20.3433197 786.140499,20.9925746 786.006052,21.3532718 L786.140499,21.4975506 C786.543842,21.2811323 787.014407,21.2811323 787.821092,21.2811323 L805.097582,21.2811323 L805.097582,26.4751714 L787.821092,26.4751714 C787.014407,26.4751714 786.543842,26.4751714 786.140499,26.2587531 L786.006052,26.403032 C786.140499,26.7637291 786.207723,27.412984 786.207723,28.2065178 L786.207723,44.6543082 C786.207723,45.4478419 786.140499,46.0249574 786.006052,46.457794 L786.140499,46.5299334 C786.543842,46.3856545 787.014407,46.3135151 787.821092,46.3135151 L807.517636,46.3135151 L807.517636,51.5796936 L781.031498,51.5796936 L781.031498,1.08209147 L807.248741,1.08209147 Z M837.927514,1.08209147 C846.3977,1.08209147 851.708372,6.20399112 851.708372,14.5721652 C851.708372,22.5796421 845.85991,27.6294023 839.540883,27.6294023 C838.734198,27.6294023 837.927514,27.4851235 837.188053,27.2687052 L837.188053,27.5572629 C838.599751,28.1343783 839.67533,29.2164698 840.95258,30.8756767 L856.077912,51.5796936 L849.355543,51.5796936 L832.213499,27.91796 L829.524552,27.91796 C828.58342,27.91796 828.180078,27.91796 827.843959,27.7015418 L827.709512,27.8458206 C827.843959,28.2786572 827.911183,28.8557727 827.911183,29.6493064 L827.911183,51.5796936 L822.734958,51.5796936 L822.734958,1.08209147 L837.927514,1.08209147 Z M827.843959,6.13185169 L827.709512,6.20399112 C827.843959,6.63682771 827.911183,7.21394316 827.911183,8.00747691 L827.911183,20.9204352 C827.911183,21.7139689 827.843959,22.3632238 827.709512,22.723921 L827.843959,22.8681998 C828.247301,22.6517815 828.650643,22.5796421 829.524552,22.5796421 L837.994738,22.5796421 C843.170962,22.5796421 846.196029,19.6219254 846.196029,14.5000258 C846.196029,9.59454441 843.30541,6.34826998 837.994738,6.34826998 L829.524552,6.34826998 C828.58342,6.34826998 828.247301,6.27613055 827.843959,6.13185169 Z M881.311566,0 C885.613883,0 889.647305,1.29850977 893.277384,3.17413499 L890.857331,8.51245293 C887.630594,6.63682771 884.403856,5.62687567 881.244342,5.62687567 C876.605907,5.62687567 874.185854,7.79105862 874.185854,11.3980302 C874.185854,14.2836075 875.530328,16.375651 879.160408,19.1890888 L886.891133,25.3209405 C892.403476,29.6493064 894.823529,33.4726963 894.823529,39.099572 C894.823529,47.7563037 889.042291,52.6617851 880.235987,52.6617851 C874.65642,52.6617851 869.278524,50.7140204 865.379549,48.0448615 L867.866826,42.8508224 C871.362459,45.1592842 875.731999,47.0349094 880.235987,47.0349094 C886.084449,47.0349094 889.311186,43.9329139 889.311186,39.4602691 C889.311186,36.0697158 887.56337,33.4726963 883.261053,30.082143 L875.597552,23.8060124 C870.891893,20.054762 868.606287,16.5920693 868.606287,11.6144485 C868.606287,4.40050533 873.311946,0 881.311566,0 Z" id="FOUNDERS-AND-CODERS"></path>
                </g>
            </g>
        </g>
    </g>
</svg>