<svg xmlns="http://www.w3.org/2000/svg" viewBox="0 0 664.72 457.1"><g id="Layer_2" data-name="Layer 2"><g id="Layer_1-2" data-name="Layer 1"><path d="M437.38,361.94s-192-54.26-248.7-74.31c-27.77-9.83-66.85-32.82-96.18-50.08-21.56-12.68-54.86-44.7-62.56-53.83S7.5,152.47,7.5,152.47s5.38,35.74,11.77,52.59,32.59,68.91,43,82.48,23.88,28.75,35.81,37.37,55.44,28.26,76.74,34.78,36.46,6.64,46.24,9.41,96.31,1.93,102.69,3.44,111.52-4.93,111.52-4.93Z" transform="translate(0 -46.07)" style="fill:#b691c4"/><path d="M438.48,361.82s-181.58,4.92-204.16,0-79.55-14.48-88.06-18.06c0,0-46.31-20.77-54.06-26.11s-23.56-19.2-23.56-19.2,11.55,26.7,19.93,38.39,39.14,46.28,49.85,54.46,24.12,16.92,35,20.87,47.95,9.14,65.47,9.26,29-3.32,37-3.44,73.44-21,78.59-21.33S438,366.75,438,366.75Z" transform="translate(0 -46.07)" style="fill:#9d6db0"/><path d="M458.24,363.65s-142.71,48.56-161.62,50.18-66,8-73.53,7.22c0,0-41.05-5.22-48.31-7.58s-22.71-9.56-22.71-9.56,14.79,18.5,23.89,25.79,40.76,27.37,51,31.27,22.67,7.59,32.1,8.08,39.9-4.48,53.79-8.69,22.29-9.79,28.59-11.86,53.7-34.83,57.71-36.35,59.81-44.45,59.81-44.45Z" transform="translate(0 -46.07)" style="fill:#85489c"/><path d="M474.65,358.65s-104.6,74.17-119.51,80.11-51.55,22.63-57.77,23.84c0,0-34.27,5.86-40.65,5.73s-20.41-2.14-20.41-2.14,16,11.3,24.9,14.95,38.87,12.08,48,12.73,20,.57,27.67-1.35,31.23-13.39,41.52-20.19,15.85-13.37,20.5-16.58,35.74-41.27,38.65-43.48,38.59-50.52,38.59-50.52Z" transform="translate(0 -46.07)" style="fill:#643675"/><path d="M488.05,353.85s-66.82,82.49-77.34,90.63-35.93,29.8-40.59,32.21c0,0-25.86,12.64-30.93,14s-16.61,3.14-16.61,3.14,15.06,5.05,22.91,5.79,33.36.27,40.69-1.36,15.91-4.26,21.6-7.57,21.83-17.8,28.51-25.54S446,451,449,447.44s19.41-40.61,21.24-43,19.66-48.49,19.66-48.49Z" transform="translate(0 -46.07)" style="fill:#43244e"/><path d="M8.58,47c-14.66,37.59-7.52,78.73-.74,117.23,7.38,41.88,17.82,85,44.76,119,53.57,67.61,147.64,81.31,228.28,85.23,53.21,2.59,106.49.79,159.69-1,3.36-.12.75-3.52-.34-4.66-2.11-2.21-6.07-4.36-9.23-4.25-43.83,1.48-87.69,3-131.55,2-42.05-.93-84.6-3.49-125.67-13.14-38.09-9-76.24-24.84-103.21-54.14-28.3-30.75-40-71.94-47.66-112.06-7.8-41-17.26-86.51-1.58-126.72C22.93,50.34,9.85,43.68,8.58,47Z" transform="translate(0 -46.07)"/><path d="M39.34,216.21c-2.53,33.53,13.19,64.58,28,93.6,16.09,31.58,34.91,63.41,64.67,83.94,59.16,40.83,137.46,28.83,202.69,12.31,43-10.91,85.05-25.32,127-39.72,2.64-.91-.26-3-1.41-3.63-2.22-1.24-5.9-2-8.39-1.14-34.57,11.86-69.16,23.73-104.35,33.65-33.74,9.5-68.26,17.83-103.35,20.14-32.54,2.14-66.81-1.21-95.43-18-30.06-17.61-49.42-47.59-65.29-77.7-16.2-30.73-34.84-64.73-32.14-100.6.28-3.65-11.76-5.78-12-2.86Z" transform="translate(0 -46.07)"/><path d="M105.09,343.61c6.16,27.33,26.25,48.24,45.1,67.77,20.51,21.25,43.27,42,72,51.14,57.1,18.12,116.58-10.52,164.53-39.58,31.63-19.17,61.61-40.9,91.54-62.6,1.89-1.36-.94-2.31-2-2.54a9.79,9.79,0,0,0-7,1.13c-24.66,17.88-49.33,35.77-75,52.24C369.74,427,344.25,442,316.86,452.4c-25.41,9.64-53.54,15.31-80.44,8.92-28.24-6.72-51-25.88-71-46-20.4-20.55-43.53-43.1-50.12-72.35-.67-3-10.79-1.73-10.25.65Z" transform="translate(0 -46.07)"/><path d="M188.53,429.11c11.56,20.28,32.67,32.05,52.45,43,21.52,11.94,44.72,22.95,69.83,23.22,49.91.53,90.33-36.79,121.47-71.63,20.54-23,39.13-47.6,57.7-72.19,1.17-1.55-1.31-1.61-2.22-1.54a8.18,8.18,0,0,0-5.28,2.61c-15.29,20.25-30.6,40.51-47,59.89-15.74,18.57-32.38,36.77-51.68,51.73-17.9,13.87-38.94,25.24-61.94,26.7-24.14,1.53-46.93-8.21-67.75-19.38-21.26-11.4-45.2-23.74-57.57-45.44-1.26-2.21-9,1.25-8,3Z" transform="translate(0 -46.07)"/><path d="M275.85,476.92c14.16,13.35,33.85,17.59,52.29,21.51,20.06,4.27,41.23,7.39,61.3,1.48,39.91-11.73,63-51.32,79.35-86.67,10.77-23.32,19.59-47.47,28.39-71.59.56-1.52-1.43-1-2.14-.69a6.76,6.76,0,0,0-3.57,3.37c-7.25,19.86-14.51,39.74-22.87,59.17-8,18.64-16.84,37.2-28.58,53.82-10.89,15.42-24.88,29.61-42.85,36.37-18.86,7.1-39.4,4.9-58.72,1.07-19.72-3.91-41.8-7.91-56.95-22.19-1.54-1.45-6.88,3.19-5.65,4.35Z" transform="translate(0 -46.07)"/><path d="M181.86,166.56v60H164.11v-60h-6.28V150.07h6.28V120.55q0-14.44,5-20.41,6.9-8.33,20.1-8.32,4.71,0,11.85,2.74v18.06l-1.81-.94q-5.73-2.91-9.42-2.91-4.71,0-6.36,3.38t-1.64,12.72v25.2h19.23v16.49Z" transform="translate(0 -46.07)"/><path d="M213.49,150.07h17.66v6.83a34,34,0,0,1,8.64-7,19.78,19.78,0,0,1,9.11-2q7,0,14.6,4.55l-8.09,16.18q-5-3.62-9.81-3.62-14.44,0-14.45,21.83v39.65H213.49Z" transform="translate(0 -46.07)"/><path d="M326.7,150.07h17.75v76.47H326.7v-8q-10.9,10.2-23.47,10.2-15.86,0-26.22-11.46-10.29-11.7-10.29-29.2,0-17.2,10.29-28.66A33.15,33.15,0,0,1,302.76,148q13.35,0,23.94,11Zm-41.92,38q0,11,5.89,17.9a19.26,19.26,0,0,0,15.23,7q9.81,0,15.86-6.75,6-7,6-17.74t-6-17.74a20,20,0,0,0-15.7-6.83,19.56,19.56,0,0,0-15.24,6.9Q284.78,177.78,284.78,188.07Z" transform="translate(0 -46.07)"/><path d="M418.82,153.37v23.47q-6-7.38-10.84-10.13a21.14,21.14,0,0,0-11.07-2.82,21.85,21.85,0,0,0-16.56,7q-6.6,7-6.6,17.51,0,10.76,6.36,17.66A21.43,21.43,0,0,0,396.52,213a22.48,22.48,0,0,0,11.23-2.74q4.71-2.67,11.07-10.37v23.32a46.36,46.36,0,0,1-21.51,5.57q-17.74,0-29.68-11.46T355.7,188.62a38.8,38.8,0,0,1,12.09-28.9q12.09-11.78,29.67-11.77A44.27,44.27,0,0,1,418.82,153.37Z" transform="translate(0 -46.07)"/><path d="M459.59,166.56v60H441.93v-60h-7.54V150.07h7.54V122h17.66v28h13.74v16.49Z" transform="translate(0 -46.07)"/><path d="M543.12,150.07h17.75v76.47H543.12v-8q-10.9,10.2-23.47,10.2-15.86,0-26.22-11.46-10.29-11.7-10.29-29.2,0-17.2,10.29-28.66A33.15,33.15,0,0,1,519.18,148q13.35,0,23.94,11Zm-41.92,38q0,11,5.89,17.9a19.26,19.26,0,0,0,15.23,7q9.81,0,15.86-6.75,6-7,6-17.74t-6-17.74a20,20,0,0,0-15.7-6.83,19.56,19.56,0,0,0-15.24,6.9Q501.19,177.78,501.2,188.07Z" transform="translate(0 -46.07)"/><path d="M595.38,93.94v132.6H577.72V93.94Z" transform="translate(0 -46.07)"/><path d="M659.77,163.1l-14.6,7.77q-3.45-7.06-8.56-7.06a5.9,5.9,0,0,0-4.16,1.61,5.39,5.39,0,0,0-1.73,4.12q0,4.4,10.21,8.71,14.05,6.06,18.92,11.15t4.87,13.74a24.06,24.06,0,0,1-8.17,18.53,27.77,27.77,0,0,1-19.15,7.06q-19.24,0-27.25-18.76l15.08-7q3.13,5.51,4.79,7a10.91,10.91,0,0,0,7.69,3q9,0,8.95-8.16,0-4.71-6.91-8.79-2.67-1.33-5.34-2.6T629,190.81q-7.69-3.76-10.84-7.53-4-4.78-4-12.33A21.76,21.76,0,0,1,621,154.47,23.94,23.94,0,0,1,638,148Q652.62,148,659.77,163.1Z" transform="translate(0 -46.07)"/><path d="M429.81,259.86v17.53q-4.51-5.52-8.09-7.57a15.83,15.83,0,0,0-8.26-2.11,16.28,16.28,0,0,0-12.37,5.22A18.3,18.3,0,0,0,396.17,286q0,8,4.74,13.19a16,16,0,0,0,12.25,5.15,16.7,16.7,0,0,0,8.38-2q3.52-2,8.27-7.73V312a34.59,34.59,0,0,1-16.06,4.16q-13.25,0-22.16-8.55a28.6,28.6,0,0,1-8.9-21.39,28.92,28.92,0,0,1,9-21.57,30.54,30.54,0,0,1,22.15-8.79A33.21,33.21,0,0,1,429.81,259.86Z" transform="translate(0 -46.07)"/><path d="M439.89,285.53a28.37,28.37,0,0,1,8.85-21,31.23,31.23,0,0,1,43.25.06,30.57,30.57,0,0,1-.06,43,30.27,30.27,0,0,1-21.86,8.61,29,29,0,0,1-21.51-8.79Q439.89,298.66,439.89,285.53Zm13.48.24q0,8.55,4.57,13.53t12.36,5q7.74,0,12.37-5t4.63-13.3q0-8.32-4.63-13.3a17.53,17.53,0,0,0-24.62,0Q453.37,277.8,453.37,285.77Z" transform="translate(0 -46.07)"/><path d="M506.4,279.73h26.14v11.49H506.4Z" transform="translate(0 -46.07)"/><path d="M538.17,285.53a28.37,28.37,0,0,1,8.85-21,31.23,31.23,0,0,1,43.25.06,30.57,30.57,0,0,1-.06,43,30.25,30.25,0,0,1-21.86,8.61,29,29,0,0,1-21.51-8.79Q538.17,298.66,538.17,285.53Zm13.48.24q0,8.55,4.57,13.53a16.11,16.11,0,0,0,12.37,5q7.73,0,12.36-5t4.63-13.3q0-8.32-4.63-13.3a17.52,17.52,0,0,0-24.61,0Q551.65,277.8,551.65,285.77Z" transform="translate(0 -46.07)"/><path d="M619.41,345.54H606.23V257.4h13.18v6.21q7.8-7.78,17.7-7.79a24.68,24.68,0,0,1,19.4,8.67q7.74,8.63,7.74,21.74,0,12.84-7.68,21.4a24.72,24.72,0,0,1-19.22,8.49q-10,0-17.94-8Zm31.36-59.25q0-8.21-4.46-13.36A14.38,14.38,0,0,0,635,267.71a15.05,15.05,0,0,0-11.78,5.05q-4.51,5-4.52,13.24,0,8,4.52,13.24a14.78,14.78,0,0,0,11.72,5.1,14.28,14.28,0,0,0,11.31-5.15A18.73,18.73,0,0,0,650.77,286.29Z" transform="translate(0 -46.07)"/></g></g></svg>