<?xml version="1.0" encoding="utf-8"?>
<!-- Generator: Adobe Illustrator 17.0.0, SVG Export Plug-In . SVG Version: 6.00 Build 0)  -->
<!DOCTYPE svg PUBLIC "-//W3C//DTD SVG 1.1//EN" "http://www.w3.org/Graphics/SVG/1.1/DTD/svg11.dtd">
<svg xmlns="http://www.w3.org/2000/svg" xmlns:xlink="http://www.w3.org/1999/xlink" version="1.1" x="0px" y="0px" width="216.667px" height="43.333px" viewBox="0 0 216.667 43.333" enable-background="new 0 0 216.667 43.333" xml:space="preserve">
<g id="Outline">
	<g>
		<path fill="#E93000" d="M1843.189,171.993v-6.255h14.355v12.817c-2.748,1.873-5.178,3.148-7.291,3.825s-4.618,1.015-7.516,1.015    c-3.568,0-6.477-0.608-8.726-1.825s-3.992-3.028-5.229-5.435s-1.856-5.168-1.856-8.285c0-3.281,0.677-6.135,2.03-8.562    s3.336-4.269,5.947-5.527c2.037-0.971,4.778-1.456,8.224-1.456c3.322,0,5.807,0.301,7.455,0.902s3.015,1.535,4.102,2.799    s1.904,2.868,2.451,4.809l-8.962,1.6c-0.369-1.135-0.995-2.003-1.876-2.604s-2.006-0.902-3.374-0.902    c-2.037,0-3.661,0.708-4.871,2.123s-1.815,3.654-1.815,6.716c0,3.254,0.612,5.578,1.835,6.973s2.929,2.092,5.117,2.092    c1.039,0,2.03-0.15,2.974-0.451s2.023-0.813,3.24-1.538v-2.83H1843.189z"/>
		<path fill="#E93000" d="M1861.33,152.818h9.311v30.064h-9.311V152.818z"/>
		<path fill="#E93000" d="M1875.206,152.818h9.29v22.661h14.499v7.403h-23.789V152.818z"/>
		<path fill="#E93000" d="M1901.243,152.818h13.802c2.721,0,4.918,0.369,6.593,1.107s3.059,1.798,4.153,3.179    s1.887,2.987,2.379,4.819s0.738,3.773,0.738,5.824c0,3.213-0.366,5.705-1.097,7.475s-1.747,3.254-3.045,4.45    s-2.693,1.993-4.184,2.389c-2.037,0.547-3.883,0.82-5.537,0.82h-13.802V152.818z M1910.533,159.627v16.427h2.276    c1.941,0,3.322-0.215,4.143-0.646s1.463-1.183,1.928-2.256s0.697-2.813,0.697-5.219c0-3.186-0.52-5.366-1.559-6.542    s-2.762-1.764-5.168-1.764H1910.533z"/>
		<path fill="#E93000" d="M1931.668,152.818h24.896v6.419h-15.586v4.778h14.458v6.132h-14.458v5.927h16.037v6.809h-25.348V152.818z"/>
		<path fill="#E93000" d="M1960.042,152.818h13.802c2.721,0,4.918,0.369,6.593,1.107s3.059,1.798,4.153,3.179    s1.887,2.987,2.379,4.819s0.738,3.773,0.738,5.824c0,3.213-0.366,5.705-1.097,7.475s-1.747,3.254-3.045,4.45    s-2.693,1.993-4.184,2.389c-2.037,0.547-3.883,0.82-5.537,0.82h-13.802V152.818z M1969.333,159.627v16.427h2.276    c1.941,0,3.322-0.215,4.143-0.646s1.463-1.183,1.928-2.256s0.697-2.813,0.697-5.219c0-3.186-0.52-5.366-1.559-6.542    s-2.762-1.764-5.168-1.764H1969.333z"/>
		<path fill="#E93000" d="M1826.455,207.337l8.839-0.554c0.191,1.436,0.581,2.529,1.169,3.281c0.957,1.217,2.324,1.825,4.102,1.825    c1.326,0,2.348-0.312,3.066-0.934s1.077-1.343,1.077-2.163c0-0.779-0.342-1.477-1.025-2.092s-2.27-1.196-4.758-1.743    c-4.074-0.916-6.979-2.133-8.716-3.65c-1.75-1.518-2.625-3.452-2.625-5.804c0-1.545,0.448-3.005,1.343-4.379    s2.242-2.454,4.04-3.24s4.262-1.179,7.393-1.179c3.842,0,6.771,0.714,8.788,2.143s3.216,3.702,3.599,6.819l-8.757,0.513    c-0.232-1.354-0.721-2.338-1.466-2.953s-1.774-0.923-3.086-0.923c-1.08,0-1.894,0.229-2.44,0.687s-0.82,1.016-0.82,1.672    c0,0.479,0.226,0.909,0.677,1.292c0.438,0.396,1.477,0.766,3.117,1.107c4.061,0.875,6.969,1.76,8.726,2.655    s3.035,2.007,3.835,3.333s1.2,2.81,1.2,4.45c0,1.928-0.533,3.705-1.6,5.332s-2.557,2.86-4.471,3.701s-4.327,1.262-7.239,1.262    c-5.113,0-8.654-0.984-10.623-2.953S1826.714,210.372,1826.455,207.337z"/>
		<path fill="#E93000" d="M1856.265,187.219h15.442c3.363,0,5.882,0.8,7.557,2.399s2.512,3.876,2.512,6.829    c0,3.035-0.913,5.407-2.738,7.116s-4.611,2.563-8.357,2.563h-5.086v11.156h-9.331V187.219z M1865.596,200.036h2.276    c1.791,0,3.049-0.312,3.773-0.934s1.087-1.418,1.087-2.389c0-0.943-0.314-1.743-0.943-2.399s-1.812-0.984-3.548-0.984h-2.646    V200.036z"/>
		<path fill="#E93000" d="M1884.537,187.219h9.29v22.661h14.499v7.403h-23.789V187.219z"/>
		<path fill="#E93000" d="M1910.82,187.219h9.311v30.064h-9.311V187.219z"/>
		<path fill="#E93000" d="M1924.757,187.219h8.675l11.32,16.633v-16.633h8.757v30.064h-8.757l-11.259-16.508v16.508h-8.736V187.219z    "/>
		<path fill="#E93000" d="M1955.469,187.219h28.239v7.424h-9.475v22.641h-9.29v-22.641h-9.475V187.219z"/>
		<path fill="#E93000" d="M1985.792,187.219h24.896v6.419h-15.586v4.778h14.458v6.132h-14.458v5.927h16.037v6.809h-25.348V187.219z"/>
		<path fill="#E93000" d="M2014.167,217.283v-30.064h15.483c2.871,0,5.065,0.246,6.583,0.738s2.741,1.404,3.671,2.737    s1.395,2.957,1.395,4.871c0,1.668-0.355,3.106-1.066,4.316c-0.712,1.21-1.69,2.191-2.935,2.943    c-0.793,0.479-1.881,0.875-3.263,1.189c1.106,0.369,1.913,0.739,2.418,1.108c0.342,0.246,0.837,0.773,1.486,1.58    c0.648,0.808,1.083,1.431,1.301,1.868l4.499,8.712h-10.497l-4.966-9.188c-0.629-1.189-1.189-1.962-1.682-2.317    c-0.67-0.465-1.429-0.697-2.276-0.697h-0.82v12.202H2014.167z M2023.498,199.4h3.917c0.424,0,1.244-0.137,2.461-0.41    c0.615-0.123,1.118-0.438,1.508-0.943s0.584-1.087,0.584-1.743c0-0.971-0.308-1.716-0.923-2.235s-1.771-0.779-3.466-0.779h-4.081    V199.4z"/>
		<path fill="#E93000" d="M2042.993,207.337l8.839-0.554c0.191,1.436,0.581,2.529,1.169,3.281c0.957,1.217,2.324,1.825,4.102,1.825    c1.326,0,2.349-0.312,3.066-0.934s1.076-1.343,1.076-2.163c0-0.779-0.342-1.477-1.025-2.092s-2.27-1.196-4.758-1.743    c-4.074-0.916-6.979-2.133-8.716-3.65c-1.75-1.518-2.625-3.452-2.625-5.804c0-1.545,0.448-3.005,1.344-4.379    s2.242-2.454,4.04-3.24s4.262-1.179,7.393-1.179c3.842,0,6.771,0.714,8.788,2.143s3.216,3.702,3.599,6.819l-8.757,0.513    c-0.232-1.354-0.721-2.338-1.466-2.953s-1.774-0.923-3.087-0.923c-1.08,0-1.894,0.229-2.44,0.687s-0.82,1.016-0.82,1.672    c0,0.479,0.226,0.909,0.677,1.292c0.438,0.396,1.477,0.766,3.117,1.107c4.061,0.875,6.97,1.76,8.727,2.655    s3.035,2.007,3.835,3.333s1.199,2.81,1.199,4.45c0,1.928-0.533,3.705-1.6,5.332s-2.557,2.86-4.471,3.701s-4.327,1.262-7.239,1.262    c-5.113,0-8.654-0.984-10.623-2.953S2043.252,210.372,2042.993,207.337z"/>
	</g>
	<g>
		<path d="M18.587,23.413V20.33h7.076v6.318c-1.355,0.923-2.552,1.552-3.594,1.885c-1.041,0.334-2.276,0.5-3.705,0.5    c-1.759,0-3.193-0.3-4.301-0.9c-1.109-0.6-1.968-1.493-2.578-2.679c-0.61-1.186-0.915-2.547-0.915-4.084    c0-1.617,0.334-3.024,1.001-4.22c0.667-1.196,1.644-2.104,2.931-2.724c1.004-0.478,2.355-0.718,4.053-0.718    c1.638,0,2.862,0.148,3.674,0.445s1.486,0.756,2.022,1.38c0.536,0.623,0.938,1.414,1.208,2.371l-4.417,0.788    c-0.182-0.559-0.49-0.987-0.925-1.284c-0.435-0.297-0.989-0.445-1.663-0.445c-1.004,0-1.804,0.349-2.401,1.046    c-0.596,0.698-0.895,1.801-0.895,3.311c0,1.604,0.302,2.75,0.905,3.437c0.603,0.687,1.444,1.031,2.522,1.031    c0.512,0,1.001-0.074,1.466-0.222c0.465-0.148,0.997-0.401,1.597-0.758v-1.395H18.587z"/>
		<path d="M27.528,13.961h4.589v14.819h-4.589V13.961z"/>
		<path d="M34.368,13.961h4.579v11.17h7.147v3.649H34.368V13.961z"/>
		<path d="M47.202,13.961h6.803c1.341,0,2.424,0.182,3.25,0.546c0.826,0.364,1.508,0.886,2.047,1.567    c0.539,0.681,0.93,1.473,1.173,2.376s0.364,1.86,0.364,2.871c0,1.584-0.18,2.812-0.541,3.685    c-0.361,0.873-0.861,1.604-1.501,2.194c-0.64,0.59-1.328,0.982-2.062,1.178c-1.004,0.27-1.914,0.404-2.729,0.404h-6.803V13.961z     M51.781,17.317v8.097h1.122c0.957,0,1.638-0.106,2.042-0.318c0.404-0.212,0.721-0.583,0.95-1.112    c0.229-0.529,0.344-1.387,0.344-2.573c0-1.57-0.256-2.645-0.768-3.225c-0.512-0.58-1.361-0.869-2.547-0.869H51.781z"/>
		<path d="M62.199,13.961H74.47v3.164h-7.682v2.355h7.126v3.023h-7.126v2.921h7.905v3.356H62.199V13.961z"/>
		<path d="M76.185,13.961h6.803c1.341,0,2.424,0.182,3.25,0.546s1.508,0.886,2.047,1.567c0.539,0.681,0.93,1.473,1.173,2.376    s0.364,1.86,0.364,2.871c0,1.584-0.18,2.812-0.541,3.685c-0.361,0.873-0.861,1.604-1.501,2.194    c-0.64,0.59-1.328,0.982-2.062,1.178c-1.004,0.27-1.914,0.404-2.729,0.404h-6.803V13.961z M80.764,17.317v8.097h1.122    c0.957,0,1.638-0.106,2.042-0.318c0.404-0.212,0.721-0.583,0.95-1.112c0.229-0.529,0.344-1.387,0.344-2.573    c0-1.57-0.256-2.645-0.768-3.225c-0.512-0.58-1.361-0.869-2.547-0.869H80.764z"/>
		<path d="M90.393,23.878l4.357-0.273c0.094,0.708,0.286,1.247,0.576,1.617c0.472,0.6,1.146,0.9,2.022,0.9    c0.654,0,1.157-0.153,1.511-0.46c0.354-0.307,0.531-0.662,0.531-1.066c0-0.384-0.168-0.728-0.505-1.031    c-0.337-0.303-1.119-0.59-2.345-0.859c-2.008-0.452-3.44-1.051-4.296-1.799c-0.863-0.748-1.294-1.702-1.294-2.861    c0-0.762,0.221-1.481,0.662-2.158c0.441-0.677,1.105-1.21,1.991-1.597c0.886-0.388,2.101-0.581,3.644-0.581    c1.894,0,3.337,0.352,4.331,1.056c0.994,0.704,1.585,1.825,1.774,3.361l-4.316,0.253c-0.115-0.667-0.355-1.152-0.723-1.456    c-0.367-0.303-0.874-0.455-1.521-0.455c-0.532,0-0.933,0.113-1.203,0.339c-0.27,0.226-0.404,0.5-0.404,0.824    c0,0.236,0.111,0.448,0.334,0.637c0.216,0.195,0.728,0.377,1.536,0.546c2.001,0.431,3.435,0.868,4.301,1.309    c0.866,0.441,1.496,0.989,1.89,1.643c0.394,0.654,0.591,1.385,0.591,2.194c0,0.95-0.263,1.826-0.788,2.628s-1.26,1.41-2.204,1.825    c-0.943,0.414-2.133,0.622-3.568,0.622c-2.52,0-4.266-0.485-5.236-1.456C91.07,26.607,90.521,25.374,90.393,23.878z"/>
		<path d="M105.087,13.961h7.612c1.658,0,2.899,0.394,3.725,1.183c0.826,0.788,1.238,1.911,1.238,3.366    c0,1.496-0.45,2.665-1.349,3.508c-0.9,0.842-2.273,1.264-4.119,1.264h-2.507v5.499h-4.599V13.961z M109.686,20.279h1.122    c0.883,0,1.503-0.153,1.86-0.46c0.357-0.307,0.536-0.699,0.536-1.178c0-0.465-0.155-0.859-0.465-1.183    c-0.31-0.323-0.893-0.485-1.749-0.485h-1.304V20.279z"/>
		<path d="M119.022,13.961h4.579v11.17h7.147v3.649h-11.726V13.961z"/>
		<path d="M131.977,13.961h4.589v14.819h-4.589V13.961z"/>
		<path d="M138.847,13.961h4.276l5.58,8.199v-8.199h4.316v14.819h-4.316l-5.55-8.137v8.137h-4.306V13.961z"/>
		<path d="M153.985,13.961h13.919v3.659h-4.67v11.16h-4.579v-11.16h-4.67V13.961z"/>
		<path d="M168.932,13.961h12.272v3.164h-7.682v2.355h7.126v3.023h-7.126v2.921h7.905v3.356h-12.494V13.961z"/>
		<path d="M182.918,28.781V13.961h7.632c1.415,0,2.497,0.121,3.245,0.364c0.748,0.243,1.351,0.692,1.809,1.35    c0.458,0.657,0.687,1.457,0.687,2.401c0,0.822-0.175,1.531-0.526,2.128c-0.351,0.596-0.833,1.08-1.446,1.451    c-0.391,0.236-0.927,0.431-1.608,0.586c0.546,0.182,0.943,0.364,1.192,0.546c0.168,0.122,0.413,0.381,0.732,0.779    c0.32,0.398,0.534,0.705,0.641,0.921l2.218,4.294h-5.174l-2.448-4.529c-0.31-0.586-0.586-0.967-0.829-1.142    c-0.33-0.229-0.704-0.344-1.122-0.344h-0.404v6.015H182.918z M187.517,19.966h1.931c0.209,0,0.613-0.067,1.213-0.202    c0.303-0.061,0.551-0.216,0.743-0.465c0.192-0.249,0.288-0.536,0.288-0.859c0-0.478-0.152-0.846-0.455-1.102    s-0.873-0.384-1.708-0.384h-2.012V19.966z"/>
		<path d="M197.126,23.878l4.357-0.273c0.094,0.708,0.286,1.247,0.576,1.617c0.472,0.6,1.146,0.9,2.022,0.9    c0.654,0,1.157-0.153,1.511-0.46c0.354-0.307,0.531-0.662,0.531-1.066c0-0.384-0.168-0.728-0.505-1.031s-1.119-0.59-2.345-0.859    c-2.008-0.452-3.44-1.051-4.296-1.799c-0.863-0.748-1.294-1.702-1.294-2.861c0-0.762,0.221-1.481,0.662-2.158    c0.441-0.677,1.105-1.21,1.991-1.597c0.886-0.388,2.101-0.581,3.644-0.581c1.894,0,3.337,0.352,4.331,1.056    c0.994,0.704,1.585,1.825,1.774,3.361l-4.316,0.253c-0.115-0.667-0.355-1.152-0.723-1.456c-0.367-0.303-0.874-0.455-1.521-0.455    c-0.532,0-0.933,0.113-1.203,0.339c-0.27,0.226-0.404,0.5-0.404,0.824c0,0.236,0.111,0.448,0.334,0.637    c0.216,0.195,0.728,0.377,1.536,0.546c2.001,0.431,3.435,0.868,4.301,1.309c0.866,0.441,1.496,0.989,1.89,1.643    s0.591,1.385,0.591,2.194c0,0.95-0.263,1.826-0.788,2.628c-0.526,0.802-1.26,1.41-2.204,1.825    c-0.943,0.414-2.133,0.622-3.568,0.622c-2.52,0-4.266-0.485-5.236-1.456C197.804,26.607,197.254,25.374,197.126,23.878z"/>
	</g>
	<rect x="27.526" y="11.825" fill="#EDDC77" width="4.589" height="1.582"/>
</g>
<g id="Vector">
	<text transform="matrix(1 0 0 1 1847.9327 406.5433)" font-family="'Arial-Black'" font-size="42" letter-spacing="-2">GILDEDSPLINTERS</text>
</g>
</svg>
