<?xml version="1.0" encoding="UTF-8"?>
<svg width="1903px" height="739px" viewBox="0 0 1903 739" version="1.1" xmlns="http://www.w3.org/2000/svg" xmlns:xlink="http://www.w3.org/1999/xlink">
    <!-- Generator: Sketch 50.2 (55047) - http://www.bohemiancoding.com/sketch -->
    <title>infact_grad@1.5x</title>
    <desc>Created with Sketch.</desc>
    <defs>
        <linearGradient x1="50%" y1="0%" x2="50%" y2="100%" id="linearGradient-1">
            <stop stop-color="#009CF3" offset="0%"></stop>
            <stop stop-color="#16D6D9" offset="100%"></stop>
        </linearGradient>
    </defs>
    <g id="logo" stroke="none" stroke-width="1" fill="none" fill-rule="evenodd" stroke-linecap="round" stroke-linejoin="round">
        <g id="new" transform="translate(-2276.000000, -1.000000)" stroke="url(#linearGradient-1)" stroke-width="13">
            <g id="infact_grad" transform="translate(2283.000000, 8.000000)">
                <g id="CT" transform="translate(1207.000000, 0.000000)">
                    <path d="M300.7,611 C282,620.4 261.7,625 239.9,625 C164.1,625 102.6,563.5 102.6,487.7 C102.6,411.9 164.1,354.4 239.9,354.4 C287.3,354.4 329.1,374.7 353.8,411.2" id="C"></path>
                    <path d="M597.1,723.5 L597.1,362.75 L682.5,362.75 L682.5,255.4 L597.1,255.4 L597.1,0.9 L483.9,0.9 L483.9,255.2 L439.5,255.2 L438.3,357.9 C395.2,294.3 322.9,252.4 239.9,252.4 C107.9,252.4 0.6,355.4 0.6,487.4 C0.6,619.4 107.9,724.6 239.9,724.6 L483.9,723.5 L483.9,360.1 L482.3,358.2 L439.5,358.2"></path>
                </g>
                <path d="M1139.20059,261 L1142,721.10039 L887.153427,722 C821.667156,722 768.878223,711.00477 726.187173,665.824371 C683.69608,620.044232 665,562.269297 665,493.699046 C665,426.328274 683.096206,370.552472 726.687068,325.272116 C767.878432,279.991761 820.267449,261.29987 854.56026,261.29987 L1139.20059,261 Z M1046.81995,359.557242 L897.951163,360.256938 C860.559002,360.256938 830.865227,370.252602 806.270384,396.44124 C781.275624,422.629879 769.478097,455.715525 769.478097,494.698612 C769.478097,534.58131 781.975477,567.966826 806.870258,594.455334 C831.865018,620.943842 861.158877,634.038161 899.550828,634.038161 L1046.81995,634.038161 L1046.81995,359.557242 Z" id="A"></path>
                <path d="M514,360.05 L1046.5,360.05 L1046.5,519 L1046.5,631.5 M1139.5,719.7 L1139.5,259.5 L525,259.5 L525,110.8 L787,108.9 L787,2.3 L412.6,0.4 L412.6,719.7" id="F"></path>
                <path d="M412.5,468.6 C412.5,424.3 407.2,397.8 394.7,380.6 C382.1,362.7 357.5,358.7 326.1,358 L223.1,358 L223.103762,360.278056 L222.8,722.6 L113,722.6 L113,259.2 L355.7,258 C410.6,258 452.4,273.6 483.6,307 C510.2,335.1 521.7,380.7 521.7,444.3 L521.7,722.6 L413.5,722.6 L412.5,720.697011 L412.5,468.6 Z" id="N"></path>
                <polygon id="I" points="0 722.5 112 722.5 112 3 0 3"></polygon>
            </g>
        </g>
    </g>
</svg>