<svg width="301" height="59" viewBox="0 0 301 59" fill="none" xmlns="http://www.w3.org/2000/svg">
<path opacity="0.8" d="M14.419 55.923C19.176 55.923 32.169 52.799 32.169 38.528V12.045C32.169 8.14 33.447 5.797 35.932 5.016V3.88H15.271V5.087L15.91 5.371C17.117 5.939 19.673 7.643 19.673 12.4V44.279C19.673 50.03 17.614 54.148 13.141 54.148C10.088 54.148 7.887 51.876 7.887 49.391C7.887 45.699 13.851 45.557 13.851 40.09C13.851 37.25 11.295 35.262 7.674 35.262C3.414 35.262 0.716 38.812 0.716 43.64C0.716 47.119 1.923 50.03 4.337 52.373C6.822 54.716 10.159 55.923 14.419 55.923ZM62.3013 0.897998C57.7573 3.738 54.0653 5.442 51.2253 6.081C51.3673 7.572 51.4383 8.779 51.4383 9.702C51.4383 11.193 51.1543 13.039 50.6573 15.169C50.1603 17.299 48.8113 22.127 46.6103 29.582C45.8293 32.351 44.3383 37.321 42.2083 44.421C40.5043 50.314 37.5223 53.438 33.2623 53.793V55H50.2313V53.793C48.7403 53.58 47.8173 53.296 46.3973 52.444C45.0483 51.521 44.3383 49.462 44.4093 46.551C44.4803 44.989 45.1193 42.007 46.2553 37.534H61.1653L61.9463 40.09C63.0113 43.427 63.7213 46.054 63.9343 48.113C63.9343 50.385 63.5083 51.521 62.6563 52.373C62.5853 52.586 61.7333 53.083 61.5203 53.154C61.4493 53.225 60.3843 53.793 60.3133 53.793V55H83.0333V53.793C80.6903 52.87 78.9153 51.166 77.4243 48.042C76.7143 46.409 76.1463 44.989 75.7203 43.782C75.2943 42.575 74.7263 40.729 74.0163 38.386L62.3013 0.897998ZM47.6753 32.422L48.3853 29.866C51.2963 19.713 52.7873 13.536 52.9293 11.335L60.5973 35.83H46.7523L47.6753 32.422ZM116.685 32.706L107.313 32.28V31.215H109.088C114.2 31.215 118.389 30.079 121.584 27.878C124.779 25.606 126.412 22.411 126.412 18.222C126.412 13.607 124.424 10.057 120.519 7.572C116.614 5.087 111.715 3.88 105.822 3.88H84.9481V5.016C87.2911 6.081 88.4981 8.637 88.4981 12.613V46.906C88.4981 50.953 86.4391 53.296 84.9481 53.864V55H104.402V53.864C102.911 53.296 100.994 50.953 100.994 46.906V31.215H102.627L114.342 51.379C115.691 53.793 117.892 55 121.087 55H131.879V53.864C129.607 53.225 127.69 51.521 126.128 48.823L116.685 32.706ZM100.994 5.371C104.402 5.371 107.384 6.578 109.94 8.921C112.567 11.264 113.845 14.317 113.845 18.222C113.845 21.63 113.135 24.47 111.715 26.671C110.366 28.872 108.733 30.008 106.958 30.008C105.254 30.008 103.266 29.795 100.994 29.369V5.371ZM164.319 32.706L154.947 32.28V31.215H156.722C161.834 31.215 166.023 30.079 169.218 27.878C172.413 25.606 174.046 22.411 174.046 18.222C174.046 13.607 172.058 10.057 168.153 7.572C164.248 5.087 159.349 3.88 153.456 3.88H132.582V5.016C134.925 6.081 136.132 8.637 136.132 12.613V46.906C136.132 50.953 134.073 53.296 132.582 53.864V55H152.036V53.864C150.545 53.296 148.628 50.953 148.628 46.906V31.215H150.261L161.976 51.379C163.325 53.793 165.526 55 168.721 55H179.513V53.864C177.241 53.225 175.324 51.521 173.762 48.823L164.319 32.706ZM148.628 5.371C152.036 5.371 155.018 6.578 157.574 8.921C160.201 11.264 161.479 14.317 161.479 18.222C161.479 21.63 160.769 24.47 159.349 26.671C158 28.872 156.367 30.008 154.592 30.008C152.888 30.008 150.9 29.795 148.628 29.369V5.371ZM201.823 55.923C209.349 55.923 215.242 53.438 219.573 48.397C223.904 43.356 226.105 37.037 226.105 29.582C226.105 22.127 223.975 15.808 219.715 10.696C215.526 5.513 209.846 2.957 202.746 2.957C195.291 2.957 189.398 5.513 185.067 10.625C180.807 15.737 178.677 22.056 178.677 29.582C178.677 37.037 180.736 43.285 184.925 48.326C189.114 53.367 194.794 55.923 201.823 55.923ZM214.674 39.025C214.816 46.693 212.615 53.509 206.154 53.722C203.243 53.722 200.474 51.805 197.918 47.971C195.433 44.066 193.516 39.593 192.167 34.481C190.818 29.298 190.179 24.47 190.179 19.997C190.179 10.128 192.948 5.229 198.415 5.229C201.397 5.229 204.166 7.146 206.722 11.051C209.349 14.956 211.266 19.429 212.615 24.612C213.964 29.724 214.674 34.552 214.674 39.025ZM283.591 5.087C285.082 5.3 285.934 5.584 287.283 6.507C288.703 7.359 289.413 9.418 289.413 12.258C289.271 14.459 287.922 20.068 285.437 29.014C282.526 39.167 281.035 45.344 280.893 47.545L271.876 18.79C270.811 15.453 270.101 12.826 269.888 10.767C269.817 8.566 270.385 7.217 271.095 6.507C271.308 6.294 272.16 5.797 272.231 5.726C272.444 5.655 273.438 5.087 273.509 5.087V3.88H250.789V5.087C253.132 6.01 254.907 7.714 256.327 10.909C257.108 12.471 257.676 13.891 258.102 15.098C258.528 16.305 259.096 18.151 259.806 20.494L260.942 24.044L259.451 29.014C256.682 38.528 255.12 44.705 254.907 47.474L245.89 18.79C244.754 15.311 244.115 12.684 243.973 10.767C243.76 6.72 245.677 6.01 247.523 5.087V3.88H225.087V5.087C227.146 6.294 228.637 7.856 229.631 9.702C230.341 10.98 231.761 14.601 233.891 20.494L244.896 58.124L246.245 57.272C248.162 56.065 252.493 54.077 256.682 52.941C256.54 51.379 256.469 50.243 256.469 49.462C256.398 47.971 256.611 46.054 257.108 43.782C257.605 41.439 259.025 36.611 261.226 29.227L261.865 27.168L271.521 57.982C276.065 55.142 279.757 53.438 282.597 52.799C282.455 51.308 282.384 50.101 282.384 49.178C282.384 47.687 282.668 45.841 283.165 43.711C283.662 41.581 285.011 36.753 287.212 29.227C287.922 26.6 289.413 21.701 291.614 14.459C293.318 8.566 296.3 5.442 300.56 5.087V3.88H283.591V5.087Z" fill="black"/>
</svg>
