<?xml version="1.0" encoding="UTF-8" standalone="no"?>
<svg xmlns:dc="http://purl.org/dc/elements/1.1/" xmlns:cc="http://creativecommons.org/ns#" xmlns:rdf="http://www.w3.org/1999/02/22-rdf-syntax-ns#" xmlns:svg="http://www.w3.org/2000/svg" xmlns="http://www.w3.org/2000/svg" viewBox="0 0 1122.52 793.70667" height="793.70667" width="1122.52" xml:space="preserve" id="svg2" version="1.1">
  <defs id="defs6"/>
  <g transform="matrix(1.3333333,0,0,-1.3333333,0,793.70667)" id="g10">
    <g transform="scale(0.1)" id="g12">
      <path id="path14" style="fill:#ffffff;fill-opacity:1;fill-rule:nonzero;stroke:none" d="M 8418.9,0.0507813 H 0 V 5952.8 H 8418.9 V 0.0507813"/>
      <path id="path16" style="fill:#bb437f;fill-opacity:1;fill-rule:nonzero;stroke:none" d="m 2717.74,2549.75 348.3,348.33 c 43.04,43.02 43.04,112.77 0,155.81 l -348.3,348.28 -155.78,-155.76 270.41,-270.43 -270.41,-270.47 155.78,-155.76"/>
      <path id="path18" style="fill:#bb437f;fill-opacity:1;fill-rule:nonzero;stroke:none" d="m 2452.88,2596.46 -276.55,-276.55 -656.08,656.07 656.08,656.04 276.55,-276.56 155.81,155.76 -354.48,354.49 c -42.98,43.05 -112.78,43.05 -155.78,0 l -811.89,-811.82 c -20.67,-20.68 -32.26,-48.7 -32.26,-77.91 0,-29.22 11.59,-57.26 32.26,-77.9 l 811.89,-811.88 c 20.64,-20.65 48.68,-32.27 77.9,-32.27 29.22,0 57.22,11.62 77.88,32.27 l 354.48,354.45 -155.81,155.81"/>
      <path id="path20" style="fill:#123848;fill-opacity:1;fill-rule:nonzero;stroke:none" d="m 3673.26,3552.01 c -71.95,0 -115.64,-35.12 -115.64,-94.23 v -140.49 c 0,-59.1 43.69,-94.23 115.64,-94.23 72.81,0 116.51,35.13 116.51,94.23 v 140.49 c 0,59.11 -43.7,94.23 -116.51,94.23 z m 0,69.38 c 123.36,0 192.75,-62.53 192.75,-164.47 v -139.63 c 0,-101.08 -69.39,-163.62 -192.75,-163.62 -120.78,0 -191.88,62.54 -191.88,163.62 v 139.63 c 0,101.94 71.1,164.47 191.88,164.47"/>
      <path id="path22" style="fill:#123848;fill-opacity:1;fill-rule:nonzero;stroke:none" d="m 4128.96,3551.15 c -37.7,0 -67.68,-6 -90.81,-12.85 -11.14,-5.14 -12.85,-7.71 -12.85,-17.99 v -274.12 c 19.7,-6.85 59.96,-22.27 105.36,-22.27 77.1,0 111.37,35.98 111.37,107.08 v 115.64 c 0,68.53 -37.69,104.51 -113.07,104.51 z m 11.13,70.24 c 122.5,0 179.03,-62.53 179.03,-172.18 v -120.78 c 0,-111.36 -58.25,-174.76 -182.46,-174.76 -48.83,0 -89.09,15.42 -111.36,23.13 v -178.17 c 0,-15.42 -5.13,-20.56 -20.55,-20.56 h -35.99 c -14.56,0 -19.7,5.14 -19.7,20.56 v 549.1 c 0,28.26 6,37.69 33.41,48.82 33.41,12.85 83.1,24.84 157.62,24.84"/>
      <path id="path24" style="fill:#123848;fill-opacity:1;fill-rule:nonzero;stroke:none" d="m 4589.79,3556.29 c -77.1,0 -117.36,-41.12 -117.36,-107.93 v -24.85 h 234.72 v 24.85 c 0,66.81 -39.42,107.93 -117.36,107.93 z m 0,65.1 c 131.92,0 193.6,-76.24 193.6,-177.32 v -49.68 c 0,-17.99 -7.72,-29.98 -31.7,-29.98 h -279.26 v -41.12 c 0,-65.1 39.41,-102.79 114.79,-102.79 60.82,0 97.65,23.12 119.07,59.1 10.27,14.56 17.99,16.28 33.41,7.71 l 23.12,-11.99 c 15.42,-7.71 17.14,-18.85 7.72,-33.41 -29.98,-52.25 -85.67,-88.24 -184.18,-88.24 -133.64,0 -190.17,73.68 -190.17,178.18 v 106.23 c 0,115.64 66.82,183.31 193.6,183.31"/>
      <path id="path26" style="fill:#123848;fill-opacity:1;fill-rule:nonzero;stroke:none" d="m 5064.33,3621.39 c 119.93,0 173.89,-63.38 173.89,-169.61 v -264.69 c 0,-15.42 -5.13,-20.56 -20.55,-20.56 h -35.98 c -15.42,0 -20.56,5.14 -20.56,20.56 v 262.12 c 0,67.68 -33.41,101.94 -107.08,101.94 -41.97,0 -75.38,-7.71 -99.37,-15.42 -8.57,-3.42 -10.28,-8.56 -10.28,-15.42 v -333.22 c 0,-15.42 -5.13,-20.56 -20.55,-20.56 h -35.99 c -14.56,0 -19.7,5.14 -19.7,20.56 v 357.21 c 0,26.56 6,36.83 32.55,47.97 33.41,13.7 83.96,29.12 163.62,29.12"/>
      <path id="path28" style="fill:#123848;fill-opacity:1;fill-rule:nonzero;stroke:none" d="m 5711.04,3551.15 c -77.1,0 -111.36,-36.83 -111.36,-107.08 v -115.64 c 0,-68.53 37.68,-104.51 113.07,-104.51 37.69,0 69.39,5.99 91.66,13.7 11.14,4.29 12,6.86 12,16.28 v 278.41 c -19.71,5.99 -57.41,18.84 -105.37,18.84 z m -14.57,70.24 c 53.12,0 97.66,-12.84 119.94,-18.84 v 177.32 c 0,15.42 5.13,20.56 20.55,20.56 h 35.98 c 14.56,0 19.71,-5.14 19.71,-20.56 v -552.52 c 0,-28.27 -6,-35.98 -33.41,-47.12 -33.41,-12.85 -80.53,-26.56 -153.34,-26.56 -125.93,0 -183.32,62.54 -183.32,172.19 v 120.78 c 0,111.37 57.39,174.75 173.89,174.75"/>
      <path id="path30" style="fill:#123848;fill-opacity:1;fill-rule:nonzero;stroke:none" d="m 6157.3,3361.84 c -80.51,0 -105.36,-23.13 -105.36,-71.96 0,-44.55 17.99,-71.96 103.66,-71.96 46.26,0 75.38,3.43 95.08,10.28 10.28,4.29 12.85,6.86 12.85,18.85 v 107.93 c -17.13,1.72 -64.25,6.86 -106.23,6.86 z m 6,259.55 c 138.78,0 177.33,-76.24 177.33,-173.03 v -223.58 c 0,-29.99 -6.86,-38.55 -30.84,-48.83 -31.69,-13.71 -80.52,-22.28 -147.34,-22.28 -150.77,0 -187.61,48.83 -187.61,136.21 0,100.22 54.83,134.49 191.03,134.49 41.98,0 83.09,-4.28 97.66,-5.99 v 32.54 c 0,60.83 -21.42,101.94 -101.94,101.94 -51.39,0 -85.66,-17.98 -106.22,-52.25 -9.42,-13.7 -12.85,-16.28 -28.27,-10.28 l -26.55,11.99 c -14.56,6 -18.85,13.71 -11.15,29.13 29.14,56.54 86.53,89.94 173.9,89.94"/>
      <path id="path32" style="fill:#123848;fill-opacity:1;fill-rule:nonzero;stroke:none" d="m 6560.75,3690.78 v -82.23 h 112.22 c 14.56,0 19.71,-5.14 19.71,-20.56 v -29.98 c 0,-15.42 -5.15,-20.57 -19.71,-20.57 h -112.22 v -199.59 c 0,-93.37 27.41,-111.36 110.51,-111.36 16.27,0 21.42,-4.29 21.42,-20.56 v -30.84 c 0,-15.42 -5.15,-19.7 -21.42,-20.56 -136.21,-3.42 -186.75,38.55 -186.75,181.61 v 201.3 h -71.1 c -15.42,0 -20.56,5.15 -20.56,20.57 v 29.98 c 0,15.42 5.14,20.56 20.56,20.56 h 71.1 v 82.23 c 0,15.42 4.29,20.56 19.7,20.56 h 35.99 c 15.42,0 20.55,-5.14 20.55,-20.56"/>
      <path id="path34" style="fill:#123848;fill-opacity:1;fill-rule:nonzero;stroke:none" d="m 6935.07,3361.84 c -80.52,0 -105.36,-23.13 -105.36,-71.96 0,-44.55 17.99,-71.96 103.65,-71.96 46.26,0 75.38,3.43 95.09,10.28 10.27,4.29 12.84,6.86 12.84,18.85 v 107.93 c -17.13,1.72 -64.25,6.86 -106.22,6.86 z m 5.99,259.55 c 138.78,0 177.33,-76.24 177.33,-173.03 v -223.58 c 0,-29.99 -6.86,-38.55 -30.84,-48.83 -31.69,-13.71 -80.52,-22.28 -147.34,-22.28 -150.77,0 -187.6,48.83 -187.6,136.21 0,100.22 54.82,134.49 191.02,134.49 41.99,0 83.1,-4.28 97.66,-5.99 v 32.54 c 0,60.83 -21.42,101.94 -101.93,101.94 -51.4,0 -85.67,-17.98 -106.23,-52.25 -9.42,-13.7 -12.85,-16.28 -28.27,-10.28 l -26.55,11.99 c -14.57,6 -18.85,13.71 -11.14,29.13 29.13,56.54 86.52,89.94 173.89,89.94"/>
      <path id="path36" style="fill:#123848;fill-opacity:1;fill-rule:nonzero;stroke:none" d="m 3650.14,2801.41 c 99.36,0 153.33,-36.83 179.03,-92.52 7.71,-15.41 3.43,-23.98 -10.28,-29.98 l -29.12,-11.99 c -15.42,-6.85 -19.71,-4.28 -28.28,9.42 -16.28,33.41 -43.69,55.69 -109.64,55.69 -65.96,0 -97.66,-20.56 -97.66,-61.68 0,-54.83 45.4,-61.67 116.5,-67.67 97.66,-9.43 169.61,-30.84 169.61,-131.93 0,-81.37 -59.1,-137.05 -179.03,-137.05 -97.66,0 -161.05,35.12 -187.6,105.36 -5.99,13.7 -2.58,22.28 12.84,27.41 l 29.13,10.29 c 13.71,4.28 20.56,2.56 27.42,-12.86 17.13,-44.54 55.68,-61.68 115.64,-61.68 72.81,0 107.08,23.14 107.08,65.11 0,51.4 -41.98,60.82 -113.93,67.68 -85.67,8.56 -173.9,23.12 -173.9,133.63 0,79.67 58.25,132.77 172.19,132.77"/>
      <path id="path38" style="fill:#123848;fill-opacity:1;fill-rule:nonzero;stroke:none" d="m 4101.55,2736.32 c -77.1,0 -117.35,-41.13 -117.35,-107.94 v -24.85 h 234.72 v 24.85 c 0,66.81 -39.42,107.94 -117.37,107.94 z m 0,65.09 c 131.93,0 193.6,-76.24 193.6,-177.32 v -49.69 c 0,-17.99 -7.71,-29.98 -31.69,-29.98 H 3984.2 v -41.11 c 0,-65.1 39.4,-102.8 114.78,-102.8 60.82,0 97.66,23.13 119.08,59.11 10.27,14.57 17.98,16.28 33.4,7.71 l 23.13,-11.99 c 15.42,-7.72 17.14,-18.85 7.71,-33.41 -29.98,-52.26 -85.66,-88.23 -184.17,-88.23 -133.64,0 -190.17,73.67 -190.17,178.17 v 106.22 c 0,115.65 66.82,183.32 193.59,183.32"/>
      <path id="path40" style="fill:#123848;fill-opacity:1;fill-rule:nonzero;stroke:none" d="m 4596.66,2801.41 c 15.42,0 20.56,-5.13 20.56,-20.55 v -29.13 c 0,-15.41 -5.14,-20.56 -20.56,-20.56 h -29.98 c -41.98,0 -73.67,-6.85 -98.52,-14.56 -11.13,-4.28 -11.99,-9.43 -11.99,-17.13 v -332.37 c 0,-15.42 -5.14,-20.56 -20.55,-20.56 h -35.99 c -14.56,0 -19.7,5.14 -19.7,20.56 v 359.77 c 0,26.56 6,36.84 32.55,47.98 31.7,11.99 81.38,24.83 156.77,26.55 h 27.41"/>
      <path id="path42" style="fill:#123848;fill-opacity:1;fill-rule:nonzero;stroke:none" d="M 5080.63,2765.44 4915.3,2363.68 c -5.99,-14.57 -12.85,-18.85 -28.27,-18.85 h -21.41 c -15.42,0 -22.28,4.28 -28.28,18.85 l -165.32,400.9 c -7.71,18.84 -3.43,23.98 17.13,23.98 h 25.69 c 24,0 29.99,-4.28 35.99,-20.55 l 100.22,-247.57 c 12.85,-35.12 20.56,-75.38 23.99,-82.23 h 3.43 c 2.57,6.85 10.27,46.25 23.12,81.37 l 99.38,248.43 c 5.99,16.27 11.99,20.55 35.97,20.55 h 27.42 c 18.83,0 23.98,-4.28 16.27,-23.12"/>
      <path id="path44" style="fill:#123848;fill-opacity:1;fill-rule:nonzero;stroke:none" d="m 5224.51,2768.01 v -400.9 c 0,-15.42 -5.13,-20.56 -20.55,-20.56 h -35.98 c -15.42,0 -20.56,5.14 -20.56,20.56 v 400.9 c 0,15.41 5.14,20.55 20.56,20.55 h 35.98 c 15.42,0 20.55,-5.14 20.55,-20.55 z m 5.15,141.33 v -6.84 c 0,-30.84 -9.43,-41.13 -41.12,-41.13 h -5.14 c -30.84,0 -41.12,9.44 -41.12,41.13 v 6.84 c 0,30.84 10.28,41.13 41.12,41.13 h 5.14 c 31.69,0 41.12,-10.29 41.12,-41.13"/>
      <path id="path46" style="fill:#123848;fill-opacity:1;fill-rule:nonzero;stroke:none" d="m 5499.46,2801.41 c 103.66,0 159.34,-47.11 180.75,-114.78 6,-16.28 0.86,-23.99 -13.7,-29.12 l -29.99,-9.44 c -15.42,-6.84 -23.12,-1.71 -29.12,13.71 -15.42,47.11 -47.97,71.96 -111.36,71.96 -74.53,0 -111.36,-37.69 -111.36,-101.08 v -129.35 c 0,-63.39 37.69,-101.94 111.36,-101.94 61.67,0 96.8,26.56 112.22,74.53 6.85,16.27 12.84,18.84 29.12,13.7 l 29.98,-8.56 c 15.42,-5.99 20.56,-12.85 14.56,-29.13 -27.41,-76.24 -85.65,-118.21 -187.59,-118.21 -126.78,0 -186.75,65.96 -186.75,173.04 v 122.49 c 0,106.23 61.68,172.18 191.88,172.18"/>
      <path id="path48" style="fill:#123848;fill-opacity:1;fill-rule:nonzero;stroke:none" d="m 5942.31,2736.32 c -77.1,0 -117.35,-41.13 -117.35,-107.94 v -24.85 h 234.72 v 24.85 c 0,66.81 -39.42,107.94 -117.37,107.94 z m 0,65.09 c 131.93,0 193.6,-76.24 193.6,-177.32 v -49.69 c 0,-17.99 -7.71,-29.98 -31.69,-29.98 h -279.26 v -41.11 c 0,-65.1 39.41,-102.8 114.79,-102.8 60.82,0 97.65,23.13 119.07,59.11 10.27,14.57 17.99,16.28 33.41,7.71 l 23.12,-11.99 c 15.42,-7.72 17.14,-18.85 7.72,-33.41 -29.98,-52.26 -85.67,-88.23 -184.18,-88.23 -133.64,0 -190.17,73.67 -190.17,178.17 v 106.22 c 0,115.65 66.82,183.32 193.59,183.32"/>
      <path id="path50" style="fill:#123848;fill-opacity:1;fill-rule:nonzero;stroke:none" d="m 6376.6,2801.41 c 99.37,0 153.33,-36.83 179.03,-92.52 7.71,-15.41 3.43,-23.98 -10.28,-29.98 l -29.12,-11.99 c -15.42,-6.85 -19.71,-4.28 -28.27,9.42 -16.28,33.41 -43.69,55.69 -109.65,55.69 -65.96,0 -97.66,-20.56 -97.66,-61.68 0,-54.83 45.4,-61.67 116.51,-67.67 97.65,-9.43 169.61,-30.84 169.61,-131.93 0,-81.37 -59.1,-137.05 -179.04,-137.05 -97.65,0 -161.04,35.12 -187.59,105.36 -6,13.7 -2.58,22.28 12.84,27.41 l 29.13,10.29 c 13.7,4.28 20.56,2.56 27.41,-12.86 17.13,-44.54 55.69,-61.68 115.65,-61.68 72.81,0 107.08,23.14 107.08,65.11 0,51.4 -41.99,60.82 -113.94,67.68 -85.66,8.56 -173.9,23.12 -173.9,133.63 0,79.67 58.26,132.77 172.19,132.77"/>
    </g>
  </g>
</svg>
