<svg xmlns="http://www.w3.org/2000/svg" viewBox="0 0 800 450"><defs><style>.cls-1{fill:#fff;}.cls-2,.cls-4{opacity:0.98;}.cls-3,.cls-4{fill:#113ecd;}.cls-5{fill:#414042;}</style></defs><title>Outlandish-logo-16x9</title><g id="Bkgd"><rect class="cls-1" x="1.115" width="798.885" height="450"/></g><g id="Layer_1_copy" data-name="Layer 1 copy"><g class="cls-2"><path class="cls-3" d="M400,66.776A103.552,103.552,0,1,1,296.448,170.328,103.669,103.669,0,0,1,400,66.776m0-14.12A117.672,117.672,0,1,0,517.672,170.328,117.671,117.671,0,0,0,400,52.656Z"/></g><path class="cls-4" d="M419.625,160.42a10.55,10.55,0,0,1-7.83-17.665,31.027,31.027,0,1,0,15.227,14.639A10.546,10.546,0,0,1,419.625,160.42Z"/><path class="cls-4" d="M462.228,171.009a11.147,11.147,0,0,1-5.884-1.614c-3.62-2.24-8.845-7.23-8.845-17.366V134.415h0a11.586,11.586,0,0,0-11.586-11.586H418.3c-10.14,0-15.13-5.23-17.369-8.85a11.17,11.17,0,0,1-1.618-5.879,11.156,11.156,0,0,1-1.619,5.884c-2.241,3.62-7.231,8.845-17.366,8.845H362.713a11.586,11.586,0,0,0-11.586,11.586h0V152.03c0,10.14-5.23,15.129-8.85,17.369a11.184,11.184,0,0,1-5.879,1.613,11.136,11.136,0,0,1,5.884,1.614c3.62,2.24,8.845,7.23,8.845,17.366v17.614h0a11.586,11.586,0,0,0,11.586,11.586h17.614c10.14,0,15.13,5.23,17.369,8.85a11.18,11.18,0,0,1,1.619,5.879,11.146,11.146,0,0,1,1.618-5.884c2.241-3.62,7.231-8.845,17.366-8.845h17.614A11.586,11.586,0,0,0,447.5,207.606h0V189.992c0-10.141,5.23-15.13,8.85-17.37A11.184,11.184,0,0,1,462.228,171.009ZM476.283,171v2.884c0,3.763-1.937,5.118-5.07,6.926-3.28,1.8-7.6,5.565-7.6,14.151v14.6c0,21.677-16.364,25.783-22.777,25.783l-2.965-.042h-14.6c-8.586,0-12.349,4.324-14.151,7.6-1.808,3.134-3.162,5.071-6.926,5.071h-5.758c-3.763,0-5.118-1.937-6.926-5.071-1.8-3.279-5.565-7.6-14.151-7.6h-14.6c-21.678,0-25.784-16.364-25.784-22.776l.042-2.965v-14.6c0-8.586-4.323-12.35-7.6-14.151-3.134-1.808-5.071-3.163-5.071-6.926v-5.749c0-3.763,1.937-5.118,5.071-6.926,3.279-1.8,7.6-5.565,7.6-14.151v-14.6c0-21.677,16.364-25.783,22.777-25.783l2.965.042h14.6c8.586,0,12.349-4.324,14.151-7.6,1.808-3.134,3.163-5.071,6.926-5.071h5.758c3.763,0,5.118,1.937,6.926,5.071,1.8,3.279,5.565,7.6,14.151,7.6h14.6c21.678,0,25.784,16.364,25.784,22.776l-.042,2.965v14.6c0,8.586,4.323,12.35,7.6,14.151,3.133,1.808,5.07,3.163,5.07,6.926V171"/><path class="cls-5" d="M516.029,343.457a7.682,7.682,0,1,1,3.119-14.7,2.763,2.763,0,1,0,3.9,3.9,7.674,7.674,0,0,1-7.015,10.8Z"/><path class="cls-5" d="M282.506,371.762q0,6.787-.75,8.861a8.43,8.43,0,0,1-3.116,4.211,8.84,8.84,0,0,1-5.106,1.434,8.516,8.516,0,0,1-5.061-1.457,8.164,8.164,0,0,1-2.984-4.077q-.93-2.623-.927-9.371v-23.1h-12.17v19.97q0,11.511,1.41,15.874a18.627,18.627,0,0,0,6.858,9.833q4.87,3.526,12.762,3.526,7.276,0,11.993-3.02a18.732,18.732,0,0,0,7.143-8.662q1.987-4.63,1.983-17.2V348.262H282.506Z"/><polygon class="cls-5" points="317.928 330.581 305.893 330.581 305.893 348.262 299.719 348.262 299.719 358.621 305.893 358.621 305.893 396.231 317.928 396.231 317.928 358.621 325.07 358.621 325.07 348.262 317.928 348.262 317.928 330.581"/><rect class="cls-5" x="330.186" y="329.742" width="12.032" height="66.489"/><path class="cls-5" d="M385.933,353.549a22.135,22.135,0,0,0-7-4.891,20.258,20.258,0,0,0-8.1-1.634,20.92,20.92,0,0,0-15.945,7.1q-6.558,7.1-6.557,18.21a25.141,25.141,0,0,0,6.783,17.922,21.338,21.338,0,0,0,16.07,7.208,19.781,19.781,0,0,0,7.687-1.478,23.561,23.561,0,0,0,7.067-4.825v5.069h12.036V348.262H385.933ZM382.727,382.5a12.389,12.389,0,0,1-9.4,3.945,12.156,12.156,0,0,1-9.247-4.011,15.76,15.76,0,0,1-.067-20.347,12.159,12.159,0,0,1,9.271-3.948,12.558,12.558,0,0,1,9.448,3.881,14,14,0,0,1,3.736,10.141A14.413,14.413,0,0,1,382.727,382.5Z"/><path class="cls-5" d="M431.151,347.024a17.94,17.94,0,0,0-6.8,1.351,28.788,28.788,0,0,0-7.419,4.8v-4.914H404.892v47.969H416.93V376.986a54.352,54.352,0,0,1,.527-9.733,13.063,13.063,0,0,1,3.628-6.761,8.865,8.865,0,0,1,6.27-2.442,7.516,7.516,0,0,1,4.727,1.473,7.813,7.813,0,0,1,2.682,4.295q.769,2.822.77,11.407v21.006h11.9v-31.7q0-8.291-4.181-12.521A16.471,16.471,0,0,0,431.151,347.024Z"/><path class="cls-5" d="M490.983,353.549a22.124,22.124,0,0,0-7-4.891,20.261,20.261,0,0,0-8.1-1.634,20.924,20.924,0,0,0-15.946,7.1q-6.552,7.1-6.557,18.21a25.141,25.141,0,0,0,6.783,17.922,21.339,21.339,0,0,0,16.07,7.208,19.77,19.77,0,0,0,7.687-1.478,23.528,23.528,0,0,0,7.068-4.825v5.069h12.035V329.742H490.983ZM487.777,382.5a12.392,12.392,0,0,1-9.4,3.945,12.159,12.159,0,0,1-9.248-4.011,14.364,14.364,0,0,1-3.757-10.229,14.22,14.22,0,0,1,3.691-10.118,12.156,12.156,0,0,1,9.271-3.948,12.561,12.561,0,0,1,9.448,3.881,14.009,14.009,0,0,1,3.736,10.141A14.417,14.417,0,0,1,487.777,382.5Z"/><path class="cls-5" d="M549.666,367.133l-4.412-2.206a13.548,13.548,0,0,1-3.587-2.226,2.618,2.618,0,0,1-.73-1.786,2.58,2.58,0,0,1,1.146-2.139,5.191,5.191,0,0,1,3.171-.859q3.708,0,8.245,4.5l7.453-7.449a19.458,19.458,0,0,0-15.783-7.94,15.934,15.934,0,0,0-11.223,4.036,12.747,12.747,0,0,0-4.386,9.723q0,8.817,11.64,14.683l4.054,2.026c3.5,1.764,5.247,3.571,5.247,5.423a3.319,3.319,0,0,1-1.453,2.647,6.01,6.01,0,0,1-3.833,1.146,10.938,10.938,0,0,1-5.047-1.523A17.078,17.078,0,0,1,535.2,381.2l-7.406,8.07a20.013,20.013,0,0,0,16.755,8.2q7.894,0,12.588-4.277a14.6,14.6,0,0,0,2.1-19.046Q556.634,370.572,549.666,367.133Z"/><path class="cls-5" d="M606.172,351.966a16.28,16.28,0,0,0-12.037-4.942,18.339,18.339,0,0,0-7.231,1.523,27.487,27.487,0,0,0-7.1,4.562V329.742H567.858v66.489H579.8V376.963q0-7.713.53-9.874a12.871,12.871,0,0,1,3.64-6.616,8.926,8.926,0,0,1,6.283-2.423A7.609,7.609,0,0,1,595,359.5a7.874,7.874,0,0,1,2.713,4.409q.792,2.952.792,11.287v21.031h11.862v-31.7Q610.362,356.241,606.172,351.966Z"/><rect class="cls-5" x="510.366" y="348.262" width="12.038" height="47.969"/><path class="cls-5" d="M212.786,328.028a34.629,34.629,0,1,0,34.629,34.629A34.629,34.629,0,0,0,212.786,328.028Zm.444,56.506a21.878,21.878,0,1,1,8.884-41.858,7.871,7.871,0,1,0,11.1,11.1,21.857,21.857,0,0,1-19.982,30.761Z"/><path class="cls-5" d="M621.843,324.1a5.728,5.728,0,1,1-5.709-5.574A5.6,5.6,0,0,1,621.843,324.1Zm-10.027,0a4.321,4.321,0,0,0,4.351,4.453,4.267,4.267,0,0,0,4.248-4.42,4.3,4.3,0,1,0-8.6-.033Zm3.435,2.923h-1.293v-5.574a11.2,11.2,0,0,1,2.143-.171,3.473,3.473,0,0,1,1.937.409,1.549,1.549,0,0,1,.542,1.223,1.428,1.428,0,0,1-1.154,1.292v.068a1.645,1.645,0,0,1,1.019,1.359,4.224,4.224,0,0,0,.409,1.394h-1.4a4.877,4.877,0,0,1-.442-1.359c-.1-.612-.44-.885-1.155-.885h-.611Zm.033-3.161h.612c.714,0,1.292-.238,1.292-.816,0-.51-.373-.85-1.19-.85a3.023,3.023,0,0,0-.714.069Z"/></g></svg>