<?xml version="1.0" encoding="UTF-8" standalone="no"?>
<!-- Created with Inkscape (http://www.inkscape.org/) -->

<svg
   xmlns:dc="http://purl.org/dc/elements/1.1/"
   xmlns:cc="http://creativecommons.org/ns#"
   xmlns:rdf="http://www.w3.org/1999/02/22-rdf-syntax-ns#"
   xmlns:svg="http://www.w3.org/2000/svg"
   xmlns="http://www.w3.org/2000/svg"
   xmlns:sodipodi="http://sodipodi.sourceforge.net/DTD/sodipodi-0.dtd"
   xmlns:inkscape="http://www.inkscape.org/namespaces/inkscape"
   width="270"
   height="240"
   id="svg2907"
   version="1.1"
   inkscape:version="0.47 r22583"
   sodipodi:docname="logo.svg">
  <defs
     id="defs2909">
    <inkscape:perspective
       sodipodi:type="inkscape:persp3d"
       inkscape:vp_x="0 : 526.18109 : 1"
       inkscape:vp_y="0 : 1000 : 0"
       inkscape:vp_z="744.09448 : 526.18109 : 1"
       inkscape:persp3d-origin="372.04724 : 350.78739 : 1"
       id="perspective2915" />
    <inkscape:perspective
       id="perspective2895"
       inkscape:persp3d-origin="0.5 : 0.33333333 : 1"
       inkscape:vp_z="1 : 0.5 : 1"
       inkscape:vp_y="0 : 1000 : 0"
       inkscape:vp_x="0 : 0.5 : 1"
       sodipodi:type="inkscape:persp3d" />
  </defs>
  <sodipodi:namedview
     id="base"
     pagecolor="#ffffff"
     bordercolor="#666666"
     borderopacity="1.0"
     inkscape:pageopacity="0.0"
     inkscape:pageshadow="2"
     inkscape:zoom="2"
     inkscape:cx="251.16442"
     inkscape:cy="87.357665"
     inkscape:document-units="px"
     inkscape:current-layer="layer1"
     showgrid="false"
     inkscape:window-width="1278"
     inkscape:window-height="1003"
     inkscape:window-x="0"
     inkscape:window-y="19"
     inkscape:window-maximized="0"
     showguides="true"
     inkscape:guide-bbox="true">
    <inkscape:grid
       type="xygrid"
       id="grid3009"
       empspacing="5"
       visible="true"
       enabled="true"
       snapvisiblegridlinesonly="true" />
  </sodipodi:namedview>
  <metadata
     id="metadata2912">
    <rdf:RDF>
      <cc:Work
         rdf:about="">
        <dc:format>image/svg+xml</dc:format>
        <dc:type
           rdf:resource="http://purl.org/dc/dcmitype/StillImage" />
        <dc:title></dc:title>
      </cc:Work>
    </rdf:RDF>
  </metadata>
  <g
     inkscape:label="Layer 1"
     inkscape:groupmode="layer"
     id="layer1"
     transform="translate(0,-812.36218)">
    <g
       transform="matrix(0,-1.8509162,1.8509162,0,-24.725692,1323.0656)"
       style="font-size:14px;font-style:normal;font-variant:normal;font-weight:normal;font-stretch:normal;text-align:start;line-height:125%;writing-mode:lr-tb;text-anchor:start;fill:#58585a;fill-opacity:1;stroke:#58585a;stroke-width:0.31090507;stroke-miterlimit:4;stroke-opacity:1;display:inline;font-family:saxMono;-inkscape-font-specification:saxMono"
       id="flowRoot3706">
      <path
         d="m 158.88965,146.64307 0.90918,-4.62793 c 0.11393,-0.58333 0.37369,-0.875 0.77929,-0.875 0.41927,0 0.69954,0.31218 0.84083,0.93652 l 1.01855,4.56641 0.63574,-8.37403 c 0.0228,-0.32811 0.16862,-0.49218 0.4375,-0.49218 0.29166,0 0.43294,0.14812 0.42383,0.44433 l -0.007,0.19141 -0.58789,8.07324 c -0.0501,0.66536 -0.34864,0.99805 -0.8955,0.99805 -0.30535,0 -0.53093,-0.0911 -0.67676,-0.27344 -0.10027,-0.13216 -0.18913,-0.36914 -0.2666,-0.71094 l -0.92286,-4.10156 -0.75878,4.04687 c -0.12761,0.69271 -0.44434,1.03907 -0.9502,1.03907 -0.53776,0 -0.83854,-0.34636 -0.90234,-1.03907 l -0.73828,-8.05957 c -0.009,-0.10025 -0.0137,-0.16861 -0.0137,-0.20507 0,-0.26888 0.12761,-0.40332 0.38282,-0.40332 0.27799,0 0.43294,0.16635 0.46484,0.49902 l 0.82715,8.36719"
         id="path2941" />
      <path
         d="m 166.85352,138.85693 0,3.15821 3.26757,0 c 0.43294,0 0.64941,0.139 0.64942,0.41699 -1e-5,0.31901 -0.21648,0.47852 -0.64942,0.47851 l -3.26757,0 0,3.48633 4.57324,0 c 0.43293,0 0.6494,0.14128 0.64941,0.42383 -1e-5,0.31901 -0.21648,0.47852 -0.64941,0.47852 l -4.92871,0 c -0.38737,0 -0.58106,-0.18913 -0.58106,-0.56739 l 0,-8.2373 c 0,-0.15494 0.057,-0.28254 0.1709,-0.38281 0.11393,-0.10025 0.25065,-0.15038 0.41016,-0.15039 l 4.92187,0 c 0.4375,1e-5 0.65624,0.139 0.65625,0.41699 -1e-5,0.31902 -0.21875,0.47852 -0.65625,0.47851 l -4.5664,0"
         id="path2943" />
      <path
         d="m 179.31543,142.41162 c 0.97525,0.31902 1.46288,1.05502 1.46289,2.20801 -1e-5,1.78646 -0.8864,2.67969 -2.65918,2.67969 l -3.28125,0 c -0.33268,0 -0.49902,-0.15267 -0.49902,-0.45801 l 0,-8.3877 c 0,-0.33267 0.16634,-0.49901 0.49902,-0.49902 l 2.8916,0 c 1.8457,1e-5 2.76855,0.77703 2.76856,2.33105 -1e-5,0.97983 -0.39422,1.68849 -1.18262,2.12598 m -4.04004,3.98535 2.76172,0 c 0.61979,0 1.07551,-0.13444 1.36719,-0.40332 0.29621,-0.26888 0.44433,-0.71093 0.44433,-1.32617 0,-0.54231 -0.15267,-0.9707 -0.45801,-1.28516 -0.30078,-0.31444 -0.72005,-0.47167 -1.25781,-0.47168 l -2.85742,0 0,3.48633 m 0,-4.38183 2.84375,0 c 0.45572,0 0.81575,-0.16406 1.08008,-0.49219 0.24609,-0.30078 0.36913,-0.68587 0.36914,-1.15527 -1e-5,-0.48307 -0.1504,-0.85905 -0.45117,-1.12793 -0.29167,-0.2552 -0.68132,-0.38281 -1.16895,-0.38282 l -2.67285,0 0,3.15821"
         id="path2945" />
      <path
         d="m 187.67578,144.59229 -3.70508,0 -0.52636,2.61816 c -0.0365,0.18229 -0.1709,0.27344 -0.40332,0.27344 -0.32357,0 -0.47624,-0.12761 -0.45801,-0.38282 0.0137,-0.17773 0.24837,-1.40592 0.7041,-3.68457 0.41927,-2.07812 0.7041,-3.43847 0.85449,-4.08105 0.21419,-1.03905 0.78385,-1.55859 1.70899,-1.55859 0.92512,0 1.49478,0.51954 1.70898,1.55859 0.28255,1.33529 0.5651,2.67058 0.84766,4.00586 0.47851,2.27865 0.71776,3.50683 0.71777,3.68457 -1e-5,0.30989 -0.16179,0.46484 -0.48535,0.46484 -0.25522,0 -0.40561,-0.11165 -0.45117,-0.33496 l -0.5127,-2.56347 m -3.54785,-0.90235 3.37012,0 -0.75879,-3.84863 c -0.1504,-0.77473 -0.46257,-1.1621 -0.93653,-1.16211 -0.28255,1e-5 -0.49674,0.1071 -0.64257,0.32129 -0.1185,0.17774 -0.21876,0.4808 -0.30079,0.90918 l -0.73144,3.78027"
         id="path2947" />
      <path
         d="m 195.69434,143.09521 1.99609,3.58204 c 0.082,0.14583 0.12304,0.28255 0.12305,0.41015 -1e-5,0.26888 -0.14129,0.40332 -0.42383,0.40332 -0.20053,0 -0.36687,-0.11621 -0.49903,-0.34863 l -2.16015,-3.85547 -2.61133,0 0,3.6709 c 0,0.35547 -0.15495,0.5332 -0.46484,0.5332 -0.31446,0 -0.47168,-0.17773 -0.47168,-0.5332 l 0,-8.49023 c 0,-0.1914 0.0319,-0.32356 0.0957,-0.39649 0.0638,-0.0729 0.19141,-0.10936 0.38281,-0.10937 l 3.43848,0 c 0.78841,1e-5 1.3968,0.24838 1.82519,0.74511 0.40104,0.46941 0.60156,1.10515 0.60157,1.90723 -10e-6,0.72917 -0.13217,1.27377 -0.39649,1.63379 -0.25977,0.36003 -0.73828,0.64258 -1.43554,0.84765 m -3.5752,-0.71093 2.57031,0 c 1.27148,0 1.90722,-0.58789 1.90723,-1.76367 -1e-5,-0.51041 -0.11166,-0.92057 -0.33496,-1.23047 -0.25066,-0.35546 -0.62208,-0.5332 -1.11426,-0.53321 l -3.02832,0 0,3.52735"
         id="path2949" />
      <path
         d="m 199.7002,144.59912 0,-3.82812 c -1e-5,-1.99609 1.05956,-2.99414 3.17871,-2.99414 0.86132,0 1.55403,0.19141 2.07812,0.57421 0.60156,0.46941 0.90234,1.09604 0.90234,1.87989 0,0.37826 -0.15267,0.56739 -0.458,0.56738 -0.21876,1e-5 -0.37599,-0.17773 -0.47168,-0.5332 -0.0592,-0.30533 -0.17319,-0.59472 -0.3418,-0.86817 -0.26433,-0.4785 -0.85678,-0.71776 -1.77734,-0.71777 -0.78842,1e-5 -1.35352,0.19825 -1.69532,0.59473 -0.31901,0.35547 -0.47851,0.93653 -0.47851,1.74316 l 0,3.19238 c 0,0.82943 0.16862,1.42188 0.50586,1.77735 0.36002,0.40104 0.93424,0.60156 1.72265,0.60156 1.18945,0 1.8776,-0.41927 2.06446,-1.25781 0.0684,-0.3099 0.10481,-0.4694 0.10937,-0.47852 0.0684,-0.17317 0.18912,-0.25976 0.36231,-0.25976 0.30533,0 0.458,0.18913 0.458,0.56738 0,0.75195 -0.31673,1.35807 -0.95019,1.81836 -0.51042,0.33724 -1.17807,0.50586 -2.00293,0.50586 -0.97982,0 -1.74772,-0.23243 -2.30371,-0.69727 -0.60156,-0.49674 -0.90235,-1.22591 -0.90234,-2.1875"
         id="path2951" />
      <path
         d="m 208.97656,142.01514 4.29297,0 0,-3.56153 c 0,-0.45116 0.15722,-0.67675 0.47168,-0.67675 0.30533,0 0.458,0.22559 0.45801,0.67675 l 0,8.54493 c -1e-5,0.32356 -0.15496,0.48535 -0.46485,0.48535 -0.3099,0 -0.46484,-0.16179 -0.46484,-0.48535 l 0,-4.0879 -4.29297,0 0,4.04004 c 0,0.35547 -0.15495,0.53321 -0.46484,0.53321 -0.31446,0 -0.47168,-0.17774 -0.47168,-0.53321 l 0,-8.37402 c 0,-0.53319 0.15722,-0.7998 0.47168,-0.7998 0.30989,0 0.46484,0.25293 0.46484,0.75878 l 0,3.4795"
         id="path2953" />
      <path
         d="m 219.07324,146.39697 0,-7.5332 -1.65429,0 c -0.39193,1e-5 -0.5879,-0.15038 -0.5879,-0.45117 0,-0.30077 0.17546,-0.45116 0.52637,-0.45117 l 4.34082,0 c 0.36458,1e-5 0.54687,0.14356 0.54688,0.43066 -10e-6,0.31446 -0.1823,0.47169 -0.54688,0.47168 l -1.69531,0 0,7.5332 1.62012,0 c 0.4147,0 0.62206,0.15039 0.62207,0.45117 -10e-6,0.30079 -0.20737,0.45118 -0.62207,0.45118 l -4.2793,0 c -0.3418,0 -0.5127,-0.14356 -0.5127,-0.43067 0,-0.31445 0.1709,-0.47168 0.5127,-0.47168 l 1.72949,0"
         id="path2955" />
      <path
         d="m 227.48828,138.85693 -2.50195,0 c -0.32357,1e-5 -0.48535,-0.14354 -0.48535,-0.43066 0,-0.30989 0.18457,-0.46483 0.55371,-0.46484 l 5.7832,0 c 0.37825,1e-5 0.56738,0.14812 0.56738,0.44433 0,0.30079 -0.18913,0.45118 -0.56738,0.45117 l -2.41992,0 0,8.10059 c -1e-5,0.35547 -0.15267,0.5332 -0.45801,0.5332 -0.31446,0 -0.47168,-0.17773 -0.47168,-0.5332 l 0,-8.10059"
         id="path2957" />
      <path
         d="m 234.22852,138.85693 0,3.15821 3.26757,0 c 0.43294,0 0.64941,0.139 0.64942,0.41699 -1e-5,0.31901 -0.21648,0.47852 -0.64942,0.47851 l -3.26757,0 0,3.48633 4.57324,0 c 0.43293,0 0.6494,0.14128 0.64941,0.42383 -1e-5,0.31901 -0.21648,0.47852 -0.64941,0.47852 l -4.92871,0 c -0.38737,0 -0.58106,-0.18913 -0.58106,-0.56739 l 0,-8.2373 c 0,-0.15494 0.057,-0.28254 0.1709,-0.38281 0.11393,-0.10025 0.25065,-0.15038 0.41016,-0.15039 l 4.92187,0 c 0.4375,1e-5 0.65624,0.139 0.65625,0.41699 -1e-5,0.31902 -0.21875,0.47852 -0.65625,0.47851 l -4.5664,0"
         id="path2959" />
      <path
         d="m 241.80957,144.59912 0,-3.82812 c 0,-1.99609 1.05957,-2.99414 3.17871,-2.99414 0.86132,0 1.55403,0.19141 2.07813,0.57421 0.60155,0.46941 0.90233,1.09604 0.90234,1.87989 -1e-5,0.37826 -0.15268,0.56739 -0.45801,0.56738 -0.21875,1e-5 -0.37598,-0.17773 -0.47168,-0.5332 -0.0593,-0.30533 -0.17318,-0.59472 -0.34179,-0.86817 -0.26433,-0.4785 -0.85678,-0.71776 -1.77735,-0.71777 -0.78841,1e-5 -1.35352,0.19825 -1.69531,0.59473 -0.31901,0.35547 -0.47852,0.93653 -0.47852,1.74316 l 0,3.19238 c 0,0.82943 0.16862,1.42188 0.50586,1.77735 0.36003,0.40104 0.93424,0.60156 1.72266,0.60156 1.18945,0 1.8776,-0.41927 2.06445,-1.25781 0.0684,-0.3099 0.10481,-0.4694 0.10938,-0.47852 0.0684,-0.17317 0.18912,-0.25976 0.3623,-0.25976 0.30533,0 0.458,0.18913 0.45801,0.56738 -1e-5,0.75195 -0.31674,1.35807 -0.9502,1.81836 -0.51042,0.33724 -1.17806,0.50586 -2.00293,0.50586 -0.97982,0 -1.74772,-0.23243 -2.30371,-0.69727 -0.60156,-0.49674 -0.90234,-1.22591 -0.90234,-2.1875"
         id="path2961" />
      <path
         d="m 252.75391,138.85693 -2.50196,0 c -0.32357,1e-5 -0.48535,-0.14354 -0.48535,-0.43066 0,-0.30989 0.18457,-0.46483 0.55371,-0.46484 l 5.78321,0 c 0.37824,1e-5 0.56737,0.14812 0.56738,0.44433 -1e-5,0.30079 -0.18914,0.45118 -0.56738,0.45117 l -2.41993,0 0,8.10059 c 0,0.35547 -0.15267,0.5332 -0.458,0.5332 -0.31446,0 -0.47169,-0.17773 -0.47168,-0.5332 l 0,-8.10059"
         id="path2963" />
      <path
         d="m 258.42773,140.27881 c 0,-0.85221 0.3099,-1.49706 0.92969,-1.93457 0.53776,-0.37825 1.25098,-0.56738 2.13965,-0.56738 1.3763,0 2.36067,0.33724 2.95313,1.01171 0.15494,0.17775 0.23241,0.33953 0.23242,0.48536 -10e-6,0.25521 -0.13445,0.38282 -0.40332,0.38281 -0.10938,10e-6 -0.27573,-0.0752 -0.49903,-0.22559 -0.21875,-0.15038 -0.4694,-0.29166 -0.75195,-0.42383 -0.48308,-0.21874 -1.01856,-0.32811 -1.60645,-0.32812 -0.57422,1e-5 -1.04362,0.11622 -1.4082,0.34863 -0.4375,0.27345 -0.65625,0.68132 -0.65625,1.22363 0,0.64259 0.48307,1.11199 1.44922,1.40821 l 2.625,0.82031 c 1.01627,0.44662 1.52441,1.23503 1.52441,2.36523 0,0.87501 -0.36003,1.56316 -1.08007,2.06446 -0.60613,0.38737 -1.39226,0.58105 -2.3584,0.58105 -0.59245,0 -1.21908,-0.10026 -1.87988,-0.30078 -0.87501,-0.26888 -1.31251,-0.62435 -1.3125,-1.0664 -10e-6,-0.25977 0.13216,-0.38965 0.39648,-0.38965 0.1276,0 0.42383,0.1276 0.88867,0.38281 0.57422,0.31445 1.23502,0.47168 1.98242,0.47168 0.64713,0 1.19401,-0.14128 1.64063,-0.42383 0.52864,-0.33268 0.79296,-0.80436 0.79297,-1.41504 -10e-6,-0.85677 -0.51043,-1.41275 -1.53125,-1.66797 l -1.98242,-0.6289 c -1.38998,-0.36914 -2.08497,-1.09375 -2.08497,-2.17383"
         id="path2965" />
    </g>
    <g
       id="g3867"
       transform="translate(-320,710)">
      <rect
         y="122.36218"
         x="340"
         height="200"
         width="200"
         id="rect3011"
         style="fill:#58585a;fill-opacity:1;stroke:none" />
      <path
         sodipodi:nodetypes="cccccccccc"
         id="path3787"
         d="m 340,185.36218 36.03125,137.01282 30.96875,0 -36.03125,-137.01282 -30.96875,0 z m 169.03125,0 L 473,322.375 l 30.96875,0 L 540,185.36218 l -30.96875,0 z"
         style="fill:#ffffff;fill-opacity:1;stroke:none" />
      <path
         sodipodi:nodetypes="cccccccc"
         id="path3789"
         d="m 421,185.36218 -36,137.01282 30.96875,0 24.15625,-90.79407 23.90625,90.79407 30.96875,0 -35.75,-137.01282 -38.25,0 z"
         style="fill:#21b24e;fill-opacity:1;stroke:none" />
    </g>
  </g>
</svg>
