<svg width="500" height="160" viewBox="0 0 132.292 42.333" xmlns="http://www.w3.org/2000/svg"><g aria-label="vant" style="font-size:4.23333px;line-height:1.25;letter-spacing:0;word-spacing:0;fill:#250;stroke-width:.264583"><path d="M40.699 31.458h-7.702L25.113 7.304h7.018L36.916 26.4l4.876-19.095h6.654zM69.273 24.759q0 1.412.41 2.096.41.638 1.322.957l-1.368 4.284q-2.142-.182-3.509-1.003-1.321-.82-2.05-2.552-2.37 3.646-7.247 3.646-3.6 0-5.742-2.05-2.096-2.097-2.096-5.424 0-3.965 2.87-6.061 2.918-2.097 8.25-2.097h2.78v-1.184q0-2.234-1.003-3.1-.957-.865-3.281-.865-2.644 0-6.38 1.276l-1.504-4.33q4.511-1.777 8.932-1.777 4.922 0 7.246 2.142 2.37 2.096 2.37 6.289zm-10.619 2.78q2.735 0 4.239-2.644v-4.648h-2.097q-5.286 0-5.286 3.92 0 1.594.774 2.506.82.866 2.37.866zM89.143 6.575q3.19 0 4.967 1.96 1.823 1.914 1.823 5.332v17.59h-6.471V14.96q0-1.96-.684-2.734-.684-.82-1.96-.82-1.367 0-2.506.866-1.14.82-2.188 2.506v16.68h-6.471V7.304h5.651l.501 3.053q3.008-3.782 7.338-3.782zM116.395 30.318q-1.321.912-3.007 1.368-1.641.501-3.282.501-3.737-.046-5.65-2.142-1.915-2.096-1.915-6.152V11.86h-3.6V7.304h3.6V2.018l6.471-.775v6.061h5.56l-.638 4.557h-4.922v11.895q0 1.732.593 2.506.592.775 1.823.775t2.734-.82z"/></g><g style="font-size:4.23333px;line-height:1.25;letter-spacing:0;word-spacing:0;fill:#250;stroke-width:.264583"><path d="M111.876 128.254q2.21.355 3.581 1.041 1.372.66 2.235 1.981.89 1.296 1.423 3.582.838 3.632 1.473 5.765.635 2.109 1.295 3.506.66 1.371 1.575 2.59l-3.454 1.169q-1.321-2.032-2.108-4.318-.762-2.312-1.524-6.782l-2.718 11.1-3.556-.838 4.14-13.03h1.32q-.355-1.067-.812-1.677t-1.245-.965q-.762-.381-2.082-.584z" style="fill:#4a0" transform="matrix(-1.79421 0 0 -1.79421 222.431 271.224)" aria-label="λ"/></g><path d="M127.076 23.38v-3.893m-6.393 10.286v-8.524m2.13 6.393v-7.768m2.132 5.637v-6.024m6.024 6.024c0 .529-.067 1.058-.202 1.56a6.129 6.129 0 0 1-1.56 2.702 6.129 6.129 0 0 1-2.702 1.56 6.129 6.129 0 0 1-3.12 0 6.129 6.129 0 0 1-2.702-1.56 6.129 6.129 0 0 1-1.56-2.702 6.129 6.129 0 0 1 0-3.12 6.129 6.129 0 0 1 1.56-2.702 6.129 6.129 0 0 1 2.702-1.56 6.05 6.05 0 0 1 1.56-.202h6.024zm0-6.024-6.024 6.024-2.131 2.13-2.131 2.132-2.13 2.13" style="color:#000;clip-rule:nonzero;display:inline;overflow:visible;visibility:visible;isolation:auto;mix-blend-mode:normal;color-interpolation:sRGB;color-interpolation-filters:linearRGB;solid-color:#000;solid-opacity:1;vector-effect:none;fill:#4a0;fill-opacity:1;fill-rule:evenodd;stroke:#250;stroke-width:.803682;stroke-linecap:butt;stroke-linejoin:miter;stroke-miterlimit:4;stroke-dasharray:none;stroke-dashoffset:0;stroke-opacity:1;marker:none;paint-order:markers fill stroke;color-rendering:auto;image-rendering:auto;shape-rendering:auto;text-rendering:auto;enable-background:accumulate"/></svg>