<?xml version="1.0" encoding="UTF-8" standalone="no"?>
<svg
   xmlns:dc="http://purl.org/dc/elements/1.1/"
   xmlns:cc="http://creativecommons.org/ns#"
   xmlns:rdf="http://www.w3.org/1999/02/22-rdf-syntax-ns#"
   xmlns:svg="http://www.w3.org/2000/svg"
   xmlns="http://www.w3.org/2000/svg"
   viewBox="0 0 755.90668 78.493332"
   height="78.493332"
   width="755.90668"
   xml:space="preserve"
   id="svg2"
   version="1.1"><metadata
     id="metadata8"><rdf:RDF><cc:Work
         rdf:about=""><dc:format>image/svg+xml</dc:format><dc:type
           rdf:resource="http://purl.org/dc/dcmitype/StillImage" /></cc:Work></rdf:RDF></metadata><defs
     id="defs6" /><g
     transform="matrix(1.3333333,0,0,-1.3333333,0,78.493333)"
     id="g10"><g
       transform="scale(0.1)"
       id="g12"><path
         id="path14"
         style="fill:#314a89;fill-opacity:1;fill-rule:evenodd;stroke:none"
         d="m 5186.74,588.672 c 136.39,0 236.13,-69.477 281.87,-167.379 h -162.69 c -31.99,40.187 -80.06,48.184 -122.5,48.828 -107.09,1.625 -172.15,-82.926 -172.78,-174.086 -0.58,-85.918 65.02,-170.801 167.02,-169.394 48.38,0.664 96.95,9.609 131.79,52.129 l 161.86,0.039 C 5423.38,73.6719 5311.97,0 5182.19,0 c -173.56,0 -309.71,131.777 -309.71,294.336 0,162.559 123.63,294.336 314.26,294.336 z M 1429.65,566.039 h 142.09 V 26.6602 H 1429.65 V 566.039 Z M 2952.09,157.148 h 168.18 V 26.6602 H 2810 V 157.148 566.039 h 142.09 V 157.148 Z m 2196.68,75.411 v 134.839 h 520.51 V 232.559 H 5148.77 Z M 3780.02,26.6602 V 162.949 h 453.83 V 26.6602 h -453.83 z m 0,211.6988 v 130.489 h 453.83 V 238.359 h -453.83 z m 0,192.836 v 134.844 h 453.83 V 431.195 H 3780.02 Z M 2272.07,26.6602 V 162.949 H 2725.9 V 26.6602 h -453.83 z m 0,211.6988 V 368.848 H 2725.9 V 238.359 h -453.83 z m 0,192.836 V 566.039 H 2725.9 V 431.195 H 2272.07 Z M 888.824,26.6602 V 162.949 H 1342.65 V 26.6602 H 888.824 Z m 0,211.6988 V 368.848 H 1342.65 V 238.359 H 888.824 Z m 0,192.836 V 566.039 H 1342.65 V 431.195 H 888.824 Z M 1953.05,26.6602 H 1667.44 V 566.039 h 292.44 c 185.44,0 257.91,-129.726 259.06,-272.269 1.14,-142.54 -96.71,-267.1098 -265.89,-267.1098 z M 1809.53,151.348 h 129.85 c 196.54,0 190.59,298.703 6.84,298.695 H 1809.53 V 151.348 Z M 3505,450.043 h -175.92 v -84.098 h 174.77 c 59.84,1.141 64.49,20.051 65.62,40.571 1.17,21.504 -5.68,44.668 -64.47,43.527 z m -1.15,-200.082 H 3329.08 V 142.656 H 3505 c 64.79,0 73.57,28.047 72.46,55.449 -1.05,26.211 -8.67,51.856 -73.61,51.856 z m 148.06,52.367 c 45.61,-34.027 67.19,-76.117 63.73,-138.031 -4.16,-74.1017 -73.49,-137.6368 -159.41,-137.6368 h -227.15 -73.94 -68.17 V 566.039 h 68.17 73.94 220.31 c 161.82,0 215.86,-159.137 102.52,-263.711 z m 962.11,52.024 c 74.61,0 79.48,26.847 80.84,41.894 1.53,16.727 -3.32,53.797 -80.84,53.797 h -156.89 v -95.691 h 156.89 z m 218.62,57.832 c 0.56,-65.028 -27.43,-99.493 -54.42,-114.098 32.29,-25.957 39.61,-55.273 39.61,-91.035 V 26.6602 H 4692.58 V 164.395 c 0,29.648 -23.87,71.054 -53.52,71.054 H 4457.13 V 26.6602 H 4315.04 V 566.039 h 59.45 82.64 219.51 c 122.46,-6.824 155.43,-88.832 156,-153.855 z M 272.59,566.039 H 414.684 V 354.352 H 661.172 V 566.039 H 803.27 V 26.6602 H 661.172 V 238.359 H 414.684 V 26.6602 H 272.59 V 238.359 H 0 v 115.993 h 272.59 v 211.687 0" /></g></g></svg>