<?xml version="1.0" encoding="UTF-8"?>
<!DOCTYPE svg PUBLIC "-//W3C//DTD SVG 1.1//EN" "http://www.w3.org/Graphics/SVG/1.1/DTD/svg11.dtd">
<!-- Creator: CorelDRAW -->
<svg xmlns="http://www.w3.org/2000/svg" xml:space="preserve" width="185mm" height="38mm" shape-rendering="geometricPrecision" text-rendering="geometricPrecision" image-rendering="optimizeQuality" fill-rule="evenodd" clip-rule="evenodd"
viewBox="0 0 185 50.875">
 <g id="Ebene_x0020_1">
  <metadata id="CorelCorpID_0Corel-Layer"/>
  <g id="_137723352">
   <path id="_139526128" fill="#FF0D00" d="M136.25 26.351c0,0 -4.87234,0 -6.39499,0 -11.2674,0 -15.9368,3.55283 -15.9368,10.8614 0,7.20705 6.59802,11.6734 15.7338,11.6734 9.44027,0 15.6323,-4.97391 16.0383,-12.587 0.101565,-1.62411 0.203037,-2.84225 0.203037,-4.77087 0,-1.92863 -0.101472,-3.3498 -0.203037,-4.97391 -0.60902,-9.03429 -7.10557,-12.4856 -15.7338,-12.4856 -5.48146,0 -9.84626,1.31961 -10.5568,1.52264l0 7.81616c1.01509,-0.30451 4.87234,-1.62411 8.42518,-1.62411 4.6694,0 8.22223,1.01509 8.42518,4.56784zm-6.6995 14.1097c-3.85734,0 -6.19204,-1.62411 -6.19204,-4.06029 0,-1.82715 1.52264,-3.24832 6.19204,-3.24832 4.3648,0 6.6995,0 6.6995,0 0,0 0,1.11657 0,1.92872 0,3.55274 -2.43617,5.48146 -6.6995,5.37989z"/>
   <polygon id="_139319664" fill="#FF0D00" points="169.951,30.6144 182.842,15.2866 170.458,15.2866 160.308,28.4827 160.308,1.98903 150.055,1.98903 150.055,48.0738 160.308,48.0738 160.308,34.5733 170.865,48.0738 183.756,48.0738 "/>
   <path id="_138039320" fill="#FF0D00" d="M55.2465 48.8859c-10.3539,0 -17.8655,-6.80106 -17.8655,-17.3579 0,-10.6584 7.51165,-17.4595 17.8655,-17.4595 10.2523,0 17.7639,6.80106 17.7639,17.4595 0,10.5568 -7.51156,17.3579 -17.7639,17.3579zm-0.101565 -26.0876c-4.46636,0 -7.51165,3.3497 -7.51165,8.62822 0,5.17686 3.04528,8.52665 7.51165,8.52665 4.46636,0 7.61312,-3.3498 7.61312,-8.52665 0,-5.27851 -3.14676,-8.62822 -7.61312,-8.62822z"/>
   <polygon id="_139835952" fill="#FF0D00" points="38.9036,3.41011 25.4029,3.41011 12.4099,21.3771 12.4099,3.41011 1.24394,3.41011 1.24394,48.0738 12.4099,48.0738 12.4099,28.6857 26.1135,48.0738 40.5277,48.0738 22.8653,24.3208 "/>
   <path id="_138514160" fill="#FF0D00" d="M111.381 1.98903l-10.2523 0 0 14.2111c-0.507548,-0.405982 -3.55283,-2.13166 -7.71469,-2.13166 -9.94782,0 -17.2564,6.80106 -17.2564,17.4595 0,10.5568 7.61321,17.3579 17.8655,17.3579 11.775,0 17.3579,-8.22214 17.3579,-18.779 0,-1.42117 0,-28.1179 0,-28.1179zm-17.3579 37.9641c-4.56793,0 -7.61312,-3.3498 -7.61312,-8.52665 0,-5.27851 3.04519,-8.62822 7.61312,-8.62822 4.36489,0 7.61312,3.3497 7.61312,8.62822 0,5.17686 -3.24823,8.52665 -7.61312,8.52665z"/>
  </g>
 </g>
</svg>
