<?xml version="1.0" encoding="UTF-8" standalone="no"?>
<svg xmlns:rdf="http://www.w3.org/1999/02/22-rdf-syntax-ns#" style="enable-background:new 0 0 261 70" xmlns="http://www.w3.org/2000/svg" xml:space="preserve" height="70px" width="261px" version="1.1" y="0px" x="0px" xmlns:cc="http://creativecommons.org/ns#" viewBox="0 0 261 70" xmlns:dc="http://purl.org/dc/elements/1.1/"><radialGradient id="i" gradientUnits="userSpaceOnUse" cy="48.093" cx="138.24" r="123.33"><stop stop-color="#FAAF40" offset="0"/><stop stop-color="#F9A538" offset=".043215"/><stop stop-color="#F89D31" offset=".1116"/><stop stop-color="#F89A2F" offset=".2269"/><stop stop-color="#F7922D" offset=".5276"/><stop stop-color="#F37B28" offset="1"/></radialGradient><path fill="url(#i)" d="m62.4 65.2v-22.8c0-4.8-2-7.2-5.9-7.2s-5.9 2.4-5.9 7.2v22.8h-11.7v-22.8c0-4.8-1.9-7.2-5.8-7.2s-5.9 2.4-5.9 7.2v22.8h-11.6v-24.1c0-5 1.7-8.7 5.2-11.3 3-2.3 7.2-3.4 12.3-3.4 5.3 0 9.1 1.3 11.6 4 2.1-2.7 6-4 11.7-4 5.2 0 9.3 1.1 12.3 3.4 3.5 2.6 5.2 6.3 5.2 11.3v24.2h-11.5z"/><radialGradient id="h" gradientUnits="userSpaceOnUse" cy="48.093" cx="138.24" r="123.33"><stop stop-color="#FAAF40" offset="0"/><stop stop-color="#F9A538" offset=".043215"/><stop stop-color="#F89D31" offset=".1116"/><stop stop-color="#F89A2F" offset=".2269"/><stop stop-color="#F7922D" offset=".5276"/><stop stop-color="#F37B28" offset="1"/></radialGradient><path fill="url(#h)" d="m96 66.2c-5.9 0-10.7-1.9-14.6-5.6-3.8-3.7-5.8-8.5-5.8-14.4s1.9-10.7 5.8-14.4c3.8-3.7 8.7-5.6 14.6-5.6s10.8 1.9 14.6 5.6c3.9 3.7 5.8 8.5 5.8 14.4s-1.9 10.7-5.8 14.4-8.8 5.6-14.6 5.6zm0-30.7c-2.8 0-5 1.1-6.5 3.2s-2.3 4.6-2.3 7.6c0 2.9 0.7 5.4 2.1 7.4 1.6 2.3 3.8 3.4 6.6 3.4s5-1.1 6.6-3.4c1.5-2 2.2-4.5 2.2-7.4s-0.7-5.4-2.1-7.4c-1.5-2.3-3.8-3.4-6.6-3.4z"/><radialGradient id="g" gradientUnits="userSpaceOnUse" cy="48.093" cx="138.24" r="123.33"><stop stop-color="#FAAF40" offset="0"/><stop stop-color="#F9A538" offset=".043215"/><stop stop-color="#F89D31" offset=".1116"/><stop stop-color="#F89A2F" offset=".2269"/><stop stop-color="#F7922D" offset=".5276"/><stop stop-color="#F37B28" offset="1"/></radialGradient><path fill="url(#g)" d="m138 66.2c-5.9 0-10.7-1.9-14.6-5.6-3.8-3.7-5.8-8.5-5.8-14.4s1.9-10.7 5.8-14.4c3.8-3.7 8.7-5.6 14.6-5.6s10.8 1.9 14.6 5.6c3.9 3.7 5.8 8.5 5.8 14.4s-1.9 10.7-5.8 14.4-8.8 5.6-14.6 5.6zm0-30.7c-2.8 0-5 1.1-6.5 3.2s-2.3 4.6-2.3 7.6c0 2.9 0.7 5.4 2.1 7.4 1.6 2.3 3.8 3.4 6.6 3.4s5-1.1 6.6-3.4c1.5-2 2.2-4.5 2.2-7.4s-0.7-5.4-2.1-7.4c-1.5-2.3-3.8-3.4-6.6-3.4z"/><radialGradient id="f" gradientUnits="userSpaceOnUse" cy="48.093" cx="138.24" r="123.34"><stop stop-color="#FAAF40" offset="0"/><stop stop-color="#F9A538" offset=".043215"/><stop stop-color="#F89D31" offset=".1116"/><stop stop-color="#F89A2F" offset=".2269"/><stop stop-color="#F7922D" offset=".5276"/><stop stop-color="#F37B28" offset="1"/></radialGradient><path fill="url(#f)" d="m189.8 65.1v-3.8c-1 1.4-2.8 2.5-5.3 3.3-2.2 0.8-4.3 1.1-6.3 1.1-5.5 0-10-1.9-13.3-5.7-3.4-3.8-5-8.5-5-14.1 0-5.5 1.6-10.2 4.9-13.9s7.7-5.6 13.1-5.6c6.2 0 10.1 1.7 11.9 5v-31.4h11.3v65.1h-11.3zm0-21.6c0-2.1-1-4.1-3-6s-4-2.9-6.1-2.9c-3 0-5.3 1.2-7.1 3.6-1.5 2.1-2.3 4.8-2.3 7.9 0 3 0.8 5.6 2.3 7.8 1.7 2.5 4.1 3.7 7.1 3.7 1.8 0 3.7-0.8 5.9-2.5 2.1-1.7 3.2-3.4 3.2-5.2v-6.4z"/><radialGradient id="e" gradientUnits="userSpaceOnUse" cy="48.093" cx="138.24" r="123.33"><stop stop-color="#FAAF40" offset="0"/><stop stop-color="#F9A538" offset=".043215"/><stop stop-color="#F89D31" offset=".1116"/><stop stop-color="#F89A2F" offset=".2269"/><stop stop-color="#F7922D" offset=".5276"/><stop stop-color="#F37B28" offset="1"/></radialGradient><path fill="url(#e)" d="m205.2 65.1v-65.1h11.6v65.1h-11.6z"/><radialGradient id="d" gradientUnits="userSpaceOnUse" cy="48.093" cx="138.24" r="123.34"><stop stop-color="#FAAF40" offset="0"/><stop stop-color="#F9A538" offset=".043215"/><stop stop-color="#F89D31" offset=".1116"/><stop stop-color="#F89A2F" offset=".2269"/><stop stop-color="#F7922D" offset=".5276"/><stop stop-color="#F37B28" offset="1"/></radialGradient><path fill="url(#d)" d="m230.7 49.7c0.5 2.4 1.7 4.4 3.5 6.1 1.9 1.7 3.9 2.6 6.2 2.6 1.6 0 3.3-0.4 5.2-1.2 2.3-1 3.4-2.1 3.4-3.4l12.2-0.1c-1.7 4.1-4.7 7.3-8.8 9.5-3.9 2.1-8.1 3.2-12.8 3.2-5.9 0-10.9-1.9-14.8-5.5-3.9-3.7-5.9-8.5-5.9-14.5 0-6.2 2-11 5.9-14.7 3.9-3.6 9-5.4 15.2-5.4 6.8 0 12.1 2.2 15.9 6.7 3.5 4.1 5.3 9.7 5.3 16.7h-30.5zm19-7.2c-0.5-2.5-1.5-4.5-3.1-6.1-1.8-1.7-3.9-2.6-6.2-2.6-2.4 0-4.4 0.8-6.1 2.5-1.6 1.7-2.7 3.7-3.3 6.2h18.7z"/><path fill="#58595B" d="m16.7 32.2l-1.2 6c11 3.7 21.4 0.1 26.9-9.5-8.1-5.6-15.6 0.1-25.7 3.5"/><linearGradient id="c" y2="31.877" gradientUnits="userSpaceOnUse" x2="41.849" y1="31.877" x1="15.588"><stop stop-color="#929497" offset="0"/><stop stop-color="#757578" offset=".1245"/><stop stop-color="#575658" offset=".2792"/><stop stop-color="#403E3F" offset=".4403"/><stop stop-color="#302D2E" offset=".6085"/><stop stop-color="#262223" offset=".7884"/><stop stop-color="#231F20" offset="1"/></linearGradient><path fill="url(#c)" d="m16.7 30.7c-0.4 2.3-0.7 4.5-1.1 6.8 10.5 3.6 20.8 0.5 26.3-8.9-7-8.1-14.8-1.4-25.2 2.1"/><linearGradient id="b" y2="38.683" gradientUnits="userSpaceOnUse" x2="31.522" y1="23.111" x1="20.619"><stop stop-color="#231F20" offset="0"/><stop stop-color="#231F20" stop-opacity="0" offset="1"/></linearGradient><path fill="url(#b)" d="m29.2 33.4c-4.8-1-10 1.5-13.6 4.1-2.3-16.8 8.1-16.4 21.7-12.2-0.9 4.1-2.4 9.6-5 12.9-0.1-2.2-1.1-3.7-3.1-4.8"/><linearGradient id="a" y2="23.588" gradientUnits="userSpaceOnUse" x2="49.166" y1="23.588" x1="1.167"><stop stop-color="#929497" offset="0"/><stop stop-color="#757578" offset=".1245"/><stop stop-color="#575658" offset=".2792"/><stop stop-color="#403E3F" offset=".4403"/><stop stop-color="#302D2E" offset=".6085"/><stop stop-color="#262223" offset=".7884"/><stop stop-color="#231F20" offset="1"/></linearGradient><path fill="url(#a)" d="m1.2 30.7c17.6-10.6 27.5-12.6 48-14.7-23.8 18.8-24.4 14.7-48 14.7"/><line stroke-width=".5" y2="29.8" x2="30.3" stroke="#4A4A4C" y1="16.1" x1="49.2" fill="#383738"/><path opacity=".23" fill="#231F20" d="m26.7 23.4c0.2 2.2-0.3-2.1 0 0"/><line stroke-width=".5" y2="29.8" x2="30.3" stroke="#A8ABAD" y1="30.7" x1="1.2" fill="#fff"/><path d="m24.9 23.6c-12 3.3-27.6 2.2-23.4 18.4" stroke="#F16922" stroke-width=".5" display="none" fill="none"/><path display="none" fill="#F16922" d="m2.6 55.7c-1.8-4.5-4-9.5-1.4-15.7 1.7 5.8 1.4 10.2 1.4 15.7"/><path d="m24.9 23.6c-5 1.4-21.4 5-21.6 7.1-0.5 3.9-0.1 10.1-0.1 10.1" stroke="#F16922" stroke-width=".5" fill="none"/><path fill="#F16922" d="m4.7 55.7c-1.8-4.5-4-9.5-1.4-15.7 1.7 5.8 1.4 10.2 1.4 15.7"/><ellipse rx=".8" transform="matrix(.942 -.3356 .3356 .942 -6.4098 9.4684)" ry=".4" cy="23.3" cx="24.2" fill="#6D6E70"/></svg>
