<svg height="1595" viewBox="0 0 4152 1595" width="4152" xmlns="http://www.w3.org/2000/svg"><g fill="none" fill-rule="evenodd"><path d="m0 0h4152v1595h-4152z" fill="#fff"/><g fill="#2f343d" fill-rule="nonzero" transform="translate(1326 619)"><path d="m184.023538 173.073685c0 29.874175-11.150201 49.493658-32.560258 58.851498l30.779565 116.82005c1.33552 5.360249-1.33552 8.022992-6.246339 8.022992h-46.395411c-4.45869 0-6.684556-2.224746-7.581859-6.243194l-29.8892177-113.246551h-30.7795644v112.363604c0 4.463398-2.6710402 7.126141-7.1366855 7.126141h-46.39541124c-4.45868945 0-7.13668545-2.676648-7.13668545-7.126141v-342.43715739c0-4.4564454 2.677996-7.13309357 7.13668545-7.13309357h111.96805584c41.929766 0 64.237125 22.29613166 64.237125 64.20479446zm-78.510495 5.346344c11.595374 0 17.841713-6.243195 17.841713-17.832734v-83.8242776c0-11.589539-6.246339-17.8257816-17.841713-17.8257816h-44.1625891v119.4897462z"/><path d="m219.686098 64.2766275c0-41.9086628 22.300403-64.20479446 64.237125-64.20479446h49.963754c41.929766 0 64.237125 22.29613166 64.237125 64.20479446v228.2868035c0 41.90171-22.307359 64.197842-64.237125 64.197842h-49.963754c-41.936722 0-64.237125-22.296132-64.237125-64.197842zm103.043722 234.9679955c11.595375 0 17.841713-5.798246 17.841713-17.832734v-205.9837195c0-11.589539-6.246338-17.8327339-17.841713-17.8327339h-25.868746c-11.595375 0-17.841714 6.2431949-17.841714 17.8327339v205.9906715c0 12.027536 6.246339 17.825782 17.841714 17.825782z"/><path d="m621.587218 112.428485c0 4.463398-2.677996 7.133094-7.12973 7.133094h-44.607762c-4.910819 0-7.136685-2.669696-7.136685-7.133094v-35.6654676c0-11.589539-6.239383-17.8257816-17.834758-17.8257816h-23.197706c-12.040548 0-17.841713 6.2362426-17.841713 17.8257816v203.3279286c0 12.034488 6.239382 17.818829 17.841713 17.818829h23.197706c11.595375 0 17.834758-5.791293 17.834758-17.818829v-35.679373c0-4.463397 2.225866-7.133093 7.136685-7.133093h44.607762c4.472601 0 7.12973 2.669696 7.12973 7.133093v48.15881c0 41.901711-22.752533 64.197842-64.230169 64.197842h-49.963754c-41.929766 0-64.682299-22.296131-64.682299-64.197842v-228.2937555c0-41.9086628 22.752533-64.20479446 64.682299-64.20479446h49.963754c41.484592 0 64.230169 22.29613166 64.230169 64.20479446z"/><path d="m809.81208 356.768225c-5.362948 0-8.472206-2.224746-10.266811-6.681191l-56.196181-132.428038-16.513149 31.660924v98.528462c0 5.798246-3.116214 8.919843-8.917379 8.919843h-42.827069c-5.801165 0-8.924335-3.121597-8.924335-8.919843v-338.85670583c0-5.79129332 3.12317-8.91984313 8.924335-8.91984313h42.827069c5.794209 0 8.917379 3.12159748 8.917379 8.91984313v138.21933083l68.695814-140.4510297c2.232823-4.4564454 5.362948-6.68814426 10.266811-6.68814426h46.833628c6.691512 0 9.369508 4.46339773 6.239383 10.69964036l-75.825544 155.6071156 80.729407 180.134945c3.123169 5.798246.445173 10.254691-6.684556 10.254691z"/><path d="m1074.32853 51.7971899c0 4.4564454-1.78765 7.5780429-7.13669 7.5780429h-111.522882v89.1706222h85.202012c4.4726 0 7.13668 2.676648 7.13668 7.578043v44.140361c0 4.908347-2.67799 7.584995-7.13668 7.584995h-85.202012v90.060521h111.522882c5.36295 0 7.13669 2.231699 7.13669 7.133094v44.592263c0 4.456445-1.78765 7.119189-7.13669 7.119189h-164.157676c-4.020472 0-6.698468-2.676648-6.698468-7.119189v-342.43020539c0-4.4564454 2.677996-7.13309357 6.698468-7.13309357h164.157676c5.36295 0 7.13669 2.67664817 7.13669 7.13309357z"/><path d="m1281.2924.07183304c4.90387 0 7.13669 2.67664817 7.13669 7.13309357v44.59226329c0 4.4564454-2.23282 7.1330936-7.13669 7.1330936h-51.74444v290.7048485c0 4.901395-2.22587 7.119189-7.12973 7.119189h-46.39541c-4.4726 0-7.13669-2.217794-7.13669-7.119189v-290.7048485h-51.73749c-4.4726 0-7.13669-2.6766482-7.13669-7.1330936v-44.59226329c0-4.4564454 2.678-7.13309357 7.13669-7.13309357z"/><path d="m1284 306.912891c0-5.798246 3.12317-8.912891 8.92433-8.912891h40.59425c5.80117 0 8.91738 3.114645 8.91738 8.912891v41.011812c0 5.805198-3.11621 8.919843-8.91738 8.919843h-40.59425c-5.80116 0-8.92433-3.114645-8.92433-8.919843z"/><path d="m1565.85556 112.428485c0 4.463398-2.68495 7.133094-7.13668 7.133094h-44.60776c-4.90387 0-7.12973-2.669696-7.12973-7.133094v-35.6654676c0-11.589539-6.23939-17.8257816-17.83476-17.8257816h-23.19771c-12.0475 0-17.84171 6.2362426-17.84171 17.8257816v203.3279286c0 12.034488 6.23938 17.818829 17.84171 17.818829h23.19771c11.59537 0 17.83476-5.791293 17.83476-17.818829v-35.679373c0-4.463397 2.22586-7.133093 7.12973-7.133093h44.60776c4.4726 0 7.13668 2.669696 7.13668 7.133093v48.15881c0 41.901711-22.75253 64.197842-64.23712 64.197842h-49.96375c-41.92977 0-64.6823-22.296131-64.6823-64.197842v-228.2937555c0-41.9086628 22.75253-64.20479446 64.6823-64.20479446h49.96375c41.49155 0 64.23712 22.29613166 64.23712 64.20479446z"/><path d="m1728.21168 7.20492661c0-4.4564454 2.67104-7.13309357 7.12973-7.13309357h45.94328c5.35599 0 7.5749 2.67664817 7.5749 7.13309357v342.43020539c0 4.456445-2.22586 7.119189-7.5749 7.119189h-45.94328c-4.4726 0-7.12973-2.676648-7.12973-7.119189v-141.785878h-57.10044v141.79283c0 4.463398-2.678 7.126141-7.13668 7.126141h-45.93633c-5.36295 0-7.58882-2.676648-7.58882-7.126141v-342.43715739c0-4.4564454 2.22587-7.13309357 7.58882-7.13309357h45.93633c4.4726 0 7.13668 2.67664817 7.13668 7.13309357v141.78587739h57.10044z"/><path d="m1992.28295 356.768225c-4.01351 0-6.23938-2.224746-7.13668-6.243194l-12.48572-65.087741h-79.4078l-12.03359 65.087741c-.89731 4.018448-3.12317 6.243194-7.13669 6.243194h-47.72398c-4.90386 0-7.13668-2.676648-5.80812-7.578042l74.05181-342.87515501c.8973-4.45644539 3.56834-6.24319495 7.58186-6.24319495h62.01126c4.01351 0 6.69151 1.78674956 7.58186 6.24319495l74.0518 342.87515501c.8973 4.901394-.89034 7.578042-6.23938 7.578042zm-59.33326-278.6703597-28.54674 155.6071157h57.10044z"/><path d="m2212.62986.07183304c4.90386 0 7.13668 2.67664817 7.13668 7.13309357v44.59226329c0 4.4564454-2.23282 7.1330936-7.13668 7.1330936h-51.7375v290.7048485c0 4.901395-2.23282 7.119189-7.13668 7.119189h-46.39541c-4.45869 0-7.12973-2.217794-7.12973-7.119189v-290.7048485h-51.73749c-4.46565 0-7.12973-2.6766482-7.12973-7.1330936v-44.59226329c0-4.4564454 2.67799-7.13309357 7.12973-7.13309357z"/></g><g transform="translate(605 532)"><path d="m530.351362 206.490151.007849.01225c-.001309-.002042-.002617-.004083-.003926-.006124-.001307-.002042-.002615-.004084-.003923-.006126zm-348.144201-184.0080786c18.642235 10.3538927 36.263887 23.4538451 51.312947 38.0142018 24.258457-4.3936953 49.271783-6.6092661 74.647445-6.6092661 75.963936 0 147.984439 19.927655 202.78186 56.1007489 28.37702 18.741856 50.932493 40.978698 67.03233 66.098902 17.929639 27.991084 27.018257 58.091642 27.018257 90.34536 0 31.386212-9.088618 61.499252-27.018257 89.484095-16.099837 25.132686-38.65531 47.363287-67.03233 66.105143-54.797421 36.173094-126.811885 56.088267-202.78186 56.088267-25.375662 0-50.382949-2.215571-74.647445-6.603025-15.055099 14.554115-32.670712 27.660309-51.312947 38.014202-99.6064204 49.884668-182.207161 1.173316-182.207161 1.173316s76.7973109-65.200192 64.308765-122.355677c-34.3616183-35.218214-52.9796972-77.694762-52.9796972-122.761345 0-44.2178 18.6241179-86.694348 52.9796972-121.918803 12.486478-57.1397813-64.28333436-122.3278438-64.30875868-122.3494306.02456384-.0144944 82.61554838-48.7101784 182.20715468 1.173311z" fill="#db2323" fill-rule="nonzero"/><path d="m122.630726 364.761807c-34.1390226-26.9037-54.630726-61.331337-54.630726-98.855171 0-86.104858 107.899375-155.906636 241-155.906636s241 69.801778 241 155.906636c0 86.104857-107.899375 155.906635-241 155.906635-32.803879 0-64.076979-4.23991-92.581272-11.918831l-20.839418 20.098011c-11.323306 10.920455-24.595123 20.802947-38.429072 28.590432-18.336754 9.005011-36.443948 13.918022-54.35854 15.417117 1.010593-1.837309 1.941166-3.698537 2.940158-5.538737 20.881027-38.464019 26.513983-73.030504 16.89887-103.699456z" fill="#fff"/><path d="m193.430636 303c-19.5678 0-35.430636-16.117749-35.430636-36s15.862836-36 35.430636-36 35.430636 16.117749 35.430636 36-15.862836 36-35.430636 36zm114.069364 0c-19.5678 0-35.430636-16.117749-35.430636-36s15.862836-36 35.430636-36 35.430636 16.117749 35.430636 36-15.862836 36-35.430636 36zm114.069364 0c-19.5678 0-35.430636-16.117749-35.430636-36s15.862836-36 35.430636-36 35.430636 16.117749 35.430636 36-15.862836 36-35.430636 36z" fill="#db2323" fill-rule="nonzero"/></g></g></svg>