<svg width="61" height="61" viewBox="0 0 61 61" fill="none" xmlns="http://www.w3.org/2000/svg">
<circle cx="30.3555" cy="30.3555" r="30.3555" fill="white"/>
<path d="M29.6565 28.8436L38.2221 20.278C38.6433 19.81 39.3454 19.81 39.7667 20.278C40.2347 20.6993 40.2347 21.4014 39.7667 21.8226L31.2011 30.3882L39.7667 38.9537C40.2347 39.4218 40.2347 40.1239 39.7667 40.5452C39.3454 41.0132 38.6433 41.0132 38.2221 40.5452L29.6565 31.9796L21.0441 40.5452C20.6229 41.0132 19.9208 41.0132 19.4995 40.5452C19.0315 40.1239 19.0315 39.4218 19.4995 38.9537L28.0651 30.3882L19.4995 21.8226C19.0315 21.4014 19.0315 20.6993 19.4995 20.278C19.9208 19.81 20.6229 19.81 21.0441 20.278L29.6565 28.8436Z" fill="black"/>
</svg>
