<svg width="575" height="1143" viewBox="0 0 575 1143" fill="none" xmlns="http://www.w3.org/2000/svg">
<g clip-path="url(#clip0_2073_1027)">
<path d="M179.537 0H169.832V9.7103H179.537V0Z" fill="#2DA9D7"/>
<path d="M217.142 0H207.438V9.7103H217.142V0Z" fill="#2DA9D7"/>
<path d="M66.7203 19.4219H57.0156V29.1322H66.7203V19.4219Z" fill="#2DA9D7"/>
<path d="M104.326 19.4219H94.6211V29.1322H104.326V19.4219Z" fill="#2DA9D7"/>
<path d="M141.931 19.4219H132.227V29.1322H141.931V19.4219Z" fill="#2DA9D7"/>
<path d="M179.537 19.4219H169.832V29.1322H179.537V19.4219Z" fill="#2DA9D7"/>
<path d="M217.142 19.4219H207.438V29.1322H217.142V19.4219Z" fill="#2DA9D7"/>
<path d="M254.748 19.4219H245.043V29.1322H254.748V19.4219Z" fill="#2DA9D7"/>
<path d="M9.70464 37.6289H0V47.3392H9.70464V37.6289Z" fill="#2DA9D7"/>
<path d="M519.199 1132.46H509.494V1142.18H519.199V1132.46Z" fill="#2DA9D7"/>
<path d="M66.7203 37.6289H57.0156V47.3392H66.7203V37.6289Z" fill="#2DA9D7"/>
<path d="M254.748 1132.46H245.043V1142.18H254.748V1132.46Z" fill="#2DA9D7"/>
<path d="M104.326 37.6289H94.6211V47.3392H104.326V37.6289Z" fill="#2DA9D7"/>
<path d="M217.142 1132.46H207.438V1142.18H217.142V1132.46Z" fill="#2DA9D7"/>
<path d="M141.931 37.6289H132.227V47.3392H141.931V37.6289Z" fill="#2DA9D7"/>
<path d="M161.339 37.6289H151.635V47.3392H161.339V37.6289Z" fill="#2DA9D7"/>
<path d="M179.537 37.6289H169.832V47.3392H179.537V37.6289Z" fill="#2DA9D7"/>
<path d="M198.945 37.6289H189.24V47.3392H198.945V37.6289Z" fill="#2DA9D7"/>
<path d="M217.142 37.6289H207.438V47.3392H217.142V37.6289Z" fill="#2DA9D7"/>
<path d="M236.55 37.6289H226.846V47.3392H236.55V37.6289Z" fill="#2DA9D7"/>
<path d="M254.748 37.6289H245.043V47.3392H254.748V37.6289Z" fill="#2DA9D7"/>
<path d="M274.156 37.6289H264.451V47.3392H274.156V37.6289Z" fill="#2DA9D7"/>
<path d="M179.537 1132.46H169.832V1142.18H179.537V1132.46Z" fill="#2DA9D7"/>
<path d="M141.931 1132.46H132.227V1142.18H141.931V1132.46Z" fill="#2DA9D7"/>
<path d="M104.326 1132.46H94.6211V1142.18H104.326V1132.46Z" fill="#2DA9D7"/>
<path d="M161.339 57.0469H151.635V66.7572H161.339V57.0469Z" fill="#2DA9D7"/>
<path d="M198.945 57.0469H189.24V66.7572H198.945V57.0469Z" fill="#2DA9D7"/>
<path d="M217.142 57.0469H207.438V66.7572H217.142V57.0469Z" fill="#2DA9D7"/>
<path d="M236.55 57.0469H226.846V66.7572H236.55V57.0469Z" fill="#2DA9D7"/>
<path d="M254.748 57.0469H245.043V66.7572H254.748V57.0469Z" fill="#2DA9D7"/>
<path d="M274.156 57.0469H264.451V66.7572H274.156V57.0469Z" fill="#2DA9D7"/>
<path d="M66.7203 1132.46H57.0156V1142.18H66.7203V1132.46Z" fill="#2DA9D7"/>
<path d="M386.972 1113.04H377.268V1122.75H386.972V1113.04Z" fill="#2DA9D7"/>
<path d="M349.367 1113.04H339.662V1122.75H349.367V1113.04Z" fill="#2DA9D7"/>
<path d="M236.55 1113.04H226.846V1122.75H236.55V1113.04Z" fill="#2DA9D7"/>
<path d="M198.945 1113.04H189.24V1122.75H198.945V1113.04Z" fill="#2DA9D7"/>
<path d="M161.339 1113.04H151.635V1122.75H161.339V1113.04Z" fill="#2DA9D7"/>
<path d="M104.326 0H94.6211V9.7103H104.326V0Z" fill="#2DA9D7"/>
<path d="M519.199 1085.12C515.977 1085.1 512.716 1085.14 509.494 1085.12V1075.41H519.199C519.214 1078.64 519.177 1081.9 519.199 1085.12C522.419 1085.15 525.683 1085.15 528.903 1085.12C528.925 1081.9 528.888 1078.64 528.903 1075.41H537.395V1085.12C534.577 1085.14 531.721 1085.1 528.903 1085.12C528.882 1088.35 528.877 1091.61 528.903 1094.83C531.721 1094.86 534.577 1094.82 537.395 1094.83V1103.33H528.903C528.888 1100.51 528.926 1097.65 528.903 1094.83C525.683 1094.81 522.419 1094.81 519.199 1094.83C519.176 1097.65 519.215 1100.51 519.199 1103.33H509.494V1094.83C512.716 1094.82 515.977 1094.86 519.199 1094.83C519.225 1091.61 519.22 1088.35 519.199 1085.12Z" fill="#2DA9D7"/>
<path d="M217.142 1085.12C213.921 1085.1 210.659 1085.14 207.438 1085.12V1075.41H217.142C217.157 1078.64 217.121 1081.9 217.142 1085.12C220.363 1085.15 223.626 1085.15 226.847 1085.12C226.868 1081.9 226.832 1078.64 226.847 1075.41H236.551V1085.12C233.33 1085.14 230.068 1085.1 226.847 1085.12C226.825 1088.35 226.821 1091.61 226.847 1094.83C230.068 1094.86 233.33 1094.82 236.551 1094.83V1103.33H226.847C226.831 1100.51 226.87 1097.65 226.847 1094.83C223.626 1094.81 220.363 1094.81 217.142 1094.83C217.119 1097.65 217.158 1100.51 217.142 1103.33H207.438V1094.83C210.659 1094.82 213.921 1094.86 217.142 1094.83C217.168 1091.61 217.164 1088.35 217.142 1085.12Z" fill="#2DA9D7"/>
<path d="M556.804 1075.41H547.1V1085.12H556.804V1075.41Z" fill="#2DA9D7"/>
<path d="M481.593 1075.41H471.889V1085.12H481.593V1075.41Z" fill="#2DA9D7"/>
<path d="M29.1148 94.6758H19.4102V104.386H29.1148V94.6758Z" fill="#2DA9D7"/>
<path d="M66.7203 94.6758H57.0156V104.386H66.7203V94.6758Z" fill="#2DA9D7"/>
<path d="M104.326 94.6758H94.6211V104.386H104.326V94.6758Z" fill="#2DA9D7"/>
<path d="M217.142 94.6758H207.438V104.386H217.142V94.6758Z" fill="#2DA9D7"/>
<path d="M236.55 94.6758H226.846V104.386H236.55V94.6758Z" fill="#2DA9D7"/>
<path d="M254.748 94.6758H245.043V104.386H254.748V94.6758Z" fill="#2DA9D7"/>
<path d="M274.156 94.6758H264.451V104.386H274.156V94.6758Z" fill="#2DA9D7"/>
<path d="M406.382 1075.41H396.678V1085.12H406.382V1075.41Z" fill="#2DA9D7"/>
<path d="M386.972 1075.41H377.268V1085.12H386.972V1075.41Z" fill="#2DA9D7"/>
<path d="M349.367 1075.41H339.662V1085.12H349.367V1075.41Z" fill="#2DA9D7"/>
<path d="M254.748 1075.41H245.043V1085.12H254.748V1075.41Z" fill="#2DA9D7"/>
<path d="M198.945 1075.41H189.24V1085.12H198.945V1075.41Z" fill="#2DA9D7"/>
<path d="M179.537 1075.41H169.832V1085.12H179.537V1075.41Z" fill="#2DA9D7"/>
<path d="M161.339 1075.41H151.635V1085.12H161.339V1075.41Z" fill="#2DA9D7"/>
<path d="M141.931 1075.41H132.227V1085.12H141.931V1075.41Z" fill="#2DA9D7"/>
<path d="M104.326 1075.41H94.6211V1085.12H104.326V1075.41Z" fill="#2DA9D7"/>
<path d="M66.7203 1075.41H57.0156V1085.12H66.7203V1075.41Z" fill="#2DA9D7"/>
<path d="M29.1148 1075.41H19.4102V1085.12H29.1148V1075.41Z" fill="#2DA9D7"/>
<path d="M519.199 1037.79H509.494V1047.5H519.199V1037.79Z" fill="#2DA9D7"/>
<path d="M386.972 1037.79H377.268V1047.5H386.972V1037.79Z" fill="#2DA9D7"/>
<path d="M349.367 1037.79H339.662V1047.5H349.367V1037.79Z" fill="#2DA9D7"/>
<path d="M274.156 1037.79H264.451V1047.5H274.156V1037.79Z" fill="#2DA9D7"/>
<path d="M254.748 1037.79H245.043V1047.5H254.748V1037.79Z" fill="#2DA9D7"/>
<path d="M236.55 1037.79H226.846V1047.5H236.55V1037.79Z" fill="#2DA9D7"/>
<path d="M491.297 962.535C494.114 962.558 496.97 962.519 499.788 962.535C499.803 965.759 499.767 969.022 499.788 972.245C496.971 972.223 494.115 972.261 491.297 972.245C491.282 969.022 491.318 965.759 491.297 962.535Z" fill="#2DA9D7"/>
<path d="M509.493 990.449C509.499 993.673 509.472 996.936 509.493 1000.16C512.715 1000.18 515.976 1000.14 519.198 1000.16C519.213 1003.38 519.176 1006.65 519.198 1009.87C522.418 1009.89 525.682 1009.9 528.902 1009.87C528.924 1006.65 528.887 1003.38 528.902 1000.16H537.394V1009.87C534.576 1009.89 531.72 1009.85 528.902 1009.87C528.881 1013.09 528.876 1016.36 528.902 1019.58C531.72 1019.6 534.576 1019.56 537.394 1019.58V1028.08H528.902C528.887 1025.26 528.925 1022.4 528.902 1019.58C525.682 1019.55 522.418 1019.56 519.198 1019.58C519.175 1022.4 519.214 1025.26 519.198 1028.08H509.493V1019.58C512.715 1019.57 515.976 1019.6 519.198 1019.58C519.224 1016.36 519.219 1013.09 519.198 1009.87C515.976 1009.85 512.715 1009.88 509.493 1009.87C509.478 1006.65 509.514 1003.38 509.493 1000.16C506.273 1000.14 503.009 1000.13 499.788 1000.16C499.767 1003.38 499.803 1006.65 499.788 1009.87H491.297V1000.16C494.115 1000.14 496.971 1000.18 499.788 1000.16C499.81 996.936 499.782 993.673 499.788 990.449C503.009 990.475 506.273 990.471 509.493 990.449Z" fill="#2DA9D7"/>
<path d="M528.903 943.113C531.721 943.136 534.577 943.097 537.395 943.113V952.824C534.577 952.839 531.721 952.801 528.903 952.824C528.897 949.6 528.896 946.337 528.903 943.113Z" fill="#2DA9D7"/>
<path d="M499.788 905.484C499.795 908.708 499.795 911.971 499.788 915.195C496.971 915.172 494.115 915.21 491.297 915.195V905.484C494.115 905.469 496.971 905.507 499.788 905.484Z" fill="#2DA9D7"/>
<path d="M509.493 905.484C512.715 905.506 515.976 905.469 519.198 905.484V915.195C515.976 915.21 512.715 915.173 509.493 915.195C509.487 911.971 509.486 908.708 509.493 905.484Z" fill="#2DA9D7"/>
<path d="M491.298 943.113C494.116 943.136 496.971 943.097 499.789 943.113V952.824C496.971 952.839 494.116 952.801 491.298 952.824C491.292 949.6 491.291 946.337 491.298 943.113Z" fill="#2DA9D7"/>
<path d="M509.495 915.195C509.501 918.419 509.473 921.682 509.495 924.906C506.274 924.884 503.01 924.88 499.79 924.906C499.811 921.682 499.784 918.419 499.79 915.195C503.01 915.221 506.274 915.217 509.495 915.195Z" fill="#2DA9D7"/>
<path d="M481.593 943.113C481.6 946.337 481.599 949.6 481.593 952.823C478.372 952.802 475.11 952.838 471.889 952.823V943.113C475.11 943.098 478.372 943.135 481.593 943.113Z" fill="#2DA9D7"/>
<path d="M481.593 934.617C478.372 934.595 475.11 934.632 471.889 934.617V924.906H481.593C481.608 928.13 481.572 931.393 481.593 934.617C484.814 934.638 488.078 934.643 491.298 934.617C491.279 937.436 491.304 940.294 491.298 943.113C488.078 943.087 484.814 943.092 481.593 943.113C481.587 940.294 481.612 937.436 481.593 934.617Z" fill="#2DA9D7"/>
<path d="M491.298 952.824C491.304 956.048 491.277 959.311 491.298 962.535C488.078 962.508 484.814 962.513 481.593 962.535C481.572 965.758 481.608 969.021 481.593 972.245H471.889V962.535C475.11 962.52 478.372 962.556 481.593 962.535C481.615 959.311 481.587 956.048 481.593 952.824C484.814 952.846 488.078 952.85 491.298 952.824Z" fill="#2DA9D7"/>
<path d="M509.493 980.742C512.715 980.763 515.976 980.727 519.198 980.742V990.452C515.976 990.467 512.715 990.431 509.493 990.452C509.487 987.229 509.486 983.966 509.493 980.742Z" fill="#2DA9D7"/>
<path d="M528.903 952.824C528.909 956.048 528.881 959.311 528.903 962.535C531.721 962.557 534.577 962.519 537.394 962.535V972.245H528.903C528.888 969.021 528.924 965.758 528.903 962.535C525.683 962.508 522.418 962.513 519.198 962.535C519.22 959.311 519.192 956.048 519.198 952.824C522.419 952.846 525.683 952.85 528.903 952.824Z" fill="#2DA9D7"/>
<path d="M499.788 980.742C499.795 983.966 499.795 987.229 499.788 990.453C496.971 990.43 494.115 990.468 491.297 990.453V980.742C494.115 980.726 496.971 980.765 499.788 980.742Z" fill="#2DA9D7"/>
<path d="M499.788 896.988C496.971 896.965 494.115 897.003 491.297 896.988V887.277H499.788C499.803 890.501 499.767 893.764 499.788 896.988C503.009 897.014 506.273 897.009 509.493 896.988C509.514 893.764 509.478 890.501 509.493 887.277H519.198V896.988C515.976 897.003 512.715 896.966 509.493 896.988C509.474 899.807 509.499 902.665 509.493 905.484C506.273 905.463 503.009 905.458 499.788 905.484C499.783 902.665 499.807 899.807 499.788 896.988Z" fill="#2DA9D7"/>
<path d="M499.788 924.906C499.767 928.13 499.803 931.393 499.788 934.617C496.97 934.632 494.114 934.594 491.297 934.617C491.318 931.393 491.282 928.13 491.297 924.906C494.115 924.89 496.971 924.929 499.788 924.906Z" fill="#2DA9D7"/>
<path d="M509.494 924.906C512.716 924.927 515.977 924.891 519.199 924.906C519.214 928.13 519.177 931.393 519.199 934.616C515.977 934.595 512.716 934.631 509.494 934.616C509.479 931.393 509.515 928.13 509.494 924.906Z" fill="#2DA9D7"/>
<path d="M528.903 934.617C528.924 931.393 528.888 928.13 528.903 924.906H537.394V934.617C534.577 934.632 531.721 934.594 528.903 934.617C528.884 937.436 528.909 940.294 528.903 943.113C525.683 943.087 522.419 943.092 519.198 943.113C519.192 940.294 519.217 937.436 519.198 934.617C522.418 934.638 525.683 934.643 528.903 934.617Z" fill="#2DA9D7"/>
<path d="M519.199 943.113C519.206 946.337 519.205 949.6 519.199 952.823C515.977 952.802 512.716 952.838 509.494 952.823V943.113C512.716 943.098 515.977 943.135 519.199 943.113Z" fill="#2DA9D7"/>
<path d="M519.199 962.535C519.177 965.758 519.214 969.022 519.199 972.245C515.977 972.26 512.716 972.224 509.494 972.245C509.515 969.022 509.479 965.759 509.494 962.535C512.716 962.52 515.977 962.556 519.199 962.535Z" fill="#2DA9D7"/>
<path d="M509.495 972.242C509.476 975.062 509.501 977.919 509.495 980.739C506.274 980.717 503.01 980.713 499.79 980.739C499.784 977.919 499.809 975.062 499.79 972.242C503.01 972.268 506.274 972.264 509.495 972.242Z" fill="#2DA9D7"/>
<path d="M367.564 1009.87C364.746 1009.85 361.89 1009.89 359.072 1009.87V1000.16H367.564C367.579 1003.38 367.542 1006.65 367.564 1009.87C370.784 1009.9 374.048 1009.89 377.268 1009.87C377.29 1006.65 377.253 1003.38 377.268 1000.16H386.973V1009.87C383.751 1009.89 380.49 1009.85 377.268 1009.87C377.247 1013.09 377.242 1016.36 377.268 1019.58C380.49 1019.6 383.751 1019.57 386.973 1019.58V1028.08H377.268C377.253 1025.26 377.291 1022.4 377.268 1019.58C374.048 1019.56 370.784 1019.55 367.564 1019.58C367.541 1022.4 367.58 1025.26 367.564 1028.08H359.072V1019.58C361.89 1019.56 364.746 1019.6 367.564 1019.58C367.59 1016.36 367.585 1013.09 367.564 1009.87Z" fill="#2DA9D7"/>
<path d="M556.804 1000.16H547.1V1009.87H556.804V1000.16Z" fill="#2DA9D7"/>
<path d="M481.593 1000.16H471.889V1009.87H481.593V1000.16Z" fill="#2DA9D7"/>
<path d="M236.55 132.305H226.846V142.015H236.55V132.305Z" fill="#2DA9D7"/>
<path d="M274.156 132.305H264.451V142.015H274.156V132.305Z" fill="#2DA9D7"/>
<path d="M349.367 132.305H339.662V142.015H349.367V132.305Z" fill="#2DA9D7"/>
<path d="M406.382 1000.16H396.678V1009.87H406.382V1000.16Z" fill="#2DA9D7"/>
<path d="M386.972 142.015C383.751 141.994 380.489 142.03 377.268 142.015V132.305H386.972C386.987 135.528 386.951 138.792 386.972 142.015C390.193 142.036 393.456 142.036 396.677 142.015C396.698 138.792 396.662 135.528 396.677 132.305H406.381V142.015C403.16 142.03 399.898 141.994 396.677 142.015C396.655 145.237 396.651 148.503 396.677 151.725C399.898 151.747 403.16 151.71 406.381 151.725V160.222H396.677C396.661 157.402 396.7 154.545 396.677 151.725C393.456 151.704 390.193 151.704 386.972 151.725C386.949 154.545 386.988 157.402 386.972 160.222H377.268V151.725C380.489 151.71 383.751 151.747 386.972 151.725C386.998 148.503 386.994 145.237 386.972 142.015Z" fill="#2DA9D7"/>
<path d="M424.578 142.015C421.356 141.994 418.095 142.03 414.873 142.015V132.305H424.578C424.593 135.528 424.556 138.792 424.578 142.015C427.798 142.036 431.062 142.036 434.282 142.015C434.304 138.792 434.267 135.528 434.282 132.305H443.987V142.015C440.765 142.03 437.504 141.994 434.282 142.015C434.261 145.237 434.256 148.503 434.282 151.725C437.504 151.747 440.765 151.71 443.987 151.725V160.222H434.282C434.267 157.402 434.305 154.545 434.282 151.725C431.062 151.704 427.798 151.704 424.578 151.725C424.555 154.545 424.593 157.402 424.578 160.222H414.873V151.725C418.095 151.71 421.356 151.747 424.578 151.725C424.604 148.503 424.599 145.237 424.578 142.015Z" fill="#2DA9D7"/>
<path d="M462.183 142.015C458.962 141.994 455.7 142.03 452.479 142.015V132.305H462.183C462.198 135.528 462.162 138.792 462.183 142.015C465.404 142.036 468.667 142.036 471.888 142.015C471.909 138.792 471.873 135.528 471.888 132.305H481.592V142.015C478.371 142.03 475.109 141.994 471.888 142.015C471.866 145.237 471.862 148.503 471.888 151.725C475.109 151.747 478.371 151.71 481.592 151.725V160.222H471.888C471.872 157.402 471.911 154.545 471.888 151.725C468.667 151.704 465.404 151.704 462.183 151.725C462.16 154.545 462.199 157.402 462.183 160.222H452.479V151.725C455.7 151.71 458.962 151.747 462.183 151.725C462.209 148.503 462.205 145.237 462.183 142.015Z" fill="#2DA9D7"/>
<path d="M499.788 151.723C499.794 154.542 499.794 157.4 499.788 160.219C496.971 160.196 494.115 160.235 491.297 160.219V151.723C494.115 151.707 496.971 151.745 499.788 151.723Z" fill="#2DA9D7"/>
<path d="M509.494 160.219C509.5 163.442 509.473 166.706 509.494 169.929C512.716 169.95 515.977 169.914 519.199 169.929C519.214 173.153 519.177 176.416 519.199 179.639C522.419 179.661 525.683 179.665 528.903 179.639C528.925 176.416 528.888 173.153 528.903 169.929H537.395V179.639C534.577 179.655 531.721 179.617 528.903 179.639C528.882 182.862 528.882 186.127 528.903 189.35C531.721 189.372 534.577 189.334 537.395 189.35V199.06H528.903C528.888 195.836 528.925 192.573 528.903 189.35C525.683 189.324 522.419 189.328 519.199 189.35C519.177 192.573 519.214 195.836 519.199 199.06H509.494V189.35C512.716 189.335 515.977 189.371 519.199 189.35C519.22 186.127 519.22 182.862 519.199 179.639C515.977 179.618 512.716 179.654 509.494 179.639C509.479 176.416 509.516 173.152 509.494 169.929C506.274 169.908 503.01 169.903 499.79 169.929C499.768 173.152 499.805 176.416 499.79 179.639C496.972 179.655 494.116 179.617 491.298 179.639C491.277 182.862 491.277 186.127 491.298 189.35C494.116 189.372 496.972 189.334 499.79 189.35V199.06H491.298C491.283 195.836 491.319 192.573 491.298 189.35C488.078 189.324 484.814 189.328 481.593 189.35C481.572 192.573 481.608 195.836 481.593 199.06H471.889V189.35C475.11 189.335 478.372 189.371 481.593 189.35C481.615 186.127 481.615 182.862 481.593 179.639C478.372 179.618 475.11 179.654 471.889 179.639V169.929H481.593C481.608 173.153 481.572 176.416 481.593 179.639C484.814 179.661 488.078 179.665 491.298 179.639C491.319 176.416 491.283 173.153 491.298 169.929C494.116 169.913 496.972 169.952 499.79 169.929C499.811 166.706 499.783 163.442 499.79 160.219C503.01 160.245 506.274 160.24 509.494 160.219Z" fill="#2DA9D7"/>
<path d="M499.788 142.015C496.971 141.992 494.115 142.031 491.297 142.015V132.305H499.788C499.803 135.528 499.767 138.792 499.788 142.015C503.009 142.041 506.273 142.036 509.493 142.015C509.514 138.792 509.478 135.528 509.493 132.305H519.198V142.015C515.976 142.03 512.715 141.994 509.493 142.015C509.472 145.238 509.499 148.502 509.493 151.725C506.273 151.704 503.009 151.699 499.788 151.725C499.782 148.502 499.81 145.238 499.788 142.015Z" fill="#2DA9D7"/>
<path d="M509.494 151.722C512.716 151.744 515.977 151.707 519.199 151.722V160.219C515.977 160.234 512.716 160.198 509.494 160.219C509.489 157.399 509.489 154.542 509.494 151.722Z" fill="#2DA9D7"/>
<path d="M349.367 1000.16H339.662V1009.87H349.367V1000.16Z" fill="#2DA9D7"/>
<path d="M254.748 1000.16H245.043V1009.87H254.748V1000.16Z" fill="#2DA9D7"/>
<path d="M66.7203 1000.16H57.0156V1009.87H66.7203V1000.16Z" fill="#2DA9D7"/>
<path d="M29.1148 1000.16H19.4102V1009.87H29.1148V1000.16Z" fill="#2DA9D7"/>
<path d="M556.804 980.742H547.1V990.452H556.804V980.742Z" fill="#2DA9D7"/>
<path d="M481.593 980.742H471.889V990.452H481.593V980.742Z" fill="#2DA9D7"/>
<path d="M462.183 980.742H452.479V990.452H462.183V980.742Z" fill="#2DA9D7"/>
<path d="M443.988 980.742H434.283V990.452H443.988V980.742Z" fill="#2DA9D7"/>
<path d="M424.578 980.742H414.873V990.452H424.578V980.742Z" fill="#2DA9D7"/>
<path d="M386.972 972.245C383.751 972.224 380.489 972.26 377.268 972.245V962.535H386.972C386.987 965.759 386.951 969.022 386.972 972.245C390.193 972.267 393.456 972.267 396.677 972.245C396.698 969.022 396.662 965.759 396.677 962.535H406.381V972.245C403.16 972.26 399.898 972.224 396.677 972.245C396.658 975.064 396.658 977.923 396.677 980.742C399.898 980.763 403.16 980.727 406.381 980.742V990.452H396.677C396.662 987.229 396.698 983.965 396.677 980.742C393.456 980.721 390.193 980.721 386.972 980.742C386.951 983.965 386.987 987.229 386.972 990.452H377.268V980.742C380.489 980.727 383.751 980.763 386.972 980.742C386.991 977.923 386.991 975.064 386.972 972.245Z" fill="#2DA9D7"/>
<path d="M349.367 972.245C346.145 972.224 342.884 972.26 339.662 972.245V962.535H349.367C349.382 965.759 349.345 969.022 349.367 972.245C352.587 972.267 355.851 972.271 359.071 972.245C359.093 969.022 359.056 965.759 359.071 962.535H367.563V972.245C364.745 972.261 361.889 972.223 359.071 972.245C359.053 975.064 359.053 977.923 359.071 980.742C361.889 980.765 364.745 980.726 367.563 980.742V990.452H359.071C359.056 987.229 359.093 983.965 359.071 980.742C355.851 980.716 352.587 980.721 349.367 980.742C349.345 983.965 349.382 987.229 349.367 990.452H339.662V980.742C342.884 980.727 346.145 980.763 349.367 980.742C349.385 977.923 349.385 975.064 349.367 972.245Z" fill="#2DA9D7"/>
<path d="M254.748 980.742H245.043V990.452H254.748V980.742Z" fill="#2DA9D7"/>
<path d="M66.7203 980.742H57.0156V990.452H66.7203V980.742Z" fill="#2DA9D7"/>
<path d="M29.1148 980.742H19.4102V990.452H29.1148V980.742Z" fill="#2DA9D7"/>
<path d="M29.1148 169.93H19.4102V179.64H29.1148V169.93Z" fill="#2DA9D7"/>
<path d="M66.7203 169.93H57.0156V179.64H66.7203V169.93Z" fill="#2DA9D7"/>
<path d="M349.367 169.93H339.662V179.64H349.367V169.93Z" fill="#2DA9D7"/>
<path d="M367.564 179.64C364.746 179.617 361.89 179.656 359.072 179.64V169.93H367.564C367.579 173.153 367.542 176.417 367.564 179.64C370.784 179.666 374.048 179.661 377.268 179.64C377.29 176.417 377.253 173.153 377.268 169.93H386.973V179.64C383.751 179.655 380.49 179.619 377.268 179.64C377.247 182.862 377.247 186.128 377.268 189.35C380.49 189.372 383.751 189.335 386.973 189.35V199.061H377.268C377.253 195.837 377.29 192.574 377.268 189.35C374.048 189.329 370.784 189.324 367.564 189.35C367.542 192.574 367.579 195.837 367.564 199.061H359.072V189.35C361.89 189.334 364.746 189.373 367.564 189.35C367.585 186.128 367.585 182.862 367.564 179.64Z" fill="#2DA9D7"/>
<path d="M406.382 169.93H396.678V179.64H406.382V169.93Z" fill="#2DA9D7"/>
<path d="M424.578 169.93H414.873V179.64H424.578V169.93Z" fill="#2DA9D7"/>
<path d="M443.988 169.93H434.283V179.64H443.988V169.93Z" fill="#2DA9D7"/>
<path d="M462.183 169.93H452.479V179.64H462.183V169.93Z" fill="#2DA9D7"/>
<path d="M462.183 962.535H452.479V972.245H462.183V962.535Z" fill="#2DA9D7"/>
<path d="M443.988 962.535H434.283V972.245H443.988V962.535Z" fill="#2DA9D7"/>
<path d="M556.804 169.93H547.1V179.64H556.804V169.93Z" fill="#2DA9D7"/>
<path d="M9.70464 189.352H0V199.062H9.70464V189.352Z" fill="#2DA9D7"/>
<path d="M424.578 962.535H414.873V972.245H424.578V962.535Z" fill="#2DA9D7"/>
<path d="M66.7203 189.352H57.0156V199.062H66.7203V189.352Z" fill="#2DA9D7"/>
<path d="M236.55 189.352H226.846V199.062H236.55V189.352Z" fill="#2DA9D7"/>
<path d="M274.156 189.352H264.451V199.062H274.156V189.352Z" fill="#2DA9D7"/>
<path d="M311.761 189.352H302.057V199.062H311.761V189.352Z" fill="#2DA9D7"/>
<path d="M349.367 189.352H339.662V199.062H349.367V189.352Z" fill="#2DA9D7"/>
<path d="M406.382 189.352H396.678V199.062H406.382V189.352Z" fill="#2DA9D7"/>
<path d="M424.578 189.352H414.873V199.062H424.578V189.352Z" fill="#2DA9D7"/>
<path d="M462.183 189.352H452.479V199.062H462.183V189.352Z" fill="#2DA9D7"/>
<path d="M556.804 189.352H547.1V199.062H556.804V189.352Z" fill="#2DA9D7"/>
<path d="M556.804 943.113H547.1V952.824H556.804V943.113Z" fill="#2DA9D7"/>
<path d="M349.367 217.269C346.145 217.247 342.884 217.284 339.662 217.269V207.559H349.367C349.382 210.782 349.345 214.045 349.367 217.269C352.587 217.29 355.851 217.295 359.071 217.269C359.093 214.045 359.056 210.782 359.071 207.559H367.563V217.269C364.745 217.285 361.889 217.246 359.071 217.269C359.05 220.491 359.05 223.757 359.071 226.979C361.889 227.002 364.745 226.963 367.563 226.979V236.689H359.071C359.056 233.466 359.093 230.203 359.071 226.979C355.851 226.953 352.587 226.958 349.367 226.979C349.345 230.203 349.382 233.466 349.367 236.689H339.662V226.979C342.884 226.964 346.145 227.001 349.367 226.979C349.388 223.757 349.388 220.491 349.367 217.269Z" fill="#2DA9D7"/>
<path d="M386.972 207.559H377.268V217.269H386.972V207.559Z" fill="#2DA9D7"/>
<path d="M499.788 217.269C496.971 217.246 494.115 217.285 491.297 217.269V207.559H499.788C499.803 210.782 499.767 214.045 499.788 217.269C503.009 217.295 506.273 217.29 509.493 217.269C509.514 214.045 509.478 210.782 509.493 207.559H519.198V217.269C515.976 217.284 512.715 217.247 509.493 217.269C509.472 220.491 509.472 223.757 509.493 226.979C512.715 227.001 515.976 226.964 519.198 226.979V236.689H509.493C509.478 233.466 509.514 230.203 509.493 226.979C506.273 226.958 503.009 226.953 499.788 226.979C499.767 230.203 499.803 233.466 499.788 236.689H491.297V226.979C494.115 226.963 496.971 227.002 499.788 226.979C499.81 223.757 499.81 220.491 499.788 217.269Z" fill="#2DA9D7"/>
<path d="M443.988 934.617C440.766 934.595 437.505 934.632 434.283 934.617V924.906H443.988C444.003 928.13 443.966 931.393 443.988 934.617C446.805 934.635 449.662 934.635 452.479 934.617C452.501 931.393 452.464 928.13 452.479 924.906H462.184V934.617C458.962 934.632 455.701 934.595 452.479 934.617C452.461 937.435 452.461 940.295 452.479 943.113C455.701 943.135 458.962 943.098 462.184 943.113V952.823H452.479C452.464 949.6 452.501 946.337 452.479 943.113C449.662 943.094 446.805 943.094 443.988 943.113C443.966 946.337 444.003 949.6 443.988 952.823H434.283V943.113C437.505 943.098 440.766 943.135 443.988 943.113C444.007 940.295 444.007 937.435 443.988 934.617Z" fill="#2DA9D7"/>
<path d="M29.1148 226.977H19.4102V236.687H29.1148V226.977Z" fill="#2DA9D7"/>
<path d="M66.7203 226.977H57.0156V236.687H66.7203V226.977Z" fill="#2DA9D7"/>
<path d="M104.326 226.977H94.6211V236.687H104.326V226.977Z" fill="#2DA9D7"/>
<path d="M217.142 226.977H207.438V236.687H217.142V226.977Z" fill="#2DA9D7"/>
<path d="M254.748 226.977H245.043V236.687H254.748V226.977Z" fill="#2DA9D7"/>
<path d="M406.382 934.617C403.161 934.595 399.899 934.632 396.678 934.617V924.906H406.382C406.397 928.13 406.361 931.393 406.382 934.617C409.199 934.635 412.057 934.635 414.874 934.617C414.895 931.393 414.859 928.13 414.874 924.906H424.579V934.617C421.357 934.632 418.096 934.595 414.874 934.617C414.855 937.435 414.855 940.295 414.874 943.113C418.096 943.135 421.357 943.098 424.579 943.113V952.823H414.874C414.859 949.6 414.895 946.337 414.874 943.113C412.057 943.094 409.199 943.094 406.382 943.113C406.361 946.337 406.397 949.6 406.382 952.823H396.678V943.113C399.899 943.098 403.161 943.135 406.382 943.113C406.401 940.295 406.401 937.435 406.382 934.617Z" fill="#2DA9D7"/>
<path d="M367.564 934.617C364.746 934.594 361.89 934.632 359.072 934.617V924.906H367.564C367.579 928.13 367.542 931.393 367.564 934.617C370.784 934.643 374.048 934.638 377.268 934.617C377.29 931.393 377.253 928.13 377.268 924.906H386.973V934.617C383.751 934.632 380.49 934.595 377.268 934.617C377.25 937.435 377.25 940.294 377.268 943.113C380.49 943.135 383.751 943.098 386.973 943.113V952.823H377.268C377.253 949.6 377.29 946.337 377.268 943.113C374.048 943.092 370.784 943.087 367.564 943.113C367.542 946.337 367.579 949.6 367.564 952.823H359.072V943.113C361.89 943.097 364.746 943.136 367.564 943.113C367.583 940.294 367.583 937.435 367.564 934.617Z" fill="#2DA9D7"/>
<path d="M386.972 226.977H377.268V236.687H386.972V226.977Z" fill="#2DA9D7"/>
<path d="M406.382 226.977H396.678V236.687H406.382V226.977Z" fill="#2DA9D7"/>
<path d="M481.593 226.977H471.889V236.687H481.593V226.977Z" fill="#2DA9D7"/>
<path d="M349.367 943.113H339.662V952.824H349.367V943.113Z" fill="#2DA9D7"/>
<path d="M311.761 943.113H302.057V952.824H311.761V943.113Z" fill="#2DA9D7"/>
<path d="M556.804 226.977H547.1V236.687H556.804V226.977Z" fill="#2DA9D7"/>
<path d="M29.1148 245.184H19.4102V254.894H29.1148V245.184Z" fill="#2DA9D7"/>
<path d="M66.7203 245.184H57.0156V254.894H66.7203V245.184Z" fill="#2DA9D7"/>
<path d="M217.142 245.184H207.438V254.894H217.142V245.184Z" fill="#2DA9D7"/>
<path d="M254.748 245.184H245.043V254.894H254.748V245.184Z" fill="#2DA9D7"/>
<path d="M274.156 943.113H264.451V952.824H274.156V943.113Z" fill="#2DA9D7"/>
<path d="M236.55 943.113H226.846V952.824H236.55V943.113Z" fill="#2DA9D7"/>
<path d="M349.367 245.184H339.662V254.894H349.367V245.184Z" fill="#2DA9D7"/>
<path d="M66.7203 943.113H57.0156V952.824H66.7203V943.113Z" fill="#2DA9D7"/>
<path d="M367.564 254.894C364.746 254.871 361.89 254.91 359.072 254.894V245.184H367.564C367.579 248.407 367.542 251.67 367.564 254.894C370.784 254.92 374.048 254.915 377.268 254.894C377.29 251.67 377.253 248.407 377.268 245.184H386.973V254.894C383.751 254.909 380.49 254.872 377.268 254.894C377.247 258.116 377.247 261.382 377.268 264.604C380.49 264.626 383.751 264.589 386.973 264.604V274.314H377.268C377.253 271.091 377.29 267.828 377.268 264.604C374.048 264.583 370.784 264.578 367.564 264.604C367.542 267.828 367.579 271.091 367.564 274.314H359.072V264.604C361.89 264.588 364.746 264.627 367.564 264.604C367.585 261.382 367.585 258.116 367.564 254.894Z" fill="#2DA9D7"/>
<path d="M406.382 245.184H396.678V254.894H406.382V245.184Z" fill="#2DA9D7"/>
<path d="M481.593 245.184H471.889V254.894H481.593V245.184Z" fill="#2DA9D7"/>
<path d="M9.70464 943.113H0V952.824H9.70464V943.113Z" fill="#2DA9D7"/>
<path d="M519.199 254.894C515.977 254.872 512.716 254.909 509.494 254.894V245.184H519.199C519.214 248.407 519.177 251.67 519.199 254.894C522.419 254.915 525.683 254.92 528.903 254.894C528.925 251.67 528.888 248.407 528.903 245.184H537.395V254.894C534.577 254.91 531.721 254.871 528.903 254.894C528.882 258.116 528.882 261.382 528.903 264.604C531.721 264.627 534.577 264.588 537.395 264.604V274.314H528.903C528.888 271.091 528.925 267.828 528.903 264.604C525.683 264.578 522.419 264.583 519.199 264.604C519.177 267.828 519.214 271.091 519.199 274.314H509.494V264.604C512.716 264.589 515.977 264.626 519.199 264.604C519.22 261.382 519.22 258.116 519.199 254.894Z" fill="#2DA9D7"/>
<path d="M556.804 924.906H547.1V934.617H556.804V924.906Z" fill="#2DA9D7"/>
<path d="M556.804 245.184H547.1V254.894H556.804V245.184Z" fill="#2DA9D7"/>
<path d="M9.70464 264.605H0V274.316H9.70464V264.605Z" fill="#2DA9D7"/>
<path d="M66.7203 264.605H57.0156V274.316H66.7203V264.605Z" fill="#2DA9D7"/>
<path d="M141.931 0H132.227V9.7103H141.931V0Z" fill="#2DA9D7"/>
<path d="M161.339 264.605H151.635V274.316H161.339V264.605Z" fill="#2DA9D7"/>
<path d="M198.945 264.605H189.24V274.316H198.945V264.605Z" fill="#2DA9D7"/>
<path d="M217.142 264.605H207.438V274.316H217.142V264.605Z" fill="#2DA9D7"/>
<path d="M236.55 264.605H226.846V274.316H236.55V264.605Z" fill="#2DA9D7"/>
<path d="M254.748 264.605H245.043V274.316H254.748V264.605Z" fill="#2DA9D7"/>
<path d="M274.156 264.605H264.451V274.316H274.156V264.605Z" fill="#2DA9D7"/>
<path d="M311.761 264.605H302.057V274.316H311.761V264.605Z" fill="#2DA9D7"/>
<path d="M349.367 264.605H339.662V274.316H349.367V264.605Z" fill="#2DA9D7"/>
<path d="M406.382 264.605H396.678V274.316H406.382V264.605Z" fill="#2DA9D7"/>
<path d="M424.578 264.605H414.873V274.316H424.578V264.605Z" fill="#2DA9D7"/>
<path d="M462.183 264.605H452.479V274.316H462.183V264.605Z" fill="#2DA9D7"/>
<path d="M481.593 264.605H471.889V274.316H481.593V264.605Z" fill="#2DA9D7"/>
<path d="M556.804 264.605H547.1V274.316H556.804V264.605Z" fill="#2DA9D7"/>
<path d="M349.367 924.906H339.662V934.617H349.367V924.906Z" fill="#2DA9D7"/>
<path d="M254.748 924.906H245.043V934.617H254.748V924.906Z" fill="#2DA9D7"/>
<path d="M66.7203 924.906H57.0156V934.617H66.7203V924.906Z" fill="#2DA9D7"/>
<path d="M161.339 282.812H151.635V292.523H161.339V282.812Z" fill="#2DA9D7"/>
<path d="M198.945 282.812H189.24V292.523H198.945V282.812Z" fill="#2DA9D7"/>
<path d="M217.142 282.812H207.438V292.523H217.142V282.812Z" fill="#2DA9D7"/>
<path d="M236.55 282.812H226.846V292.523H236.55V282.812Z" fill="#2DA9D7"/>
<path d="M254.748 282.812H245.043V292.523H254.748V282.812Z" fill="#2DA9D7"/>
<path d="M274.156 282.812H264.451V292.523H274.156V282.812Z" fill="#2DA9D7"/>
<path d="M349.367 292.523C346.145 292.501 342.884 292.538 339.662 292.523V282.812H349.367C349.382 286.036 349.345 289.299 349.367 292.523C352.587 292.544 355.851 292.549 359.071 292.523C359.093 289.299 359.056 286.036 359.071 282.812H367.563V292.523C364.745 292.539 361.889 292.5 359.071 292.523C359.05 295.745 359.05 299.011 359.071 302.233C361.889 302.256 364.745 302.217 367.563 302.233V311.943H359.071C359.056 308.72 359.093 305.457 359.071 302.233C355.851 302.207 352.587 302.212 349.367 302.233C349.345 305.457 349.382 308.72 349.367 311.943H339.662V302.233C342.884 302.218 346.145 302.254 349.367 302.233C349.388 299.011 349.388 295.745 349.367 292.523Z" fill="#2DA9D7"/>
<path d="M29.1148 924.906H19.4102V934.617H29.1148V924.906Z" fill="#2DA9D7"/>
<path d="M386.972 292.523C383.751 292.501 380.489 292.538 377.268 292.523V282.812H386.972C386.987 286.036 386.951 289.299 386.972 292.523C390.193 292.544 393.456 292.544 396.677 292.523C396.698 289.299 396.662 286.036 396.677 282.812H406.381V292.523C403.16 292.538 399.898 292.501 396.677 292.523C396.655 295.745 396.655 299.011 396.677 302.233C399.898 302.254 403.16 302.218 406.381 302.233V311.943H396.677C396.662 308.72 396.698 305.457 396.677 302.233C393.456 302.212 390.193 302.212 386.972 302.233C386.951 305.457 386.987 308.72 386.972 311.943H377.268V302.233C380.489 302.218 383.751 302.254 386.972 302.233C386.994 299.011 386.994 295.745 386.972 292.523Z" fill="#2DA9D7"/>
<path d="M424.578 282.812H414.873V292.523H424.578V282.812Z" fill="#2DA9D7"/>
<path d="M443.988 282.812H434.283V292.523H443.988V282.812Z" fill="#2DA9D7"/>
<path d="M462.183 302.234C462.189 305.458 462.19 308.721 462.183 311.944C458.962 311.923 455.7 311.959 452.479 311.944V302.234C455.7 302.219 458.962 302.256 462.183 302.234Z" fill="#2DA9D7"/>
<path d="M499.788 292.523C496.971 292.5 494.115 292.539 491.297 292.523V282.812H499.788C499.803 286.036 499.767 289.299 499.788 292.523C503.009 292.549 506.273 292.544 509.493 292.523C509.514 289.299 509.478 286.036 509.493 282.812H519.198V292.523C515.976 292.538 512.715 292.501 509.493 292.523C509.472 295.746 509.499 299.01 509.493 302.233C506.273 302.212 503.009 302.207 499.788 302.233C499.782 299.01 499.81 295.746 499.788 292.523Z" fill="#2DA9D7"/>
<path d="M471.888 302.234C475.109 302.256 478.371 302.219 481.592 302.234V311.944C478.371 311.959 475.109 311.923 471.888 311.944C471.881 308.721 471.882 305.458 471.888 302.234Z" fill="#2DA9D7"/>
<path d="M499.788 302.234C499.795 305.458 499.795 308.721 499.788 311.945C496.971 311.922 494.115 311.96 491.297 311.945V302.234C494.115 302.219 496.971 302.257 499.788 302.234Z" fill="#2DA9D7"/>
<path d="M471.888 311.945C471.895 315.169 471.862 318.432 471.888 321.656C475.109 321.677 478.371 321.641 481.592 321.656C481.608 324.475 481.57 327.333 481.592 330.152C484.813 330.174 488.077 330.178 491.297 330.152C491.32 327.333 491.281 324.475 491.297 321.656C494.115 321.64 496.971 321.678 499.789 321.656C499.815 318.432 499.782 315.169 499.789 311.945C503.009 311.971 506.273 311.967 509.493 311.945C509.5 315.169 509.467 318.432 509.493 321.656C512.715 321.677 515.976 321.641 519.198 321.656V330.152H509.493C509.477 327.333 509.516 324.475 509.493 321.656C506.273 321.634 503.009 321.63 499.789 321.656C499.766 324.475 499.804 327.333 499.789 330.152C496.971 330.168 494.115 330.129 491.297 330.152C491.271 333.374 491.276 336.64 491.297 339.862C494.115 339.885 496.971 339.847 499.789 339.862V349.573H491.297C491.282 346.349 491.318 343.086 491.297 339.862C488.077 339.836 484.813 339.841 481.592 339.862C481.571 343.086 481.607 346.349 481.592 349.573H471.888V339.862C475.109 339.847 478.371 339.884 481.592 339.862C481.614 336.64 481.618 333.374 481.592 330.152C478.371 330.131 475.109 330.167 471.888 330.152C471.872 327.333 471.911 324.475 471.888 321.656C468.667 321.634 465.404 321.634 462.183 321.656C462.16 324.475 462.199 327.333 462.183 330.152H452.479V321.656C455.7 321.641 458.962 321.677 462.183 321.656C462.209 318.432 462.176 315.169 462.183 311.945C465.404 311.967 468.667 311.967 471.888 311.945Z" fill="#2DA9D7"/>
<path d="M509.493 302.234C512.715 302.256 515.976 302.219 519.198 302.234V311.944C515.976 311.959 512.715 311.923 509.493 311.944C509.486 308.721 509.487 305.458 509.493 302.234Z" fill="#2DA9D7"/>
<path d="M462.183 292.523C458.962 292.501 455.7 292.538 452.479 292.523V282.812H462.183C462.198 286.036 462.162 289.299 462.183 292.523C465.404 292.544 468.667 292.544 471.888 292.523C471.909 289.299 471.873 286.036 471.888 282.812H481.592V292.523C478.371 292.538 475.109 292.501 471.888 292.523C471.866 295.746 471.894 299.01 471.888 302.233C468.667 302.212 465.404 302.212 462.183 302.233C462.177 299.01 462.205 295.746 462.183 292.523Z" fill="#2DA9D7"/>
<path d="M556.804 905.484H547.1V915.195H556.804V905.484Z" fill="#2DA9D7"/>
<path d="M29.1148 302.234H19.4102V311.945H29.1148V302.234Z" fill="#2DA9D7"/>
<path d="M66.7203 302.234H57.0156V311.945H66.7203V302.234Z" fill="#2DA9D7"/>
<path d="M104.326 302.234H94.6211V311.945H104.326V302.234Z" fill="#2DA9D7"/>
<path d="M141.931 302.234H132.227V311.945H141.931V302.234Z" fill="#2DA9D7"/>
<path d="M161.339 302.234H151.635V311.945H161.339V302.234Z" fill="#2DA9D7"/>
<path d="M179.537 302.234H169.832V311.945H179.537V302.234Z" fill="#2DA9D7"/>
<path d="M198.945 302.234H189.24V311.945H198.945V302.234Z" fill="#2DA9D7"/>
<path d="M217.142 302.234H207.438V311.945H217.142V302.234Z" fill="#2DA9D7"/>
<path d="M236.55 302.234H226.846V311.945H236.55V302.234Z" fill="#2DA9D7"/>
<path d="M254.748 302.234H245.043V311.945H254.748V302.234Z" fill="#2DA9D7"/>
<path d="M274.156 302.234H264.451V311.945H274.156V302.234Z" fill="#2DA9D7"/>
<path d="M481.593 905.484H471.889V915.195H481.593V905.484Z" fill="#2DA9D7"/>
<path d="M443.988 905.484H434.283V915.195H443.988V905.484Z" fill="#2DA9D7"/>
<path d="M406.382 905.484H396.678V915.195H406.382V905.484Z" fill="#2DA9D7"/>
<path d="M424.578 302.234H414.873V311.945H424.578V302.234Z" fill="#2DA9D7"/>
<path d="M443.988 302.234H434.283V311.945H443.988V302.234Z" fill="#2DA9D7"/>
<path d="M386.972 905.484H377.268V915.195H386.972V905.484Z" fill="#2DA9D7"/>
<path d="M349.367 896.988C346.145 896.966 342.884 897.003 339.662 896.988V887.277H349.367C349.382 890.501 349.345 893.764 349.367 896.988C352.587 897.009 355.851 897.014 359.071 896.988C359.093 893.764 359.056 890.501 359.071 887.277H367.563V896.988C364.745 897.003 361.889 896.965 359.071 896.988C359.053 899.806 359.053 902.666 359.071 905.484C361.889 905.507 364.745 905.468 367.563 905.484V915.194H359.071C359.056 911.971 359.093 908.708 359.071 905.484C355.851 905.458 352.587 905.463 349.367 905.484C349.345 908.708 349.382 911.971 349.367 915.194H339.662V905.484C342.884 905.469 346.145 905.506 349.367 905.484C349.385 902.666 349.385 899.806 349.367 896.988Z" fill="#2DA9D7"/>
<path d="M556.804 302.234H547.1V311.945H556.804V302.234Z" fill="#2DA9D7"/>
<path d="M254.748 905.484H245.043V915.195H254.748V905.484Z" fill="#2DA9D7"/>
<path d="M217.142 905.484H207.438V915.195H217.142V905.484Z" fill="#2DA9D7"/>
<path d="M104.326 905.484H94.6211V915.195H104.326V905.484Z" fill="#2DA9D7"/>
<path d="M66.7203 905.484H57.0156V915.195H66.7203V905.484Z" fill="#2DA9D7"/>
<path d="M29.1148 905.484H19.4102V915.195H29.1148V905.484Z" fill="#2DA9D7"/>
<path d="M386.972 887.277H377.268V896.988H386.972V887.277Z" fill="#2DA9D7"/>
<path d="M274.156 887.277H264.451V896.988H274.156V887.277Z" fill="#2DA9D7"/>
<path d="M254.748 887.277H245.043V896.988H254.748V887.277Z" fill="#2DA9D7"/>
<path d="M236.55 887.277H226.846V896.988H236.55V887.277Z" fill="#2DA9D7"/>
<path d="M556.804 867.859H547.1V877.57H556.804V867.859Z" fill="#2DA9D7"/>
<path d="M519.199 858.149C515.977 858.127 512.716 858.164 509.494 858.149V849.652H519.199C519.215 852.472 519.176 855.329 519.199 858.149C522.419 858.17 525.683 858.175 528.903 858.149C528.926 855.329 528.888 852.472 528.903 849.652H537.395V858.149C534.577 858.165 531.721 858.126 528.903 858.149C528.877 861.371 528.882 864.637 528.903 867.859C531.721 867.882 534.577 867.843 537.395 867.859V877.569H528.903C528.888 874.346 528.925 871.083 528.903 867.859C525.683 867.833 522.419 867.838 519.199 867.859C519.177 871.083 519.214 874.346 519.199 877.569H509.494V867.859C512.716 867.844 515.977 867.881 519.199 867.859C519.22 864.637 519.225 861.371 519.199 858.149Z" fill="#2DA9D7"/>
<path d="M462.183 867.859H452.479V877.57H462.183V867.859Z" fill="#2DA9D7"/>
<path d="M424.578 867.859H414.873V877.57H424.578V867.859Z" fill="#2DA9D7"/>
<path d="M367.564 858.149C364.746 858.126 361.89 858.165 359.072 858.149V849.652H367.564C367.58 852.472 367.541 855.329 367.564 858.149C370.784 858.175 374.048 858.17 377.268 858.149C377.291 855.329 377.253 852.472 377.268 849.652H386.973V858.149C383.751 858.164 380.49 858.127 377.268 858.149C377.242 861.371 377.247 864.637 377.268 867.859C380.49 867.881 383.751 867.844 386.973 867.859V877.569H377.268C377.253 874.346 377.29 871.083 377.268 867.859C374.048 867.838 370.784 867.833 367.564 867.859C367.542 871.083 367.579 874.346 367.564 877.569H359.072V867.859C361.89 867.843 364.746 867.882 367.564 867.859C367.585 864.637 367.59 861.371 367.564 858.149Z" fill="#2DA9D7"/>
<path d="M349.367 867.859H339.662V877.57H349.367V867.859Z" fill="#2DA9D7"/>
<path d="M311.761 867.859H302.057V877.57H311.761V867.859Z" fill="#2DA9D7"/>
<path d="M274.156 867.859H264.451V877.57H274.156V867.859Z" fill="#2DA9D7"/>
<path d="M254.748 867.859H245.043V877.57H254.748V867.859Z" fill="#2DA9D7"/>
<path d="M236.55 867.859H226.846V877.57H236.55V867.859Z" fill="#2DA9D7"/>
<path d="M217.142 867.859H207.438V877.57H217.142V867.859Z" fill="#2DA9D7"/>
<path d="M198.945 867.859H189.24V877.57H198.945V867.859Z" fill="#2DA9D7"/>
<path d="M161.339 867.859H151.635V877.57H161.339V867.859Z" fill="#2DA9D7"/>
<path d="M66.7203 867.859H57.0156V877.57H66.7203V867.859Z" fill="#2DA9D7"/>
<path d="M9.70464 867.859H0V877.57H9.70464V867.859Z" fill="#2DA9D7"/>
<path d="M161.339 339.859H151.635V349.57H161.339V339.859Z" fill="#2DA9D7"/>
<path d="M179.537 339.859H169.832V349.57H179.537V339.859Z" fill="#2DA9D7"/>
<path d="M198.945 339.859H189.24V349.57H198.945V339.859Z" fill="#2DA9D7"/>
<path d="M217.142 339.859H207.438V349.57H217.142V339.859Z" fill="#2DA9D7"/>
<path d="M236.55 339.859H226.846V349.57H236.55V339.859Z" fill="#2DA9D7"/>
<path d="M274.156 339.859H264.451V349.57H274.156V339.859Z" fill="#2DA9D7"/>
<path d="M311.761 339.859H302.057V349.57H311.761V339.859Z" fill="#2DA9D7"/>
<path d="M349.367 339.859H339.662V349.57H349.367V339.859Z" fill="#2DA9D7"/>
<path d="M386.972 339.859H377.268V349.57H386.972V339.859Z" fill="#2DA9D7"/>
<path d="M406.382 339.859H396.678V349.57H406.382V339.859Z" fill="#2DA9D7"/>
<path d="M424.578 339.859H414.873V349.57H424.578V339.859Z" fill="#2DA9D7"/>
<path d="M443.988 339.859H434.283V349.57H443.988V339.859Z" fill="#2DA9D7"/>
<path d="M462.183 339.859H452.479V349.57H462.183V339.859Z" fill="#2DA9D7"/>
<path d="M519.199 339.859H509.494V349.57H519.199V339.859Z" fill="#2DA9D7"/>
<path d="M556.804 830.23H547.1V839.941H556.804V830.23Z" fill="#2DA9D7"/>
<path d="M443.988 377.488H434.283V387.199H443.988V377.488Z" fill="#2DA9D7"/>
<path d="M481.593 377.488H471.889V387.199H481.593V377.488Z" fill="#2DA9D7"/>
<path d="M519.199 830.23H509.494V839.941H519.199V830.23Z" fill="#2DA9D7"/>
<path d="M481.593 830.23H471.889V839.941H481.593V830.23Z" fill="#2DA9D7"/>
<path d="M406.382 830.23H396.678V839.941H406.382V830.23Z" fill="#2DA9D7"/>
<path d="M386.972 830.23H377.268V839.941H386.972V830.23Z" fill="#2DA9D7"/>
<path d="M349.367 830.23H339.662V839.941H349.367V830.23Z" fill="#2DA9D7"/>
<path d="M274.156 830.23H264.451V839.941H274.156V830.23Z" fill="#2DA9D7"/>
<path d="M254.748 830.23H245.043V839.941H254.748V830.23Z" fill="#2DA9D7"/>
<path d="M236.55 830.23H226.846V839.941H236.55V830.23Z" fill="#2DA9D7"/>
<path d="M217.142 830.23H207.438V839.941H217.142V830.23Z" fill="#2DA9D7"/>
<path d="M198.945 830.23H189.24V839.941H198.945V830.23Z" fill="#2DA9D7"/>
<path d="M9.70464 415.117H0V424.827H9.70464V415.117Z" fill="#2DA9D7"/>
<path d="M179.537 830.23H169.832V839.941H179.537V830.23Z" fill="#2DA9D7"/>
<path d="M66.7203 415.117H57.0156V424.827H66.7203V415.117Z" fill="#2DA9D7"/>
<path d="M161.339 830.23H151.635V839.941H161.339V830.23Z" fill="#2DA9D7"/>
<path d="M104.326 415.117H94.6211V424.827H104.326V415.117Z" fill="#2DA9D7"/>
<path d="M141.931 830.23H132.227V839.941H141.931V830.23Z" fill="#2DA9D7"/>
<path d="M141.931 415.117H132.227V424.827H141.931V415.117Z" fill="#2DA9D7"/>
<path d="M161.339 415.117H151.635V424.827H161.339V415.117Z" fill="#2DA9D7"/>
<path d="M179.537 415.117H169.832V424.827H179.537V415.117Z" fill="#2DA9D7"/>
<path d="M198.945 415.117H189.24V424.827H198.945V415.117Z" fill="#2DA9D7"/>
<path d="M217.142 415.117H207.438V424.827H217.142V415.117Z" fill="#2DA9D7"/>
<path d="M236.55 415.117H226.846V424.827H236.55V415.117Z" fill="#2DA9D7"/>
<path d="M254.748 415.117H245.043V424.827H254.748V415.117Z" fill="#2DA9D7"/>
<path d="M274.156 415.117H264.451V424.827H274.156V415.117Z" fill="#2DA9D7"/>
<path d="M311.761 415.117H302.057V424.827H311.761V415.117Z" fill="#2DA9D7"/>
<path d="M349.367 415.117H339.662V424.827H349.367V415.117Z" fill="#2DA9D7"/>
<path d="M104.326 830.23H94.6211V839.941H104.326V830.23Z" fill="#2DA9D7"/>
<path d="M386.972 415.117H377.268V424.827H386.972V415.117Z" fill="#2DA9D7"/>
<path d="M406.382 415.117H396.678V424.827H406.382V415.117Z" fill="#2DA9D7"/>
<path d="M424.578 415.117H414.873V424.827H424.578V415.117Z" fill="#2DA9D7"/>
<path d="M443.988 415.117H434.283V424.827H443.988V415.117Z" fill="#2DA9D7"/>
<path d="M462.183 415.117H452.479V424.827H462.183V415.117Z" fill="#2DA9D7"/>
<path d="M481.593 415.117H471.889V424.827H481.593V415.117Z" fill="#2DA9D7"/>
<path d="M66.7203 830.23H57.0156V839.941H66.7203V830.23Z" fill="#2DA9D7"/>
<path d="M519.199 415.117H509.494V424.827H519.199V415.117Z" fill="#2DA9D7"/>
<path d="M29.1148 830.23H19.4102V839.941H29.1148V830.23Z" fill="#2DA9D7"/>
<path d="M519.199 792.602H509.494V802.312H519.199V792.602Z" fill="#2DA9D7"/>
<path d="M386.972 792.602H377.268V802.312H386.972V792.602Z" fill="#2DA9D7"/>
<path d="M349.367 792.602H339.662V802.312H349.367V792.602Z" fill="#2DA9D7"/>
<path d="M311.761 792.602H302.057V802.312H311.761V792.602Z" fill="#2DA9D7"/>
<path d="M161.339 434.535H151.635V444.245H161.339V434.535Z" fill="#2DA9D7"/>
<path d="M179.537 434.535H169.832V444.245H179.537V434.535Z" fill="#2DA9D7"/>
<path d="M198.945 434.535H189.24V444.245H198.945V434.535Z" fill="#2DA9D7"/>
<path d="M217.142 434.535H207.438V444.245H217.142V434.535Z" fill="#2DA9D7"/>
<path d="M236.55 434.535H226.846V444.245H236.55V434.535Z" fill="#2DA9D7"/>
<path d="M254.748 434.535H245.043V444.245H254.748V434.535Z" fill="#2DA9D7"/>
<path d="M274.156 434.535H264.451V444.245H274.156V434.535Z" fill="#2DA9D7"/>
<path d="M349.367 434.535H339.662V444.245H349.367V434.535Z" fill="#2DA9D7"/>
<path d="M274.156 792.602H264.451V802.312H274.156V792.602Z" fill="#2DA9D7"/>
<path d="M386.972 444.245C383.751 444.224 380.489 444.26 377.268 444.245V434.535H386.972C386.987 437.759 386.951 441.022 386.972 444.245C390.193 444.267 393.456 444.267 396.677 444.245C396.698 441.022 396.662 437.759 396.677 434.535H406.381V444.245C403.16 444.26 399.898 444.224 396.677 444.245C396.658 447.064 396.658 449.923 396.677 452.742C399.898 452.763 403.16 452.727 406.381 452.742V462.452H396.677C396.662 459.229 396.698 455.965 396.677 452.742C393.456 452.721 390.193 452.721 386.972 452.742C386.951 455.965 386.987 459.229 386.972 462.452H377.268V452.742C380.489 452.727 383.751 452.763 386.972 452.742C386.991 449.923 386.991 447.064 386.972 444.245Z" fill="#2DA9D7"/>
<path d="M424.578 444.245C421.356 444.224 418.095 444.26 414.873 444.245V434.535H424.578C424.593 437.759 424.556 441.022 424.578 444.245C427.798 444.267 431.062 444.267 434.282 444.245C434.304 441.022 434.267 437.759 434.282 434.535H443.987V444.245C440.765 444.26 437.504 444.224 434.282 444.245C434.264 447.064 434.264 449.923 434.282 452.742C437.504 452.763 440.765 452.727 443.987 452.742V462.452H434.282C434.267 459.229 434.304 455.965 434.282 452.742C431.062 452.721 427.798 452.721 424.578 452.742C424.556 455.965 424.593 459.229 424.578 462.452H414.873V452.742C418.095 452.727 421.356 452.763 424.578 452.742C424.596 449.923 424.596 447.064 424.578 444.245Z" fill="#2DA9D7"/>
<path d="M462.183 444.245C458.962 444.224 455.7 444.26 452.479 444.245V434.535H462.183C462.198 437.759 462.162 441.022 462.183 444.245C465.404 444.267 468.667 444.267 471.888 444.245C471.909 441.022 471.873 437.759 471.888 434.535H481.592V444.245C478.371 444.26 475.109 444.224 471.888 444.245C471.869 447.064 471.869 449.923 471.888 452.742C475.109 452.763 478.371 452.727 481.592 452.742V462.452H471.888C471.873 459.229 471.909 455.965 471.888 452.742C468.667 452.721 465.404 452.721 462.183 452.742C462.162 455.965 462.198 459.229 462.183 462.452H452.479V452.742C455.7 452.727 458.962 452.763 462.183 452.742C462.202 449.923 462.202 447.064 462.183 444.245Z" fill="#2DA9D7"/>
<path d="M236.55 792.602H226.846V802.312H236.55V792.602Z" fill="#2DA9D7"/>
<path d="M499.788 444.245C496.971 444.223 494.115 444.261 491.297 444.245V434.535H499.788C499.803 437.759 499.767 441.022 499.788 444.245C503.009 444.271 506.273 444.267 509.493 444.245C509.514 441.022 509.478 437.759 509.493 434.535H519.198V444.245C515.976 444.26 512.715 444.224 509.493 444.245C509.474 447.064 509.474 449.923 509.493 452.742C512.715 452.763 515.976 452.727 519.198 452.742V462.452H509.493C509.478 459.229 509.514 455.965 509.493 452.742C506.273 452.721 503.009 452.716 499.788 452.742C499.767 455.965 499.803 459.229 499.788 462.452H491.297V452.742C494.115 452.726 496.971 452.765 499.788 452.742C499.807 449.923 499.807 447.064 499.788 444.245Z" fill="#2DA9D7"/>
<path d="M217.142 792.602H207.438V802.312H217.142V792.602Z" fill="#2DA9D7"/>
<path d="M198.945 792.602H189.24V802.312H198.945V792.602Z" fill="#2DA9D7"/>
<path d="M179.537 792.602H169.832V802.312H179.537V792.602Z" fill="#2DA9D7"/>
<path d="M161.339 792.602H151.635V802.312H161.339V792.602Z" fill="#2DA9D7"/>
<path d="M519.199 754.977H509.494V764.687H519.199V754.977Z" fill="#2DA9D7"/>
<path d="M29.1148 452.742H19.4102V462.452H29.1148V452.742Z" fill="#2DA9D7"/>
<path d="M66.7203 452.742H57.0156V462.452H66.7203V452.742Z" fill="#2DA9D7"/>
<path d="M481.593 754.977H471.889V764.687H481.593V754.977Z" fill="#2DA9D7"/>
<path d="M104.326 452.742H94.6211V462.452H104.326V452.742Z" fill="#2DA9D7"/>
<path d="M443.988 754.977H434.283V764.687H443.988V754.977Z" fill="#2DA9D7"/>
<path d="M141.931 452.742H132.227V462.452H141.931V452.742Z" fill="#2DA9D7"/>
<path d="M161.339 452.742H151.635V462.452H161.339V452.742Z" fill="#2DA9D7"/>
<path d="M179.537 452.742H169.832V462.452H179.537V452.742Z" fill="#2DA9D7"/>
<path d="M198.945 452.742H189.24V462.452H198.945V452.742Z" fill="#2DA9D7"/>
<path d="M217.142 452.742H207.438V462.452H217.142V452.742Z" fill="#2DA9D7"/>
<path d="M236.55 452.742H226.846V462.452H236.55V452.742Z" fill="#2DA9D7"/>
<path d="M254.748 452.742H245.043V462.452H254.748V452.742Z" fill="#2DA9D7"/>
<path d="M406.382 754.977H396.678V764.687H406.382V754.977Z" fill="#2DA9D7"/>
<path d="M141.931 754.977H132.227V764.687H141.931V754.977Z" fill="#2DA9D7"/>
<path d="M349.367 452.742H339.662V462.452H349.367V452.742Z" fill="#2DA9D7"/>
<path d="M462.183 735.555H452.479V745.265H462.183V735.555Z" fill="#2DA9D7"/>
<path d="M424.578 735.555H414.873V745.265H424.578V735.555Z" fill="#2DA9D7"/>
<path d="M386.972 735.555H377.268V745.265H386.972V735.555Z" fill="#2DA9D7"/>
<path d="M556.804 452.742H547.1V462.452H556.804V452.742Z" fill="#2DA9D7"/>
<path d="M66.7203 472.164H57.0156V481.874H66.7203V472.164Z" fill="#2DA9D7"/>
<path d="M104.326 472.164H94.6211V481.874H104.326V472.164Z" fill="#2DA9D7"/>
<path d="M349.367 735.555H339.662V745.265H349.367V735.555Z" fill="#2DA9D7"/>
<path d="M141.931 472.164H132.227V481.874H141.931V472.164Z" fill="#2DA9D7"/>
<path d="M161.339 472.164H151.635V481.874H161.339V472.164Z" fill="#2DA9D7"/>
<path d="M179.537 472.164H169.832V481.874H179.537V472.164Z" fill="#2DA9D7"/>
<path d="M217.142 472.164H207.438V481.874H217.142V472.164Z" fill="#2DA9D7"/>
<path d="M254.748 472.164H245.043V481.874H254.748V472.164Z" fill="#2DA9D7"/>
<path d="M161.339 735.555H151.635V745.265H161.339V735.555Z" fill="#2DA9D7"/>
<path d="M349.367 472.164H339.662V481.874H349.367V472.164Z" fill="#2DA9D7"/>
<path d="M556.804 717.348H547.1V727.058H556.804V717.348Z" fill="#2DA9D7"/>
<path d="M367.564 481.874C364.746 481.852 361.89 481.89 359.072 481.874V472.164H367.564C367.579 475.388 367.542 478.651 367.564 481.874C370.784 481.9 374.048 481.896 377.268 481.874C377.29 478.651 377.253 475.388 377.268 472.164H386.973V481.874C383.751 481.889 380.49 481.853 377.268 481.874C377.25 484.693 377.25 487.552 377.268 490.371C380.49 490.392 383.751 490.356 386.973 490.371V500.081H377.268C377.253 496.858 377.29 493.594 377.268 490.371C374.048 490.349 370.784 490.345 367.564 490.371C367.542 493.594 367.579 496.858 367.564 500.081H359.072V490.371C361.89 490.355 364.746 490.394 367.564 490.371C367.583 487.552 367.583 484.693 367.564 481.874Z" fill="#2DA9D7"/>
<path d="M406.382 472.164H396.678V481.874H406.382V472.164Z" fill="#2DA9D7"/>
<path d="M443.988 472.164H434.283V481.874H443.988V472.164Z" fill="#2DA9D7"/>
<path d="M481.593 472.164H471.889V481.874H481.593V472.164Z" fill="#2DA9D7"/>
<path d="M519.199 472.164H509.494V481.874H519.199V472.164Z" fill="#2DA9D7"/>
<path d="M556.804 472.164H547.1V481.874H556.804V472.164Z" fill="#2DA9D7"/>
<path d="M519.199 707.64C515.977 707.619 512.716 707.655 509.494 707.64V697.93H519.199C519.214 701.153 519.177 704.417 519.199 707.64C522.419 707.661 525.683 707.666 528.903 707.64C528.925 704.417 528.888 701.153 528.903 697.93H537.395V707.64C534.577 707.656 531.721 707.617 528.903 707.64C528.882 710.862 528.882 714.128 528.903 717.35C531.721 717.373 534.577 717.334 537.395 717.35V727.061H528.903C528.888 723.837 528.925 720.574 528.903 717.35C525.683 717.324 522.419 717.329 519.199 717.35C519.177 720.574 519.214 723.837 519.199 727.061H509.494V717.35C512.716 717.335 515.977 717.372 519.199 717.35C519.22 714.128 519.22 710.862 519.199 707.64Z" fill="#2DA9D7"/>
<path d="M481.593 707.64C478.372 707.619 475.11 707.655 471.889 707.64V697.93H481.593C481.608 701.153 481.572 704.417 481.593 707.64C484.814 707.661 488.078 707.666 491.298 707.64C491.319 704.417 491.283 701.153 491.298 697.93H499.79V707.64C496.972 707.656 494.116 707.617 491.298 707.64C491.277 710.862 491.277 714.128 491.298 717.35C494.116 717.373 496.972 717.334 499.79 717.35V727.061H491.298C491.283 723.837 491.319 720.574 491.298 717.35C488.078 717.324 484.814 717.329 481.593 717.35C481.572 720.574 481.608 723.837 481.593 727.061H471.889V717.35C475.11 717.335 478.372 717.372 481.593 717.35C481.615 714.128 481.615 710.862 481.593 707.64Z" fill="#2DA9D7"/>
<path d="M443.988 707.64C440.766 707.619 437.505 707.655 434.283 707.64V697.93H443.988C444.003 701.153 443.966 704.417 443.988 707.64C446.805 707.659 449.662 707.659 452.479 707.64C452.501 704.417 452.464 701.153 452.479 697.93H462.184V707.64C458.962 707.655 455.701 707.619 452.479 707.64C452.458 710.862 452.458 714.128 452.479 717.35C455.701 717.372 458.962 717.335 462.184 717.35V727.061H452.479C452.464 723.837 452.501 720.574 452.479 717.35C449.662 717.332 446.805 717.332 443.988 717.35C443.966 720.574 444.003 723.837 443.988 727.061H434.283V717.35C437.505 717.335 440.766 717.372 443.988 717.35C444.009 714.128 444.009 710.862 443.988 707.64Z" fill="#2DA9D7"/>
<path d="M141.931 490.371H132.227V500.081H141.931V490.371Z" fill="#2DA9D7"/>
<path d="M161.339 490.371H151.635V500.081H161.339V490.371Z" fill="#2DA9D7"/>
<path d="M179.537 490.371H169.832V500.081H179.537V490.371Z" fill="#2DA9D7"/>
<path d="M198.945 490.371H189.24V500.081H198.945V490.371Z" fill="#2DA9D7"/>
<path d="M236.55 490.371H226.846V500.081H236.55V490.371Z" fill="#2DA9D7"/>
<path d="M274.156 490.371H264.451V500.081H274.156V490.371Z" fill="#2DA9D7"/>
<path d="M311.761 490.371H302.057V500.081H311.761V490.371Z" fill="#2DA9D7"/>
<path d="M406.382 707.64C403.161 707.619 399.899 707.655 396.678 707.64V697.93H406.382C406.397 701.153 406.361 704.417 406.382 707.64C409.199 707.659 412.057 707.659 414.874 707.64C414.895 704.417 414.859 701.153 414.874 697.93H424.579V707.64C421.357 707.655 418.096 707.619 414.874 707.64C414.853 710.862 414.853 714.128 414.874 717.35C418.096 717.372 421.357 717.335 424.579 717.35V727.061H414.874C414.859 723.837 414.895 720.574 414.874 717.35C412.057 717.332 409.199 717.332 406.382 717.35C406.361 720.574 406.397 723.837 406.382 727.061H396.678V717.35C399.899 717.335 403.161 717.372 406.382 717.35C406.404 714.128 406.404 710.862 406.382 707.64Z" fill="#2DA9D7"/>
<path d="M349.367 490.371H339.662V500.081H349.367V490.371Z" fill="#2DA9D7"/>
<path d="M406.382 490.371H396.678V500.081H406.382V490.371Z" fill="#2DA9D7"/>
<path d="M424.578 490.371H414.873V500.081H424.578V490.371Z" fill="#2DA9D7"/>
<path d="M462.183 490.371H452.479V500.081H462.183V490.371Z" fill="#2DA9D7"/>
<path d="M367.564 707.64C364.746 707.617 361.89 707.656 359.072 707.64V697.93H367.564C367.579 701.153 367.542 704.417 367.564 707.64C370.784 707.666 374.048 707.661 377.268 707.64C377.29 704.417 377.253 701.153 377.268 697.93H386.973V707.64C383.751 707.655 380.49 707.619 377.268 707.64C377.247 710.862 377.247 714.128 377.268 717.35C380.49 717.372 383.751 717.335 386.973 717.35V727.061H377.268C377.253 723.837 377.29 720.574 377.268 717.35C374.048 717.329 370.784 717.324 367.564 717.35C367.542 720.574 367.579 723.837 367.564 727.061H359.072V717.35C361.89 717.334 364.746 717.373 367.564 717.35C367.585 714.128 367.585 710.862 367.564 707.64Z" fill="#2DA9D7"/>
<path d="M349.367 717.348H339.662V727.058H349.367V717.348Z" fill="#2DA9D7"/>
<path d="M311.761 717.348H302.057V727.058H311.761V717.348Z" fill="#2DA9D7"/>
<path d="M161.339 509.789H151.635V519.499H161.339V509.789Z" fill="#2DA9D7"/>
<path d="M349.367 519.499C346.145 519.478 342.884 519.514 339.662 519.499V509.789H349.367C349.382 513.013 349.345 516.276 349.367 519.499C352.587 519.521 355.851 519.525 359.071 519.499C359.093 516.276 359.056 513.013 359.071 509.789H367.563V519.499C364.745 519.515 361.889 519.477 359.071 519.499C359.053 522.318 359.053 525.177 359.071 527.996C361.889 528.019 364.745 527.98 367.563 527.996V537.706H359.071C359.056 534.483 359.093 531.219 359.071 527.996C355.851 527.97 352.587 527.974 349.367 527.996C349.345 531.219 349.382 534.483 349.367 537.706H339.662V527.996C342.884 527.981 346.145 528.017 349.367 527.996C349.385 525.177 349.385 522.318 349.367 519.499Z" fill="#2DA9D7"/>
<path d="M198.945 717.348H189.24V727.058H198.945V717.348Z" fill="#2DA9D7"/>
<path d="M386.972 509.789H377.268V519.499H386.972V509.789Z" fill="#2DA9D7"/>
<path d="M161.339 717.348H151.635V727.058H161.339V717.348Z" fill="#2DA9D7"/>
<path d="M104.326 527.996H94.6211V537.706H104.326V527.996Z" fill="#2DA9D7"/>
<path d="M141.931 527.996H132.227V537.706H141.931V527.996Z" fill="#2DA9D7"/>
<path d="M161.339 527.996H151.635V537.706H161.339V527.996Z" fill="#2DA9D7"/>
<path d="M179.537 527.996H169.832V537.706H179.537V527.996Z" fill="#2DA9D7"/>
<path d="M141.931 717.348H132.227V727.058H141.931V717.348Z" fill="#2DA9D7"/>
<path d="M386.972 527.996H377.268V537.706H386.972V527.996Z" fill="#2DA9D7"/>
<path d="M406.382 527.996H396.678V537.706H406.382V527.996Z" fill="#2DA9D7"/>
<path d="M443.988 527.996H434.283V537.706H443.988V527.996Z" fill="#2DA9D7"/>
<path d="M481.593 527.996H471.889V537.706H481.593V527.996Z" fill="#2DA9D7"/>
<path d="M519.199 527.996H509.494V537.706H519.199V527.996Z" fill="#2DA9D7"/>
<path d="M141.931 547.418H132.227V557.128H141.931V547.418Z" fill="#2DA9D7"/>
<path d="M161.339 547.418H151.635V557.128H161.339V547.418Z" fill="#2DA9D7"/>
<path d="M179.537 547.418H169.832V557.128H179.537V547.418Z" fill="#2DA9D7"/>
<path d="M349.367 547.418H339.662V557.128H349.367V547.418Z" fill="#2DA9D7"/>
<path d="M367.564 557.128C364.746 557.105 361.89 557.144 359.072 557.128V547.418H367.564C367.579 550.642 367.542 553.905 367.564 557.128C370.784 557.154 374.048 557.15 377.268 557.128C377.29 553.905 377.253 550.642 377.268 547.418H386.973V557.128C383.751 557.143 380.49 557.107 377.268 557.128C377.247 560.35 377.242 563.616 377.268 566.839C380.49 566.86 383.751 566.824 386.973 566.839V575.335H377.268C377.253 572.516 377.291 569.658 377.268 566.839C374.048 566.817 370.784 566.813 367.564 566.839C367.541 569.658 367.58 572.516 367.564 575.335H359.072V566.839C361.89 566.823 364.746 566.861 367.564 566.839C367.59 563.616 367.585 560.35 367.564 557.128Z" fill="#2DA9D7"/>
<path d="M406.382 557.128C403.161 557.107 399.899 557.143 396.678 557.128V547.418H406.382C406.397 550.642 406.361 553.905 406.382 557.128C409.199 557.147 412.057 557.147 414.874 557.128C414.895 553.905 414.859 550.642 414.874 547.418H424.579V557.128C421.357 557.143 418.096 557.107 414.874 557.128C414.853 560.35 414.848 563.616 414.874 566.839C418.096 566.86 421.357 566.824 424.579 566.839V575.335H414.874C414.858 572.516 414.897 569.658 414.874 566.839C412.057 566.82 409.199 566.82 406.382 566.839C406.36 569.658 406.398 572.516 406.382 575.335H396.678V566.839C399.899 566.824 403.161 566.86 406.382 566.839C406.408 563.616 406.404 560.35 406.382 557.128Z" fill="#2DA9D7"/>
<path d="M443.988 557.128C440.766 557.107 437.505 557.143 434.283 557.128V547.418H443.988C444.003 550.642 443.966 553.905 443.988 557.128C446.805 557.147 449.662 557.147 452.479 557.128C452.501 553.905 452.464 550.642 452.479 547.418H462.184V557.128C458.962 557.143 455.701 557.107 452.479 557.128C452.458 560.35 452.453 563.616 452.479 566.839C455.701 566.86 458.962 566.824 462.184 566.839V575.335H452.479C452.464 572.516 452.502 569.658 452.479 566.839C449.662 566.82 446.805 566.82 443.988 566.839C443.965 569.658 444.004 572.516 443.988 575.335H434.283V566.839C437.505 566.824 440.766 566.86 443.988 566.839C444.014 563.616 444.009 560.35 443.988 557.128Z" fill="#2DA9D7"/>
<path d="M481.593 557.128C478.372 557.107 475.11 557.143 471.889 557.128V547.418H481.593C481.608 550.642 481.572 553.905 481.593 557.128C484.814 557.15 488.078 557.154 491.298 557.128C491.319 553.905 491.283 550.642 491.298 547.418H499.79V557.128C496.972 557.144 494.116 557.105 491.298 557.128C491.277 560.35 491.272 563.616 491.298 566.839C494.116 566.861 496.972 566.823 499.79 566.839V575.335H491.298C491.282 572.516 491.321 569.658 491.298 566.839C488.078 566.813 484.814 566.817 481.593 566.839C481.571 569.658 481.609 572.516 481.593 575.335H471.889V566.839C475.11 566.824 478.372 566.86 481.593 566.839C481.619 563.616 481.615 560.35 481.593 557.128Z" fill="#2DA9D7"/>
<path d="M556.804 697.93H547.1V707.64H556.804V697.93Z" fill="#2DA9D7"/>
<path d="M519.199 547.418H509.494V557.128H519.199V547.418Z" fill="#2DA9D7"/>
<path d="M556.804 1132.46H547.1V1142.18H556.804V1132.46Z" fill="#2DA9D7"/>
<path d="M349.367 697.93H339.662V707.64H349.367V697.93Z" fill="#2DA9D7"/>
<path d="M179.537 697.93H169.832V707.64H179.537V697.93Z" fill="#2DA9D7"/>
<path d="M161.339 697.93H151.635V707.64H161.339V697.93Z" fill="#2DA9D7"/>
<path d="M141.931 697.93H132.227V707.64H141.931V697.93Z" fill="#2DA9D7"/>
<path d="M556.804 679.723H547.1V689.433H556.804V679.723Z" fill="#2DA9D7"/>
<path d="M519.199 679.723H509.494V689.433H519.199V679.723Z" fill="#2DA9D7"/>
<path d="M481.593 679.723H471.889V689.433H481.593V679.723Z" fill="#2DA9D7"/>
<path d="M462.183 679.723H452.479V689.433H462.183V679.723Z" fill="#2DA9D7"/>
<path d="M443.988 679.723H434.283V689.433H443.988V679.723Z" fill="#2DA9D7"/>
<path d="M424.578 679.723H414.873V689.433H424.578V679.723Z" fill="#2DA9D7"/>
<path d="M406.382 679.723H396.678V689.433H406.382V679.723Z" fill="#2DA9D7"/>
<path d="M386.972 679.723H377.268V689.433H386.972V679.723Z" fill="#2DA9D7"/>
<path d="M349.367 670.011C346.145 669.99 342.884 670.026 339.662 670.011V660.301H349.367C349.382 663.524 349.345 666.788 349.367 670.011C352.587 670.032 355.851 670.037 359.071 670.011C359.093 666.788 359.056 663.524 359.071 660.301H367.563V670.011C364.745 670.027 361.889 669.988 359.071 670.011C359.05 673.233 359.05 676.499 359.071 679.721C361.889 679.744 364.745 679.706 367.563 679.721V689.432H359.071C359.056 686.208 359.093 682.945 359.071 679.721C355.851 679.695 352.587 679.7 349.367 679.721C349.345 682.945 349.382 686.208 349.367 689.432H339.662V679.721C342.884 679.706 346.145 679.743 349.367 679.721C349.388 676.499 349.388 673.233 349.367 670.011Z" fill="#2DA9D7"/>
<path d="M161.339 585.047H151.635V594.757H161.339V585.047Z" fill="#2DA9D7"/>
<path d="M349.367 594.757C346.145 594.736 342.884 594.772 339.662 594.757V585.047H349.367C349.382 588.27 349.345 591.534 349.367 594.757C352.587 594.779 355.851 594.783 359.071 594.757C359.093 591.534 359.056 588.27 359.071 585.047H367.563V594.757C364.745 594.773 361.889 594.734 359.071 594.757C359.05 597.979 359.045 601.245 359.071 604.467C361.889 604.49 364.745 604.452 367.563 604.467V612.964H359.071C359.056 610.144 359.094 607.287 359.071 604.467C355.851 604.441 352.587 604.446 349.367 604.467C349.344 607.287 349.383 610.144 349.367 612.964H339.662V604.467C342.884 604.452 346.145 604.489 349.367 604.467C349.393 601.245 349.388 597.979 349.367 594.757Z" fill="#2DA9D7"/>
<path d="M179.537 679.723H169.832V689.433H179.537V679.723Z" fill="#2DA9D7"/>
<path d="M386.972 585.047H377.268V594.757H386.972V585.047Z" fill="#2DA9D7"/>
<path d="M406.382 585.047H396.678V594.757H406.382V585.047Z" fill="#2DA9D7"/>
<path d="M424.578 585.047H414.873V594.757H424.578V585.047Z" fill="#2DA9D7"/>
<path d="M443.988 585.047H434.283V594.757H443.988V585.047Z" fill="#2DA9D7"/>
<path d="M462.183 585.047H452.479V594.757H462.183V585.047Z" fill="#2DA9D7"/>
<path d="M481.593 585.047H471.889V594.757H481.593V585.047Z" fill="#2DA9D7"/>
<path d="M161.339 679.723H151.635V689.433H161.339V679.723Z" fill="#2DA9D7"/>
<path d="M141.931 679.723H132.227V689.433H141.931V679.723Z" fill="#2DA9D7"/>
<path d="M104.326 679.723H94.6211V689.433H104.326V679.723Z" fill="#2DA9D7"/>
<path d="M386.972 660.301H377.268V670.011H386.972V660.301Z" fill="#2DA9D7"/>
<path d="M161.339 660.301H151.635V670.011H161.339V660.301Z" fill="#2DA9D7"/>
<path d="M462.183 642.094H452.479V651.804H462.183V642.094Z" fill="#2DA9D7"/>
<path d="M424.578 642.094H414.873V651.804H424.578V642.094Z" fill="#2DA9D7"/>
<path d="M367.564 632.382C364.746 632.359 361.89 632.398 359.072 632.382V622.672H367.564C367.579 625.895 367.542 629.159 367.564 632.382C370.784 632.408 374.048 632.404 377.268 632.382C377.29 629.159 377.253 625.895 377.268 622.672H386.973V632.382C383.751 632.397 380.49 632.361 377.268 632.382C377.247 635.605 377.247 638.87 377.268 642.092C380.49 642.114 383.751 642.077 386.973 642.092V651.803H377.268C377.253 648.579 377.29 645.316 377.268 642.092C374.048 642.071 370.784 642.066 367.564 642.092C367.542 645.316 367.579 648.579 367.564 651.803H359.072V642.092C361.89 642.077 364.746 642.115 367.564 642.092C367.585 638.87 367.585 635.605 367.564 632.382Z" fill="#2DA9D7"/>
<path d="M349.367 642.094H339.662V651.804H349.367V642.094Z" fill="#2DA9D7"/>
<path d="M311.761 642.094H302.057V651.804H311.761V642.094Z" fill="#2DA9D7"/>
<path d="M198.945 642.094H189.24V651.804H198.945V642.094Z" fill="#2DA9D7"/>
<path d="M179.537 642.094H169.832V651.804H179.537V642.094Z" fill="#2DA9D7"/>
<path d="M141.931 622.672H132.227V632.382H141.931V622.672Z" fill="#2DA9D7"/>
<path d="M161.339 622.672H151.635V632.382H161.339V622.672Z" fill="#2DA9D7"/>
<path d="M179.537 622.672H169.832V632.382H179.537V622.672Z" fill="#2DA9D7"/>
<path d="M161.339 642.094H151.635V651.804H161.339V642.094Z" fill="#2DA9D7"/>
<path d="M349.367 622.672H339.662V632.382H349.367V622.672Z" fill="#2DA9D7"/>
<path d="M141.931 642.094H132.227V651.804H141.931V642.094Z" fill="#2DA9D7"/>
<path d="M406.382 622.672H396.678V632.382H406.382V622.672Z" fill="#2DA9D7"/>
<path d="M122.521 642.094H114.029V651.804H122.521V642.094Z" fill="#2DA9D7"/>
<path d="M329.958 622.672H321.467V632.382H329.958V622.672Z" fill="#2DA9D7"/>
<path d="M519.199 604.465H509.494V612.961H519.199V604.465Z" fill="#2DA9D7"/>
<path d="M481.593 604.465H471.889V612.961H481.593V604.465Z" fill="#2DA9D7"/>
<path d="M443.988 604.465H434.283V612.961H443.988V604.465Z" fill="#2DA9D7"/>
<path d="M329.958 642.094H321.467V651.804H329.958V642.094Z" fill="#2DA9D7"/>
<path d="M424.578 604.465H414.873V612.961H424.578V604.465Z" fill="#2DA9D7"/>
<path d="M406.382 604.465H396.678V612.961H406.382V604.465Z" fill="#2DA9D7"/>
<path d="M386.972 604.465H377.268V612.961H386.972V604.465Z" fill="#2DA9D7"/>
<path d="M311.761 566.84H302.057V575.336H311.761V566.84Z" fill="#2DA9D7"/>
<path d="M499.788 642.094H491.297V651.804H499.788V642.094Z" fill="#2DA9D7"/>
<path d="M122.521 660.301H114.029V670.011H122.521V660.301Z" fill="#2DA9D7"/>
<path d="M47.3099 37.6289H38.8184V47.3392H47.3099V37.6289Z" fill="#2DA9D7"/>
<path d="M179.537 604.465H169.832V612.961H179.537V604.465Z" fill="#2DA9D7"/>
<path d="M161.339 604.465H151.635V612.961H161.339V604.465Z" fill="#2DA9D7"/>
<path d="M141.931 604.465H132.227V612.961H141.931V604.465Z" fill="#2DA9D7"/>
<path d="M104.326 604.465H94.6211V612.961H104.326V604.465Z" fill="#2DA9D7"/>
<path d="M499.788 585.047H491.297V594.757H499.788V585.047Z" fill="#2DA9D7"/>
<path d="M329.958 679.723H321.467V689.433H329.958V679.723Z" fill="#2DA9D7"/>
<path d="M122.521 585.047H114.029V594.757H122.521V585.047Z" fill="#2DA9D7"/>
<path d="M367.564 1132.46H359.072V1142.18H367.564V1132.46Z" fill="#2DA9D7"/>
<path d="M519.199 566.84H509.494V575.336H519.199V566.84Z" fill="#2DA9D7"/>
<path d="M329.958 1132.46H321.467V1142.18H329.958V1132.46Z" fill="#2DA9D7"/>
<path d="M499.788 679.723H491.297V689.433H499.788V679.723Z" fill="#2DA9D7"/>
<path d="M84.9154 37.6289H76.4238V47.3392H84.9154V37.6289Z" fill="#2DA9D7"/>
<path d="M349.367 566.84H339.662V575.336H349.367V566.84Z" fill="#2DA9D7"/>
<path d="M329.958 697.93H321.467V707.64H329.958V697.93Z" fill="#2DA9D7"/>
<path d="M122.521 37.6289H114.029V47.3392H122.521V37.6289Z" fill="#2DA9D7"/>
<path d="M198.945 566.84H189.24V575.336H198.945V566.84Z" fill="#2DA9D7"/>
<path d="M179.537 566.84H169.832V575.336H179.537V566.84Z" fill="#2DA9D7"/>
<path d="M161.339 566.84H151.635V575.336H161.339V566.84Z" fill="#2DA9D7"/>
<path d="M141.931 566.84H132.227V575.336H141.931V566.84Z" fill="#2DA9D7"/>
<path d="M47.3099 57.0469H38.8184V66.7572H47.3099V57.0469Z" fill="#2DA9D7"/>
<path d="M329.958 547.418H321.467V557.128H329.958V547.418Z" fill="#2DA9D7"/>
<path d="M122.521 717.348H114.029V727.058H122.521V717.348Z" fill="#2DA9D7"/>
<path d="M329.958 527.996H321.467V537.706H329.958V527.996Z" fill="#2DA9D7"/>
<path d="M122.521 509.789H114.029V519.499H122.521V509.789Z" fill="#2DA9D7"/>
<path d="M537.394 490.371H528.902V500.081H537.394V490.371Z" fill="#2DA9D7"/>
<path d="M499.788 490.371H491.297V500.081H499.788V490.371Z" fill="#2DA9D7"/>
<path d="M329.958 490.371H321.467V500.081H329.958V490.371Z" fill="#2DA9D7"/>
<path d="M122.521 490.371H114.029V500.081H122.521V490.371Z" fill="#2DA9D7"/>
<path d="M84.9154 490.371H76.4238V500.081H84.9154V490.371Z" fill="#2DA9D7"/>
<path d="M47.3099 490.371H38.8184V500.081H47.3099V490.371Z" fill="#2DA9D7"/>
<path d="M574.999 717.348H566.508V727.058H574.999V717.348Z" fill="#2DA9D7"/>
<path d="M329.958 472.164H321.467V481.874H329.958V472.164Z" fill="#2DA9D7"/>
<path d="M122.521 472.164H114.029V481.874H122.521V472.164Z" fill="#2DA9D7"/>
<path d="M537.394 452.742H528.902V462.452H537.394V452.742Z" fill="#2DA9D7"/>
<path d="M367.564 452.742H359.072V462.452H367.564V452.742Z" fill="#2DA9D7"/>
<path d="M499.788 735.555H491.297V745.265H499.788V735.555Z" fill="#2DA9D7"/>
<path d="M537.394 735.555H528.902V745.265H537.394V735.555Z" fill="#2DA9D7"/>
<path d="M329.958 452.742H321.467V462.452H329.958V452.742Z" fill="#2DA9D7"/>
<path d="M367.564 754.977H359.072V764.687H367.564V754.977Z" fill="#2DA9D7"/>
<path d="M292.353 452.742H283.861V462.452H292.353V452.742Z" fill="#2DA9D7"/>
<path d="M122.521 452.742H114.029V462.452H122.521V452.742Z" fill="#2DA9D7"/>
<path d="M84.9154 452.742H76.4238V462.452H84.9154V452.742Z" fill="#2DA9D7"/>
<path d="M47.3099 792.602H38.8184V802.312H47.3099V792.602Z" fill="#2DA9D7"/>
<path d="M84.9154 792.602H76.4238V802.312H84.9154V792.602Z" fill="#2DA9D7"/>
<path d="M122.521 792.602H114.029V802.312H122.521V792.602Z" fill="#2DA9D7"/>
<path d="M537.394 434.535H528.902V444.245H537.394V434.535Z" fill="#2DA9D7"/>
<path d="M367.564 434.535H359.072V444.245H367.564V434.535Z" fill="#2DA9D7"/>
<path d="M122.521 434.535H114.029V444.245H122.521V434.535Z" fill="#2DA9D7"/>
<path d="M84.9154 434.535H76.4238V444.245H84.9154V434.535Z" fill="#2DA9D7"/>
<path d="M367.564 792.602H359.072V802.312H367.564V792.602Z" fill="#2DA9D7"/>
<path d="M47.3099 434.535H38.8184V444.245H47.3099V434.535Z" fill="#2DA9D7"/>
<path d="M499.788 792.602H491.297V802.312H499.788V792.602Z" fill="#2DA9D7"/>
<path d="M574.999 415.117H566.508V424.827H574.999V415.117Z" fill="#2DA9D7"/>
<path d="M537.394 792.602H528.902V802.312H537.394V792.602Z" fill="#2DA9D7"/>
<path d="M574.999 792.602H566.508V802.312H574.999V792.602Z" fill="#2DA9D7"/>
<path d="M84.9154 57.0469H76.4238V66.7572H84.9154V57.0469Z" fill="#2DA9D7"/>
<path d="M122.521 57.0469H114.029V66.7572H122.521V57.0469Z" fill="#2DA9D7"/>
<path d="M29.1148 76.4688H19.4102V84.9653H29.1148V76.4688Z" fill="#2DA9D7"/>
<path d="M161.339 812.023H151.635V820.52H161.339V812.023Z" fill="#2DA9D7"/>
<path d="M198.945 812.023H189.24V820.52H198.945V812.023Z" fill="#2DA9D7"/>
<path d="M217.142 812.023H207.438V820.52H217.142V812.023Z" fill="#2DA9D7"/>
<path d="M236.55 812.023H226.846V820.52H236.55V812.023Z" fill="#2DA9D7"/>
<path d="M274.156 812.023H264.451V820.52H274.156V812.023Z" fill="#2DA9D7"/>
<path d="M349.367 812.023H339.662V820.52H349.367V812.023Z" fill="#2DA9D7"/>
<path d="M537.394 1113.04H528.902V1122.75H537.394V1113.04Z" fill="#2DA9D7"/>
<path d="M386.972 812.023H377.268V820.52H386.972V812.023Z" fill="#2DA9D7"/>
<path d="M499.788 1113.04H491.297V1122.75H499.788V1113.04Z" fill="#2DA9D7"/>
<path d="M519.199 812.023H509.494V820.52H519.199V812.023Z" fill="#2DA9D7"/>
<path d="M66.7203 76.4688H57.0156V84.9653H66.7203V76.4688Z" fill="#2DA9D7"/>
<path d="M537.394 415.117H528.902V424.827H537.394V415.117Z" fill="#2DA9D7"/>
<path d="M499.788 415.117H491.297V424.827H499.788V415.117Z" fill="#2DA9D7"/>
<path d="M84.9154 830.23H76.4238V839.941H84.9154V830.23Z" fill="#2DA9D7"/>
<path d="M367.564 415.117H359.072V424.827H367.564V415.117Z" fill="#2DA9D7"/>
<path d="M122.521 830.23H114.029V839.941H122.521V830.23Z" fill="#2DA9D7"/>
<path d="M122.521 415.117H114.029V424.827H122.521V415.117Z" fill="#2DA9D7"/>
<path d="M84.9154 415.117H76.4238V424.827H84.9154V415.117Z" fill="#2DA9D7"/>
<path d="M47.3099 415.117H38.8184V424.827H47.3099V415.117Z" fill="#2DA9D7"/>
<path d="M519.199 396.91H509.494V405.407H519.199V396.91Z" fill="#2DA9D7"/>
<path d="M481.593 396.91H471.889V405.407H481.593V396.91Z" fill="#2DA9D7"/>
<path d="M443.988 396.91H434.283V405.407H443.988V396.91Z" fill="#2DA9D7"/>
<path d="M406.382 396.91H396.678V405.407H406.382V396.91Z" fill="#2DA9D7"/>
<path d="M104.326 76.4688H94.6211V84.9653H104.326V76.4688Z" fill="#2DA9D7"/>
<path d="M292.353 830.23H283.861V839.941H292.353V830.23Z" fill="#2DA9D7"/>
<path d="M329.958 830.23H321.467V839.941H329.958V830.23Z" fill="#2DA9D7"/>
<path d="M254.748 396.91H245.043V405.407H254.748V396.91Z" fill="#2DA9D7"/>
<path d="M367.564 830.23H359.072V839.941H367.564V830.23Z" fill="#2DA9D7"/>
<path d="M217.142 396.91H207.438V405.407H217.142V396.91Z" fill="#2DA9D7"/>
<path d="M179.537 396.91H169.832V405.407H179.537V396.91Z" fill="#2DA9D7"/>
<path d="M141.931 396.91H132.227V405.407H141.931V396.91Z" fill="#2DA9D7"/>
<path d="M499.788 830.23H491.297V839.941H499.788V830.23Z" fill="#2DA9D7"/>
<path d="M104.326 396.91H94.6211V405.407H104.326V396.91Z" fill="#2DA9D7"/>
<path d="M537.394 830.23H528.902V839.941H537.394V830.23Z" fill="#2DA9D7"/>
<path d="M537.394 339.859H528.902V349.57H537.394V339.859Z" fill="#2DA9D7"/>
<path d="M29.1148 849.652H19.4102V858.149H29.1148V849.652Z" fill="#2DA9D7"/>
<path d="M66.7203 849.652H57.0156V858.149H66.7203V849.652Z" fill="#2DA9D7"/>
<path d="M141.931 76.4688H132.227V84.9653H141.931V76.4688Z" fill="#2DA9D7"/>
<path d="M104.326 849.652H94.6211V858.149H104.326V849.652Z" fill="#2DA9D7"/>
<path d="M141.931 849.652H132.227V858.149H141.931V849.652Z" fill="#2DA9D7"/>
<path d="M179.537 849.652H169.832V858.149H179.537V849.652Z" fill="#2DA9D7"/>
<path d="M217.142 849.652H207.438V858.149H217.142V849.652Z" fill="#2DA9D7"/>
<path d="M236.55 849.652H226.846V858.149H236.55V849.652Z" fill="#2DA9D7"/>
<path d="M254.748 849.652H245.043V858.149H254.748V849.652Z" fill="#2DA9D7"/>
<path d="M274.156 849.652H264.451V858.149H274.156V849.652Z" fill="#2DA9D7"/>
<path d="M122.521 1113.04H114.029V1122.75H122.521V1113.04Z" fill="#2DA9D7"/>
<path d="M84.9154 1113.04H76.4238V1122.75H84.9154V1113.04Z" fill="#2DA9D7"/>
<path d="M349.367 849.652H339.662V858.149H349.367V849.652Z" fill="#2DA9D7"/>
<path d="M556.804 1094.84H547.1V1103.33H556.804V1094.84Z" fill="#2DA9D7"/>
<path d="M406.382 849.652H396.678V858.149H406.382V849.652Z" fill="#2DA9D7"/>
<path d="M481.593 849.652H471.889V858.149H481.593V849.652Z" fill="#2DA9D7"/>
<path d="M179.537 76.4688H169.832V84.9653H179.537V76.4688Z" fill="#2DA9D7"/>
<path d="M556.804 849.652H547.1V858.149H556.804V849.652Z" fill="#2DA9D7"/>
<path d="M367.564 339.859H359.072V349.57H367.564V339.859Z" fill="#2DA9D7"/>
<path d="M122.521 339.859H114.029V349.57H122.521V339.859Z" fill="#2DA9D7"/>
<path d="M47.3099 867.859H38.8184V877.57H47.3099V867.859Z" fill="#2DA9D7"/>
<path d="M84.9154 339.859H76.4238V349.57H84.9154V339.859Z" fill="#2DA9D7"/>
<path d="M84.9154 867.859H76.4238V877.57H84.9154V867.859Z" fill="#2DA9D7"/>
<path d="M122.521 867.859H114.029V877.57H122.521V867.859Z" fill="#2DA9D7"/>
<path d="M47.3099 339.859H38.8184V349.57H47.3099V339.859Z" fill="#2DA9D7"/>
<path d="M556.804 321.652H547.1V330.149H556.804V321.652Z" fill="#2DA9D7"/>
<path d="M462.183 1094.84H452.479V1103.33H462.183V1094.84Z" fill="#2DA9D7"/>
<path d="M424.578 1094.84H414.873V1103.33H424.578V1094.84Z" fill="#2DA9D7"/>
<path d="M329.958 867.859H321.467V877.57H329.958V867.859Z" fill="#2DA9D7"/>
<path d="M443.988 321.652H434.283V330.149H443.988V321.652Z" fill="#2DA9D7"/>
<path d="M424.578 321.652H414.873V330.149H424.578V321.652Z" fill="#2DA9D7"/>
<path d="M406.382 321.652H396.678V330.149H406.382V321.652Z" fill="#2DA9D7"/>
<path d="M386.972 321.652H377.268V330.149H386.972V321.652Z" fill="#2DA9D7"/>
<path d="M499.788 867.859H491.297V877.57H499.788V867.859Z" fill="#2DA9D7"/>
<path d="M386.972 1094.84H377.268V1103.33H386.972V1094.84Z" fill="#2DA9D7"/>
<path d="M349.367 321.652H339.662V330.149H349.367V321.652Z" fill="#2DA9D7"/>
<path d="M574.999 867.859H566.508V877.57H574.999V867.859Z" fill="#2DA9D7"/>
<path d="M47.3099 887.277H38.8184V896.988H47.3099V887.277Z" fill="#2DA9D7"/>
<path d="M84.9154 887.277H76.4238V896.988H84.9154V887.277Z" fill="#2DA9D7"/>
<path d="M349.367 1094.84H339.662V1103.33H349.367V1094.84Z" fill="#2DA9D7"/>
<path d="M254.748 321.652H245.043V330.149H254.748V321.652Z" fill="#2DA9D7"/>
<path d="M236.55 321.652H226.846V330.149H236.55V321.652Z" fill="#2DA9D7"/>
<path d="M217.142 321.652H207.438V330.149H217.142V321.652Z" fill="#2DA9D7"/>
<path d="M198.945 321.652H189.24V330.149H198.945V321.652Z" fill="#2DA9D7"/>
<path d="M179.537 321.652H169.832V330.149H179.537V321.652Z" fill="#2DA9D7"/>
<path d="M537.394 887.277H528.902V896.988H537.394V887.277Z" fill="#2DA9D7"/>
<path d="M161.339 321.652H151.635V330.149H161.339V321.652Z" fill="#2DA9D7"/>
<path d="M141.931 321.652H132.227V330.149H141.931V321.652Z" fill="#2DA9D7"/>
<path d="M311.761 1094.84H302.057V1103.33H311.761V1094.84Z" fill="#2DA9D7"/>
<path d="M104.326 321.652H94.6211V330.149H104.326V321.652Z" fill="#2DA9D7"/>
<path d="M66.7203 321.652H57.0156V330.149H66.7203V321.652Z" fill="#2DA9D7"/>
<path d="M292.353 905.484H283.861V915.195H292.353V905.484Z" fill="#2DA9D7"/>
<path d="M329.958 905.484H321.467V915.195H329.958V905.484Z" fill="#2DA9D7"/>
<path d="M537.394 302.234H528.902V311.945H537.394V302.234Z" fill="#2DA9D7"/>
<path d="M329.958 302.234H321.467V311.945H329.958V302.234Z" fill="#2DA9D7"/>
<path d="M292.353 302.234H283.861V311.945H292.353V302.234Z" fill="#2DA9D7"/>
<path d="M122.521 302.234H114.029V311.945H122.521V302.234Z" fill="#2DA9D7"/>
<path d="M84.9154 302.234H76.4238V311.945H84.9154V302.234Z" fill="#2DA9D7"/>
<path d="M537.394 905.484H528.902V915.195H537.394V905.484Z" fill="#2DA9D7"/>
<path d="M537.394 282.812H528.902V292.523H537.394V282.812Z" fill="#2DA9D7"/>
<path d="M122.521 282.812H114.029V292.523H122.521V282.812Z" fill="#2DA9D7"/>
<path d="M84.9154 282.812H76.4238V292.523H84.9154V282.812Z" fill="#2DA9D7"/>
<path d="M329.958 924.906H321.467V934.617H329.958V924.906Z" fill="#2DA9D7"/>
<path d="M47.3099 282.812H38.8184V292.523H47.3099V282.812Z" fill="#2DA9D7"/>
<path d="M574.999 264.605H566.508V274.316H574.999V264.605Z" fill="#2DA9D7"/>
<path d="M499.788 264.605H491.297V274.316H499.788V264.605Z" fill="#2DA9D7"/>
<path d="M329.958 264.605H321.467V274.316H329.958V264.605Z" fill="#2DA9D7"/>
<path d="M122.521 264.605H114.029V274.316H122.521V264.605Z" fill="#2DA9D7"/>
<path d="M84.9154 264.605H76.4238V274.316H84.9154V264.605Z" fill="#2DA9D7"/>
<path d="M47.3099 264.605H38.8184V274.316H47.3099V264.605Z" fill="#2DA9D7"/>
<path d="M274.156 1094.84H264.451V1103.33H274.156V1094.84Z" fill="#2DA9D7"/>
<path d="M254.748 1094.84H245.043V1103.33H254.748V1094.84Z" fill="#2DA9D7"/>
<path d="M499.788 245.184H491.297V254.894H499.788V245.184Z" fill="#2DA9D7"/>
<path d="M47.3099 943.113H38.8184V952.824H47.3099V943.113Z" fill="#2DA9D7"/>
<path d="M84.9154 943.113H76.4238V952.824H84.9154V943.113Z" fill="#2DA9D7"/>
<path d="M329.958 245.184H321.467V254.894H329.958V245.184Z" fill="#2DA9D7"/>
<path d="M292.353 245.184H283.861V254.894H292.353V245.184Z" fill="#2DA9D7"/>
<path d="M537.394 226.977H528.902V236.687H537.394V226.977Z" fill="#2DA9D7"/>
<path d="M329.958 943.113H321.467V952.824H329.958V943.113Z" fill="#2DA9D7"/>
<path d="M329.958 226.977H321.467V236.687H329.958V226.977Z" fill="#2DA9D7"/>
<path d="M292.353 226.977H283.861V236.687H292.353V226.977Z" fill="#2DA9D7"/>
<path d="M47.3099 226.977H38.8184V236.687H47.3099V226.977Z" fill="#2DA9D7"/>
<path d="M537.394 207.559H528.902V217.269H537.394V207.559Z" fill="#2DA9D7"/>
<path d="M84.9154 207.559H76.4238V217.269H84.9154V207.559Z" fill="#2DA9D7"/>
<path d="M47.3099 207.559H38.8184V217.269H47.3099V207.559Z" fill="#2DA9D7"/>
<path d="M574.999 189.352H566.508V199.062H574.999V189.352Z" fill="#2DA9D7"/>
<path d="M574.999 943.113H566.508V952.824H574.999V943.113Z" fill="#2DA9D7"/>
<path d="M47.3099 962.535H38.8184V972.245H47.3099V962.535Z" fill="#2DA9D7"/>
<path d="M84.9154 962.535H76.4238V972.245H84.9154V962.535Z" fill="#2DA9D7"/>
<path d="M329.958 189.352H321.467V199.062H329.958V189.352Z" fill="#2DA9D7"/>
<path d="M84.9154 189.352H76.4238V199.062H84.9154V189.352Z" fill="#2DA9D7"/>
<path d="M47.3099 189.352H38.8184V199.062H47.3099V189.352Z" fill="#2DA9D7"/>
<path d="M329.958 169.93H321.467V179.64H329.958V169.93Z" fill="#2DA9D7"/>
<path d="M556.804 151.723H547.1V160.219H556.804V151.723Z" fill="#2DA9D7"/>
<path d="M329.958 980.742H321.467V990.452H329.958V980.742Z" fill="#2DA9D7"/>
<path d="M198.945 1094.84H189.24V1103.33H198.945V1094.84Z" fill="#2DA9D7"/>
<path d="M537.394 980.742H528.902V990.452H537.394V980.742Z" fill="#2DA9D7"/>
<path d="M349.367 151.723H339.662V160.219H349.367V151.723Z" fill="#2DA9D7"/>
<path d="M179.537 1094.84H169.832V1103.33H179.537V1094.84Z" fill="#2DA9D7"/>
<path d="M254.748 151.723H245.043V160.219H254.748V151.723Z" fill="#2DA9D7"/>
<path d="M66.7203 151.723H57.0156V160.219H66.7203V151.723Z" fill="#2DA9D7"/>
<path d="M29.1148 151.723H19.4102V160.219H29.1148V151.723Z" fill="#2DA9D7"/>
<path d="M329.958 1000.16H321.467V1009.87H329.958V1000.16Z" fill="#2DA9D7"/>
<path d="M537.394 132.305H528.902V142.015H537.394V132.305Z" fill="#2DA9D7"/>
<path d="M367.564 132.305H359.072V142.015H367.564V132.305Z" fill="#2DA9D7"/>
<path d="M84.9154 132.305H76.4238V142.015H84.9154V132.305Z" fill="#2DA9D7"/>
<path d="M47.3099 132.305H38.8184V142.015H47.3099V132.305Z" fill="#2DA9D7"/>
<path d="M161.339 1094.84H151.635V1103.33H161.339V1094.84Z" fill="#2DA9D7"/>
<path d="M519.199 114.098H509.494V122.594H519.199V114.098Z" fill="#2DA9D7"/>
<path d="M141.931 1094.84H132.227V1103.33H141.931V1094.84Z" fill="#2DA9D7"/>
<path d="M9.70464 1019.58H0V1028.08H9.70464V1019.58Z" fill="#2DA9D7"/>
<path d="M104.326 1094.84H94.6211V1103.33H104.326V1094.84Z" fill="#2DA9D7"/>
<path d="M66.7203 1019.58H57.0156V1028.08H66.7203V1019.58Z" fill="#2DA9D7"/>
<path d="M66.7203 1094.84H57.0156V1103.33H66.7203V1094.84Z" fill="#2DA9D7"/>
<path d="M9.70464 1094.84H0V1103.33H9.70464V1094.84Z" fill="#2DA9D7"/>
<path d="M198.945 1019.58H189.24V1028.08H198.945V1019.58Z" fill="#2DA9D7"/>
<path d="M236.55 1019.58H226.846V1028.08H236.55V1019.58Z" fill="#2DA9D7"/>
<path d="M254.748 1019.58H245.043V1028.08H254.748V1019.58Z" fill="#2DA9D7"/>
<path d="M274.156 1019.58H264.451V1028.08H274.156V1019.58Z" fill="#2DA9D7"/>
<path d="M311.761 1019.58H302.057V1028.08H311.761V1019.58Z" fill="#2DA9D7"/>
<path d="M217.142 76.4688H207.438V84.9653H217.142V76.4688Z" fill="#2DA9D7"/>
<path d="M349.367 1019.58H339.662V1028.08H349.367V1019.58Z" fill="#2DA9D7"/>
<path d="M236.55 76.4688H226.846V84.9653H236.55V76.4688Z" fill="#2DA9D7"/>
<path d="M424.578 1019.58H414.873V1028.08H424.578V1019.58Z" fill="#2DA9D7"/>
<path d="M462.183 1019.58H452.479V1028.08H462.183V1019.58Z" fill="#2DA9D7"/>
<path d="M254.748 76.4688H245.043V84.9653H254.748V76.4688Z" fill="#2DA9D7"/>
<path d="M556.804 1019.58H547.1V1028.08H556.804V1019.58Z" fill="#2DA9D7"/>
<path d="M274.156 76.4688H264.451V84.9653H274.156V76.4688Z" fill="#2DA9D7"/>
<path d="M47.3099 1037.79H38.8184V1047.5H47.3099V1037.79Z" fill="#2DA9D7"/>
<path d="M84.9154 1037.79H76.4238V1047.5H84.9154V1037.79Z" fill="#2DA9D7"/>
<path d="M481.593 114.098H471.889V122.594H481.593V114.098Z" fill="#2DA9D7"/>
<path d="M462.183 114.098H452.479V122.594H462.183V114.098Z" fill="#2DA9D7"/>
<path d="M443.988 114.098H434.283V122.594H443.988V114.098Z" fill="#2DA9D7"/>
<path d="M424.578 114.098H414.873V122.594H424.578V114.098Z" fill="#2DA9D7"/>
<path d="M367.564 1037.79H359.072V1047.5H367.564V1037.79Z" fill="#2DA9D7"/>
<path d="M406.382 114.098H396.678V122.594H406.382V114.098Z" fill="#2DA9D7"/>
<path d="M499.788 1037.79H491.297V1047.5H499.788V1037.79Z" fill="#2DA9D7"/>
<path d="M386.972 114.098H377.268V122.594H386.972V114.098Z" fill="#2DA9D7"/>
<path d="M537.394 1037.79H528.902V1047.5H537.394V1037.79Z" fill="#2DA9D7"/>
<path d="M29.1148 1057.21H19.4102V1065.7H29.1148V1057.21Z" fill="#2DA9D7"/>
<path d="M499.788 1075.41H491.297V1085.12H499.788V1075.41Z" fill="#2DA9D7"/>
<path d="M66.7203 1057.21H57.0156V1065.7H66.7203V1057.21Z" fill="#2DA9D7"/>
<path d="M292.353 94.6758H283.861V104.386H292.353V94.6758Z" fill="#2DA9D7"/>
<path d="M104.326 1057.21H94.6211V1065.7H104.326V1057.21Z" fill="#2DA9D7"/>
<path d="M141.931 1057.21H132.227V1065.7H141.931V1057.21Z" fill="#2DA9D7"/>
<path d="M179.537 1057.21H169.832V1065.7H179.537V1057.21Z" fill="#2DA9D7"/>
<path d="M217.142 1057.21H207.438V1065.7H217.142V1057.21Z" fill="#2DA9D7"/>
<path d="M236.55 1057.21H226.846V1065.7H236.55V1057.21Z" fill="#2DA9D7"/>
<path d="M254.748 1057.21H245.043V1065.7H254.748V1057.21Z" fill="#2DA9D7"/>
<path d="M274.156 1057.21H264.451V1065.7H274.156V1057.21Z" fill="#2DA9D7"/>
<path d="M9.70464 114.098H0V122.594H9.70464V114.098Z" fill="#2DA9D7"/>
<path d="M367.564 1075.41H359.072V1085.12H367.564V1075.41Z" fill="#2DA9D7"/>
<path d="M349.367 1057.21H339.662V1065.7H349.367V1057.21Z" fill="#2DA9D7"/>
<path d="M329.958 1075.41H321.467V1085.12H329.958V1075.41Z" fill="#2DA9D7"/>
<path d="M386.972 1057.21H377.268V1065.7H386.972V1057.21Z" fill="#2DA9D7"/>
<path d="M406.382 1057.21H396.678V1065.7H406.382V1057.21Z" fill="#2DA9D7"/>
<path d="M481.593 1057.21H471.889V1065.7H481.593V1057.21Z" fill="#2DA9D7"/>
<path d="M292.353 1075.41H283.861V1085.12H292.353V1075.41Z" fill="#2DA9D7"/>
<path d="M519.199 1057.21H509.494V1065.7H519.199V1057.21Z" fill="#2DA9D7"/>
<path d="M66.7203 114.098H57.0156V122.594H66.7203V114.098Z" fill="#2DA9D7"/>
<path d="M556.804 1057.21H547.1V1065.7H556.804V1057.21Z" fill="#2DA9D7"/>
<path d="M198.945 114.098H189.24V122.594H198.945V114.098Z" fill="#2DA9D7"/>
<path d="M349.367 114.098H339.662V122.594H349.367V114.098Z" fill="#2DA9D7"/>
<path d="M84.9154 1075.41H76.4238V1085.12H84.9154V1075.41Z" fill="#2DA9D7"/>
<path d="M311.761 114.098H302.057V122.594H311.761V114.098Z" fill="#2DA9D7"/>
<path d="M122.521 1075.41H114.029V1085.12H122.521V1075.41Z" fill="#2DA9D7"/>
<path d="M274.156 114.098H264.451V122.594H274.156V114.098Z" fill="#2DA9D7"/>
<path d="M254.748 114.098H245.043V122.594H254.748V114.098Z" fill="#2DA9D7"/>
<path d="M236.55 114.098H226.846V122.594H236.55V114.098Z" fill="#2DA9D7"/>
<path d="M367.564 114.098H359.072V122.594H367.564V114.098Z" fill="#2DA9D7"/>
<path d="M122.521 114.098H114.029V122.594H122.521V114.098Z" fill="#2DA9D7"/>
<path d="M84.9154 114.098H76.4238V122.594H84.9154V114.098Z" fill="#2DA9D7"/>
<path d="M537.394 1057.21H528.902V1065.7H537.394V1057.21Z" fill="#2DA9D7"/>
<path d="M499.788 1057.21H491.297V1065.7H499.788V1057.21Z" fill="#2DA9D7"/>
<path d="M367.564 1057.21H359.072V1065.7H367.564V1057.21Z" fill="#2DA9D7"/>
<path d="M47.3099 114.098H38.8184V122.594H47.3099V114.098Z" fill="#2DA9D7"/>
<path d="M329.958 1057.21H321.467V1065.7H329.958V1057.21Z" fill="#2DA9D7"/>
<path d="M292.353 1057.21H283.861V1065.7H292.353V1057.21Z" fill="#2DA9D7"/>
<path d="M84.9154 1057.21H76.4238V1065.7H84.9154V1057.21Z" fill="#2DA9D7"/>
<path d="M292.353 76.4688H283.861V84.9653H292.353V76.4688Z" fill="#2DA9D7"/>
<path d="M47.3099 1057.21H38.8184V1065.7H47.3099V1057.21Z" fill="#2DA9D7"/>
<path d="M574.999 1019.58H566.508V1028.08H574.999V1019.58Z" fill="#2DA9D7"/>
<path d="M499.788 1019.58H491.297V1028.08H499.788V1019.58Z" fill="#2DA9D7"/>
<path d="M329.958 1019.58H321.467V1028.08H329.958V1019.58Z" fill="#2DA9D7"/>
<path d="M122.521 1019.58H114.029V1028.08H122.521V1019.58Z" fill="#2DA9D7"/>
<path d="M47.3099 1094.84H38.8184V1103.33H47.3099V1094.84Z" fill="#2DA9D7"/>
<path d="M84.9154 1019.58H76.4238V1028.08H84.9154V1019.58Z" fill="#2DA9D7"/>
<path d="M84.9154 1094.84H76.4238V1103.33H84.9154V1094.84Z" fill="#2DA9D7"/>
<path d="M47.3099 1019.58H38.8184V1028.08H47.3099V1019.58Z" fill="#2DA9D7"/>
<path d="M122.521 1094.84H114.029V1103.33H122.521V1094.84Z" fill="#2DA9D7"/>
<path d="M499.788 114.098H491.297V122.594H499.788V114.098Z" fill="#2DA9D7"/>
<path d="M537.394 114.098H528.902V122.594H537.394V114.098Z" fill="#2DA9D7"/>
<path d="M329.958 151.723H321.467V160.219H329.958V151.723Z" fill="#2DA9D7"/>
<path d="M367.564 151.723H359.072V160.219H367.564V151.723Z" fill="#2DA9D7"/>
<path d="M537.394 151.723H528.902V160.219H537.394V151.723Z" fill="#2DA9D7"/>
<path d="M122.521 321.652H114.029V330.149H122.521V321.652Z" fill="#2DA9D7"/>
<path d="M329.958 1094.84H321.467V1103.33H329.958V1094.84Z" fill="#2DA9D7"/>
<path d="M329.958 321.652H321.467V330.149H329.958V321.652Z" fill="#2DA9D7"/>
<path d="M367.564 1094.84H359.072V1103.33H367.564V1094.84Z" fill="#2DA9D7"/>
<path d="M367.564 321.652H359.072V330.149H367.564V321.652Z" fill="#2DA9D7"/>
<path d="M537.394 321.652H528.902V330.149H537.394V321.652Z" fill="#2DA9D7"/>
<path d="M499.788 1094.84H491.297V1103.33H499.788V1094.84Z" fill="#2DA9D7"/>
<path d="M499.788 849.652H491.297V858.149H499.788V849.652Z" fill="#2DA9D7"/>
<path d="M574.999 1094.84H566.508V1103.33H574.999V1094.84Z" fill="#2DA9D7"/>
<path d="M329.958 849.652H321.467V858.149H329.958V849.652Z" fill="#2DA9D7"/>
<path d="M292.353 849.652H283.861V858.149H292.353V849.652Z" fill="#2DA9D7"/>
<path d="M84.9154 849.652H76.4238V858.149H84.9154V849.652Z" fill="#2DA9D7"/>
<path d="M367.564 396.91H359.072V405.407H367.564V396.91Z" fill="#2DA9D7"/>
<path d="M84.9154 76.4688H76.4238V84.9653H84.9154V76.4688Z" fill="#2DA9D7"/>
<path d="M537.394 812.023H528.902V820.52H537.394V812.023Z" fill="#2DA9D7"/>
<path d="M47.3099 76.4688H38.8184V84.9653H47.3099V76.4688Z" fill="#2DA9D7"/>
<path d="M499.788 812.023H491.297V820.52H499.788V812.023Z" fill="#2DA9D7"/>
<path d="M367.564 812.023H359.072V820.52H367.564V812.023Z" fill="#2DA9D7"/>
<path d="M122.521 812.023H114.029V820.52H122.521V812.023Z" fill="#2DA9D7"/>
<path d="M84.9154 812.023H76.4238V820.52H84.9154V812.023Z" fill="#2DA9D7"/>
<path d="M47.3099 812.023H38.8184V820.52H47.3099V812.023Z" fill="#2DA9D7"/>
<path d="M122.521 566.84H114.029V575.336H122.521V566.84Z" fill="#2DA9D7"/>
<path d="M329.958 566.84H321.467V575.336H329.958V566.84Z" fill="#2DA9D7"/>
<path d="M537.394 566.84H528.902V575.336H537.394V566.84Z" fill="#2DA9D7"/>
<path d="M329.958 604.465H321.467V612.961H329.958V604.465Z" fill="#2DA9D7"/>
</g>
<defs>
<clipPath id="clip0_2073_1027">
<rect width="575" height="1142.17" fill="white"/>
</clipPath>
</defs>
</svg>
