<svg width="283" height="358" viewBox="0 0 283 358" fill="none" xmlns="http://www.w3.org/2000/svg">
<path d="M10.1149 305.164H0V315.269H10.1149V305.164Z" fill="#38AAD5"/>
<path d="M52.5446 305.164H42.4297V315.269H52.5446V305.164Z" fill="#38AAD5"/>
<path d="M240.529 346.547H230.414V357.661H240.529V346.547Z" fill="#38AAD5"/>
<path d="M240.529 283.977H230.414V295.091H240.529V283.977Z" fill="#38AAD5"/>
<path d="M282.928 263.758H271.803V273.863H282.928V263.758Z" fill="#38AAD5"/>
<path d="M261.709 221.375H251.594V231.48H261.709V221.375Z" fill="#38AAD5"/>
<path d="M240.529 263.758H230.414V273.863H240.529V263.758Z" fill="#38AAD5"/>
<path d="M261.709 305.164H251.594V315.269H261.709V305.164Z" fill="#38AAD5"/>
<path d="M136.434 0H125.309V11.1144H136.434V0Z" fill="#38AAD5"/>
<path d="M220.321 83.7852H209.195V94.8995H220.321V83.7852Z" fill="#38AAD5"/>
<path d="M282.928 42.4141H271.803V52.519H282.928V42.4141Z" fill="#38AAD5"/>
<path d="M52.5446 83.7852H42.4297V94.8995H52.5446V83.7852Z" fill="#38AAD5"/>
<path d="M177.822 83.7852H167.707V94.8995H177.822V83.7852Z" fill="#38AAD5"/>
<path d="M261.709 83.7852H251.594V94.8995H261.709V83.7852Z" fill="#38AAD5"/>
<path d="M261.709 0H251.594V11.1144H261.709V0Z" fill="#38AAD5"/>
<path d="M177.822 0H167.707V11.1144H177.822V0Z" fill="#38AAD5"/>
<path d="M240.529 126.184H230.414V136.288H240.529V126.184Z" fill="#38AAD5"/>
<path d="M240.529 63.6445H230.414V73.7494H240.529V63.6445Z" fill="#38AAD5"/>
<path d="M199.039 63.6445H188.924V73.7494H199.039V63.6445Z" fill="#38AAD5"/>
<path d="M240.529 42.4141H230.414V52.519H240.529V42.4141Z" fill="#38AAD5"/>
<path d="M199.039 42.4141H188.924V52.519H199.039V42.4141Z" fill="#38AAD5"/>
</svg>
