<svg xmlns="http://www.w3.org/2000/svg" version="1.1" xmlns:xlink="http://www.w3.org/1999/xlink" width="32" height="32"><svg id="SvgjsSvg1008" data-name="Layer 1" xmlns="http://www.w3.org/2000/svg" viewBox="0 0 32 32">
  <defs>
    <style>
      .cls-1 {
        fill: #fff;
      }
    </style>
  </defs>
  <circle cx="16" cy="16" r="16"></circle>
  <path class="cls-1" d="M12.0204185,23.7686407h7.959163c1.0874172,0,1.9689431-.8815258,1.9689431-1.9689431v-2.8400001c0-.6934938-.5621878-1.2556816-1.2556816-1.2556816h-.2670344c-.6934938,0-1.2556816.5621878-1.2556816,1.2556816v.0843354c0,1.0748623-.871348,1.9462103-1.9462103,1.9462103h-1.7687865c-1.4498897,0-2.6252575-1.1753678-2.6252575-2.6252575v-4.7299716c0-1.4498897,1.1753678-2.6252575,2.6252575-2.6252575h1.7687865c1.0748623,0,1.9462103.871348,1.9462103,1.9462103v.0497706c0,.6934938.5621878,1.2556816,1.2556816,1.2556816h.2670344c.6934938,0,1.2556816-.5621878,1.2556816-1.2556816v-2.8054353c0-1.0874172-.8815258-1.9689431-1.9689431-1.9689431h-7.959163c-1.0874172,0-1.9689431.8815258-1.9689431,1.9689431v11.5993953c0,1.0874172.8815258,1.9689431,1.9689431,1.9689431Z"></path>
</svg><style>@media (prefers-color-scheme: light) { :root { filter: none; } }
@media (prefers-color-scheme: dark) { :root { filter: none; } }
</style></svg>