<?xml version="1.0" encoding="UTF-8"?>
<svg id="Layer_1" xmlns="http://www.w3.org/2000/svg" version="1.1" viewBox="0 0 1832.8789062 381.653595">
  <!-- Generator: Adobe Illustrator 29.6.0, SVG Export Plug-In . SVG Version: 2.1.1 Build 207)  -->
  <defs>
    <style>
      .st0 {
        fill: #fff;
      }
    </style>
  </defs>
  <path class="st0" d="M47.5199547,374.9884338h192.0924263c26.2445526,0,47.5199432-21.2754211,47.5199432-47.5199585v-68.5426941c0-16.7373047-13.5682678-30.3055573-30.3055725-30.3055573h-6.444809c-16.7373047,0-30.3055573,13.5682678-30.3055573,30.3055573v2.0354004c0,25.9415283-21.0297699,46.9713135-46.9712982,46.9713135h-42.6892242c-34.9927292,0-63.3599396-28.367218-63.3599396-63.3599396v-114.1566925c0-34.9927292,28.3672104-63.3599396,63.3599396-63.3599396h42.6892242c25.9415283,0,46.9712982,21.0297699,46.9712982,46.9712982v1.2012024c0,16.7373047,13.5682678,30.3055573,30.3055573,30.3055573h6.444809c16.7373047,0,30.3055725-13.5682678,30.3055725-30.3055649V47.5199547c0-26.244545-21.2754211-47.5199547-47.5199585-47.5199547H47.5199547C21.2754078,0,0,21.2754078,0,47.5199547v279.9485207c0,26.2445374,21.2754078,47.5199585,47.5199547,47.5199585Z"/>
  <path class="st0" d="M395.5990906,374.9884338h158.1374817c26.2445679,0,47.5199585-21.2754211,47.5199585-47.5199585v-165.6299438c0-26.2445374-21.2753906-47.5199585-47.5199585-47.5199585h-158.1374512c-26.2445374,0-47.5199585,21.2754059-47.5199585,47.5199585v165.6299438c0,26.2445374,21.2754211,47.5199585,47.5199585,47.5199585h-.0000305ZM467.2477112,181.374527h14.84021c28.7810059,0,52.1126404,23.3316193,52.1126404,52.1126404v22.3327026c0,28.7810211-23.3316345,52.1126251-52.1126404,52.1126251h-14.84021c-28.7810059,0-52.1126404-23.3316345-52.1126404-52.1126404v-22.3327026c0-28.7810059,23.3316345-52.1126404,52.1126404-52.1126404v.0000153Z"/>
  <path class="st0" d="M599.5430298,70.3256073h37.2153931c26.2445679,0,47.5199585,21.2754059,47.5199585,47.5199585v233.5024567c0,16.7373047,13.5682373,30.3055725,30.305542,30.3055725h6.4448242c16.7373047,0,30.305542-13.5682678,30.305542-30.3055725V117.8455582c0-26.244545,21.2753906-47.5199509,47.5199585-47.5199509h37.2158203c16.7373047,0,30.305542-13.568264,30.305542-30.3055649v-6.444809c0-16.7373009-13.5682373-30.305563-30.305542-30.305563h-236.5270996c-16.7373047,0-30.305542,13.5682621-30.305542,30.305563v6.444809c0,16.7373009,13.5682373,30.3055649,30.305542,30.3055649h.000061Z"/>
  <path class="st0" d="M1252.161499,378.1709595h192.0924072c26.2445068,0,47.5198975-21.2754211,47.5198975-47.5199585v-68.5426941c0-16.7373047-13.5682373-30.3055573-30.305542-30.3055573h-6.4448242c-16.7373047,0-30.305542,13.5682678-30.305542,30.3055573v2.0354004c0,25.9415283-21.0297852,46.9713135-46.9713135,46.9713135h-42.689209c-34.9926758,0-63.3599854-28.367218-63.3599854-63.3599396v-114.1566925c0-34.9927292,28.3671875-63.3599396,63.3599854-63.3599396h42.689209c25.9415283,0,46.9713135,21.0297699,46.9713135,46.9712982v1.2012024c0,16.7373047,13.5682373,30.3055573,30.305542,30.3055573h6.4448242c16.7373047,0,30.305542-13.5682678,30.305542-30.3055649V50.7024651c0-26.244545-21.2753906-47.5199547-47.5198975-47.5199547h-192.0924072c-26.2445068,0-47.5198975,21.2754078-47.5198975,47.5199547v279.9485054c0,26.2445374,21.2753906,47.5199585,47.5198975,47.5199585v.0000305Z"/>
  <path class="st0" d="M947.8395386,378.1709595h176.2562866c16.7373047,0,30.305542-13.5682678,30.305542-30.3055725v-6.4447937c0-16.7373047-13.5682373-30.3055725-30.305542-30.3055725h-116.9833984c-21.946106,0-39.7369385-17.7908325-39.7369385-39.7369385v-8.7836914c0-21.946106,17.7908325-39.7369385,39.7369385-39.7369385h83.4554443c16.7373047,0,30.305542-13.5682678,30.305542-30.3055573v-6.444809c0-16.7373047-13.5682373-30.3055573-30.305542-30.3055573h-83.4554443c-21.946106,0-39.7369385-17.7908325-39.7369385-39.7369385v-6.002037c0-21.946106,17.7908325-39.7369385,39.7369385-39.7369385h116.9833984c16.7373047,0,30.305542-13.568264,30.305542-30.3055649v-6.444809c0-16.7373009-13.5682373-30.305563-30.305542-30.305563h-176.2563477c-26.2445679,0-47.5199585,21.2754078-47.5199585,47.5199566v279.8613968c0,26.2445374,21.2753906,47.5199585,47.5199585,47.5199585l.000061-.0000305Z"/>
  <path class="st0" d="M1765.822998,30.305563v64.2792377c0,26.244545-21.2753906,47.5199509-47.5198975,47.5199509h-56.8946533c-26.2445068,0-47.5198975-21.2754059-47.5198975-47.5199585V30.305563c0-16.7373009-13.5682373-30.305563-30.305542-30.305563h-6.4448242c-16.7373047,0-30.305542,13.5682631-30.305542,30.305563v320.8494053c0,16.7373047,13.5682373,30.3055725,30.305542,30.3055725h6.4448242c16.7373047,0,30.305542-13.5682678,30.305542-30.3055725v-94.4743347c0-26.2445374,21.2753906-47.5199585,47.5198975-47.5199585h56.8946533c26.2445068,0,47.5198975,21.2754059,47.5198975,47.5199585v94.4743347c0,16.7373047,13.5682373,30.3055725,30.305542,30.3055725h6.4448242c16.7373047,0,30.305542-13.5682678,30.305542-30.3055725V30.305563c0-16.7373009-13.5682373-30.305563-30.305542-30.305563h-6.4448242c-16.7373047,0-30.305542,13.5682631-30.305542,30.305563Z"/>
</svg>