<svg id="Layer_1" data-name="Layer 1" xmlns="http://www.w3.org/2000/svg" viewBox="0 0 566.93 240.95">
  <defs>
    <style>.cls-1{fill:#8a0026;}.cls-2{fill:#d50032;}</style>
  </defs>
  <title>Artboard 1</title>
  <path class="cls-1" d="M98.49,81.87a6,6,0,0,0-1.05-4.46A6.07,6.07,0,0,0,92.53,75a5.85,5.85,0,0,0-3.42,1.06,6,6,0,1,0,7,9.63A5.87,5.87,0,0,0,98.49,81.87Z"/>
  <path class="cls-2" d="M158.86,162a6,6,0,0,0-4.9-2.41,5.64,5.64,0,0,0-3.41,1.09,5.95,5.95,0,0,0,3.5,10.77,6,6,0,0,0,3.51-1.14A6,6,0,0,0,158.86,162Z"/>
  <path class="cls-2" d="M81.06,91.93a5.63,5.63,0,0,0-2.85-.76,6.13,6.13,0,0,0-5.29,2.93,6,6,0,0,0-.59,4.52,6,6,0,1,0,8.74-6.69Z"/>
  <path class="cls-1" d="M171.56,144.17a5.64,5.64,0,0,0-2.87-.75,6.19,6.19,0,0,0-5.28,2.91,6,6,0,0,0,2.17,8.15,6.19,6.19,0,0,0,3,.79,6,6,0,0,0,3-11.11Z"/>
  <path class="cls-1" d="M65.45,117.12a5.85,5.85,0,0,0,1.3,4.35,5.79,5.79,0,0,0,4,2.18A6,6,0,0,0,76,114a5.91,5.91,0,0,0-4-2.16l-.67,0A5.9,5.9,0,0,0,65.45,117.12Z"/>
  <path class="cls-1" d="M169.36,128a6,6,0,1,0,11.86,1.23,6,6,0,0,0-5.31-6.55l-.66,0A6,6,0,0,0,169.36,128Z"/>
  <path class="cls-2" d="M78.95,142a5.82,5.82,0,0,0,.36-4.53,6.08,6.08,0,0,0-5.74-4.12,6.31,6.31,0,0,0-1.79.27A6,6,0,1,0,78.95,142Z"/>
  <path class="cls-1" d="M178.33,109.75a5.81,5.81,0,0,0,.37-4.52,6.1,6.1,0,0,0-5.76-4.13,6.38,6.38,0,0,0-1.76.27,6,6,0,0,0-3.82,7.51A5.92,5.92,0,0,0,173,113a6.16,6.16,0,0,0,1.86-.3A5.91,5.91,0,0,0,178.33,109.75Z"/>
  <path class="cls-1" d="M84.45,152.28a5.89,5.89,0,0,0-4.37,9.85,6.11,6.11,0,0,0,8.41.45,5.88,5.88,0,0,0-4-10.3Z"/>
  <path class="cls-1" d="M162.12,82.34a5.92,5.92,0,0,0-4,1.46,6,6,0,0,0-.42,8.43,6.12,6.12,0,0,0,8.39.44,6,6,0,0,0,2-4.12,5.88,5.88,0,0,0-6-6.21Z"/>
  <path class="cls-2" d="M104.5,165.48a5.6,5.6,0,0,0-2.3-.48,6.09,6.09,0,0,0-5.56,3.51,6,6,0,0,0,3,7.85,5.53,5.53,0,0,0,2.42.53,6,6,0,0,0,2.43-11.41Z"/>
  <path class="cls-1" d="M147,70a5.48,5.48,0,0,0-2.31-.46A6.13,6.13,0,0,0,139.12,73,6,6,0,1,0,147,70Z"/>
  <path class="cls-1" d="M123.33,169.47a6,6,0,1,0,6,6A6,6,0,0,0,123.33,169.47Z"/>
  <path class="cls-2" d="M116.44,71.52a6.13,6.13,0,0,0-5.9-4.73,5.19,5.19,0,0,0-1.18.14,6,6,0,0,0,1.24,11.79,4.8,4.8,0,0,0,1.23-.15A6,6,0,0,0,116.44,71.52Z"/>
  <path class="cls-1" d="M186.29,152.73a5.56,5.56,0,0,0-2.84-.74,6.15,6.15,0,0,0-5.28,2.91,6,6,0,0,0,5.14,8.95,6,6,0,0,0,3-11.12Z"/>
  <path class="cls-1" d="M66.07,83.31a5.73,5.73,0,0,0-2.85-.74,6.09,6.09,0,0,0-5.29,2.92,6,6,0,0,0-.6,4.53,5.9,5.9,0,0,0,2.77,3.6,5.83,5.83,0,0,0,3,.8,6,6,0,0,0,3-11.12Z"/>
  <path class="cls-2" d="M191.79,135.43a5.2,5.2,0,0,0-1.47-.17,6,6,0,0,0-5.82,4.4,5.91,5.91,0,0,0,4.21,7.27,5.31,5.31,0,0,0,1.53.24,6,6,0,0,0,1.55-11.73Z"/>
  <path class="cls-2" d="M57.67,99.49a5.17,5.17,0,0,0-1.46-.2,6.05,6.05,0,0,0-5.81,4.42A5.94,5.94,0,0,0,54.59,111a6.32,6.32,0,0,0,1.54.22,6,6,0,0,0,1.54-11.73Z"/>
  <path class="cls-1" d="M192.6,117.3a6,6,0,1,0,6,5.94A6,6,0,0,0,192.6,117.3Z"/>
  <path class="cls-1" d="M53.77,117.3A5.84,5.84,0,0,0,49.56,119a5.95,5.95,0,0,0,0,8.44,5.87,5.87,0,0,0,4.21,1.74,6,6,0,1,0,0-11.91Z"/>
  <path class="cls-1" d="M195.4,108.31a6,6,0,0,0-5.23-8.94,5.52,5.52,0,0,0-1.47.2,6,6,0,0,0-3.62,2.77,5.86,5.86,0,0,0-.58,4.54,6,6,0,0,0,10.91,1.43Z"/>
  <path class="cls-1" d="M61.9,139.71a6.1,6.1,0,0,0-5.83-4.42,5.75,5.75,0,0,0-1.49.21,6,6,0,0,0-4.21,7.3,6,6,0,0,0,5.75,4.42,5.06,5.06,0,0,0,1.54-.22A6,6,0,0,0,61.9,139.71Z"/>
  <path class="cls-1" d="M188.47,85.64a6.18,6.18,0,0,0-5.29-2.92,5.75,5.75,0,0,0-5.61,4.35,6,6,0,0,0,5.74,7.51,6.06,6.06,0,0,0,3-.79A6,6,0,0,0,188.47,85.64Z"/>
  <path class="cls-1" d="M68.25,155.07A6.11,6.11,0,0,0,63,152.13a5.62,5.62,0,0,0-2.86.74,5.84,5.84,0,0,0-2.78,3.61,6,6,0,0,0,5.75,7.5,6.26,6.26,0,0,0,3-.79A6,6,0,0,0,68.25,155.07Z"/>
  <path class="cls-1" d="M172.3,68.37a6,6,0,0,0-4.21,1.7,5.94,5.94,0,0,0,0,8.41,6.09,6.09,0,0,0,8.42,0,5.93,5.93,0,0,0,0-8.41A6,6,0,0,0,172.3,68.37Z"/>
  <path class="cls-2" d="M69.94,176.66a6.11,6.11,0,0,0,8.41,0,6,6,0,1,0-8.41,0Z"/>
  <path class="cls-2" d="M163.71,61.72a5.9,5.9,0,0,0-2.77-3.61,5.79,5.79,0,0,0-2.87-.75,6.16,6.16,0,0,0-5.27,2.92A6,6,0,0,0,155,68.44a6.08,6.08,0,0,0,3,.79,6,6,0,0,0,5.15-3A5.77,5.77,0,0,0,163.71,61.72Z"/>
  <path class="cls-2" d="M91.52,178.33a5.74,5.74,0,0,0-2.85-.74,6.11,6.11,0,0,0-5.29,2.91,5.91,5.91,0,0,0-.58,4.55,5.77,5.77,0,0,0,2.75,3.6,6,6,0,0,0,3,.8,6,6,0,0,0,3-11.12Z"/>
  <path class="cls-1" d="M146.42,53.37a5.86,5.86,0,0,0-3.63-2.77,4.94,4.94,0,0,0-1.47-.22,6.08,6.08,0,0,0-5.82,4.42,6,6,0,0,0,4.22,7.3,5.7,5.7,0,0,0,1.54.2,6,6,0,0,0,5.16-8.93Z"/>
  <path class="cls-1" d="M110.48,187.46a6,6,0,0,0-3.61-2.78,5.48,5.48,0,0,0-1.49-.2,6.06,6.06,0,0,0-5.8,4.41,5.94,5.94,0,0,0,.59,4.54,5.83,5.83,0,0,0,3.61,2.77,7,7,0,0,0,1.55.18,5.94,5.94,0,0,0,5.15-8.92Z"/>
  <path class="cls-2" d="M123.33,43.12a6,6,0,1,0,6,6A6,6,0,0,0,123.33,43.12Z"/>
  <path class="cls-1" d="M110.54,59.32a5.82,5.82,0,0,0,.6-4.52,6.08,6.08,0,0,0-5.8-4.42,5,5,0,0,0-1.49.22A5.95,5.95,0,0,0,105.4,62.3a5.13,5.13,0,0,0,1.53-.2A5.82,5.82,0,0,0,110.54,59.32Z"/>
  <path class="cls-1" d="M146.42,183.68a5.79,5.79,0,0,0,.58-4.5,6,6,0,1,0-11.51,3.08,6,6,0,0,0,5.77,4.42,5.4,5.4,0,0,0,1.54-.21A5.88,5.88,0,0,0,146.42,183.68Z"/>
  <path class="cls-1" d="M94.44,64.81a5.94,5.94,0,0,0-.61-4.52,6.1,6.1,0,0,0-5.27-2.93,5.69,5.69,0,0,0-2.87.75,6,6,0,1,0,8.74,6.7Z"/>
  <path class="cls-1" d="M163.25,180.52a6.06,6.06,0,0,0-5.28-2.93,5.78,5.78,0,0,0-2.85.74,6,6,0,1,0,8.12,2.19Z"/>
  <path class="cls-1" d="M78.56,70.08a6,6,0,0,0-8.42,0,5.91,5.91,0,0,0,0,8.4,6.09,6.09,0,0,0,8.42,0A5.94,5.94,0,0,0,78.56,70.08Z"/>
  <path class="cls-1" d="M176.72,168.24a5.9,5.9,0,0,0-4.21-1.7,5.93,5.93,0,0,0-4.23,10.12,6.12,6.12,0,0,0,8.44,0,6,6,0,0,0,1.75-4.22A5.91,5.91,0,0,0,176.72,168.24Z"/>
  <path class="cls-1" d="M102.07,31a6,6,0,0,0,3.56-7.64,6.13,6.13,0,0,0-5.68-3.88,5.56,5.56,0,0,0-1.95.32A6,6,0,0,0,102.07,31Z"/>
  <path class="cls-1" d="M159.45,210.81a6,6,0,0,0,.2-4.55,6.14,6.14,0,0,0-5.72-3.92,5.9,5.9,0,0,0-5.48,8,5.93,5.93,0,0,0,5.59,3.91,6.19,6.19,0,0,0,2-.35A6.1,6.1,0,0,0,159.45,210.81Z"/>
  <path class="cls-2" d="M78.9,51.64a6.05,6.05,0,0,0-4.61-2.05,5.85,5.85,0,0,0-3.77,1.32,6,6,0,1,0,8.38.73Z"/>
  <path class="cls-1" d="M183.82,186.08A6.06,6.06,0,0,0,179.2,184a5.81,5.81,0,0,0-3.77,1.33,6,6,0,1,0,8.39.72Z"/>
  <path class="cls-1" d="M50.69,74.45a5.7,5.7,0,0,0-2.86-.74,6.07,6.07,0,0,0-5.28,2.94,6,6,0,1,0,8.14-2.2Z"/>
  <path class="cls-1" d="M201.67,161.59a5.71,5.71,0,0,0-2.86-.72,6.08,6.08,0,0,0-5.28,2.92,5.94,5.94,0,0,0,2.19,8.12,5.68,5.68,0,0,0,3,.82,6,6,0,0,0,3-11.14Z"/>
  <path class="cls-1" d="M31.65,110a5.88,5.88,0,0,0-3.85-2.45,5.14,5.14,0,0,0-1-.11,6,6,0,1,0,5.88,7A5.86,5.86,0,0,0,31.65,110Z"/>
  <path class="cls-2" d="M222,134.94a6,6,0,0,0-3.85-2.44,6.22,6.22,0,0,0-1-.1,6,6,0,1,0,4.9,2.54Z"/>
  <path class="cls-1" d="M37.38,132.48a5.51,5.51,0,0,0-1.07.07,6,6,0,1,0,6.89,4.82A5.89,5.89,0,0,0,37.38,132.48Z"/>
  <path class="cls-1" d="M213.91,111.56a6,6,0,0,0-4.85-9.37,5.5,5.5,0,0,0-1.06.1,6,6,0,0,0,1,11.83,7.79,7.79,0,0,0,1-.09A6,6,0,0,0,213.91,111.56Z"/>
  <path class="cls-1" d="M52.87,163.93A6.18,6.18,0,0,0,47.59,161a5.7,5.7,0,0,0-2.85.74,6,6,0,0,0,3,11.12,6.14,6.14,0,0,0,3-.79A6,6,0,0,0,52.87,163.93Z"/>
  <path class="cls-2" d="M204.43,81.31a5.93,5.93,0,0,0-.58-4.54,6.18,6.18,0,0,0-5.3-2.93,5.69,5.69,0,0,0-2.84.75,6,6,0,0,0,3,11.13,5.83,5.83,0,0,0,3-.81A5.93,5.93,0,0,0,204.43,81.31Z"/>
  <path class="cls-1" d="M71,185.58a6,6,0,0,0-3.79-1.33,6.09,6.09,0,0,0-4.6,2.05,6,6,0,0,0-1.37,4.35A6,6,0,0,0,71.75,194,6,6,0,0,0,71,185.58Z"/>
  <path class="cls-1" d="M183.09,52.05a5.82,5.82,0,0,0-3.78-1.34,6.07,6.07,0,0,0-4.62,2.05,6,6,0,1,0,9.12,7.68,5.91,5.91,0,0,0,1.37-4.36A5.85,5.85,0,0,0,183.09,52.05Z"/>
  <path class="cls-1" d="M86.54,209.94a5.69,5.69,0,0,0-1.92-.34,6.15,6.15,0,0,0-5.72,3.9,6,6,0,0,0,.21,4.56,5.88,5.88,0,0,0,3.35,3.08,5.76,5.76,0,0,0,2,.35,6,6,0,0,0,2-11.55Z"/>
  <path class="cls-1" d="M154.61,28.87a5.65,5.65,0,0,0-2-.35A6.1,6.1,0,0,0,147,32.43a5.94,5.94,0,0,0,3.56,7.62,5.54,5.54,0,0,0,2,.38A6,6,0,0,0,158,31.95,5.88,5.88,0,0,0,154.61,28.87Z"/>
  <path class="cls-2" d="M255.15,171.19V73.06c0-4.54,2.9-7.29,6.81-7.29s6.8,2.75,6.8,7.29v35.67h.15c3.58-6,10.35-10.34,22-10.34,13.09,0,22.64,7.28,26.69,19.43,1.94,6.13,2.76,12.28,2.76,21s-.82,15-2.76,21.2c-4,12.11-13.6,19.39-26.69,19.39-11.49,0-18.28-4.2-22-10.35h-.15v2.11c0,4.53-2.92,7.26-6.8,7.26S255.15,175.72,255.15,171.19Zm49.52-16.5c1.43-4.2,1.77-9.08,1.77-15.85s-.34-11.5-1.77-15.68c-2.58-7.8-8.41-12.16-17-12.16-8.74,0-14.59,4.36-17.17,12.16-1.46,4.18-1.76,9-1.76,15.68s.3,11.65,1.76,15.85c2.57,7.76,8.42,12.12,17.17,12.12C296.25,166.81,302.08,162.45,304.67,154.69Z"/>
  <path class="cls-2" d="M333.5,158.57c-1.76-5.34-2.57-10.66-2.57-19.73,0-8.91.81-14.25,2.57-19.58C337.71,106,349,98.39,364.1,98.39s26.36,7.6,30.55,20.87c1.77,5.33,2.59,10.67,2.59,19.58,0,9.07-.82,14.39-2.59,19.73-4.2,13.1-15.53,20.86-30.55,20.86S337.71,171.67,333.5,158.57Zm48.07-3.88c1.29-4.2,1.78-8.42,1.78-15.85s-.49-11.5-1.78-15.68C379,115.36,372.65,111,364.1,111s-14.89,4.36-17.49,12.16c-1.3,4.18-1.78,8.22-1.78,15.68s.48,11.65,1.78,15.85c2.6,7.76,8.9,12.12,17.49,12.12S379,162.45,381.57,154.69Z"/>
  <path class="cls-2" d="M408,106.64c0-4.53,2.9-7.27,6.77-7.27s6.82,2.74,6.82,7.27v2.26h.14c3.72-6,11.15-10.51,21.68-10.51,16.83,0,26.86,11.5,26.86,29.11v43.69c0,4.53-2.92,7.26-6.81,7.26s-6.79-2.73-6.79-7.26V130.73c0-12.44-5.66-19.74-17.31-19.74-10.52,0-17.77,7.47-17.77,18.94v41.26c0,4.53-2.92,7.26-6.82,7.26s-6.77-2.73-6.77-7.26Z"/>
  <path class="cls-2" d="M532.52,171.19v-2.11h-.15c-3.71,6.15-10.53,10.35-22,10.35-13.11,0-22.64-7.28-26.69-19.39-2-6.15-2.76-12.31-2.76-21.2s.8-14.89,2.76-21c4-12.15,13.58-19.43,26.69-19.43,11.64,0,18.45,4.36,22,10.34h.15V73.06c0-4.54,2.91-7.29,6.82-7.29s6.78,2.75,6.78,7.29v98.13c0,4.53-2.94,7.26-6.78,7.26S532.52,175.72,532.52,171.19Zm-1.77-16.5c1.45-4.2,1.77-9.08,1.77-15.85s-.32-11.5-1.77-15.68c-2.58-7.8-8.42-12.16-17.16-12.16-8.57,0-14.4,4.36-17,12.16-1.45,4.18-1.78,9-1.78,15.68s.33,11.65,1.78,15.85c2.58,7.76,8.41,12.12,17,12.12C522.32,166.81,528.16,162.45,530.75,154.69Z"/>
  <path class="cls-2" d="M134.44,68.64a6.13,6.13,0,0,0-5.9-4.73,5.19,5.19,0,0,0-1.18.14,6,6,0,0,0,1.24,11.79,4.8,4.8,0,0,0,1.23-.15A6,6,0,0,0,134.44,68.64Z"/>
  <path class="cls-2" d="M129.14,191.68a6.13,6.13,0,0,0-5.9-4.73,5.19,5.19,0,0,0-1.18.14,6,6,0,0,0,1.24,11.79,4.79,4.79,0,0,0,1.23-.15A6,6,0,0,0,129.14,191.68Z"/>
  <path class="cls-1" d="M129.17,209a6.13,6.13,0,0,0-5.9-4.73,5.19,5.19,0,0,0-1.18.14,6,6,0,0,0,1.24,11.79,4.8,4.8,0,0,0,1.23-.15A6,6,0,0,0,129.17,209Z"/>
</svg>