<?xml version="1.0" encoding="utf-8"?>
<!-- Generator: Adobe Illustrator 23.0.3, SVG Export Plug-In . SVG Version: 6.00 Build 0)  -->
<svg version="1.1" id="Layer_1" xmlns="http://www.w3.org/2000/svg" xmlns:xlink="http://www.w3.org/1999/xlink" x="0px" y="0px"
	 viewBox="0 0 263.8 143" style="enable-background:new 0 0 263.8 143;" xml:space="preserve">
<style type="text/css">
	.st0{fill:#E4032C;}
</style>
<g>
	<g>
		<path d="M29.3,18.1c-1.7,1-3.9,1.5-5.8,1.5c-5.2,0-8.8-3.3-8.8-8.7c0-5.7,4-9.3,9.2-9.3c1.7,0,3.4,0.4,4.6,1v3
			c-1.2-0.8-2.7-1.2-4.2-1.2c-3.7,0-5.8,2.8-5.8,6.2c0,3.6,2.2,6,5.4,6c1.9,0,3.3-0.6,4.4-1.2L29.3,18.1z"/>
		<path d="M29.9,10.6c0-5.3,3.5-9,8.7-9c5.2,0,8.7,3.7,8.7,9c0,5.3-3.4,9-8.7,9C33.3,19.6,29.9,15.9,29.9,10.6z M43.5,10.6
			c0-3.7-1.9-6.1-4.9-6.1c-3,0-4.9,2.4-4.9,6.1c0,3.7,1.9,6.1,4.9,6.1C41.6,16.7,43.5,14.3,43.5,10.6z"/>
		<path d="M49.7,8.8H59V12h-9.2V8.8z"/>
		<path d="M61.3,10.6c0-5.3,3.5-9,8.7-9c5.2,0,8.7,3.7,8.7,9c0,5.3-3.4,9-8.7,9C64.7,19.6,61.3,15.9,61.3,10.6z M74.8,10.6
			c0-3.7-1.9-6.1-4.9-6.1c-3,0-4.9,2.4-4.9,6.1c0,3.7,1.9,6.1,4.9,6.1C73,16.7,74.8,14.3,74.8,10.6z"/>
		<path d="M81.2,1.9h5.2c4.2,0,6.5,2.2,6.5,5.7c0,3.4-2.2,5.9-6.7,5.9h-1.4v5.7h-3.7V1.9z M86.3,10.6c2.1,0,3-1.2,3-2.9
			c0-1.7-0.8-2.9-2.9-2.9h-1.5v5.8H86.3z"/>
		<path d="M95.5,1.9h10.8l-1,2.9h-6.1V9h6.1v2.9h-6.1v4.5h6.9v2.9H95.5V1.9z"/>
		<path d="M109.6,1.9h5.7c4.7,0,6.3,2.6,6.3,5.1c0,2.1-1.1,3.8-3.3,4.5v0.1c0.4,0.3,1.1,1.1,2,2.6l3.1,5.1h-4l-2.6-4.3
			c-0.7-1.2-1.4-1.9-1.8-2.1h-1.8v6.4h-3.7V1.9z M115.2,10c1.7,0,2.7-1.1,2.7-2.6c0-1.4-0.9-2.6-2.8-2.6h-1.9V10H115.2z"/>
		<path d="M131.6,1.8h2.6l7.2,17.4h-3.8l-1.5-3.9h-6.3l-1.5,3.9h-3.8L131.6,1.8z M135.1,12.6L133.8,9c-0.3-0.7-0.6-1.7-0.9-2.4h-0.1
			c-0.2,0.7-0.5,1.6-0.8,2.4l-1.3,3.6H135.1z"/>
		<path d="M144.5,4.8h-5.2V1.9h14.6l-0.8,2.9h-4.9v14.4h-3.7V4.8z"/>
		<path d="M155.9,1.9h3.7v17.3h-3.7V1.9z"/>
		<path d="M162,1.9h3.9l3.7,9.6c0.4,1.1,0.8,2.2,1.1,3.2h0.1c0.3-1,0.7-2.1,1.1-3.2l3.7-9.6h3.9L172,19.4h-2.7L162,1.9z"/>
		<path d="M181,1.9h10.8l-1,2.9h-6.1V9h6.1v2.9h-6.1v4.5h6.9v2.9H181V1.9z"/>
		<path d="M194.9,15.5c1.1,0.6,2.6,1.2,4.1,1.2c1.4,0,2.9-0.6,2.9-2.1c0-3.5-7.5-2.5-7.5-8.1c0-2.7,2.1-4.8,5.8-4.8
			c1.9,0,3.5,0.4,4.5,0.9v3.2c-1.6-0.8-3-1.1-4.3-1.1c-1.1,0-2.4,0.5-2.4,1.8c0,3.2,7.5,2.1,7.5,8.1c0,3.3-2.8,5.2-6.4,5.2
			c-2.2,0-3.9-0.5-5.5-1.4L194.9,15.5z"/>
		<path d="M229.4,12.6c0,4.9-3.2,7-7.6,7c-4.3,0-7.5-2.1-7.5-6.9V1.9h3.7v10.5c0,2.8,1.5,4.1,3.9,4.1c2.3,0,3.8-1.3,3.8-4.1V1.9h3.7
			V12.6z"/>
		<path d="M232.9,1.9h3.7v7.5h0.1l5.8-7.5h4l-7,8.7l7.5,8.6h-4.4l-6.1-7.2h-0.1v7.2h-3.7V1.9z"/>
	</g>
	<path class="st0" d="M42.2,111.5C20.6,111.5,3,93.9,3,72.3c0,0,0,0,0,0c0-21.6,17.6-39.2,39.2-39.2h0c0,0,0,0,0,0c0,0,0,0,0,0
		c8.7,0,16.9,2.8,23.7,8.1c2.8,2.1,3.3,6.1,1.2,8.8c-2.1,2.8-6.1,3.3-8.8,1.2c-0.8-0.6-1.6-1.2-2.4-1.7c-0.1,0-0.1-0.1-0.2-0.1
		c-4.1-2.4-8.7-3.7-13.5-3.7h0h0c0,0,0,0,0,0c-14.7,0-26.6,11.9-26.6,26.6c0,14.7,11.9,26.6,26.6,26.6c0,0,0,0,0,0c0,0,0,0,0,0h0
		c4.8,0,9.4-1.3,13.5-3.7c0.1,0,0.1-0.1,0.2-0.1c0.8-0.5,1.6-1.1,2.4-1.7c2.8-2.1,6.7-1.6,8.8,1.2c2.1,2.8,1.6,6.7-1.2,8.8
		C59.1,108.7,50.9,111.5,42.2,111.5C42.2,111.5,42.2,111.5,42.2,111.5C42.2,111.5,42.2,111.5,42.2,111.5L42.2,111.5z M210.5,135.1
		v-25.9c3.5,1.4,7.2,2.3,11.1,2.3c21.6,0,39.2-17.6,39.2-39.2c0-21.6-17.6-39.2-39.2-39.2c-8.7,0-16.9,2.8-23.8,8.1
		c-2.8,2.1-3.3,6.1-1.2,8.8c2.1,2.8,6.1,3.3,8.8,1.2c4.7-3.6,10.2-5.5,16.2-5.5c14.7,0,26.6,11.9,26.6,26.6
		c0,14.7-11.9,26.6-26.6,26.6c-3.7,0-7.5-1.6-11.1-3.6V93c0-3.5-2.8-6.3-6.3-6.3c-3.5,0-6.3,2.8-6.3,6.3v42c0,3.5,2.8,6.3,6.3,6.3
		C207.7,141.4,210.5,138.5,210.5,135.1z M131.8,101c4.9,4.6,11,7.9,17.9,9.5c21,4.9,42.1-8.2,47-29.3c4.9-21-8.2-42.1-29.3-47
		c-12.8-3-26.2,0.7-35.7,9.5c-4.9-4.6-11-7.9-17.9-9.5c-21-4.9-42.1,8.2-47,29.3c-4.9,21,8.2,42.1,29.3,47c3,0.7,5.9,1,8.9,1
		C115,111.5,124.5,107.8,131.8,101z M111.1,46.5c9.6,2.2,17.1,9.5,19.7,19c0.9,3.4,4.3,5.4,7.7,4.5c3.4-0.9,5.4-4.3,4.5-7.7
		c-0.8-3-1.9-5.9-3.4-8.5c6.5-6.6,16-9.4,25.1-7.3c14.3,3.3,23.2,17.7,19.9,31.9c-3.3,14.3-17.7,23.2-31.9,19.9
		c-10.3-2.4-18.2-10.7-20.1-21.1c-0.6-3.4-3.9-5.7-7.3-5.1c-3.4,0.6-5.7,3.9-5.1,7.3c0.7,4.1,2.1,8,4,11.6
		c-6.4,6.6-15.9,9.5-25.1,7.3c-14.3-3.3-23.2-17.7-19.9-31.9C82,54.1,93,45.8,105,45.8C107,45.8,109.1,46,111.1,46.5z"/>
</g>
</svg>
