<?xml version="1.0" encoding="UTF-8"?>
<svg width="1000px" height="1000px" viewBox="0 0 1000 1000" version="1.1" xmlns="http://www.w3.org/2000/svg" xmlns:xlink="http://www.w3.org/1999/xlink">
    <!-- Generator: Sketch 51.1 (57501) - http://www.bohemiancoding.com/sketch -->
    <title>Ctrl-Group-logo</title>
    <desc>Created with Sketch.</desc>
    <defs></defs>
    <g id="Page-1" stroke="none" stroke-width="1" fill="none" fill-rule="evenodd">
        <g id="Ctrl-Group-logo">
            <circle id="Oval-Copy" fill="#FF5890" fill-rule="nonzero" cx="500" cy="500" r="500"></circle>
            <path d="M221.782,453.444 C166.678,453.444 122.767,413.264 122.767,354.429 C122.767,295.594 166.678,255.414 221.782,255.414 C261.962,255.414 285.783,275.504 300.133,298.464 L271.433,313.101 C262.249,297.316 243.881,285.262 221.782,285.262 C185.333,285.262 157.207,314.249 157.207,354.429 C157.207,394.609 185.333,423.596 221.782,423.596 C243.881,423.596 262.249,411.829 271.433,395.757 L300.133,410.394 C285.496,433.354 261.962,453.444 221.782,453.444 Z M364.865,453.444 C341.618,453.444 329.277,440.816 329.277,417.856 L329.277,337.783 L306.317,337.783 L306.317,311.379 L329.277,311.379 L329.277,273.495 L359.412,273.495 L359.412,311.379 L387.538,311.379 L387.538,337.783 L359.412,337.783 L359.412,410.394 C359.412,419.865 364.004,426.753 372.614,426.753 C378.354,426.753 383.807,424.457 386.103,421.874 L393.278,444.547 C387.825,449.713 378.928,453.444 364.865,453.444 Z M411.803,450 L411.803,311.379 L441.938,311.379 L441.938,331.756 C452.27,318.554 468.916,308.222 486.997,308.222 L486.997,338.07 C484.414,337.496 481.257,337.209 477.526,337.209 C464.898,337.209 447.965,345.819 441.938,355.577 L441.938,450 L411.803,450 Z M508.392,450 L508.392,258.571 L538.527,258.571 L538.527,450 L508.392,450 Z M122.767,590.429 C122.767,530.446 167.826,491.414 223.217,491.414 C260.527,491.414 284.922,509.208 300.42,531.307 L272.868,546.805 C262.823,532.455 244.742,521.262 223.217,521.262 C185.333,521.262 157.207,550.249 157.207,590.429 C157.207,630.609 185.333,659.883 223.217,659.883 C242.733,659.883 259.953,650.699 268.563,642.663 L268.563,612.815 L211.45,612.815 L211.45,583.254 L302.142,583.254 L302.142,655.004 C283.2,675.955 256.509,689.731 223.217,689.731 C167.826,689.731 122.767,650.412 122.767,590.429 Z M328.295,686 L328.295,547.379 L358.43,547.379 L358.43,567.756 C368.762,554.554 385.408,544.222 403.489,544.222 L403.489,574.07 C400.906,573.496 397.749,573.209 394.018,573.209 C381.39,573.209 364.457,581.819 358.43,591.577 L358.43,686 L328.295,686 Z M482.45,689.444 C438.539,689.444 411.274,656.439 411.274,616.546 C411.274,576.94 438.539,543.935 482.45,543.935 C526.935,543.935 553.913,576.94 553.913,616.546 C553.913,656.439 526.935,689.444 482.45,689.444 Z M482.45,662.753 C508.28,662.753 522.63,641.228 522.63,616.546 C522.63,592.151 508.28,570.626 482.45,570.626 C456.907,570.626 442.557,592.151 442.557,616.546 C442.557,641.228 456.907,662.753 482.45,662.753 Z M669.897,686 L669.897,667.632 C659.852,678.825 642.632,689.444 620.82,689.444 C590.972,689.444 576.335,673.946 576.335,645.533 L576.335,547.379 L606.47,547.379 L606.47,634.627 C606.47,656.152 617.376,662.753 634.309,662.753 C649.52,662.753 662.722,654.143 669.897,644.672 L669.897,547.379 L700.032,547.379 L700.032,686 L669.897,686 Z M761.199,738.808 L731.064,738.808 L731.064,547.379 L761.199,547.379 L761.199,566.321 C771.531,552.545 787.603,543.935 805.684,543.935 C841.559,543.935 867.102,570.913 867.102,616.546 C867.102,662.179 841.559,689.444 805.684,689.444 C788.177,689.444 772.392,681.695 761.199,666.771 L761.199,738.808 Z M835.819,616.546 C835.819,589.855 820.608,570.626 796.787,570.626 C782.724,570.626 767.8,578.949 761.199,589.281 L761.199,644.098 C767.8,654.143 782.724,662.753 796.787,662.753 C820.608,662.753 835.819,643.524 835.819,616.546 Z" id="Ctrl-Group" fill="#FFFFFF"></path>
        </g>
    </g>
</svg>