<?xml version="1.0" encoding="UTF-8" standalone="no"?>
<svg
   xmlns:dc="http://purl.org/dc/elements/1.1/"
   xmlns:cc="http://creativecommons.org/ns#"
   xmlns:rdf="http://www.w3.org/1999/02/22-rdf-syntax-ns#"
   xmlns:svg="http://www.w3.org/2000/svg"
   xmlns="http://www.w3.org/2000/svg"
   xmlns:sodipodi="http://sodipodi.sourceforge.net/DTD/sodipodi-0.dtd"
   xmlns:inkscape="http://www.inkscape.org/namespaces/inkscape"
   sodipodi:docname="Deliveroo.svg"
   inkscape:version="1.0beta2 (2b71d25, 2019-12-03)"
   id="svg655"
   version="1.1"
   viewBox="0 0 210 297"
   height="297mm"
   width="210mm">
  <defs
     id="defs649" />
  <sodipodi:namedview
     inkscape:window-maximized="0"
     inkscape:window-y="23"
     inkscape:window-x="0"
     inkscape:window-height="784"
     inkscape:window-width="1440"
     showgrid="false"
     inkscape:document-rotation="0"
     inkscape:current-layer="layer1"
     inkscape:document-units="mm"
     inkscape:cy="560"
     inkscape:cx="400"
     inkscape:zoom="0.35"
     inkscape:pageshadow="2"
     inkscape:pageopacity="0.0"
     borderopacity="1.0"
     bordercolor="#666666"
     pagecolor="#ffffff"
     id="base" />
  <metadata
     id="metadata652">
    <rdf:RDF>
      <cc:Work
         rdf:about="">
        <dc:format>image/svg+xml</dc:format>
        <dc:type
           rdf:resource="http://purl.org/dc/dcmitype/StillImage" />
        <dc:title></dc:title>
      </cc:Work>
    </rdf:RDF>
  </metadata>
  <g
     id="layer1"
     inkscape:groupmode="layer"
     inkscape:label="Layer 1">
    <path
       inkscape:export-ydpi="96"
       inkscape:export-xdpi="96"
       style="fill:#3f3a37;fill-opacity:1;stroke-width:0.410652"
       inkscape:connector-curvature="0"
       d="m 87.520117,159.13796 h 2.714382 l -0.449641,-2.10582 v -12.5544 h -2.596571 v 5.7261 c -0.781039,-0.90507 -1.85529,-1.43604 -3.123811,-1.43604 -2.596949,0 -4.607488,2.1444 -4.607488,5.29331 0,3.14847 2.010539,5.29327 4.607488,5.29327 1.288622,0 2.401091,-0.55108 3.182562,-1.49599 l 0.272989,1.27917 z m 51.328083,-7.55598 c 0.52729,0 1.01513,0.13698 1.46399,0.45171 l 1.2303,-2.77395 c -0.56671,-0.35478 -1.2303,-0.51165 -1.87423,-0.51165 -1.1716,0 -2.14767,0.52974 -2.77189,1.5153 l -0.27389,-1.28043 h -2.67496 l 0.42955,1.98756 v 8.16579 h 2.59531 v -6.47307 c 0.35149,-0.66934 1.01551,-1.08207 1.87461,-1.08207 v 8.2e-4 z m 7.61347,5.03706 c -1.50215,0 -2.61585,-1.00323 -2.61585,-2.55837 0,-1.57401 1.1137,-2.55753 2.61585,-2.55753 1.52352,0 2.61708,0.98352 2.61708,2.55753 0,1.55514 -1.09356,2.55837 -2.61666,2.55837 z m -64.486563,-2.55837 c 0,-1.57401 1.11285,-2.55753 2.61584,-2.55753 1.523531,0 2.616671,0.98352 2.616671,2.55753 0,1.55514 -1.09314,2.55837 -2.615851,2.55837 -1.502979,0 -2.61666,-1.00323 -2.61666,-2.55837 z m 75.986853,2.55837 c -1.503,0 -2.61585,-1.00323 -2.61585,-2.55837 0,-1.57401 1.11285,-2.55753 2.61585,-2.55753 1.52268,0 2.61582,0.98352 2.61582,2.55753 0,1.55514 -1.09314,2.55837 -2.61582,2.55837 z m -61.421882,-5.27358 c 1.34693,0 2.225699,0.62954 2.49877,1.79045 h -4.997612 c 0.292841,-1.16091 1.171171,-1.79045 2.498403,-1.79045 z m 31.061612,0 c 1.34775,0 2.22652,0.62954 2.49964,1.79045 h -4.99761 c 0.29279,-1.16091 1.17117,-1.79045 2.49842,-1.79045 z m -12.66983,7.7925 h 4.17798 l 2.7144,-10.15374 h -2.83104 l -1.99081,8.22536 -1.99162,-8.22536 h -2.79243 l 2.7144,10.15334 z m -6.69683,0 h 2.59526 v -10.15414 h -2.59526 z m -11.297053,0.1881 c 1.44549,0 2.870451,-0.3942 4.061333,-1.1613 l -0.9954,-2.24298 c -0.937532,0.49199 -1.971982,0.78722 -3.026513,0.78722 -1.366218,0 -2.323079,-0.53136 -2.73331,-1.51532 h 7.301423 c 0.0782,-0.37368 0.1179,-0.74736 0.1179,-1.20033 0,-3.14842 -2.167013,-5.25385 -5.076453,-5.25385 -2.927959,0 -5.075709,2.12512 -5.075709,5.29327 0,3.22694 2.128039,5.29329 5.42762,5.29329 z m 66.158753,-5.26536 c 0,-3.14847 -2.18669,-5.29329 -5.13477,-5.29329 -2.94845,0 -5.13477,2.14482 -5.13477,5.29329 0,3.14889 2.18632,5.29331 5.13436,5.29331 2.94849,0 5.13477,-2.14442 5.13477,-5.29331 z m -35.14269,5.29331 c 1.44387,0 2.86921,-0.39339 4.06134,-1.16091 l -0.99665,-2.24423 c -0.93711,0.49199 -1.97193,0.78683 -3.02652,0.78683 -1.36621,0 -2.32302,-0.53057 -2.7333,-1.5153 h 7.30223 c 0.0782,-0.37368 0.11623,-0.74741 0.11623,-1.19993 0,-3.14845 -2.16742,-5.25387 -5.07645,-5.25387 -2.92793,0 -5.07564,2.12471 -5.07564,5.29329 0,3.22691 2.12837,5.29331 5.42795,5.29331 v 8.3e-4 z m 18.50805,0 c 2.94847,0 5.13435,-2.14442 5.13435,-5.29331 0,-3.14847 -2.18628,-5.29329 -5.13477,-5.29329 -2.94845,0 -5.13476,2.14482 -5.13476,5.29329 0,3.14889 2.18669,5.29331 5.13437,5.29331 z M 103.315,159.13778 h 2.59614 v -14.66021 h -2.59657 v 14.66021 z m 6.22748,-11.55159 c 0.91744,0 1.62044,-0.70878 1.62044,-1.65328 0,-0.94451 -0.70218,-1.65284 -1.62,-1.65284 -0.93709,0 -1.64016,0.70833 -1.64016,1.65284 0,0.9445 0.70345,1.65288 1.6406,1.65288 z m -44.608153,-12.34953 -1.48656,14.06975 -2.53579,-11.86208 -7.95017,1.68121 2.53451,11.86126 -11.46209,2.42281 2.02451,9.47499 20.1564,4.26009 4.609581,-10.29586 2.193679,-20.76662 -8.08491,-0.84594 8.47e-4,8.1e-4 z m -6.36921,20.41061 c -0.41556,0.37863 -0.96505,0.34371 -1.54816,0.15048 -0.5819,-0.19237 -0.8406,-0.89235 -0.6201,-1.73871 0.16452,-0.62829 0.93753,-0.72273 1.32439,-0.7293 0.14688,-10e-4 0.2916,0.027 0.42501,0.0872 0.2736,0.1233 0.73671,0.38601 0.83072,0.78682 0.13572,0.57819 0.008,1.06358 -0.41063,1.44221 h -8.2e-4 v 8.2e-4 z m 5.83535,0.65295 c -0.30182,0.5215 -1.0944,0.59049 -1.87421,0.21082 -0.52564,-0.25621 -0.52152,-0.90835 -0.46404,-1.30584 a 1.2286678,1.2286678 0 0 1 0.2547,-0.59301 c 0.18788,-0.2364 0.50099,-0.54492 0.86319,-0.55437 0.58887,-0.0162 1.09562,0.2472 1.38186,0.72276 0.2874,0.47388 0.14382,0.99666 -0.15912,1.51941 z"
       fill-rule="nonzero"
       fill="#00CCBC"
       id="path10" />
  </g>
</svg>
