<?xml version="1.0" encoding="UTF-8"?>
<svg width="284px" height="284px" viewBox="0 0 284 284" version="1.1" xmlns="http://www.w3.org/2000/svg" xmlns:xlink="http://www.w3.org/1999/xlink">
    <!-- Generator: Sketch 47.1 (45422) - http://www.bohemiancoding.com/sketch -->
    <title>logo</title>
    <desc>Created with Sketch.</desc>
    <defs></defs>
    <g id="Page-1" stroke="none" stroke-width="1" fill="none" fill-rule="evenodd">
        <g id="logo">
            <polygon id="Fill-1" fill="#FEFEFE" points="5.837 275.754 278.837 275.754 278.837 6.754 5.837 6.754"></polygon>
            <g id="Group-6" transform="translate(38.000000, 109.459000)" fill="#12110C">
                <path d="M176.1797,1.1855 L171.4787,1.1855 L171.4787,7.4315 L171.9937,18.5815 L164.2407,1.1855 L159.5387,1.1855 L159.5387,27.5725 L164.2407,27.5725 L164.2407,20.8455 L163.8277,10.8285 L171.5817,27.5725 L176.1797,27.5725 L176.1797,1.1855 Z M143.4827,23.6265 C140.0507,23.6265 139.3987,22.1835 139.3987,19.6795 L139.3987,8.9745 C139.3987,6.5725 140.0507,5.0295 143.4827,5.0295 C147.1527,5.0295 147.7697,6.5725 147.7697,8.9745 L147.7697,19.6795 C147.7697,22.1835 146.9117,23.6265 143.4827,23.6265 L143.4827,23.6265 Z M143.4827,27.8125 C149.7597,27.8125 152.5057,25.3765 152.5057,19.9215 L152.5057,8.7345 C152.5057,3.1425 149.8637,0.8415 143.4827,0.8415 C137.0997,0.8415 134.6617,3.1425 134.6617,8.7345 L134.6617,19.9215 C134.6617,25.3765 137.2007,27.8125 143.4827,27.8125 L143.4827,27.8125 Z M122.5857,27.6075 L127.3557,27.6075 L127.3557,1.1855 L122.5857,1.1855 L122.5857,27.6075 Z M114.7617,1.5975 L110.0627,1.5975 L110.0627,12.8185 L101.8257,12.8185 L101.8257,1.5975 L97.0587,1.5975 L97.0587,27.6075 L101.8257,27.6075 L101.8257,17.1405 L110.0627,17.1405 L110.0627,27.5725 L114.7617,27.5725 L114.7617,1.5975 Z M85.3927,8.0485 L90.1617,8.0485 C89.7167,2.7635 86.5607,1.0155 81.7887,1.0155 C76.3667,1.0155 73.3497,3.5875 73.3497,8.5275 C73.3497,13.9845 76.5057,15.4585 79.4907,15.8375 C82.3047,16.2145 86.0097,16.2145 86.0097,19.3355 C86.0097,22.3225 84.7067,23.5235 81.8597,23.5235 C78.8397,23.5235 77.9477,22.4255 77.8457,20.4005 L73.0747,20.4005 C73.0747,24.6565 75.1677,27.8475 81.7557,27.8475 C88.1037,27.8475 90.7457,25.2735 90.7457,19.1655 C90.7457,13.8805 87.8277,12.6465 84.7757,12.1655 C80.7597,11.5485 78.1187,11.8225 78.1187,8.4945 C78.1187,5.9905 79.1817,5.1655 81.7887,5.1655 C84.0877,5.1655 85.2557,5.8185 85.3927,8.0485 L85.3927,8.0485 Z M57.2207,18.2735 L59.4177,8.4945 L61.6137,18.2735 L57.2207,18.2735 Z M61.8207,1.1855 L57.1167,1.1855 L49.8107,27.5725 L54.6817,27.5725 L56.0547,22.9045 L62.8167,22.9045 L64.1527,27.5725 L69.0257,27.5725 L61.8207,1.1855 Z M46.7577,1.1505 L31.2817,1.1505 L31.2817,27.6075 L35.9827,27.6075 L35.9827,16.3515 L45.1097,16.3515 L45.1097,12.0625 L35.9827,12.0625 L35.9827,5.4745 L46.7577,5.4745 L46.7577,1.1505 Z" id="Fill-2"></path>
                <path d="M207.1289,33.4844 L202.4279,33.4844 L202.4279,39.7284 L202.9429,50.8804 L195.1879,33.4844 L190.4879,33.4844 L190.4879,59.8714 L195.1879,59.8714 L195.1879,53.1444 L194.7769,43.1274 L202.5309,59.8714 L207.1289,59.8714 L207.1289,33.4844 Z M175.2889,55.9234 C171.8579,55.9234 171.2029,54.4844 171.2029,51.9784 L171.2029,41.2734 C171.2029,38.8714 171.8579,37.3284 175.2889,37.3284 C178.9609,37.3284 179.5779,38.8714 179.5779,41.2734 L179.5779,51.9784 C179.5779,54.4844 178.7189,55.9234 175.2889,55.9234 L175.2889,55.9234 Z M175.2889,60.1114 C181.5669,60.1114 184.3129,57.6754 184.3129,52.2184 L184.3129,41.0334 C184.3129,35.4414 181.6699,33.1404 175.2889,33.1404 C168.9059,33.1404 166.4709,35.4414 166.4709,41.0334 L166.4709,52.2184 C166.4709,57.6754 169.0079,60.1114 175.2889,60.1114 L175.2889,60.1114 Z M155.0779,59.9064 L159.8479,59.9064 L159.8479,33.4844 L155.0779,33.4844 L155.0779,59.9064 Z M149.5219,33.5524 L133.8729,33.5524 L133.8729,37.7734 L139.3649,37.7734 L139.3649,59.8714 L144.0649,59.8714 L144.0649,37.7734 L149.5219,37.7734 L149.5219,33.5524 Z M124.0629,51.8084 C124.0629,54.3124 122.7229,55.9234 119.9099,55.9234 C117.0959,55.9234 115.9979,54.3124 115.9979,51.8084 L115.9979,33.4844 L111.2639,33.4844 L111.2639,52.0464 C111.2639,57.5024 114.3519,60.1114 119.9099,60.1114 C125.4689,60.1114 128.7969,57.5024 128.7969,52.0464 L128.7969,33.4844 L124.0629,33.4844 L124.0629,51.8084 Z M105.8769,55.5464 L95.6879,55.5464 L95.6879,33.4514 L90.9159,33.4514 L90.9159,59.8714 L105.8769,59.8714 L105.8769,55.5464 Z M75.1679,55.9234 C71.7359,55.9234 71.0839,54.4844 71.0839,51.9784 L71.0839,41.2734 C71.0839,38.8714 71.7359,37.3284 75.1679,37.3284 C78.8379,37.3284 79.4569,38.8714 79.4569,41.2734 L79.4569,51.9784 C79.4569,54.4844 78.5999,55.9234 75.1679,55.9234 L75.1679,55.9234 Z M75.1679,60.1114 C81.4469,60.1114 84.1909,57.6754 84.1909,52.2184 L84.1909,41.0334 C84.1909,35.4414 81.5509,33.1404 75.1679,33.1404 C68.7849,33.1404 66.3479,35.4414 66.3479,41.0334 L66.3479,52.2184 C66.3479,57.6754 68.8869,60.1114 75.1679,60.1114 L75.1679,60.1114 Z M57.2209,33.4844 L54.9239,41.4784 L52.4859,53.8984 L50.0159,41.5484 L47.7169,33.4844 L42.8809,33.4844 L50.0159,59.9064 L54.9569,59.9064 L62.0609,33.4844 L57.2209,33.4844 Z M23.0839,33.4514 L23.0839,59.9064 L38.7619,59.9064 L38.7619,55.5804 L27.8179,55.5804 L27.8179,48.6154 L36.7379,48.6154 L36.7379,44.3614 L27.8179,44.3614 L27.8179,37.5664 L38.2829,37.5664 L38.2829,33.4514 L23.0839,33.4514 Z M5.0329,46.2144 L5.0329,37.8084 L7.0589,37.8084 C10.7289,37.8084 11.3809,39.1134 11.3809,41.6174 L11.3809,42.5094 C11.3809,45.0114 10.4219,46.2144 6.9899,46.2144 L5.0329,46.2144 Z M17.5939,59.8714 L11.7949,49.8184 C14.9859,48.7894 16.3579,46.6584 16.3579,42.7484 L16.3579,41.3754 C16.3579,35.7834 13.3729,33.4514 6.9899,33.4514 L0.3339,33.4514 L0.3339,59.8714 L5.0679,59.8714 L5.0679,50.5704 L6.8179,50.5704 L12.0679,59.8714 L17.5939,59.8714 Z" id="Fill-4"></path>
            </g>
            <path d="M0.187,283.274 L283.275,283.274 L283.275,0.188 L0.187,0.188 L0.187,283.274 Z M13.562,269.889 L269.898,269.889 L269.898,13.571 L13.562,13.571 L13.562,269.889 Z" id="Fill-7" fill="#12110C"></path>
        </g>
    </g>
</svg>