<svg xmlns:xlink="http://www.w3.org/1999/xlink" xmlns="http://www.w3.org/2000/svg" viewBox="0 0 400 400"  aria-hidden="true" focusable="false" class="vivid-tangelo" id="gno-head" width="646"  height="646" >
										<path class="white" d="M340.1 73.3c-13.7-23.8-34.3-42.9-59.7-55.5C258 6.8 232.5 1 206.7 1c-0.1 0-0.3 0-0.4 0 -3.9 0-7.8 0.2-11.6 0.4 -20.8 1.5-40.4 6.6-58.3 15.3 -22.5 11-41.9 28.1-54.6 48.2C66 89.9 65.2 119.7 66.1 135.2c0.1 2.1 0.3 4.2 0.4 6.4 0.6 8.1 1.1 15.8 0.1 22.8 -0.8 5.5-3.9 11.2-7.5 17.7 -1.2 2.3-2.5 4.6-3.8 7.1 0 0-0.2 0.5-1 1.5 -0.7 0.9-1.5 1.9-2.4 3 -1 1.2-2 2.5-3 3.9 -2.8 3.8-10.3 13.9-7.2 26 2.7 10.7 11.4 14.7 17.9 16.5 1 6.2 5.2 10.5 10 13 -1.4 5.1-1 10.4 1.3 15 0.8 1.7 1.9 3.3 3.2 4.7 -0.9 6-1.6 13.1 0.8 20.9 3.7 12.3 13.1 20.9 26.6 24.1 9.7 2.3 20.5 2.3 30.6 0 2.7-0.6 5.3-1.4 7.7-2.2 3.3-1.1 7.1-2.2 9-2 0 0 3.4 1.4 6.3 14.5 -1.2 0.9-2.9 2-4.1 2.9 -5.8 3.8-13.8 9.1-17.2 18.6 -0.5 1.2-0.8 2.5-1 3.8 -1.3 7.5 0.3 19 15.9 31.6 6.5 5.3 14.4 9.1 23.5 11.4 7.3 1.8 14.7 2.5 21.8 2.5 11.4 0 21.9-1.8 29.9-3.4 4-0.8 8.1-1.6 12.5-2.4 24.5-4.7 52.4-10.1 75.3-23.3 2.4-1.4 8-4.6 10.3-12.1 1.6-5 1.2-10.7-1.2-17l-0.1-0.3c-1.4-3.8-2.5-8.4-3.2-13.7l-0.2-1.2c-0.1-0.7-0.2-1.2-0.3-2.4 -0.6-5.4-1-14-1-19.7 0-6.2 0.3-14.2 0.9-21l0.1-1.7c0.2-2.1 0.7-6.1 1-8.9 0.3-2.5 0.6-4.9 0.8-6.7 0.1-1 0.2-1.8 0.3-2.3 0-0.3 0-0.5 0.1-0.8 1.3-8.5 2.6-13.9 3-15.2 3.1-7.6 7.6-16.2 12.3-25.3 10.1-19.3 21.6-41.1 24.1-63.1l0-0.3c0.2-1.9 0.3-3.8 0.4-5.6C360 124.1 353.5 96.7 340.1 73.3z" fill="#E8E6E3"></path>
										<path d="M170.4 327.4c-2.1-11-6.7-27.4-20-28.9 -7.4-0.8-14.8 2.9-21.8 4.5 -7.5 1.7-16 1.9-23.5 0 -7.5-1.8-13.3-6-15.5-13.6 -2.4-8.1 0.4-16 1.2-24.1 -6-1.2-7.8-5.3-5.8-9.4 -2.1 4.2-0.3 8.3 5.7 9.5 -0.8 8.1-3.6 16-1.2 24.1 2.3 7.6 8 11.8 15.5 13.6 7.6 1.8 16 1.7 23.5 0 7.1-1.6 14.4-5.4 21.8-4.5C163.6 300.1 168.2 316.5 170.4 327.4c0.2 1.4 0.3 2.5 0.2 3.6C170.7 329.9 170.6 328.7 170.4 327.4z" fill="#FF691A"></path>
										<path d="M81.8 166.5c1.5-10.7 0.2-21.5-0.5-32.2 -1.2-20.5 2.1-43.5 13.3-61.2 11.6-18.3 29-33.2 48.3-42.6 16.3-8 34.4-12.5 52.7-13.8 -18.3 1.3-36.3 5.9-52.7 13.8 -19.4 9.4-36.8 24.3-48.4 42.6 -11.2 17.7-14.5 40.7-13.3 61.2C82 145.1 83.3 155.9 81.8 166.5c-1.5 10.9-7.9 20.1-12.8 29.7 -0.6 1.1-1.4 2.4-2.3 3.6 0.9-1.3 1.8-2.5 2.3-3.7C73.9 186.6 80.3 177.4 81.8 166.5z" fill="#FF691A"></path>
										<path d="M273.6 31.6c-20.6-10.2-44-15.3-67.4-15.3C229.6 16.2 253 21.4 273.6 31.6c46.5 22.9 72 68.5 69.9 120.4 -0.1 1.6-0.2 3.2-0.3 4.8 0.2-1.6 0.3-3.2 0.4-4.7C345.7 100.1 320.2 54.5 273.6 31.6z" fill="#FF691A"></path>
										<path d="M61.3 206.8c1.8-2.4 3.8-4.8 5.4-7C65.1 202.1 63.1 204.4 61.3 206.8z" fill="#FF691A"></path>
										<path d="M273.6 31.6c-20.6-10.2-44-15.3-67.3-15.3 -3.5 0-7.1 0.1-10.6 0.4 -18.3 1.3-36.3 5.9-52.7 13.8 -19.4 9.4-36.8 24.3-48.3 42.6 -11.2 17.7-14.5 40.7-13.3 61.2 0.6 10.7 1.9 21.5 0.5 32.2 -1.5 10.9-7.9 20-12.8 29.6 -0.6 1.2-1.4 2.4-2.3 3.7 -1.6 2.2-3.6 4.6-5.4 7 -3.2 4.3-5.8 8.8-4.7 13.1 2.2 8.6 19.3 4.3 19.3 11.5 0 3.9-3.9 6.7 1.8 8.7 4.1 1.4 10.8-0.1 15-0.7 3.3-0.5 6.6-1.1 9.8-2 3.2-0.9 3.6 0 3.2-3 -0.6-5-0.8-11.7-0.5-16.8 0.5-11.2 2.7-22.3 7.1-32.6 3.4-8 9.5-20 19-21.6 -13.2-10.6-21.9-28.9-27.2-44.8 -5.7-17-2-34.9 9-48.9 18.9-24.2 51.5-33.6 80.9-35.9 32.4-2.5 65.3 4.2 91.4 24.3 23.6 18.2 40.8 46.1 42.1 76.3 0.6 14.3-2.5 33.7-11.4 45.4 -9.6 12.7-28.7 7.1-42 5.5 0.2 10.1 0.1 20.3 0.9 30.4 5.9-1.4 23.9-9.5 22.3 2.4 -1.4 10.2-11.8 11.1-20.1 14 -5.6 2-4.3 5.6-4.3 11 0 5.5 0 11.1 0.6 16.6 0.4 3.5 0.2 8.7 3.5 10.6 3.4 1.9 12.7-0.5 16-1.6 4.3-1.5 7.9-4.2 10.8-7.6 1.5-10.2 3.1-17.6 4-19.8 10-24.9 32.2-55.8 35.6-84.6 0.2-1.6 0.3-3.2 0.3-4.8C345.6 100.1 320.1 54.5 273.6 31.6z" fill="#FF691A"></path>
										<path d="M170.5 331c-1.3 10.7-18.9 13.6-22.6 23.8 -0.2 0.4-0.3 0.9-0.4 1.4 0.1-0.4 0.2-0.8 0.3-1.3C151.6 344.7 169.3 341.9 170.5 331z" fill="#FF691A"></path>
										<path d="M87.6 252.5c1.9-1.8 7.6-4.8 14.3-7.6C96.8 246.7 91.6 248.8 87.6 252.5c-1.2 1.1-2.1 2.3-2.7 3.4C85.5 254.8 86.4 253.6 87.6 252.5z" fill="#FF691A"></path>
										<path d="M306.2 346.1c-0.1-0.1-0.1-0.3-0.2-0.4 -1.8-5-3.1-10.6-4-16.7 -0.2-1.8-0.4-2.2-0.6-4.3 -0.6-6-1.1-15.2-1.1-21.2 0-6.7 0.4-15.3 1-22.4 -0.2 0.1-4.1 2.6-4.3 2.7 -8 4.8-23.3 11.5-31.4 4.2 -9-8.1-5.8-24.7-6.5-35.3 -7.4 10.6-24.5 45.1-42.2 32.6 -7.5-5.4-7.6-17-7.2-25.3 0.3-5.7 1.2-11.4 2.4-17 0.5-2.5 4.2-11.5 3-13.8 -7.1 13.3-16.9 37.4-34.3 39.7 -22.5 3-14.4-32.6-11.7-44.2 -3 0.8-6.3 0.9-7.3 3.4 -0.5 1.4 0.2 5.1 0.2 6.5 0 5.8-0.4 11.6-1.5 17.3 -1.8 9.1-5.8 19.6-14.3 24.4 -21.7 12.2-35.4-17-39.1-33.2 -1.6 0.6-3.4 1.2-5.1 1.8 -6.7 2.8-12.4 5.8-14.3 7.6 -1.2 1.1-2.1 2.3-2.7 3.4 -2.1 4.2-0.2 8.2 5.8 9.4 -0.8 8.1-3.6 16-1.2 24.1 2.3 7.6 8 11.8 15.5 13.6 7.6 1.8 16 1.7 23.5 0 7.1-1.6 14.4-5.4 21.8-4.5 13.3 1.5 17.9 17.8 20 28.9 0.3 1.3 0.3 2.5 0.2 3.6 -1.2 10.8-18.9 13.7-22.6 23.9 -0.2 0.4-0.3 0.8-0.3 1.3 -1.2 6.4 5.9 13.3 10.4 17 5.1 4.2 11.2 6.8 17.6 8.4 14.7 3.7 30.3 1.9 45-1 26.7-5.4 58.7-9.9 83.1-24 1.9-1.1 2.9-1.8 3.4-3.4C307.7 351.3 307.1 348.6 306.2 346.1z" fill="#FF691A"></path>
										<path d="M201.5 153.5c-4.9 6.4-0.8 16.2 5.8 19.9 9.3 5.2 15-2.7 17.8-10.8 2.7-8 1.7-15.3 9.8-19.9 0 0 0 0 0 0 2 1.9 1.3 12.7 1.8 15.9 0.7 4.7 1.2 12.1 5.4 15.2 3 2.2 7.3 2.6 8.9-0.7 2.4-4.9 0.7-11.8 3.6-16.9 0 0 0 0 0 0 1.2 6.1 1.5 15 8.1 18.2 7 3.4 13.1-2.9 16.5-8.2 0 0 0 0 0 0 6.7 21.1 24.8 1.8 31-9.1 2.4-4.1 11.7-19.4 6.6-23.4 -4.7-3.7-9.2 11.9-11.6 15.2 -2.8 3.8-12.9 15.7-14.8 6.7 -1.1-5-3.3-21 0.3-24.2 5.4-5 18.3-2 17.9-12.9 -0.3-8-12.8-2.6-17.5-1.3 0 0 0 0 0 0 -0.9-5.8-0.4-12.1-0.6-17.9 -0.1-4.6 1.5-11-4.7-10.5 0 0 0 0 0 0 3.1-11.3 2.6-23.6-7.6-31 -4.5-3.3-10-5.6-15.5-5.9 -9.4-0.6-14.9 1-20 3.4 -0.3-1.8-1-3.5-1.8-5 -7.5-13.8-25.7-6.8-31.1-0.6 -5.7 6.6-5.6 10.2-7.8 15.3 0 0 0 0 0 0 -0.3-0.3-1.8-8.5-2.8-10.9 -4.5-11.8-15.3-14.2-25.7-7.5 -9.3 6-13.2 17.8-14 28.4 -0.3 4.5 1.5 9.5 0.3 13.7 -0.5 1.9-5.2 8.5-6 8.6 0 0 0 0 0 0 -2.1-2.6 1.6-14.8 1.6-14.8 0 0 0 0 0 0 2.8-14 6.2-27-3.6-30.1C140.8 49 130.4 60 125.1 68c-5.6 8.4-11.3 22.4-7.4 32.5 4.5 11.3 18.4 7.7 25.2 0.9 0 0 0 0 0 0 3.9 4.8-14.9 10.5-17.5 12.2 -7.4 4.8-10.5 12.6-6.6 21 3.4 7.3 13.6 14.1 21.7 9.9 3.9-2 6.1-6.6 7.6-10.6 1-2.8 1.4-7.8 4.7-9.2 0 0 0 0 0 0 2.5 10.9-14.5 40-0.4 42.3 4.8 0.8 4.9-8.9 6.3-15.1 1-4.4 2.1-11.7 3.2-16.1 0.3-1.3 1.1-9.2 4.2-11.7 1.5-1.3 3.8-0.1 3.7 1.8 -0.4 11.2-4 33.3 2.4 41 9 10.8 15.7-6.7 17.8-13.1 0 0 0 0 0 0 6.8 8.3 11.9-5.2 14.3-10.4 0 0 0 0 0 0 5.3 3.2 11.1 0.3 11.3 0.8C216 144.7 206.3 147 201.5 153.5zM129.8 129.7c-5.6-7.2 6.4-13.1 11.8-14.9C140.9 119.3 137.4 139.6 129.8 129.7zM148.5 71.8c-1.8 5.8-3.2 9.5-5.8 15 -4 8.5-14.7 15.7-12.6 1.1 0.7-5.2 2.3-10.3 4.9-14.9 1.6-2.9 6.3-11.1 10.5-11C149.9 62.1 149.4 68.8 148.5 71.8zM210.7 162.9c-6.5-4.7 4.8-9.3 7.7-10.5C218.4 155.7 215.4 166.3 210.7 162.9zM275 88.8c-2.6 6.9-10.2 11.7-17.6 12 -5.4 0.2-2.2-3.5 2.8-17.4 1.1-3.1 3.9-11.5 6.5-18.9C266.6 64.5 283.6 65.7 275 88.8zM211.1 73.5c0.3-7.4 4.3-18.6 13.3-18.9 16.1-0.6 9.5 30.3-0.6 34.1C213.7 92.3 210.8 81 211.1 73.5zM183.6 53.8c12.1 0 7.4 45.4-8.1 37 -4.5-2.4-5-7.4-5.3-12.6C169.8 71.2 173 54.5 183.6 53.8zM226.2 116.1c-0.7 2-4.1 13-5 14.7 -1 1.7-5.1 7.9-8 6.1 -2.7-1.6 0.4-9.1 1.2-11.1 1.6-4 4.6-9.5 8.5-11.9C226 112 227.7 112.2 226.2 116.1zM267.2 158.3c-1.8-5.9-0.4-12.7-2.4-18.5 -1.7-4.9-9.1-8.2-11.8-2.9 -1.4 2.7-2.2 5.9-3.1 8.7 -0.7 2.1-1.1 6.5-2.8 7.9 0 0 0 0 0 0 -2.8-10.5 1.9-20.2 1.8-30.6 0-4.3-0.7-8.2-4.7-10.5 -2.8-1.7-3.9 0.4-4.1 1.1 -0.9 3.1-5.4 25.4-9.3 23.9 -0.5-0.2-0.7-0.7-0.7-1.2 0.1-4 6.2-20.6 6.2-20.6 0 0 0.6-1 0.3-2.7s-2.2-8.2-7.9-8.9c-5.9-0.8-11.7 3-15.8 7 -4.4 4.2-7.9 9.7-9.9 15.5 -1.7 5.1-2.3 11.2-5.5 15.7 0 0 0 0 0 0 -1.1-5.5 1.3-13-0.7-18 -2.1-5.2-7.3-6.2-8.5-0.3 -1.3 6.2 0 12.8-1.2 19 -0.4 1.8-4.5 14.5-6.2 14.3 0 0 0 0 0 0 -1.1-7.5-1-15.2-0.8-22.8 0.1-6.3 1.8-14.5-0.2-20.7 -1.2-3.5-4.2-6.6-10-5.9 -5.4 0.6-9.7 2.9-12.5 11.3 0 0 0 0 0 0 -1.5-6-2.3-4.8-4.9-5.6 0 0 0 0 0 0 1.3-5.6 1.8-7.2 5.3-10.9 2-2.2 3.9-5.8 6.2-7.2 0 0 0 0 0 0 5 6.4 12.3 9.8 20.4 7.5 4.3-1.2 7.8-3.9 10.5-7.5 1.3-1.8 4.2-6.5 4.8-8.8 0 0 0 0 0 0 4.7 16.2 23.5 22.9 35.6 8.7 0 0 4.3-6.2 5.7-10.3 3.9-11.6 3.2-20.6 3.2-20.6s7.1-1.2 12-1c-1.9 3.7-3.4 7.9-4.2 9.9 -3.7 9.5-5.6 17.8-9 27.5 -3.7 10.6 5.5 10.7 15.6 10.3 9.2-0.4 17.8-6.8 21.4-9.3 0 0 0 0 0 0 0.4 2.7 2.2 15.4 0.2 17.4 -1.6 1.7-7.1 0.1-9.4 2.1 -2 1.8-2.7 5.8-2.3 8.4 1 6.6 8.2 1.4 9.9 5.3 1 2.3 0 8.9-0.4 11.3 -0.4 2.7-1.3 5.5-2.4 8C274 158.1 269.3 165.3 267.2 158.3z" fill="#FF691A"></path>
										<path d="M140.1 197c-19.8-30.5-23.2 43-9.7 54.1C148.2 265.9 153.5 217.6 140.1 197z" fill="#FF691A"></path>
										<path d="M158.8 207.9c0.3 7.7 0.4 9.2 7.3 6.6 3.9-1.5 6.5-3.8 8-7.6 3.9-10 7.5-20.5 10.9-30.6 -17-2.7-30.2-2-46.3-8.9C145.3 174.6 158.4 193.2 158.8 207.9z" fill="#FF691A"></path>
										<path d="M259 183.2c-2.3-1-5.9-0.8-8.4-1.2 -5.6-0.7-11.2-1.4-16.9-1.9 0-0.1 6.8 6.3 7.3 8.3 1.5 5.4-1 11.6-2.2 16.9 -2.8 11.9-5.1 24.1-7.2 36.2 -1 5.6-4.5 28.1 7.3 20.4 8-5.2 16.3-17.4 20.1-26 -2.7-0.2-9.2 1.1-11.3-1 -2.1-2.1-1-8-0.3-10.6 2.3-7.6 12.3-2.8 14.5-7.8 1.6-3.7 0.5-25.8-0.3-30.3C261.2 182.8 262 184.4 259 183.2z" fill="#FF691A"></path>
										<path d="M198.5 180.9c2 2.4 2.5 5 2.1 8.1 -0.8 6.2-3.4 12.5-5 18.5 -1.7 6.6-3.4 13.1-4.7 19.8 -0.8 4-4.3 16.3-0.4 19.3 5.9 4.6 18.1-25 20-29.4 5.5-12.3 10.8-25.1 14.4-38 -10.4-0.9-20.8-1.5-31.2-2.4C193.5 177.4 197.9 180.3 198.5 180.9z" fill="#FF691A"></path>
										<path d="M196.2 99.3c-5.2-1.1-8.7 5-8.3 9.4 0 10.8 13.9 13.8 14.3 1.7C202.3 106.6 200.7 100.3 196.2 99.3z" fill="#FF691A"></path>
									</svg>