<?xml version="1.0" encoding="utf-8"?>
<!-- Generator: Adobe Illustrator 23.0.3, SVG Export Plug-In . SVG Version: 6.00 Build 0)  -->
<svg version="1.1" id="Layer_1" xmlns="http://www.w3.org/2000/svg" xmlns:xlink="http://www.w3.org/1999/xlink" x="0px" y="0px"
	 viewBox="0 0 283.9 83.2" style="enable-background:new 0 0 283.9 83.2;" xml:space="preserve">
<style type="text/css">
	.st0{fill:#FAB511;}
	.st1{clip-path:url(#SVGID_2_);}
</style>
<rect x="50.1" y="6.4" transform="matrix(0.7071 -0.7071 0.7071 0.7071 4.5963 50.6955)" class="st0" width="26.7" height="26.7"/>
<rect x="71.9" y="28.2" transform="matrix(0.7071 -0.7071 0.7071 0.7071 -4.4116 72.4458)" class="st0" width="26.7" height="26.7"/>
<rect x="50.1" y="49.9" transform="matrix(0.7071 -0.7071 0.7071 0.7071 -26.1602 63.4397)" class="st0" width="26.7" height="26.7"/>
<rect x="93.6" y="49.9" transform="matrix(0.7071 -0.7071 0.7071 0.7071 -13.4202 94.1944)" class="st0" width="26.7" height="26.7"/>
<rect x="28.4" y="28.2" transform="matrix(0.7071 -0.7071 0.7071 0.7071 -17.1517 41.6885)" class="st0" width="26.7" height="26.7"/>
<rect x="6.6" y="49.9" transform="matrix(0.7071 -0.7071 0.7071 0.7071 -38.9004 32.6798)" class="st0" width="26.7" height="26.7"/>
<g>
	<defs>
		<rect id="SVGID_1_" x="1.1" y="0.9" width="281.7" height="81.3"/>
	</defs>
	<clipPath id="SVGID_2_">
		<use xlink:href="#SVGID_1_"  style="overflow:visible;"/>
	</clipPath>
	<path class="st1" d="M229,77.9h8v-2h-5.7v-3.5h4.3v-2h-4.3V67h5.4v-2H229V77.9z M220.3,77.9h2.3V67h4.2v-2h-10.8v2h4.2V77.9z
		 M203.7,73.3c0,2.9,2.1,4.8,5.2,4.8c3.1,0,5.2-2,5.2-4.8V65h-2.3v8.2c0,1.7-1.1,2.7-2.9,2.7c-1.7,0-2.8-1-2.8-2.7V65h-2.3V73.3z
		 M195.1,77.9h2.3V67h4.2v-2h-10.8v2h4.2V77.9z M186.5,77.9h2.3V65h-2.3V77.9z M177.8,77.9h2.3V67h4.2v-2h-10.8v2h4.2V77.9z
		 M163.4,76.3c0,0,1.6,1.8,4.4,1.8c2.7,0,4.2-1.7,4.2-3.8c0-4.1-6.1-3.6-6.1-5.8c0-0.9,0.9-1.5,1.9-1.5c1.6,0,2.8,1.1,2.8,1.1l1-1.9
		c0,0-1.3-1.4-3.8-1.4c-2.5,0-4.3,1.6-4.3,3.7c0,4,6.1,3.6,6.1,5.9c0,1.1-0.9,1.6-1.9,1.6c-1.8,0-3.2-1.4-3.2-1.4L163.4,76.3z
		 M150.2,77.9h2.3v-7.4c0-0.8-0.1-2-0.1-2h0c0,0,0.6,1.3,1.1,2l4.9,7.4h2.3V65h-2.3v7.4c0,0.8,0.1,2,0.1,2h0c0,0-0.6-1.3-1.1-2
		l-4.9-7.4h-2.3V77.9z M144.2,77.9h2.3V65h-2.3V77.9z"/>
	<path class="st1" d="M274.8,57.4h8v-2h-5.7V52h4.3v-2h-4.3v-3.4h5.4v-2h-7.7V57.4z M264.9,50.6v-4h1.8c1.8,0,2.4,0.8,2.4,2
		c0,1.3-0.8,2-2,2H264.9z M262.6,57.4h2.3v-4.8h2.2l2.6,4.8h2.6l-2.6-4.8c-0.3-0.5-0.4-0.6-0.4-0.6v0c1.4-0.5,2.2-2,2.2-3.5
		c0-1.7-0.8-2.9-2.1-3.5c-0.6-0.3-1.2-0.4-2.6-0.4h-4.2V57.4z M248.7,52.8c0,2.9,2.1,4.8,5.2,4.8c3.1,0,5.2-2,5.2-4.8v-8.3h-2.3v8.2
		c0,1.7-1.1,2.7-2.9,2.7c-1.7,0-2.8-1-2.8-2.7v-8.3h-2.3V52.8z M240.1,57.4h2.3V46.6h4.2v-2h-10.8v2h4.2V57.4z M222.8,51
		c0,3.8,2.7,6.7,6.7,6.7c3.3,0,5.1-2.1,5.1-2.1l-1.2-1.7c0,0-1.5,1.6-3.7,1.6c-2.7,0-4.3-2.2-4.3-4.6c0-2.4,1.6-4.4,4.3-4.4
		c2.1,0,3.5,1.4,3.5,1.4l1.1-1.7c0,0-1.6-1.8-4.8-1.8C225.6,44.3,222.8,47.2,222.8,51 M213,57.4h8v-2h-5.7V52h4.3v-2h-4.3v-3.4h5.4
		v-2H213V57.4z M204.4,57.4h2.3V46.6h4.2v-2h-10.8v2h4.2V57.4z M195.7,57.4h2.3V44.6h-2.3V57.4z M181.5,57.4h2.3V52h5.9v5.4h2.3
		V44.6h-2.3V50h-5.9v-5.5h-2.3V57.4z M167.4,51c0,3.8,2.7,6.7,6.7,6.7c3.3,0,5.1-2.1,5.1-2.1l-1.2-1.7c0,0-1.5,1.6-3.7,1.6
		c-2.7,0-4.3-2.2-4.3-4.6c0-2.4,1.6-4.4,4.3-4.4c2.1,0,3.5,1.4,3.5,1.4l1.1-1.7c0,0-1.6-1.8-4.8-1.8C170.3,44.3,167.4,47.2,167.4,51
		 M158.6,50.6v-4h1.8c1.8,0,2.4,0.8,2.4,2c0,1.3-0.8,2-2,2H158.6z M156.2,57.4h2.3v-4.8h2.2l2.6,4.8h2.6l-2.6-4.8
		c-0.3-0.5-0.4-0.6-0.4-0.6v0c1.4-0.5,2.2-2,2.2-3.5c0-1.7-0.8-2.9-2.1-3.5c-0.6-0.3-1.2-0.4-2.6-0.4h-4.2V57.4z M148.4,46.8
		c0,0,0.3,1.3,0.5,2l1.1,3.4h-3.4l1.1-3.4C148.1,48.1,148.4,46.8,148.4,46.8L148.4,46.8z M151.7,57.4h2.4l-4.5-12.9h-2.4l-4.5,12.9
		h2.4l1.1-3.3h4.5L151.7,57.4z"/>
	<path class="st1" d="M261.6,37h2.3v-7.4c0-0.8-0.1-2-0.1-2h0c0,0,0.6,1.3,1.1,2l4.9,7.4h2.3V24.1h-2.3v7.4c0,0.8,0.1,2,0.1,2h0
		c0,0-0.6-1.3-1.1-2l-4.9-7.4h-2.3V37z M247.9,30.5c0-2.5,1.9-4.4,4.2-4.4c2.4,0,4.2,1.9,4.2,4.4c0,2.6-1.9,4.6-4.2,4.6
		C249.8,35.1,247.9,33.1,247.9,30.5 M245.5,30.5c0,3.8,2.9,6.7,6.7,6.7c3.8,0,6.7-3,6.7-6.7c0-3.7-2.9-6.6-6.7-6.6
		C248.4,23.9,245.5,26.8,245.5,30.5 M240.4,37h2.3V24.1h-2.3V37z M231.7,37h2.3V26.1h4.2v-2h-10.8v2h4.2V37z M222.4,26.4
		c0,0,0.3,1.3,0.5,2l1.1,3.4h-3.4l1.1-3.4C222,27.6,222.3,26.4,222.4,26.4L222.4,26.4z M225.7,37h2.4l-4.5-12.9h-2.4L216.6,37h2.4
		l1.1-3.3h4.5L225.7,37z M201.2,37h2.3l0.5-7.2c0.1-0.9,0-2,0-2h0c0,0,0.4,1.3,0.7,2l2.1,5h2.1l2.1-5c0.3-0.7,0.7-2,0.7-2h0
		c0,0,0,1.1,0,2l0.5,7.2h2.3l-1-12.9h-2.5l-2.5,6.4c-0.3,0.8-0.6,1.9-0.6,1.9h0c0,0-0.4-1.1-0.7-1.9l-2.5-6.4h-2.5L201.2,37z
		 M191.7,30.2v-4h1.8c1.8,0,2.4,0.8,2.4,2c0,1.3-0.8,2-2,2H191.7z M189.4,37h2.3v-4.8h2.2l2.6,4.8h2.6l-2.6-4.8
		c-0.3-0.5-0.4-0.6-0.4-0.6v0c1.4-0.5,2.2-2,2.2-3.5c0-1.7-0.8-2.9-2.1-3.5c-0.6-0.3-1.2-0.4-2.6-0.4h-4.2V37z M175.6,30.5
		c0-2.5,1.9-4.4,4.2-4.4c2.4,0,4.2,1.9,4.2,4.4c0,2.6-1.9,4.6-4.2,4.6C177.5,35.1,175.6,33.1,175.6,30.5 M173.2,30.5
		c0,3.8,2.9,6.7,6.7,6.7c3.8,0,6.7-3,6.7-6.7c0-3.7-2.9-6.6-6.7-6.6C176.1,23.9,173.2,26.8,173.2,30.5 M164.3,37h2.3v-5.2h4.3v-2
		h-4.3v-3.6h5.1v-2h-7.4V37z M150.2,37h2.3v-7.4c0-0.8-0.1-2-0.1-2h0c0,0,0.6,1.3,1.1,2l4.9,7.4h2.3V24.1h-2.3v7.4
		c0,0.8,0.1,2,0.1,2h0c0,0-0.6-1.3-1.1-2l-4.9-7.4h-2.3V37z M144.2,37h2.3V24.1h-2.3V37z"/>
</g>
<path d="M169.8,16.6h8v-2h-5.7v-3.5h4.3v-2h-4.3V5.7h5.4v-2h-7.7V16.6z M155.6,16.6h2.3v-5.4h5.9v5.4h2.3V3.7h-2.3v5.5h-5.9V3.7
	h-2.3V16.6z M146.9,16.6h2.3V5.7h4.2v-2h-10.8v2h4.2V16.6z"/>
</svg>
