<?xml version="1.0" encoding="UTF-8" standalone="no"?>
<svg
   xmlns:dc="http://purl.org/dc/elements/1.1/"
   xmlns:cc="http://creativecommons.org/ns#"
   xmlns:rdf="http://www.w3.org/1999/02/22-rdf-syntax-ns#"
   xmlns:svg="http://www.w3.org/2000/svg"
   xmlns="http://www.w3.org/2000/svg"
   xmlns:sodipodi="http://sodipodi.sourceforge.net/DTD/sodipodi-0.dtd"
   xmlns:inkscape="http://www.inkscape.org/namespaces/inkscape"
   sodipodi:docname="Just Eat.svg"
   inkscape:version="1.0beta2 (2b71d25, 2019-12-03)"
   id="svg759"
   version="1.1"
   viewBox="0 0 210 297"
   height="297mm"
   width="210mm">
  <defs
     id="defs753" />
  <sodipodi:namedview
     inkscape:window-maximized="0"
     inkscape:window-y="23"
     inkscape:window-x="0"
     inkscape:window-height="784"
     inkscape:window-width="1440"
     showgrid="false"
     inkscape:document-rotation="0"
     inkscape:current-layer="layer1"
     inkscape:document-units="mm"
     inkscape:cy="560"
     inkscape:cx="400"
     inkscape:zoom="0.35"
     inkscape:pageshadow="2"
     inkscape:pageopacity="0.0"
     borderopacity="1.0"
     bordercolor="#666666"
     pagecolor="#ffffff"
     id="base" />
  <metadata
     id="metadata756">
    <rdf:RDF>
      <cc:Work
         rdf:about="">
        <dc:format>image/svg+xml</dc:format>
        <dc:type
           rdf:resource="http://purl.org/dc/dcmitype/StillImage" />
        <dc:title></dc:title>
      </cc:Work>
    </rdf:RDF>
  </metadata>
  <g
     id="layer1"
     inkscape:groupmode="layer"
     inkscape:label="Layer 1">
    <g
       inkscape:export-ydpi="96"
       inkscape:export-xdpi="96"
       transform="matrix(0.22413,0,0,0.22413,-10.020565,160.15697)"
       style="fill:#3f3a37;fill-opacity:1"
       id="g1107">
      <path
         style="fill:#3f3a37;fill-opacity:1;fill-rule:evenodd;stroke-width:1.6115"
         d="m 1416.3424,-225.50287 c -1.9749,-1.38329 -4.8265,-4.82787 -6.3369,-7.65462 -5.4941,-10.28277 -13.2858,-32.67598 -13.3177,-38.27508 -0.04,-6.95784 4.5207,-10.83621 17.6937,-15.0477 19.6075,-6.26857 35.3055,-15.21229 46.6996,-26.60639 10.5471,-10.54709 20.954,-28.04372 21.0008,-35.30757 0.01,-1.48923 1.0554,-6.12812 2.324,-10.30867 1.2687,-4.18054 3.0655,-13.24521 3.9929,-20.14373 0.9275,-6.8985 3.1158,-20.51966 4.8629,-30.26922 1.7471,-9.74957 4.991,-28.24151 7.2087,-41.09321 2.2177,-12.8517 5.8884,-33.51916 8.1572,-45.9277 2.2687,-12.40854 4.1093,-25.28038 4.0902,-28.60409 l -0.035,-6.04312 h -33.0357 c -31.5081,0 -33.1936,-0.15795 -36.4513,-3.41564 -2.8846,-2.88461 -3.2515,-4.57573 -2.3597,-10.87761 0.5807,-4.10409 1.7187,-12.5382 2.5287,-18.74247 1.7741,-13.5883 5.5847,-25.05582 9.2373,-27.79834 2.044,-1.53472 18.3332,-2.01437 68.4091,-2.01437 h 65.7262 l 2.6419,4.03189 c 3.2326,4.93368 2.4723,15.61842 -3.3825,47.53605 -3.8595,21.04031 -8.7277,49.17636 -15.4747,89.43815 -1.7824,10.63589 -5.0165,28.76525 -7.1869,40.28746 -2.1704,11.52221 -3.9301,22.76241 -3.9104,24.97822 0.1073,12.07025 -13.2621,61.05896 -21.3837,78.35504 -3.6632,7.80124 -4.9958,10.07409 -15.0021,25.5866 -4.8765,7.55989 -23.3542,26.22022 -33.8373,34.17172 -8.1682,6.19562 -30.5808,16.48808 -46.7264,21.45802 -17.8375,5.49073 -21.145,5.78009 -26.133,2.28638 z"
         id="path1086"
         inkscape:connector-curvature="0"
         transform="scale(0.26458333)" />
      <path
         style="fill:#3f3a37;fill-opacity:1;fill-rule:evenodd;stroke-width:1.6115"
         d="m 1685.919,-282.55355 c -7.0906,-1.54789 -16.2968,-4.37008 -20.4582,-6.27152 -4.1614,-1.90144 -7.976,-3.45716 -8.4769,-3.45716 -1.7655,0 -17.8748,-11.74379 -24.0319,-17.5194 -6.5553,-6.14906 -20.3562,-24.04881 -20.3562,-26.4019 0,-0.75762 -1.5666,-4.78227 -3.4814,-8.94367 -4.1015,-8.91396 -7.7215,-29.19521 -7.7669,-43.5145 -0.036,-11.4305 1.4734,-23.18666 7.179,-55.90712 2.1638,-12.40853 5.8155,-33.43858 8.1151,-46.73344 2.2995,-13.29487 5.9289,-33.96233 8.0653,-45.92771 2.1364,-11.96537 4.2581,-25.01851 4.7148,-29.00696 1.3168,-11.50051 4.0845,-19.4454 8.2117,-23.57256 3.7141,-3.71409 4.5801,-3.82291 30.4231,-3.82291 25.2889,0 26.7622,0.17386 29.886,3.52686 1.8071,1.93977 3.2905,5.38435 3.2964,7.65462 0.016,6.0392 -2.9091,26.87076 -7.2538,51.66695 -2.0965,11.96537 -5.7121,32.99542 -8.0346,46.73345 -2.3225,13.73802 -5.5783,32.59255 -7.2351,41.89895 -6.2544,35.13334 -7.2304,47.18266 -4.8455,59.82228 2.7265,14.45018 8.6921,22.87548 20.9696,29.61588 8.5103,4.67215 9.5095,4.83449 29.7554,4.83449 19.6222,0 21.4692,-0.27423 29.1521,-4.32813 16.9892,-8.96447 25.4138,-24.27896 31.7492,-57.71455 2.2672,-11.96538 6.0514,-32.99543 8.4094,-46.73345 7.9515,-46.32627 12.3273,-71.60934 16.1765,-93.4669 2.1072,-11.96538 4.2496,-24.45328 4.761,-27.75091 0.5113,-3.29762 2.7783,-8.19255 5.0376,-10.87761 l 4.1079,-4.88193 h 26.0879 c 33.1907,0 33.2506,0.0313 33.2522,17.41498 7e-4,6.81875 -1.7618,21.825 -3.9167,33.34721 -2.1548,11.52221 -5.4667,30.37674 -7.3599,41.89896 -1.893,11.52221 -5.1749,30.73932 -7.293,42.7047 -2.118,11.96537 -5.7666,32.63284 -8.1078,45.9277 -8.9979,51.09387 -21.387,80.41695 -42.471,100.52238 -16.6411,15.86863 -35.3449,24.55697 -62.9956,29.26294 -22.6886,3.86144 -47.5772,3.86142 -65.2657,-2e-5 z"
         id="path1088"
         inkscape:connector-curvature="0"
         transform="scale(0.26458333)" />
      <path
         style="fill:#3f3a37;fill-opacity:1;fill-rule:evenodd;stroke-width:1.6115"
         d="m 1938.8303,-283.47227 c -27.7197,-2.15004 -42.362,-4.58635 -49.4597,-8.22951 -3.9144,-2.00927 -4.4204,-3.16315 -4.336,-9.88795 0.053,-4.18728 1.7148,-15.78556 3.6938,-25.77396 2.9209,-14.7417 4.4063,-18.96869 7.8899,-22.4523 l 4.2916,-4.29156 21.4244,2.94781 c 26.8522,3.69462 83.1331,5.20569 96.433,2.5891 21.5671,-4.24307 33.7675,-13.86688 33.7675,-26.63618 0,-12.65405 -10.6504,-20.52588 -39.4817,-29.18132 -63.3019,-19.00385 -88.5964,-34.84921 -100.8561,-63.17982 -4.992,-11.53587 -5.3864,-13.70101 -5.3518,-29.37455 0.031,-14.00503 0.7701,-19.0631 4.2894,-29.35357 10.8253,-31.65395 30.6692,-49.7574 69.6886,-63.57631 l 12.892,-4.56576 57.2081,0.1999 c 61.0414,0.2133 67.6035,0.9116 74.1611,7.89179 4.817,5.1275 4.8623,14.46814 0.1718,35.41876 -2.7229,12.16216 -4.0788,15.24806 -8.3992,19.1158 l -5.1521,4.61232 -20.3189,-1.38932 c -11.1754,-0.76413 -34.8224,-1.38932 -52.5489,-1.38932 -27.9064,0 -33.3109,0.41495 -40.2874,3.09322 -9.3869,3.60354 -13.1661,6.51344 -16.28,12.53505 -5.0433,9.75264 -1.5289,20.85511 9.0204,28.49701 6.9431,5.02954 9.5796,6.13975 27.4033,11.53924 33.8857,10.26531 49.2341,16.26855 66.0714,25.84256 5.1594,2.93374 21.3695,16.1076 22.9994,18.69156 0.6843,1.08483 2.2421,2.97028 3.4617,4.18991 1.2196,1.21962 4.5,6.73906 7.2897,12.2654 4.2903,8.49916 5.2163,12.45434 6.0073,25.66039 1.5799,26.37621 -2.6926,43.84946 -15.0478,61.54019 -7.2881,10.43545 -19.0916,20.7749 -30.6687,26.86485 -1.9726,1.03766 -5.6087,2.94013 -8.0802,4.22772 -24.031,12.51965 -68.8594,16.44822 -131.8959,11.55885 z"
         id="path1090"
         inkscape:connector-curvature="0"
         transform="scale(0.26458333)" />
      <path
         style="fill:#3f3a37;fill-opacity:1;fill-rule:evenodd;stroke-width:1.6115"
         d="m 2207.3015,-287.7516 c -4.9677,-5.33211 -4.401,-13.88209 3.9848,-60.12732 2.0894,-11.52221 5.6575,-31.82709 7.9292,-45.12195 2.2717,-13.29486 5.9891,-35.05009 8.2608,-48.34495 7.5995,-44.47441 10.1448,-59.54814 11.9732,-70.90592 0.9987,-6.20427 2.2154,-12.91213 2.7037,-14.90636 l 0.8878,-3.62587 -39.2535,-0.022 c -21.5894,-0.0121 -40.8931,-0.46134 -42.897,-0.99831 -2.0589,-0.55168 -4.0712,-2.68013 -4.6268,-4.89385 -1.0046,-4.00282 4.8222,-39.75291 7.7504,-47.55165 3.76,-10.01446 -4.2107,-9.4437 125.5495,-8.99027 l 118.3066,0.4134 -0.096,14.50349 c -0.1042,15.8126 -5.3708,39.99651 -9.6412,44.27168 -2.0523,2.05462 -9.344,2.54082 -44.0881,2.93973 l -41.629,0.47796 -1.9096,12.41402 c -1.0503,6.82772 -3.6615,22.20388 -5.8027,34.16926 -6.439,35.98228 -11.5955,65.48789 -16.0532,91.8554 -2.3225,13.73802 -5.5777,32.59255 -7.2338,41.89895 -1.6561,9.30641 -3.4524,20.68979 -3.9918,25.29642 -1.9406,16.57429 -7.1048,33.32622 -11.4521,37.14914 -3.9066,3.43536 -5.4699,3.62587 -29.7545,3.62587 -24.2923,0 -25.803,-0.18426 -28.9171,-3.52686 z"
         id="path1092"
         inkscape:connector-curvature="0"
         transform="scale(0.26458333)" />
      <path
         style="fill:#3f3a37;fill-opacity:1;fill-rule:evenodd;stroke-width:1.6115"
         d="m 2212.6957,86.97752 c -5.6098,-0.815112 -8.68,-5.632026 -8.68,-13.617918 0,-5.997723 2.2361,-21.442016 7.2087,-49.788173 2.099,-11.965375 5.7519,-32.9954273 8.1176,-46.73345 2.3656,-13.738023 6.0835,-35.130662 8.2619,-47.539199 5.7084,-32.51671 9.7906,-56.37306 11.8573,-69.29442 0.9923,-6.20427 2.2037,-12.91213 2.692,-14.90636 l 0.8878,-3.62587 h -40.2836 c -36.9542,0 -40.5913,-0.24916 -44.0065,-3.01458 -3.637,-2.9451 -3.6774,-3.2887 -1.7512,-14.90636 5.466,-32.96817 6.6422,-37.51618 10.7699,-41.6444 l 4.0882,-4.08885 114.1928,-0.43428 c 72.9109,-0.27729 115.717,0.14522 118.4091,1.16873 3.9801,1.51325 4.2143,2.21445 4.1814,12.52053 -0.033,10.36117 -4.2396,33.39243 -7.7708,42.54683 -2.6725,6.9281 -8.5934,7.85238 -50.3024,7.85238 h -38.2891 l -1.8558,11.68336 c -1.0207,6.42585 -3.5672,21.47321 -5.6589,33.43859 -3.9341,22.504826 -9.1021,52.507122 -16.2387,94.272645 -7.841,45.888138 -10.1637,59.665771 -11.9534,70.905923 -2.6966,16.935928 -6.4994,29.326271 -9.9626,32.460442 -2.5932,2.346809 -6.817,2.856638 -25.9961,3.137812 -12.5949,0.184646 -25.1579,0.0081 -27.9176,-0.393382 z"
         id="path1094"
         inkscape:connector-curvature="0"
         transform="scale(0.26458333)" />
      <path
         style="fill:#3f3a37;fill-opacity:1;fill-rule:evenodd;stroke-width:1.6115"
         d="m 1867.5911,86.934589 c -5.0093,-0.51194 -7.5624,-1.75418 -9.4144,-4.58078 -2.3239,-3.54665 -2.3048,-4.60679 0.2236,-12.395258 1.5206,-4.684303 4.0762,-11.055023 5.6791,-14.157157 1.6029,-3.102134 7.773,-15.792683 13.7114,-28.20122 18.5083,-38.674346 36.0421,-75.080558 44.2389,-91.8554 9.0154,-18.449949 23.6479,-48.763234 45.8953,-95.078394 25.6138,-53.32325 26.8903,-55.39959 36.8055,-59.86617 5.8507,-2.6356 11.1213,-2.98227 45.3416,-2.98227 53.4227,0 52.6437,-0.5222 60.3524,40.46116 5.9034,31.38576 13.4987,73.60816 23.4499,130.35766 6.85,39.063958 12.1049,67.925054 16.2844,89.438153 5.0425,25.954726 5.2062,40.556915 0.5037,44.937966 -6.6195,6.166979 -56.1094,6.931199 -62.6985,0.968189 -4.3372,-3.925159 -9.2786,-27.43347 -12.1052,-57.589517 l -1.0195,-10.877614 h -57.5711 -57.5712 l -6.5589,14.10061 c -3.6074,7.755335 -8.2813,18.043672 -10.3864,22.862987 -7.3566,16.841623 -14.0141,28.327206 -18.2618,31.505322 -3.7628,2.81532 -7.0512,3.230539 -27.1535,3.428688 -12.5796,0.124086 -25.9651,-0.09057 -29.7453,-0.476955 z m 197.3836,-134.73442 c -0.4383,-1.142262 -1.6454,-8.937885 -2.6823,-17.323606 -1.0369,-8.385725 -3.6703,-26.84956 -5.8518,-41.030743 -2.1816,-14.18119 -3.9528,-28.05014 -3.9361,-30.81991 0.082,-13.64453 -4.1326,-19.65765 -12.3357,-17.5988 -3.0312,0.76078 -5.1887,3.64255 -8.8498,11.82039 -2.6627,5.94789 -6.5154,14.44022 -8.5616,18.87184 -11.4091,24.71074 -34.6825,76.591239 -34.6825,77.313609 0,0.464224 17.4818,0.844054 38.8484,0.844054 31.0397,0 38.6882,-0.417442 38.0514,-2.076834 z"
         id="path1096"
         inkscape:connector-curvature="0"
         transform="scale(0.26458333)" />
      <path
         style="fill:#3f3a37;fill-opacity:1;fill-rule:evenodd;stroke-width:1.6115"
         d="m 1633.1238,86.56243 c -11.886,-1.704852 -13.3141,-4.056609 -12.9179,-21.273421 0.1846,-8.025777 2.1259,-24.140083 4.314,-35.80957 2.188,-11.669487 5.879,-32.4574442 8.2021,-46.195467 14.6964,-86.906822 18.2832,-107.658282 22.701,-131.337112 2.1498,-11.52221 3.9081,-22.83644 3.9074,-25.14274 0,-7.14671 8.2441,-37.54201 11.0392,-40.69079 7.4956,-8.44408 5.271,-8.26048 106.135,-8.75947 93.5907,-0.463 93.8164,-0.45618 97.2086,2.93598 3.0224,3.02246 3.2881,4.59525 2.3918,14.16182 -1.1036,11.77854 -3.1206,22.3367 -6.7415,35.28907 -2.1298,7.61843 -2.9126,8.56811 -8.2945,10.06288 -3.5984,0.99944 -31.4419,1.65409 -70.5828,1.65953 l -64.6402,0.009 -2.7903,17.3236 c -1.5347,9.52799 -3.7502,22.38522 -4.9233,28.57164 -1.1732,6.18642 -1.7879,11.80652 -1.366,12.48911 0.4219,0.682595 25.944,1.241081 56.7158,1.241081 65.9561,0 63.1318,-0.671552 63.077,14.997737 -0.048,13.836824 -5.6237,38.110123 -9.6875,42.175997 -3.1298,3.131464 -5.5199,3.275225 -61.7944,3.716985 l -58.5386,0.459551 -4.173,22.907174 c -2.2952,12.5989514 -4.5639,26.351768 -5.0417,30.561807 l -0.8686,7.654617 h 66.9523 c 43.0701,0 68.0641,0.595045 70.0693,1.66819 2.5808,1.381199 3.106,3.391237 3.0525,11.683363 -0.078,12.096357 -6.1736,40.94722 -9.8001,46.384785 l -2.613,3.917843 -91.6597,0.218696 c -50.4128,0.120218 -95.1126,-0.276565 -99.3329,-0.881876 z"
         id="path1098"
         inkscape:connector-curvature="0"
         transform="scale(0.26458333)" />
    </g>
  </g>
</svg>
