<?xml version="1.0" encoding="UTF-8" standalone="no"?>
<svg
   xmlns:dc="http://purl.org/dc/elements/1.1/"
   xmlns:cc="http://creativecommons.org/ns#"
   xmlns:rdf="http://www.w3.org/1999/02/22-rdf-syntax-ns#"
   xmlns:svg="http://www.w3.org/2000/svg"
   xmlns="http://www.w3.org/2000/svg"
   xmlns:sodipodi="http://sodipodi.sourceforge.net/DTD/sodipodi-0.dtd"
   xmlns:inkscape="http://www.inkscape.org/namespaces/inkscape"
   sodipodi:docname="SDC.svg"
   inkscape:version="1.0beta2 (2b71d25, 2019-12-03)"
   id="svg421"
   version="1.1"
   viewBox="0 0 210 297"
   height="297mm"
   width="210mm">
  <defs
     id="defs415" />
  <sodipodi:namedview
     inkscape:window-maximized="0"
     inkscape:window-y="23"
     inkscape:window-x="0"
     inkscape:window-height="784"
     inkscape:window-width="1440"
     showgrid="false"
     inkscape:document-rotation="0"
     inkscape:current-layer="layer1"
     inkscape:document-units="mm"
     inkscape:cy="560"
     inkscape:cx="400"
     inkscape:zoom="0.35"
     inkscape:pageshadow="2"
     inkscape:pageopacity="0.0"
     borderopacity="1.0"
     bordercolor="#666666"
     pagecolor="#ffffff"
     id="base" />
  <metadata
     id="metadata418">
    <rdf:RDF>
      <cc:Work
         rdf:about="">
        <dc:format>image/svg+xml</dc:format>
        <dc:type
           rdf:resource="http://purl.org/dc/dcmitype/StillImage" />
        <dc:title></dc:title>
      </cc:Work>
    </rdf:RDF>
  </metadata>
  <g
     id="layer1"
     inkscape:groupmode="layer"
     inkscape:label="Layer 1">
    <path
       inkscape:export-ydpi="96"
       inkscape:export-xdpi="96"
       style="fill:#3f3a37;fill-opacity:1;stroke-width:0.213649"
       inkscape:connector-curvature="0"
       class="st0"
       d="m 97.783753,142.94978 c 0,4.99939 -3.05518,7.3709 -6.8795,7.3709 h -2.32878 v -3.01246 h 2.157859 c 2.307411,0 3.845693,-1.23916 3.845693,-4.37981 0,-3.09791 -1.452822,-4.63619 -3.909791,-4.63619 -2.3715,0 -4.05933,1.45282 -4.05933,4.5721 v 12.56258 h -3.204741 v -19.7412 h 3.183371 v 1.7092 h 0.44867 c 1.068239,-1.43145 2.627879,-2.0724 4.272978,-2.0724 3.525211,0 6.473571,2.56379 6.473571,7.62728 z m -20.93763,-1.30326 -2.115119,-0.21365 c -1.66647,-0.14956 -2.542431,-0.59822 -2.542431,-1.58101 0,-1.1537 1.13234,-1.81602 2.734709,-1.81602 1.666471,0 2.734713,0.79051 2.82017,1.90148 h 3.055192 c -0.128191,-2.8629 -2.328781,-4.61482 -5.853991,-4.61482 -3.546578,0 -5.939449,1.88011 -5.939449,4.63619 0,2.30741 1.452809,3.80295 4.764371,4.12343 l 2.157859,0.21365 c 1.303258,0.12819 2.17922,0.38457 2.17922,1.6451 0,1.13234 -0.811861,1.9442 -2.969721,1.9442 -1.986938,0 -2.96972,-0.89732 -3.311559,-2.11512 h -3.31157 c 0.320479,2.75607 2.649249,4.89257 6.623129,4.89257 3.738859,0 6.1531,-1.96558 6.1531,-4.89257 -0.0214,-2.54243 -1.70919,-3.86706 -4.44391,-4.12343 z m 33.265187,4.14479 c -0.49139,1.15371 -1.68783,2.00831 -3.39702,2.00831 -2.32877,0 -4.05933,-1.51691 -4.05933,-4.78575 0,-3.11928 1.60238,-4.84984 4.10206,-4.84984 2.22196,0 3.48249,1.32463 3.61068,3.33293 h -5.7258 v 2.30741 h 8.86644 v -1.51691 c 0,-4.20889 -2.7988,-6.9436 -6.77268,-6.9436 -3.69612,0 -7.242706,2.52106 -7.242706,7.67001 0,5.14895 3.546586,7.67001 7.242706,7.67001 3.37565,0 5.81126,-2.09376 6.55904,-4.89257 z M 59.882373,135.3225 c -3.48248,0 -6.089,1.81602 -6.40948,4.61482 h 3.41839 c 0.23502,-1.02551 1.17507,-1.79465 2.96973,-1.79465 2.30741,0 3.05518,1.2178 3.05518,2.69198 v 4.99939 c -1.30326,1.49555 -2.82017,2.17922 -4.33708,2.17922 -1.581,0 -2.67061,-0.76913 -2.67061,-2.11512 0,-1.30326 0.85459,-2.11513 2.47833,-2.11513 h 2.54242 v -2.28605 h -2.64925 c -3.63204,0 -5.68307,1.81602 -5.68307,4.61483 0,2.60652 1.96557,4.57209 5.21304,4.57209 1.81602,0 3.41839,-0.72641 4.61483,-1.60237 h 0.44866 v 1.23917 h 3.183381 v -9.76377 c 0.0855,-3.61068 -2.371511,-5.23441 -6.174471,-5.23441 z m -21.599939,14.99818 h 3.18337 v -20.01894 h -3.18337 z M 51.656873,135.6857 h -3.888409 l -4.63619,6.11037 v 1.90148 l 4.76438,6.62313 h 3.952509 l -5.597609,-7.58455 z m 115.178337,0 -2.60653,5.7899 c -0.64095,1.38872 -1.23916,2.75607 -1.43145,3.67476 h -0.44866 c -0.19229,-0.91869 -0.81187,-2.24331 -1.45282,-3.63203 l -2.60652,-5.83263 h -3.52521 l 6.13173,13.13943 -3.03382,6.62313 h 3.39702 l 9.10147,-19.76256 z m -12.77623,0 h -3.88842 l -4.63619,6.08901 v 1.90148 l 4.76438,6.62312 h 3.95252 l -5.57626,-7.58455 z m -19.95485,5.96082 -2.11511,-0.21365 c -1.66647,-0.14956 -2.54244,-0.59822 -2.54244,-1.58101 0,-1.1537 1.13235,-1.81602 2.73471,-1.81602 1.66646,0 2.73471,0.79051 2.82017,1.90148 h 3.0552 c -0.12821,-2.8629 -2.32879,-4.61482 -5.854,-4.61482 -3.54658,0 -5.93946,1.88011 -5.93946,4.63619 0,2.30741 1.45282,3.80295 4.76438,4.12343 l 2.15787,0.21365 c 1.30325,0.12819 2.17922,0.38457 2.17922,1.6451 0,1.13234 -0.81186,1.9442 -2.96973,1.9442 -1.98694,0 -2.96972,-0.89732 -3.31155,-2.11512 h -3.31157 c 0.32047,2.75607 2.64924,4.89257 6.62312,4.89257 3.73886,0 6.1531,-1.96558 6.1531,-4.89257 0,-2.54243 -1.70919,-3.86706 -4.44391,-4.12343 z m 6.5804,8.67416 h 3.18338 v -20.01894 h -3.18338 z M 119.66145,137.3949 h -0.44867 v -1.7092 h -3.18336 v 14.63498 h 3.18336 v -7.64865 c 0,-2.60652 1.19644,-4.12343 3.58932,-4.12343 h 2.00829 v -3.2261 h -1.17507 c -2.20059,0 -3.14065,0.83323 -3.97387,2.0724 z"
       id="path1024" />
  </g>
</svg>
