<?xml version="1.0" encoding="UTF-8" standalone="no"?>
<svg
   xmlns:dc="http://purl.org/dc/elements/1.1/"
   xmlns:cc="http://creativecommons.org/ns#"
   xmlns:rdf="http://www.w3.org/1999/02/22-rdf-syntax-ns#"
   xmlns:svg="http://www.w3.org/2000/svg"
   xmlns="http://www.w3.org/2000/svg"
   xmlns:sodipodi="http://sodipodi.sourceforge.net/DTD/sodipodi-0.dtd"
   xmlns:inkscape="http://www.inkscape.org/namespaces/inkscape"
   sodipodi:docname="Primark.svg"
   inkscape:version="1.0beta2 (2b71d25, 2019-12-03)"
   id="svg655"
   version="1.1"
   viewBox="0 0 210 297"
   height="297mm"
   width="210mm">
  <defs
     id="defs649" />
  <sodipodi:namedview
     inkscape:window-maximized="0"
     inkscape:window-y="23"
     inkscape:window-x="0"
     inkscape:window-height="784"
     inkscape:window-width="1440"
     showgrid="false"
     inkscape:document-rotation="0"
     inkscape:current-layer="layer1"
     inkscape:document-units="mm"
     inkscape:cy="560"
     inkscape:cx="400"
     inkscape:zoom="0.35"
     inkscape:pageshadow="2"
     inkscape:pageopacity="0.0"
     borderopacity="1.0"
     bordercolor="#666666"
     pagecolor="#ffffff"
     id="base" />
  <metadata
     id="metadata652">
    <rdf:RDF>
      <cc:Work
         rdf:about="">
        <dc:format>image/svg+xml</dc:format>
        <dc:type
           rdf:resource="http://purl.org/dc/dcmitype/StillImage" />
        <dc:title></dc:title>
      </cc:Work>
    </rdf:RDF>
  </metadata>
  <g
     id="layer1"
     inkscape:groupmode="layer"
     inkscape:label="Layer 1">
    <g
       inkscape:export-ydpi="96"
       inkscape:export-xdpi="96"
       style="fill:#3f3a37;fill-opacity:1"
       transform="matrix(0.18716625,0,0,0.18716625,33.361076,46.531967)"
       id="layer1-3">
      <path
         inkscape:connector-curvature="0"
         d="M 69.153039,576.47021 V 540.08979 H 87.22739 c 5.240266,0.002 9.676781,-0.2341 13.30956,-0.70965 3.63268,-0.47548 6.6499,-1.20444 9.05166,-2.18688 4.54507,-1.8996 7.85194,-4.61751 9.92061,-8.15373 2.06854,-3.53614 3.08715,-7.61541 3.05584,-12.23785 -0.0339,-4.46542 -0.95109,-8.39504 -2.7517,-11.78888 -1.80074,-3.39369 -4.2821,-5.87505 -7.44408,-7.44408 -2.00108,-0.98233 -4.6321,-1.71129 -7.89305,-2.18688 -3.26106,-0.47543 -7.658956,-0.71198 -13.193697,-0.70965 h -29.31289 v 81.79802 z m 0,-42.98451 v -32.20942 h 19.696408 c 5.368195,-0.0627 9.664711,0.0918 12.889563,0.46344 3.22475,0.3718 5.84128,1.33731 7.8496,2.89654 1.63648,1.2335 2.91095,2.8797 3.82342,4.93858 0.91234,2.05902 1.37579,4.42934 1.39033,7.11098 -0.005,3.43969 -0.6904,6.37967 -2.05654,8.81994 -1.36625,2.44037 -3.38417,4.2507 -6.05374,5.43099 -2.28832,0.96797 -5.12691,1.639 -8.515806,2.01309 -3.388983,0.37418 -7.154468,0.5528 -11.296468,0.53586 z m 149.723251,42.98451 -25.83706,-36.728 c 7.55507,-0.84961 13.29985,-3.20546 17.23436,-7.06754 3.93439,-3.86199 5.91368,-8.9985 5.93789,-15.40954 -0.0701,-4.96507 -1.17558,-9.16987 -3.31653,-12.61439 -2.14108,-3.44439 -4.89761,-5.8823 -8.26959,-7.31374 -2.83624,-1.17543 -5.99829,-1.9237 -9.48614,-2.24482 -3.48795,-0.32095 -7.31619,-0.46095 -11.48475,-0.41999 h -25.14188 v 81.79802 h 7.29926 v -35.91697 h 19.58054 l 24.44672,35.91697 z m -53.06444,-42.52106 v -32.67287 h 19.00124 c 3.92958,-0.0482 7.33783,0.10628 10.22475,0.46344 2.88683,0.35732 5.31025,1.20697 7.27029,2.54895 2.08062,1.41455 3.62544,3.22005 4.63445,5.41652 1.0089,2.1966 1.51096,4.63933 1.5062,7.32822 0.005,2.70831 -0.38144,5.0545 -1.15862,7.03857 -0.77729,1.98417 -1.97452,3.69312 -3.59169,5.12686 -1.86591,1.66796 -4.39071,2.87967 -7.57443,3.63514 -3.18382,0.75555 -6.95413,1.12727 -11.31095,1.11517 z m 100.12792,42.52106 v -81.79802 h -7.29926 v 81.79802 z m 118.98776,0 v -81.79802 h -10.89095 c -6.33167,17.13179 -11.12489,30.11396 -14.37967,38.94653 -3.25489,8.83267 -5.6794,15.46393 -7.27351,19.8938 -1.59422,4.42993 -3.06608,8.60665 -4.4156,12.53018 -1.45975,-4.19816 -3.0203,-8.57228 -4.68165,-13.12235 -1.66143,-4.55003 -4.16604,-11.19845 -7.51382,-19.9453 -3.34785,-8.74675 -8.28124,-21.51436 -14.80019,-38.30286 h -10.54338 v 81.79802 h 7.06754 c 0.003,-18.5628 -0.003,-32.75078 -0.0172,-42.56398 -0.0143,-9.8131 -0.0544,-16.95501 -0.12015,-21.42574 -0.0658,-4.4706 -0.17452,-7.97361 -0.32613,-10.50904 1.1965,3.664 2.63976,7.81927 4.32978,12.46581 1.68998,4.64666 4.32617,11.66842 7.9086,21.06528 3.58237,9.39695 8.81043,23.05283 15.68418,40.96767 h 5.6772 c 5.45901,-14.42542 9.9118,-26.22895 13.35837,-35.41062 3.44644,-9.1816 6.26859,-16.7798 8.46645,-22.79462 2.19771,-6.01471 4.15305,-11.4845 5.86601,-16.40938 -0.11522,2.7321 -0.20677,6.25371 -0.27463,10.56482 -0.068,4.31124 -0.11666,11.32585 -0.1459,21.04384 -0.0294,9.71807 -0.0437,24.05338 -0.0429,43.00596 z m 102.42482,0 -30.93495,-81.79802 h -7.64684 l -31.86184,81.79802 h 8.11029 l 8.68959,-23.86741 h 36.95973 l 8.57373,23.86741 z m -51.21066,-30.23977 c 3.58166,-9.48485 6.4081,-16.98293 8.47932,-22.49425 2.07117,-5.51122 3.67892,-9.82526 4.82326,-12.94213 1.14427,-3.11674 2.11693,-5.82588 2.91799,-8.12745 0.80026,2.37023 1.76148,5.09654 2.88365,8.17895 1.1221,3.08254 2.70124,7.36225 4.73744,12.83914 2.03611,5.47699 4.82536,12.99223 8.36776,22.54574 z m 145.46835,30.23977 -25.83705,-36.728 c 7.55507,-0.84961 13.29985,-3.20546 17.23436,-7.06754 3.93439,-3.86199 5.91368,-8.9985 5.93789,-15.40954 -0.0701,-4.96507 -1.17558,-9.16987 -3.31653,-12.61439 -2.14108,-3.44439 -4.89761,-5.8823 -8.2696,-7.31374 -2.83624,-1.17543 -5.99828,-1.9237 -9.48614,-2.24482 -3.48794,-0.32095 -7.31619,-0.46095 -11.48474,-0.41999 h -25.14188 v 81.79802 h 7.29925 v -35.91697 h 19.58055 l 24.44672,35.91697 z M 528.5456,533.94915 v -32.67287 h 19.00124 c 3.92959,-0.0482 7.33784,0.10628 10.22476,0.46344 2.88682,0.35732 5.31025,1.20697 7.27029,2.54895 2.08062,1.41455 3.62543,3.22005 4.63445,5.41652 1.0089,2.1966 1.51096,4.63933 1.50619,7.32822 0.005,2.70831 -0.38143,5.0545 -1.15861,7.03857 -0.77729,1.98417 -1.97453,3.69312 -3.5917,5.12686 -1.8659,1.66796 -4.39071,2.87967 -7.57443,3.63514 -3.18381,0.75555 -6.95412,1.12727 -11.31095,1.11517 z m 157.2021,42.52106 -33.71562,-50.05204 30.12392,-31.74598 h -9.2689 l -43.56382,46.69207 v -46.69207 h -7.29926 v 81.79802 h 7.29926 V 550.5173 l 17.72677,-18.88538 30.00806,44.83829 z"
         id="text2396"
         style="font-style:normal;font-weight:normal;font-size:463.451px;line-height:125%;font-family:'Bitstream Vera Sans';fill:#3f3a37;fill-opacity:1;stroke:none;stroke-width:1px;stroke-linecap:butt;stroke-linejoin:miter;stroke-opacity:1" />
      <path
         inkscape:connector-curvature="0"
         d="m 712.44623,502.47005 c -0.0647,-2.57818 -0.96144,-4.71686 -2.69029,-6.41603 -1.7289,-1.69914 -3.90198,-2.58027 -6.51927,-2.64337 -2.67726,0.0621 -4.88685,0.95153 -6.62875,2.66839 -1.74192,1.7169 -2.64389,3.88895 -2.70594,6.51614 0.062,2.65224 0.97654,4.84305 2.74348,6.57245 1.76693,1.7294 4.01405,2.62512 6.74137,2.68716 2.62197,-0.0594 4.77316,-0.96037 6.45357,-2.7028 1.68037,-1.74243 2.54898,-3.96974 2.60583,-6.68194 z m -1.3514,0.25026 c -0.0522,2.26955 -0.80502,4.14962 -2.2586,5.64023 -1.45361,1.49061 -3.2951,2.26329 -5.52448,2.31803 -2.29562,-0.0573 -4.19864,-0.84358 -5.70905,-2.3587 -1.51043,-1.51511 -2.29353,-3.41499 -2.34931,-5.69966 0.0506,-2.30551 0.81907,-4.20748 2.30551,-5.70592 1.48644,-1.49842 3.38736,-2.27422 5.7028,-2.32742 2.29716,0.048 4.16576,0.8217 5.60581,2.32116 1.44002,1.49949 2.18246,3.43691 2.22732,5.81228 z m -2.9781,5.1053 -3.00311,-4.35452 c 0.84983,-0.20541 1.48382,-0.58289 1.90197,-1.13243 0.41813,-0.54951 0.62668,-1.23981 0.62565,-2.07089 0.002,-0.59592 -0.12097,-1.13085 -0.36913,-1.60479 -0.24819,-0.47392 -0.63401,-0.83993 -1.15745,-1.09802 -0.32588,-0.16213 -0.71899,-0.28205 -1.17935,-0.35975 -0.46039,-0.0777 -1.05997,-0.11625 -1.79874,-0.11574 h -3.72887 v 10.73614 h 2.07715 v -4.07923 h 1.55161 l 2.65276,4.07923 z m -6.60685,-5.90613 v -3.00312 h 1.80187 c 0.29821,-0.002 0.5589,0.008 0.78206,0.0282 0.22314,0.0203 0.42126,0.061 0.59437,0.122 0.30916,0.11367 0.52918,0.28051 0.66006,0.50052 0.13085,0.22003 0.19446,0.48697 0.19082,0.80083 0.002,0.30032 -0.0454,0.55684 -0.14077,0.76955 -0.0954,0.21273 -0.24871,0.38165 -0.45985,0.50677 -0.17363,0.0991 -0.38948,0.16998 -0.64755,0.21272 -0.25809,0.0428 -0.56779,0.0636 -0.92909,0.0626 z"
         id="text3174"
         style="font-style:normal;font-variant:normal;font-weight:normal;font-stretch:normal;font-size:25.0263px;line-height:125%;font-family:'Akzidenz-Grotesk Next Med';-inkscape-font-specification:'Akzidenz-Grotesk Next Med';text-align:start;writing-mode:lr-tb;text-anchor:start;fill:#3f3a37;fill-opacity:1;stroke:none;stroke-width:1px;stroke-linecap:butt;stroke-linejoin:miter;stroke-opacity:1" />
    </g>
  </g>
</svg>
