<svg width="224" height="123" viewBox="0 0 224 123" fill="none" xmlns="http://www.w3.org/2000/svg">
<path d="M0 34.3412V21.4302H33.952C38.472 21.4302 43.481 25.0288 46.6228 27.8783C43.481 30.7279 38.4572 34.3412 33.952 34.3412H0Z" fill="#E20613"/>
<path d="M0 57.402V44.491H33.952C38.472 44.491 43.481 48.0896 46.6228 50.9391C43.481 53.7887 38.4572 57.402 33.952 57.402H0Z" fill="#E20613"/>
<path d="M0 80.4772V67.5662H33.952C38.472 67.5662 43.481 71.1648 46.6228 74.0143C43.481 76.8639 38.4572 80.4772 33.952 80.4772H0Z" fill="#E20613"/>
<path d="M0 103.538V90.627H33.952C38.472 90.627 43.481 94.2256 46.6228 97.0751C43.481 99.9246 38.4572 103.538 33.952 103.538H0Z" fill="#E20613"/>
<path d="M88.2812 4.11273C86.7696 4.11273 85.1987 4.92059 85.1987 7.44698V15.2318C85.1987 17.8169 86.7696 18.5954 88.2812 18.5954C90.2967 18.5954 91.3934 17.626 91.3934 14.4239V14.1449H95.7355C95.7355 19.7558 93.3199 22.7081 88.2812 22.7081C83.8798 22.7081 80.8269 19.5942 80.8269 15.1143V7.56449C80.8269 3.11392 83.8798 0 88.2812 0C93.2162 0 95.7355 3.20205 95.7355 8.31359H91.3934V8.00513C91.3934 4.75902 89.778 4.11273 88.2812 4.11273Z" fill="black"/>
<path d="M110.274 18.0374H103.827L102.597 22.3704H98.1956L104.701 0.411377H109.444L115.861 22.3704H111.444L110.274 18.0374ZM109.37 14.3359L107.102 5.72855L104.746 14.3212H109.37V14.3359Z" fill="black"/>
<path d="M123.611 22.3704H119.269V0.411377H123.582L128.546 13.2196L133.481 0.411377H137.794V22.3704H133.452V9.6944L129.999 18.2577H127.049L123.626 9.75315V22.3704H123.611Z" fill="black"/>
<path d="M143.188 0.411377H150.139C154.51 0.411377 157.652 3.24622 157.652 8.38713V9.25375C157.652 14.424 154.51 17.1414 150.139 17.1414H147.53V22.3704H143.188V0.411377ZM147.53 13.058H149.694C151.576 13.058 153.369 12.1914 153.369 9.22437V8.41651C153.369 5.17039 151.517 4.52411 149.694 4.52411H147.53V13.058Z" fill="black"/>
<path d="M171.035 18.0374H164.588L163.358 22.3704H158.957L165.462 0.411377H170.205L176.622 22.3704H172.191L171.035 18.0374ZM170.131 14.3359L167.863 5.74324L165.507 14.3359H170.131Z" fill="black"/>
<path d="M180.193 22.3704V0.411377H184.535V22.3704H180.193Z" fill="black"/>
<path d="M204.29 15.1143C204.29 19.5942 201.237 22.6788 196.836 22.6788C192.464 22.6788 189.411 19.5942 189.411 15.1143V7.59386C189.411 3.11392 192.464 0 196.836 0C201.178 0 204.186 3.05517 204.29 7.4176H199.948C199.948 5.08216 198.718 4.11273 196.895 4.11273C194.939 4.11273 193.783 5.11154 193.783 8.03451V15.2612C193.783 17.5085 194.939 18.566 196.836 18.566C198.436 18.566 199.948 17.6994 199.948 15.2612V14.894H196.865V11.1191H204.29V15.1143Z" fill="black"/>
<path d="M219.925 22.3704L213.389 9.66502V22.3704H209.047V0.411377H213.137L219.643 13.1902V0.47013H224.015V22.3704H219.925Z" fill="black"/>
<path d="M91.6452 51.1887H85.1986L83.9686 55.5218H79.5671L86.073 33.5627H90.8153L97.2322 55.5218H92.8011L91.6452 51.1887ZM90.7264 47.4726L88.459 38.8799L86.1026 47.4726H90.7264Z" fill="black"/>
<path d="M114.838 48.2512C114.838 52.7312 111.785 55.8157 107.384 55.8157C103.012 55.8157 99.959 52.7312 99.959 48.2512V40.7455C99.959 36.2656 103.012 33.137 107.384 33.137C111.726 33.137 114.734 36.1921 114.838 40.5546H110.496C110.496 38.2191 109.266 37.2497 107.443 37.2497C105.487 37.2497 104.331 38.2485 104.331 41.1715V48.3981C104.331 50.6454 105.487 51.703 107.384 51.703C108.984 51.703 110.496 50.8364 110.496 48.3981V48.0309H107.413V44.256H114.838V48.2512Z" fill="black"/>
<path d="M129.732 51.1887H123.285L122.055 55.5218H117.669L124.175 33.5627H128.917L135.334 55.5218H130.903L129.732 51.1887ZM128.828 47.4726L126.561 38.8799L124.204 47.4726H128.828Z" fill="black"/>
<path d="M138.891 55.5071V33.5481H143.233V55.5071H138.891Z" fill="black"/>
<path d="M159.653 55.5071L153.117 42.8017V55.5071H148.775V33.5481H152.865L159.371 46.3269V33.6215H163.743V55.5218H159.653V55.5071Z" fill="black"/>
<path d="M168.278 39.5998C168.278 35.5752 171.168 33.1516 175.569 33.1516C179.837 33.1516 182.801 35.9865 182.801 40.5105H178.533C178.533 38.175 177.377 37.0881 175.51 37.0881C173.657 37.0881 172.62 37.9547 172.62 39.6145C172.62 43.9769 183.083 41.3918 183.083 49.2353C183.083 53.4068 180.06 55.9038 175.569 55.9038C171.079 55.9038 167.996 53.0102 167.996 48.31H172.339C172.339 50.8657 173.657 51.9233 175.569 51.9233C177.392 51.9233 178.741 51.086 178.741 49.2794C178.741 45.0785 168.278 47.3846 168.278 39.5998Z" fill="black"/>
<path d="M194.953 37.6902V55.5071H190.611V37.6902H185.988V33.5481H199.562V37.6902H194.953Z" fill="black"/>
<path d="M91.6452 84.3257H85.1986L83.9686 88.6588H79.5671L86.073 66.6997H90.8153L97.2322 88.6588H92.8011L91.6452 84.3257ZM90.7264 80.6242L88.459 72.0316L86.1026 80.6242H90.7264Z" fill="black"/>
<path d="M100.626 66.6997H107.665C112.096 66.6997 115.09 69.5346 115.09 74.6461V75.263C115.09 78.656 113.608 80.9327 111.222 81.9903L114.957 88.6588H110.214L107.236 82.9891H104.968V88.6588H100.626V66.6997ZM104.968 78.9057H107.132C109.014 78.9057 110.777 78.0979 110.777 75.2043V74.5873C110.777 71.5615 109.073 70.8124 107.132 70.8124H104.968V78.9057Z" fill="black"/>
<path d="M124.145 88.6588H119.803V66.6997H124.115L129.08 79.5079L134.015 66.6997H138.327V88.6588H133.985V75.9827L130.532 84.546H127.583L124.16 76.0415V88.6588H124.145Z" fill="black"/>
<path d="M142.877 72.7365C142.877 68.7119 145.767 66.2883 150.168 66.2883C154.436 66.2883 157.4 69.1232 157.4 73.6472H153.132C153.132 71.3117 151.976 70.2248 150.109 70.2248C148.242 70.2248 147.219 71.0914 147.219 72.7512C147.219 77.1136 157.682 74.5285 157.682 82.372C157.682 86.5435 154.658 89.0405 150.168 89.0405C145.678 89.0405 142.595 86.1469 142.595 81.4467H146.937C146.937 84.0024 148.256 85.06 150.183 85.06C152.006 85.06 153.354 84.2228 153.354 82.4161C153.34 78.2152 142.877 80.5213 142.877 72.7365Z" fill="black"/>
<path d="M88.9925 103.979V121.795H84.6504V103.979H80.0266V99.8364H93.6015V103.979H88.9925Z" fill="black"/>
<path d="M97.2619 99.8364H104.301C108.732 99.8364 111.711 102.671 111.711 107.783V108.4C111.711 111.793 110.229 114.069 107.843 115.127L111.578 121.795H106.835L103.857 116.126H101.589V121.795H97.2471V99.8364H97.2619ZM101.604 112.042H103.768C105.65 112.042 107.413 111.235 107.413 108.341V107.724C107.413 104.698 105.709 103.949 103.768 103.949H101.604V112.042Z" fill="black"/>
<path d="M126.59 117.462H120.143L118.913 121.795H114.512L121.018 99.8364H125.76L132.177 121.795H127.746L126.59 117.462ZM125.686 113.761L123.419 105.168L121.062 113.761H125.686Z" fill="black"/>
<path d="M135.586 99.8364H142.877C147.278 99.8364 150.331 102.51 150.331 107.871V113.658C150.331 118.961 147.278 121.795 142.877 121.795H135.586V99.8364ZM139.913 117.712H142.358C144.433 117.712 146.004 116.904 146.004 112.601V108.326C146.004 105.961 145.382 103.934 142.358 103.934H139.913V117.712Z" fill="black"/>
<path d="M159.564 103.979V108.958H165.566V112.689H159.564V117.668H167.67V121.781H155.222V99.8364H167.67V103.979H159.564Z" fill="black"/>
<path d="M67.0889 0.705078H61.5759V123.015H67.0889V0.705078Z" fill="black"/>
</svg>
