<svg xmlns="http://www.w3.org/2000/svg" viewBox="0 0 470.3 374.8"><defs><style>.cls-1{fill:#fec431;}</style></defs><title>Asset 1</title><g id="Layer_2" data-name="Layer 2"><g id="Layer_1-2" data-name="Layer 1"><path class="cls-1" d="M236.58.19H457.73a12.18,12.18,0,0,1,11.81,11.46c1.08,18.51.69,37,.71,55.57q.08,97.58-.11,195.16c0,6.66-.37,13.32-.64,20A11,11,0,0,1,458.76,293c-17.31.89-34.64.72-52,.78q-50.58.15-101.18.3c-7.72,0-15.45.38-23.18.39-2.5,0-3,.71-2.88,3.21q1.08,18.75,3.63,37.36c1.06,7.63,6,13,12,17.23,6.19,4.38,12.73,8.26,19.08,12.42,2.79,1.83,6.49,4,5.27,7.59-1,2.85-5.13,2.16-7.92,2.2-49.72.56-99.44.24-149.16-.1-2.66,0-5.32-.34-8-.55-1.32-.1-2.82,0-3.42-1.52-.68-1.71.11-3.08,1.3-4.3,2.91-3,6.46-5.13,9.93-7.36,5.25-3.4,10.67-6.53,15.56-10.49,5.66-4.59,9.16-10.31,9.88-17.61,1.09-11.13,2.06-22.27,3.26-33.39.37-3.51-.49-4.69-4.33-4.75-53.71-.93-107.43-.27-161.15-.86-4.26-.05-8.52-.34-12.78-.51C5.27,292.74,1,288.57.8,281,.44,263.39.07,245.8.05,228.21Q-.07,122.43,0,16.65C0,5,4.43.48,16.22.4Q65.61.07,115,0q60.78-.09,121.58,0Zm-1.14,21.6q-104.56,0-209.14-.07c-3.53,0-4.7.72-4.69,4.53q.18,117,0,233.93c0,3.71,1,4.67,4.69,4.66q208.94-.13,417.88,0c3.72,0,4.58-1,4.57-4.64q-.15-117,0-233.93c0-3.67-.95-4.58-4.58-4.57Q339.81,21.88,235.44,21.79Z"/><path class="cls-1" d="M333.59,110.62c0,11.06.06,22.12,0,33.18a11.53,11.53,0,0,0,2,6.69q18.23,28.19,36.29,56.46c2.72,4.24,2.67,4.27-1.76,6.3a74.6,74.6,0,0,1-105.24-55.57c-6.49-39,20.7-77.52,59.84-84.67,8.68-1.58,8.73-1.58,8.79,7.22.06,10.13,0,20.26,0,30.39Z"/><path class="cls-1" d="M419.19,147c-.37,20.73-7.78,38.63-21.78,53.86-2.53,2.74-5.36,5.21-7.77,8.05-2.16,2.54-3.32,2-4.94-.56-9.38-14.7-18.89-29.33-28.33-44-2.16-3.36-4.11-6.86-6.38-10.14-1.52-2.19-1.35-3.6.83-5.24q27.58-20.82,55-41.83c2.07-1.59,2.79-.93,3.72,1.05C415.38,120.44,419.37,133.16,419.19,147Z"/><path class="cls-1" d="M205.21,85.17c-13.37,15-26.27,29.59-39.22,44.1-1.94,2.18-4.08,4.2-6.11,6.32-2.21,2.29-4.37,2.3-7,.46-9.62-6.73-18.62-14.26-27.83-21.52-3.66-2.89-7.43-5.66-10.9-8.77-2.12-1.9-3.38-1.46-5.25.32C95.81,118.45,82.64,130.71,69.51,143a95.21,95.21,0,0,1-10.42,8.71c-2.2,1.54-4.33,1.89-6.46-.24s-1-4.11.49-6c3.82-4.83,8.41-8.92,12.86-13.13q18.57-17.61,37.26-35.1c7-6.56,7.18-6.71,14.85-.88,11.66,8.88,23.14,18,34.59,27.15,2.2,1.76,3.38,1.94,5.38-.38,12.43-14.45,25-28.75,37.57-43.11.77-.88,2.21-1.76,1.76-2.93-.57-1.5-2.33-.88-3.58-.92-4.26-.14-8.53-.16-12.8-.21-3.35,0-6-1.51-6.18-4.92s2.76-4.75,5.7-4.9a251.65,251.65,0,0,1,30,.07c3.68.25,5.23,2.33,5.25,5.72.06,9.73.1,19.47,0,29.2,0,3.47-2.59,6.39-5.12,6-3.16-.5-4.2-2.84-4.36-5.82C206,96.21,205.6,91.05,205.21,85.17Z"/><path class="cls-1" d="M215.9,174.76c-.38,11.75.51,26-.56,40.23-.3,4-2.2,5.34-5.87,5.29-6.12-.09-12.25-.05-18.37-.07-3.19,0-4.83-1.37-4.95-4.8-1-27.55-1-55.1,0-82.65.12-3.07,1.48-4.66,4.54-4.9a93.82,93.82,0,0,1,20.31.27c3.39.47,5,2,4.94,5.79C215.78,146.7,215.9,159.49,215.9,174.76Z"/><path class="cls-1" d="M344.58,140c-1-1.71-.6-3.33-.61-4.86-.07-21.87,0-43.74-.2-65.6,0-3.37.86-3.76,4.06-3.32,20.53,2.83,37.58,12,51.51,27.26,2.25,2.47,2.3,3.75-.4,5.86q-25.47,20-51.63,39.1A27.12,27.12,0,0,1,344.58,140Z"/><path class="cls-1" d="M96.66,181.78c0-10.79,0-21.58,0-32.36,0-5,.74-5.77,5.83-5.91,6-.17,12-.08,18-.07,3.66,0,5.73,1.64,5.8,5.51.4,21.85.43,43.69-.06,65.52-.11,4.44-1.44,5.68-5.88,5.75-6,.1-12,.1-18-.07-5-.14-5.66-.86-5.7-6-.07-10.79,0-21.58,0-32.36Z"/><path class="cls-1" d="M140.73,189.92c0-7.85-.1-15.7,0-23.55.1-5.94,1-7,6.92-7.38a124.63,124.63,0,0,1,18.33.07c3.46.26,4.87,1.9,5.21,5.23,1,9.69.52,19.41.56,29.12,0,6.9.53,13.84-.57,20.72-.76,4.7-2.08,6.11-6.68,6.19-6,.1-12,0-18-.14-4.33-.13-5.71-1.48-5.79-5.9-.14-8.12,0-16.24,0-24.36Z"/><path class="cls-1" d="M82.28,199c-.21,4.31.2,10.43-.51,16.54-.31,2.7-1.45,4.23-4.09,4.47a98.21,98.21,0,0,1-21.88-.16c-2.64-.35-3.93-1.72-4.11-4.45a276.09,276.09,0,0,1,0-36.27c.19-2.87,1.73-4.21,4.24-4.27,7-.17,14.1-.3,21.14,0,3.74.13,5.09,3,5.15,6.43C82.35,186.52,82.28,191.84,82.28,199Z"/></g></g></svg>