<?xml version="1.0" encoding="iso-8859-1"?>
<!-- Generator: Adobe Illustrator 22.1.0, SVG Export Plug-In . SVG Version: 6.00 Build 0)  -->
<svg version="1.1" id="Layer_1" xmlns="http://www.w3.org/2000/svg" xmlns:xlink="http://www.w3.org/1999/xlink" x="0px" y="0px"
	 viewBox="0 0 1000 1000" style="enable-background:new 0 0 1000 1000;" xml:space="preserve">
<g>
	<g transform="translate(0.000000,511.000000) scale(0.100000,-0.100000)">
		<path style="fill:#FEC431;" d="M100,110v-3981.2h4900h4900V110v3981.2H5000H100V110z M9287.5,1335V-808.8H5000H712.5V1335v2143.7
			H5000h4287.5V1335z M9287.5-1727.5v-306.3H5918.7H2550v153.1v153.1h-306.3h-306.3v-153.1v-153.1H1325H712.5v306.3v306.3H5000
			h4287.5V-1727.5z M1937.5-2799.4v-153.1h306.3H2550v153.1v153.1h3368.7h3368.7v-306.3v-306.2H5000H712.5v306.2v306.3H1325h612.5
			V-2799.4z"/>
		<path style="fill:#FEC431;" d="M3775,1323.5c0-1150.4,5.7-1445.1,24.9-1437.5c32.5,13.4,2430.9,1410.7,2448.1,1426
			c9.6,9.6-1439.4,865.2-2381.1,1406.8l-91.9,51.7V1323.5z M4793.3,1469c134-78.5,239.3-147.4,233.5-155
			c-3.8-7.7-53.6-38.3-109.1-70.8c-53.6-30.6-197.2-112.9-313.9-181.8L4387.5,935v382.8v384.7l82.3-45.9
			C4513.8,1631.7,4659.3,1547.5,4793.3,1469z"/>
	</g>
</g>
</svg>
