<svg xmlns="http://www.w3.org/2000/svg" viewBox="0 0 51.21 42"><defs><style>.cls-1{fill:#fec638;}.cls-2{fill:#fee299;}.cls-3{fill:#fec73a;}.cls-4{fill:#fef7e6;}.cls-5{fill:#fefaee;}.cls-6{fill:#fec83e;}.cls-7{fill:#fec83f;}</style></defs><title>Asset 3</title><g id="Layer_2" data-name="Layer 2"><g id="Layer_1-2" data-name="Layer 1"><path class="cls-1" d="M46.65,0a27.25,27.25,0,0,1,4.54,14.18c.12,4.93-.37,9.74-2.58,14.41a6.06,6.06,0,0,1,1.88,4c-1.3,3-2,6.4-3.84,9.38h-1.5c-1-1.23-1.36-2.8-2-4.24-.42-1-.72-2-1.11-3-1.19-3-1.13-3.48,1.06-6.15-2.44-5.09-2.88-10.6-2.45-16.17A25,25,0,0,1,45.15,0Zm-.78,5.12a23.48,23.48,0,0,0-2,14,5.46,5.46,0,0,0,4.1-.13C48.6,13.19,48.09,10,45.87,5.12ZM45.8,27.2a13.19,13.19,0,0,0,1.79-6.14c-1.2.15-2.3-.28-3.41.32C44.07,23.39,45,25.05,45.8,27.2Zm1.41,4.6c-1.41-.8-1.68-.87-2.09-.55a1.43,1.43,0,0,0-.41,1.8,9.4,9.4,0,0,0,1.22,2.8A10.58,10.58,0,0,0,47.21,31.8Z"/><path class="cls-2" d="M21.71,41.59l-.06.41h-4.5a1.38,1.38,0,0,0,0-.45Z"/><path class="cls-3" d="M21.71,41.59l-4.6,0A19.5,19.5,0,0,1,3.23,32,21.86,21.86,0,0,1,5.64,5.93c5-5.63,13-7,18.76-4,3.75,2,5.7,5.14,6.73,9.08,1,3.71.06,7.18-1.44,10.57.68.77,1.6.43,2.35.66,3.39,1.06,4.74,3.46,4.29,7a12.83,12.83,0,0,1-6.78,10.34A16,16,0,0,1,21.71,41.59Zm-1.44-3A14.2,14.2,0,0,0,27.76,37a9.5,9.5,0,0,0,5.46-8.58c.09-2-.77-3-2.81-3.37C30,25,29.57,25,29.16,25a2.93,2.93,0,0,1-2.47-2.7,4.66,4.66,0,0,1,.43-2.67,12.38,12.38,0,0,0,1.06-7,10,10,0,0,0-6.39-8.48A12.68,12.68,0,0,0,7.85,8.21a18.41,18.41,0,0,0-4.2,16.94C5.54,33.08,13.33,39.24,20.27,38.57Z"/><path class="cls-4" d="M45.8,27.2c-.84-2.15-1.73-3.81-1.62-5.82,1.11-.6,2.21-.17,3.41-.32A13.19,13.19,0,0,1,45.8,27.2Z"/><path class="cls-5" d="M47.21,31.8a10.58,10.58,0,0,1-1.28,4.05,9.4,9.4,0,0,1-1.22-2.8,1.43,1.43,0,0,1,.41-1.8C45.53,30.93,45.8,31,47.21,31.8Z"/><path class="cls-6" d="M28.43,33a3,3,0,1,1,3.08-2.95A3.09,3.09,0,0,1,28.43,33Zm-.54-3.85A1.23,1.23,0,0,0,28,30.9c.78.19,1.25-.1,1.22-.94S28.69,28.86,27.89,29.16Z"/><path class="cls-7" d="M16.39,8a2.09,2.09,0,0,1,2.17,1.89A2.08,2.08,0,0,1,16.38,12a2.14,2.14,0,0,1-2.18-1.89A2.09,2.09,0,0,1,16.39,8Z"/><path class="cls-7" d="M10.48,18.4C8.4,17.67,8,17.19,8.18,15.87a2,2,0,0,1,1.76-1.79,1.93,1.93,0,0,1,2.15,1.29C12.61,16.51,12.08,17.43,10.48,18.4Z"/><path class="cls-6" d="M7.7,24.58c1.14-1.51,2-2,3.05-1.53a2,2,0,0,1,1.34,2.14,2.12,2.12,0,0,1-2,1.81C8.83,27.08,8.49,26.75,7.7,24.58Z"/><path class="cls-3" d="M15.5,33.54c-1.27,0-1.84-.51-1.9-1.74a2,2,0,0,1,2-2.29,2.06,2.06,0,0,1,2,2.08A2,2,0,0,1,15.5,33.54Z"/><path class="cls-4" d="M27.89,29.16c.8-.3,1.26,0,1.29.8s-.44,1.13-1.22.94A1.23,1.23,0,0,1,27.89,29.16Z"/></g></g></svg>