<svg xmlns="http://www.w3.org/2000/svg" viewBox="0 0 64.47 42"><defs><style>.cls-1{fill:#fec535;}.cls-2{fill:#fef9ed;}.cls-3{fill:#fec83e;}.cls-4{fill:#feca44;}</style></defs><title>Asset 1</title><g id="Layer_2" data-name="Layer 2"><g id="Layer_1-2" data-name="Layer 1"><path class="cls-1" d="M45.47,42h-27c-1.39-1.55-.8-3.59-1.23-5.5H14.67c-4.08,0-8.16,0-12.24,0-.87,0-1.89.31-2.4-.77a1.73,1.73,0,0,1,.65-1.56c4-4.58,15-15.16,16.78-16,0-4.68.05-9.43,0-14.16a6.74,6.74,0,0,1,1-4h27a6.94,6.94,0,0,1,1,4.19c-.08,4.38,0,8.77,0,13,4,4,7.76,7.78,11.6,11.56,2.12,2.08,4.07,4.34,6.4,6.21v1a4.83,4.83,0,0,1-2.87.51c-4.38,0-8.76,0-13.14,0-.63,0-1.33-.23-1.93.41C46.41,38.62,46.75,40.49,45.47,42ZM20.57,30.8c4.09.43,21,.29,22.84-.19V17.45l-3.2-3.54a8.72,8.72,0,0,0-4,4.95c-.76,2.63-1.84,5.17-2.83,7.72-.29.74-.47,1.66-1.58,1.8C30,27.3,30.43,24.92,29,23.43l-1.71,1.39c-.65.53-1.26,1.1-1.94,1.58-1.2.88-1.74.84-2.84-.1-.62-.53-1-1.3-2-1.62Zm0-22.68V21.33a19.53,19.53,0,0,0,3.61,3.33A36.19,36.19,0,0,0,28.47,21c-.4-1.17-.78-2.18-1.09-3.21a4.78,4.78,0,0,1,1.82-5.48,5.28,5.28,0,0,1,6.05.4c.5.4.64,1.21,1.39,1.26,1.38-.64,2.15-2.17,3.74-2.38,1.27.37,1.74,1.78,3,2.2V8.12Zm0,30.7H43.41c0-2,.31-3.9-.2-5.69H20.59Zm39.2-4.42L46.62,21.22V34.4Zm-42.43,0c0-4.52,0-8.75,0-13a.32.32,0,0,0-.1-.22c-.06,0-.16,0,.13,0L4.28,34.38ZM20.64,5.83H43.33a5.14,5.14,0,0,0-.08-2.7H20.58A6.84,6.84,0,0,0,20.64,5.83Zm11,18,.54,0c.86-2.22,1.75-4.43,2.55-6.67a2.83,2.83,0,0,0-1.22-3.24,2.82,2.82,0,0,0-4.24,3.18C30,19.36,30.85,21.6,31.64,23.86Z"/><path class="cls-2" d="M31.64,23.86c-.79-2.26-1.62-4.5-2.37-6.76a2.82,2.82,0,0,1,4.24-3.18,2.83,2.83,0,0,1,1.22,3.24c-.8,2.24-1.69,4.45-2.55,6.67Zm1.87-7.65a1.6,1.6,0,0,0-1.73-1.67,1.53,1.53,0,0,0-1.43,1.7,1.52,1.52,0,0,0,1.44,1.68A1.73,1.73,0,0,0,33.51,16.21Z"/><path class="cls-3" d="M31.89,37.49a1.4,1.4,0,0,1-1.41-1.63,1.34,1.34,0,0,1,1.45-1.35,1.49,1.49,0,1,1,0,3Z"/><path class="cls-4" d="M33.51,16.21a1.73,1.73,0,0,1-1.72,1.71,1.52,1.52,0,0,1-1.44-1.68,1.53,1.53,0,0,1,1.43-1.7A1.6,1.6,0,0,1,33.51,16.21Z"/></g></g></svg>