<svg xmlns="http://www.w3.org/2000/svg" viewBox="0 0 173.19 175.88"><defs><style>.cls-1{fill:#fec432;}.cls-2{fill:#fec532;}</style></defs><title>Asset 2</title><g id="Layer_2" data-name="Layer 2"><g id="Layer_1-2" data-name="Layer 1"><path class="cls-1" d="M37.16,30.94a57,57,0,0,1-9.69-.4c-6.42-.62-12.78-1.62-18.81-4.07a24.3,24.3,0,0,1-5.75-3.13A6.32,6.32,0,0,1,0,17.76a34.91,34.91,0,0,0,0-4.34C-.19,10.68,1.14,8.83,3.21,7.3a28.71,28.71,0,0,1,8.56-4A62.38,62.38,0,0,1,23.21.8,76.87,76.87,0,0,1,33.38,0c2.84,0,5.68,0,8.52,0A86.44,86.44,0,0,1,54.42,1.34a55.87,55.87,0,0,1,12,3.24,18.13,18.13,0,0,1,6.54,4.13,5.25,5.25,0,0,1,1.56,3.9c-.06,2,0,3.93,0,5.9A4.94,4.94,0,0,1,73,22.1a14.09,14.09,0,0,1-3.43,2.61,43.83,43.83,0,0,1-13.34,4.51,98.44,98.44,0,0,1-12,1.5C41.88,30.89,39.52,30.86,37.16,30.94Z"/><path class="cls-1" d="M135.84,31.63a59.12,59.12,0,0,1-9.69-.39,70.68,70.68,0,0,1-17-3.4,27.59,27.59,0,0,1-7.39-3.72,6.42,6.42,0,0,1-3-5.86,29,29,0,0,0,0-4.17c-.21-2.74,1.14-4.57,3.21-6.11a28.93,28.93,0,0,1,8.56-4,62.2,62.2,0,0,1,11.44-2.46,78.75,78.75,0,0,1,10.52-.8c2.84,0,5.68,0,8.51,0A88.16,88.16,0,0,1,153,2a64.58,64.58,0,0,1,10.19,2.53,29.27,29.27,0,0,1,6.51,3.17,10,10,0,0,1,2.51,2.38,4.48,4.48,0,0,1,1,2.89c0,2.08,0,4.17,0,6.25a4.91,4.91,0,0,1-1.47,3.58,14.1,14.1,0,0,1-3.44,2.6,43.34,43.34,0,0,1-13.17,4.49,98.29,98.29,0,0,1-12,1.51C140.68,31.58,138.26,31.57,135.84,31.63Z"/><path class="cls-1" d="M86.35,89H89a88.42,88.42,0,0,1,14.43,1.34,55.3,55.3,0,0,1,12,3.24,18.12,18.12,0,0,1,6.55,4.11,5.27,5.27,0,0,1,1.59,3.89c-.06,2,0,3.93,0,5.9a5,5,0,0,1-1.43,3.6,13.7,13.7,0,0,1-3.43,2.62,43.3,43.3,0,0,1-13.16,4.5,100.56,100.56,0,0,1-12,1.51,96.72,96.72,0,0,1-11.79.18c-7.54-.35-15-1.25-22.21-3.73a26.18,26.18,0,0,1-7.67-3.89A6.22,6.22,0,0,1,49,106.77a31.43,31.43,0,0,0,0-4.34c-.22-2.74,1.09-4.61,3.16-6.14a28.19,28.19,0,0,1,7.91-3.81,64.26,64.26,0,0,1,12.26-2.72A80.74,80.74,0,0,1,86.35,89Z"/><path class="cls-2" d="M74.43,47.82c0,2.89,0,5.78,0,8.67A4.37,4.37,0,0,1,73,59.36a18.15,18.15,0,0,1-6.67,4.23,64.25,64.25,0,0,1-14.15,3.57,102.25,102.25,0,0,1-20.9.9A72.16,72.16,0,0,1,9.3,64a23.54,23.54,0,0,1-6.52-3.48A6.31,6.31,0,0,1,0,55c.1-2.41,0-4.83,0-7.41A43.34,43.34,0,0,0,7,51.12a66.66,66.66,0,0,0,12,3.15c3.46.62,7,.85,10.44,1.3a9.79,9.79,0,0,0,1.21,0c3.36,0,6.72,0,10.07,0a92,92,0,0,0,14.43-1.34,66,66,0,0,0,11.68-2.89,35,35,0,0,0,6.53-3.13A1.92,1.92,0,0,1,74.43,47.82Z"/><path class="cls-2" d="M173.16,48.41c0,2.92,0,5.64,0,8.36A4.74,4.74,0,0,1,171.72,60a17.56,17.56,0,0,1-6.49,4.2,57.62,57.62,0,0,1-11.76,3.26,101.08,101.08,0,0,1-23.62,1.29,72.39,72.39,0,0,1-21.78-4.06,23.84,23.84,0,0,1-6.67-3.57,6.2,6.2,0,0,1-2.68-5.33c.11-2.42,0-4.85,0-7.43,1.21.67,2.3,1.29,3.4,1.86a47.91,47.91,0,0,0,13.22,4.33,106.64,106.64,0,0,0,11.27,1.51,123.05,123.05,0,0,0,16.29.19,84.08,84.08,0,0,0,18.7-2.89,39.59,39.59,0,0,0,10.9-4.69A4.7,4.7,0,0,1,173.16,48.41Z"/><path class="cls-2" d="M49.05,136.72a9.47,9.47,0,0,1,2.48,1.33,49.13,49.13,0,0,0,14.16,4.78A106.29,106.29,0,0,0,77,144.34a123.91,123.91,0,0,0,16.46.18,82.46,82.46,0,0,0,18.2-2.78A37.52,37.52,0,0,0,122.69,137a5.17,5.17,0,0,1,.74-.32c0,3,0,6,0,8.89A4.33,4.33,0,0,1,122,148.3a18.09,18.09,0,0,1-6.66,4.24,63.74,63.74,0,0,1-14.15,3.59,101.6,101.6,0,0,1-20.9.9A71.84,71.84,0,0,1,58.36,153a23.45,23.45,0,0,1-6.67-3.57A6.18,6.18,0,0,1,49,144.05C49.13,141.63,49.05,139.2,49.05,136.72Z"/><path class="cls-2" d="M.26,66.43c1.29.69,2.6,1.4,3.92,2.07a48.48,48.48,0,0,0,13.29,4.12A85.69,85.69,0,0,0,27,74c3,.21,6,.44,9,.47,3.71,0,7.41-.12,11.08-.45a76.27,76.27,0,0,0,20-4.06,37.3,37.3,0,0,0,7-3.51c.46.38.29.82.29,1.19,0,2.14-.07,4.29,0,6.43A5.77,5.77,0,0,1,72,78.91a22.85,22.85,0,0,1-7,3.77,59.14,59.14,0,0,1-11.51,2.88c-3.53.54-7.07.86-10.64,1.11a78.9,78.9,0,0,1-8.83.16c-8.29-.37-16.52-1.21-24.39-4.09a19.82,19.82,0,0,1-8-4.68A5.5,5.5,0,0,1,0,73.87c.08-2.2,0-4.4,0-6.6C0,67,0,66.7.26,66.43Z"/><path class="cls-2" d="M98.75,67.16c.78-.06,1.15.48,1.63.76A46.54,46.54,0,0,0,114.44,73a109.76,109.76,0,0,0,14.71,1.88,106.93,106.93,0,0,0,11.6.14c3.26-.15,6.54-.43,9.79-.87a73,73,0,0,0,15.24-3.51,31.89,31.89,0,0,0,7-3.52c.53.34.34.79.35,1.15,0,2.14-.07,4.29,0,6.42a5.75,5.75,0,0,1-2.43,4.91,23.44,23.44,0,0,1-7.11,3.83,65.35,65.35,0,0,1-13.73,3.19,97.72,97.72,0,0,1-16.91.93c-8.35-.33-16.64-1.19-24.57-4.08a20.11,20.11,0,0,1-8-4.66,5.54,5.54,0,0,1-1.72-4.18C98.8,72.13,98.75,69.65,98.75,67.16Z"/><path class="cls-2" d="M123.42,155.17c0,3.28.11,6.22,0,9.16a5.19,5.19,0,0,1-2.31,3.53,24.43,24.43,0,0,1-7.28,3.88,66.56,66.56,0,0,1-13.73,3.16,97.8,97.8,0,0,1-17.09.91c-8.23-.36-16.4-1.22-24.22-4.08a20.21,20.21,0,0,1-8-4.65A5.5,5.5,0,0,1,49,162.9c.07-2.48,0-5,0-7.45.78-.08,1.14.47,1.62.74a46.18,46.18,0,0,0,14.06,5.06,108.24,108.24,0,0,0,14.7,1.89,109,109,0,0,0,11.43.14c3.33-.15,6.66-.42,10-.87a72.34,72.34,0,0,0,15.24-3.51A32.65,32.65,0,0,0,123.42,155.17Z"/><path class="cls-2" d="M74.44,29.31c0,2.85.07,5.68,0,8.51A5.39,5.39,0,0,1,72,41.68a26.29,26.29,0,0,1-9.25,4.54,76,76,0,0,1-12,2.51c-3,.41-6.08.57-9.13.74-2,.1-3.92.25-5.88.19-8.24-.29-16.43-1-24.36-3.5a30.41,30.41,0,0,1-8-3.74,10.65,10.65,0,0,1-2.39-2.25A4.06,4.06,0,0,1,.06,37.66c0-2.77,0-5.55,0-8.26.48-.35.74,0,1,.17a44.32,44.32,0,0,0,15,5.52A100.9,100.9,0,0,0,31.43,37c2.77.13,5.55.28,8.31.17,3.85-.16,7.7-.4,11.54-.89a79.38,79.38,0,0,0,13.65-2.84,39.2,39.2,0,0,0,8.64-3.88A1,1,0,0,1,74.44,29.31Z"/><path class="cls-2" d="M173.06,30a12.06,12.06,0,0,1,.1,2.69c0,1.57-.06,3.13,0,4.69a5.85,5.85,0,0,1-2.52,5,28,28,0,0,1-10.41,4.86,76.91,76.91,0,0,1-13.89,2.49,104.3,104.3,0,0,1-11.58.58c-8.3-.24-16.54-1-24.53-3.48a30.53,30.53,0,0,1-8-3.71,13.14,13.14,0,0,1-2.42-2.23,3.83,3.83,0,0,1-1.08-2.32c-.06-2.88,0-5.76,0-8.61a1.12,1.12,0,0,1,1.06.3c4.66,2.93,9.83,4.44,15.15,5.52a104,104,0,0,0,15.24,1.85,83.6,83.6,0,0,0,9.36.14c3.5-.2,7-.39,10.5-.85a81.31,81.31,0,0,0,13.81-2.9,37.52,37.52,0,0,0,8.31-3.78C172.45,30.14,172.65,29.9,173.06,30Z"/><path class="cls-2" d="M49.32,118.19a14,14,0,0,1,2.48,1.4,47.6,47.6,0,0,0,11.67,4.14,92.9,92.9,0,0,0,11.75,1.83,103.13,103.13,0,0,0,13.83.56c3.74-.17,7.47-.39,11.2-.88a81.39,81.39,0,0,0,13.64-2.83,43.43,43.43,0,0,0,9.26-4.21c.46.28.3.72.31,1.08,0,2.14-.06,4.29,0,6.43a5.87,5.87,0,0,1-2.56,5,28.19,28.19,0,0,1-10.41,4.84,76.15,76.15,0,0,1-13.9,2.49,101.1,101.1,0,0,1-11.92.57c-8.18-.26-16.31-1-24.18-3.48a30,30,0,0,1-8-3.73,10.87,10.87,0,0,1-2.4-2.24A4.42,4.42,0,0,1,49,126.33c0-2.49,0-5,0-7.47A.66.66,0,0,1,49.32,118.19Z"/></g></g></svg>