<svg xmlns="http://www.w3.org/2000/svg" viewBox="0 0 165.57 154.94"><defs><style>.cls-1{fill:#fec432;}</style></defs><title>Asset 22</title><g id="Layer_2" data-name="Layer 2"><g id="Layer_1-2" data-name="Layer 1"><path class="cls-1" d="M149.54,99.86a1.28,1.28,0,0,1-1.37,1.12c-1.17,0-2.33,0-3.5,0q-62.19,0-124.38-.06c-1.58,0-3.64,1.12-4.81-1.08.6-.07,1-.34,1-1l2-.22c-1-1-1.51-.54-1.89.29-.59.09-1.1.26-1,1a11.17,11.17,0,0,0-4.9.75c-.37-8-.34-15.64,2.48-23.13A29.08,29.08,0,0,1,27.74,61.44C33.37,58.55,39.48,57.15,45.6,56a125.42,125.42,0,0,1,19.17-2.17c4.28-.16,8.29-1.92,12.62-3.25V26.21c-6.51-.79-12.9-1.37-19.21-2.42-4.18-.69-8.43-1-12.5-2.63-2.74-1.07-5.09-2.29-6.88-4.57-.7-5.92.75-8.49,6.34-10.68A64.31,64.31,0,0,1,62.82,1.69C70.89.94,79-.42,87.05.13c10,.68,20.13.8,29.87,3.75a17.28,17.28,0,0,1,8.62,5.54c3,3.66,2.44,7.66-1.6,10.14a27.34,27.34,0,0,1-12.54,4.16c-5.46.34-10.85,1.68-16.36,1.21a19.57,19.57,0,0,0-7.93,1.4c-1.7,7.87,1.32,15.84-.84,23.8a49.41,49.41,0,0,0,14.92,3.64,140.79,140.79,0,0,1,27.57,5.28c10.93,3.28,19.76,9.74,22.38,21.65,1.76,8,3.23,16.23,2.06,24.93H12c-1-.74-.5-1.93-.43-3l.4-.33c.13-.11.25-.27.4-.29a9.29,9.29,0,0,1,1.49-.15q69,0,137.94-.09a2,2,0,0,0,.61-.26c-.18-2-1.74-1.4-2.89-1.55,0-.39,0-.8-.65-.65C148.75,99.87,149.25,99.74,149.54,99.86Zm-59.06-6c.25-.19,1.22.21.57-.71l-.51.77c-.17.25-1.26-.15-.52.74Zm50.07,1c0,.56,0,1,.72.51l-.79-.45c0-.83,0-1.67.09-2.49.84-7.14-5.07-15.14-13-16.81A81.77,81.77,0,0,0,114.4,73.8c-6.51-.3-12.88.88-19.32,1.27-2.66.17-6.1.31-7.8,3.94,1.56,1.72,3.48,3.55,3.19,6.21a7.75,7.75,0,0,0,2.78,7.3c1.18-1.86,3.06-1.64,4.9-1.63,9.48,0,19,0,28.44,0a14.16,14.16,0,0,1,7.55,1.8C136.05,93.75,138,95.41,140.55,94.85Zm-62-15.94c-1.61-3-4.31-3.53-6.89-4-3.23-.55-6.55-.78-9.77-1.3A61.35,61.35,0,0,0,39.19,74c-12.25,2.59-18,9.78-15,22,2.43-1,4.86-2,7.21-3.12a11.3,11.3,0,0,1,4.75-1.15c11.59-.26,23.2.5,34.8-.37a5.33,5.33,0,0,0,3.48-1.52C74.58,85.72,74.74,81.76,78.54,78.91ZM46.38,14.63a42.33,42.33,0,0,0,21.45,4.19c1.11-1.38,3.34-1.64,4.45-3.44C65.43,10.5,52.75,10,46.38,14.63ZM87.44,9.21C88.5,12.05,90,13,92.26,12.92a28.12,28.12,0,0,1,5.95.31,30.08,30.08,0,0,0,15.17-1A59,59,0,0,0,87.44,9.21ZM106,17.45c-5,.53-10.28-.28-15.09,1.92A37.47,37.47,0,0,0,106,17.45ZM82.08,95.34c-1-.45-1.72-.61-2.34.16A2,2,0,0,0,82.08,95.34Zm4.82.14a.85.85,0,0,0,1.3,0s-.14-.26-.25-.29C87.54,95,87.11,94.91,86.9,95.48Z"/><path class="cls-1" d="M0,152.63c.84-4.32.34-8.63,1.41-12.81.38-1.46.47-3,1.61-4a8.27,8.27,0,0,0,2.57-7.21,4.5,4.5,0,0,1,.83-3.32c4.33-5.09,3.69-11.35,4.18-17.35a3.74,3.74,0,0,1,.28-.77H24c1,2.33,0,4.92.74,7a1.55,1.55,0,0,0,1.9.78c7.21-1.86,14.43-1.11,21.69-.34a108.3,108.3,0,0,0,11,.26q25.49,0,51,0a88.65,88.65,0,0,0,9.88-.69c5.93-.67,11.92-.5,17.44,1.81,3-2.44,1-6.35,3.31-9h12c1.43,1.29,1.63,3.21,1.59,5.25-.05,2.66,0,5.32,0,8S155,125.14,157,127a3.1,3.1,0,0,1,1.45,2.5c-.19,2.17,1.09,3.51,2.77,4.32a3.19,3.19,0,0,1,1.92,2.69c.22,5,1.83,9.7,2.3,14.61a2.93,2.93,0,0,1-.29,2.28c-.22.19-.35.41-.46.4-8.81-.34-17.51,1.22-26.31,1.19-34.64-.12-69.27.05-103.91-.11-10.11-.05-20.2-1.3-30.33-1.05A7.36,7.36,0,0,1,0,152.63Z"/></g></g></svg>