<?xml version="1.0" encoding="iso-8859-1"?>
<!-- Generator: Adobe Illustrator 22.1.0, SVG Export Plug-In . SVG Version: 6.00 Build 0)  -->
<svg version="1.1" id="Layer_1" xmlns="http://www.w3.org/2000/svg" xmlns:xlink="http://www.w3.org/1999/xlink" x="0px" y="0px"
	 viewBox="0 0 1000 1000" style="enable-background:new 0 0 1000 1000;" xml:space="preserve">
<g>
	<g transform="translate(0.000000,512.000000) scale(0.100000,-0.100000)">
		<path style="fill:#FEC431;" d="M1163.3,5000.6c-34.5-17.3-99.6-122.6-233.7-387l-185.8-364l3.8-2212.9l3.8-2212.9l42.2-78.6
			c57.5-109.2,197.3-228,302.7-256.7c183.9-51.7,408.1,17.2,515.4,159c113,149.4,107.3,5.7,107.3,2408.3v2203.3l-180.1,362.1
			c-162.9,323.8-187.8,364-243.3,383.2C1220.8,5031.2,1222.7,5031.2,1163.3,5000.6z M1268.7,4431.6l30.7-57.5H1240
			c-30.7,0-57.5,3.8-57.5,9.6c0,13.4,44.1,105.4,49.8,105.4C1236.1,4489,1251.5,4464.1,1268.7,4431.6z M1393.3,2247.4v-1801h-162.9
			h-162.9v1801v1801h162.9h162.9V2247.4z M1393.3,5.8c0-97.7-7.7-124.5-47.9-162.9c-65.1-67.1-149.4-63.2-222.3,7.6
			c-47.9,49.8-55.6,70.9-55.6,162.9v107.3h162.9h162.9V5.8z"/>
		<path style="fill:#FEC431;" d="M3031.4,4994.8c-115-40.2-218.4-136-270.1-245.2l-46-97.7v-2552v-2552l49.8-38.3
			c67.1-53.6,147.5-49.8,212.7,5.7l53.6,46l9.6,2532.9l9.6,2532.9l46,36.4c44.1,36.4,122.6,36.4,3205.4,36.4h3161.3l55.5-55.6
			l55.6-55.6V1749.2v-2837.5l47.9-46c63.2-65.1,166.7-65.1,231.8,0l46,46l-3.8,2879.7c-5.7,2766.6-7.6,2881.6-42.1,2946.7
			c-49.8,93.9-141.8,187.8-231.8,235.7l-76.6,42.1l-3218.8,3.8C3567.8,5021.7,3096.5,5017.8,3031.4,4994.8z"/>
		<path style="fill:#FEC431;" d="M4499,3693.9c-136-38.3-210.8-86.2-316.1-203.1c-122.6-136-170.5-274-160.9-459.8
			c26.8-479,511.5-756.8,946.5-544.1c115,57.5,231.8,178.2,297,312.3c63.2,126.5,65.1,392.8,3.8,525
			C5137,3611.5,4794,3776.3,4499,3693.9z M4826.6,3347.1c137.9-70.9,199.3-247.1,139.9-400.4c-46-122.6-136-187.8-275.9-197.3
			c-132.2-9.6-206.9,23-281.6,120.7C4202,3144.1,4518.1,3506.2,4826.6,3347.1z"/>
		<path style="fill:#FEC431;" d="M6729.1,3703.5c-53.6-21.1-84.3-59.4-97.7-128.4c-7.7-44.1,0-69,40.2-116.9l51.7-61.3h722.3h724.2
			l38.3,44.1c21.1,23,46,61.3,51.7,84.3c17.2,57.5-36.4,155.2-95.8,178.2C8104.8,3726.5,6784.7,3726.5,6729.1,3703.5z"/>
		<path style="fill:#FEC431;" d="M6717.6,3042.5c-72.8-40.2-105.4-128.4-74.7-201.2c13.4-32.6,40.2-67.1,59.4-76.6
			c19.2-11.5,385.1-19.2,908.2-19.2s889,7.7,908.2,19.2c59.4,30.7,88.1,124.5,59.4,191.6c-47.9,115-49.8,115-971.4,115
			C6918.8,3069.3,6757.9,3065.5,6717.6,3042.5z"/>
		<path style="fill:#FEC431;" d="M4066,1375.6c-70.9-69-65.1-164.8,11.5-228l59.4-49.8h699.3h699.3l55.5,55.6
			c70.9,72.8,74.7,157.1,7.7,222.2l-46,47.9h-720.4H4112L4066,1375.6z"/>
		<path style="fill:#FEC431;" d="M4066,398.5c-67.1-65.1-65.1-168.6,1.9-229.9l51.7-47.9h1205.1h1205.1l46,47.9
			c32.6,30.7,47.9,67.1,47.9,115s-15.3,84.3-47.9,115l-46,47.9H5320.9H4112L4066,398.5z"/>
		<path style="fill:#FEC431;" d="M7014.6,400.4c-74.7-63.2-74.7-170.5,0-233.8l51.7-46h707h707l51.7,46
			c40.3,34.5,53.7,61.3,53.7,116.9s-13.4,82.4-53.7,116.9l-51.7,46h-707h-707L7014.6,400.4z"/>
		<path style="fill:#FEC431;" d="M4104.3-228c-99.6-53.6-118.8-176.3-38.3-254.8l46-47.9h720.4h720.4l46,47.9
			c80.5,78.5,59.4,201.2-42.2,254.8C5499.1-197.3,4159.9-197.3,4104.3-228z"/>
		<path style="fill:#FEC431;" d="M6027.9-260.6c-32.6-34.5-55.6-76.6-55.6-107.3s23-72.8,55.6-107.3l55.5-55.6H7120h1034.6l51.7,46
			c40.2,34.5,53.7,61.3,53.7,116.9c0,55.5-13.4,82.4-53.7,116.9l-51.7,46H7120H6083.5L6027.9-260.6z"/>
		<path style="fill:#FEC431;" d="M464-873.7c-132.2-32.6-256.7-134.1-327.6-270.1C101.9-1207,100-1287.5,100-2820.2
			c0-1532.8,1.9-1613.2,36.4-1676.4c49.8-93.9,141.8-187.8,231.8-235.7l76.6-42.2l2883.5-5.7c3169-5.7,2977.4-11.5,3126.8,111.1
			c38.3,32.6,92,101.5,118.8,157.1l49.8,99.6V-2826c0,1720.5,3.8,1641.9-103.5,1783.7c-26.8,36.4-95.8,90-149.4,120.7L6269.3-866
			l-2873.9,3.8C1814.8-862.2,496.6-866,464-873.7z M6238.7-1232l59.4-49.8v-1528.9c0-841.1-5.7-1544.2-11.5-1561.5
			c-34.5-90.1,65.1-86.2-2939.1-86.2H527.3l-55.6,55.6l-55.6,55.6V-2826c0,1651.5-3.8,1582.6,103.5,1624.7
			c21.1,9.6,1304.8,17.2,2850.9,17.2l2808.8,1.9L6238.7-1232z"/>
		<path style="fill:#FEC431;" d="M1565.7-1864.2c-208.8-55.5-346.8-172.4-438.7-371.7c-69-151.4-69-367.9,1.9-519.2
			c63.2-137.9,160.9-245.3,277.8-308.5c342.9-185.8,745.3-51.7,910.1,302.7c53.6,115,57.5,136,49.8,291.2
			c-7.7,132.2-19.2,187.8-61.3,268.2c-95.8,187.8-258.6,308.5-469.4,348.7C1707.5-1829.7,1696-1829.7,1565.7-1864.2z M1872.2-2207.1
			c109.2-55.6,172.4-160.9,172.4-287.4c0-266.3-297-415.8-515.4-258.7c-82.4,57.5-124.5,145.6-124.5,258.7
			C1402.8-2247.4,1651.9-2096,1872.2-2207.1z"/>
		<path style="fill:#FEC431;" d="M3155.9-1847c-116.9-44.1-155.2-191.6-70.9-270.1c44.1-42.1,55.6-42.1,601.6-42.1
			c517.3,0,559.4,1.9,601.6,36.4c61.3,49.8,63.2,176.3,1.9,235.7c-42.2,44.1-51.7,44.1-574.8,47.9
			C3424.1-1837.4,3171.2-1841.2,3155.9-1847z"/>
		<path style="fill:#FEC431;" d="M3083.1-2548.2c-59.4-63.2-55.6-166.7,7.7-226.1l49.8-46h718.5h718.5l46,53.6
			c59.4,70.9,59.4,155.2-1.9,214.6l-46,47.9h-726.1h-726.1L3083.1-2548.2z"/>
		<path style="fill:#FEC431;" d="M3090.8-3521.5c-49.8-40.2-67.1-124.5-38.3-199.3c32.6-84.3,53.6-86.2,1300.9-86.2h1182.1
			l55.5,55.6c70.9,72.8,74.7,157.1,7.7,222.2l-46,47.9H4347.6C3155.9-3481.2,3140.6-3481.2,3090.8-3521.5z"/>
		<path style="fill:#FEC431;" d="M7051-875.6c-55.5-23-107.3-124.5-90-178.2c5.8-23,30.7-61.3,51.7-84.3l38.3-44.1h724.2h722.3
			l51.7,61.3c59.4,69,55.6,151.3-11.5,216.5c-36.4,36.4-65.1,38.3-741.5,42.2C7409.3-860.3,7074-866,7051-875.6z"/>
		<path style="fill:#FEC431;" d="M7043.3-1536.6c-97.7-53.6-113-164.8-30.7-252.9c36.4-40.2,55.6-44.1,272.1-44.1
			s235.7,3.8,272.1,44.1c21.1,23,44.1,57.5,49.8,74.7c19.2,53.6-24.9,149.4-84.3,178.2C7449.5-1498.3,7114.2-1498.3,7043.3-1536.6z"
			/>
		<path style="fill:#FEC431;" d="M8279.1-1542.3c-149.5-53.7-247.2-141.8-304.6-279.7c-24.9-57.5-28.7-260.6-28.7-1329.6v-1260.7
			l49.8-99.6c26.8-55.6,80.5-124.5,118.8-157.1c134.1-111.1,187.8-116.9,841.1-111.1c532.6,5.7,595.8,9.6,657.2,42.2
			c93.9,49.8,187.8,141.8,235.7,231.8c42.2,76.6,42.2,80.5,42.2,1360.3v1283.7l-42.2,78.5c-23,42.2-74.7,107.3-113,141.8
			c-139.9,122.6-151.4,124.5-783.6,128.4C8440.1-1507.8,8365.3-1511.7,8279.1-1542.3z M9528.3-1896.8l46-53.7v-1197.4v-1199.4
			l-57.5-55.6l-55.6-57.5l-559.4,5.8l-557.5,5.7l-36.4,46c-34.5,42.1-36.4,92-36.4,1254.9v1212.8l44.1,38.3
			c23,21.1,55.6,44.1,70.9,49.8c15.3,5.8,268.2,9.6,561.4,7.7l534.6-3.8L9528.3-1896.8z"/>
		<path style="fill:#FEC431;" d="M8750.4-2872c-95.8-65.1-137.9-136-149.4-243.3c-11.5-120.7,17.2-193.5,111.1-275.9
			c166.7-151.4,427.3-84.3,509.6,130.3c38.3,105.4,26.8,197.3-38.3,297C9095.3-2829.8,8880.7-2783.8,8750.4-2872z"/>
		<path style="fill:#FEC431;" d="M7052.9-2186.1c-128.4-55.5-118.8-251,11.5-297c80.5-26.8,360.2-26.8,440.7,0
			c134.1,47.9,139.9,241.4,7.7,297C7430.4-2151.6,7133.4-2151.6,7052.9-2186.1z"/>
		<path style="fill:#FEC431;" d="M7014.6-4504.4c-74.7-63.2-74.7-170.5,0-233.7c47.9-42.2,69-46,270.1-46
			c199.3,0,222.2,3.8,268.2,44.1c40.2,32.6,51.7,61.3,51.7,118.8s-11.5,86.2-51.7,118.8c-46,40.2-69,44.1-268.2,44.1
			C7083.6-4458.4,7062.5-4462.2,7014.6-4504.4z"/>
	</g>
</g>
</svg>
