<svg xmlns="http://www.w3.org/2000/svg" viewBox="0 0 484.17 416.12"><defs><style>.cls-1{fill:#fec431;}</style></defs><title>Asset 4</title><g id="Layer_2" data-name="Layer 2"><g id="Layer_1-2" data-name="Layer 1"><path class="cls-1" d="M260.3,139v50.46c1.73,1,3.6.51,5.35.51q65.25.06,130.48,0c7.76,0,15.18,1.88,21.32,6.3,8.06,5.81,13.53,13.62,14.75,24.06,2,16.92.34,33.86.92,50.78.06,1.79,0,3.59,0,5.16,1.57,1.12,2.94.69,4.22.69,7,.05,14,.2,21,0,11.63-.35,19.19,5.73,24.31,15.36a15.56,15.56,0,0,1,1.52,7.13q-.09,47,0,94A17.91,17.91,0,0,1,480.52,404c-5.68,7.88-13.39,12.11-23.35,12.08-28.33-.09-56.66,0-85,0-8,0-14.88-2.81-20.17-8.74a25.17,25.17,0,0,1-6-12.06,68.3,68.3,0,0,1-.85-13.29q0-38.51,0-77c0-11.05,4.59-19.67,14.1-25.41a18.74,18.74,0,0,1,9.85-2.51c9.15,0,18.29,0,27.74,0V226.31H260.38V277c9.14,0,18.09,0,27.05,0a17.87,17.87,0,0,1,6.27,1c8.41,3,14.39,8.54,16.9,17.17a36.64,36.64,0,0,1,1.54,10.16c0,27.16.13,54.32-.11,81.48-.06,6.5-1.34,12.85-5.43,18.5-3.56,4.93-8.28,7.74-13.71,9.62a29.33,29.33,0,0,1-9.74,1.15q-42-.13-84,0c-10.9,0-22.5-7.09-25.26-18.61-.8-3.32-1.74-6.65-1.75-10.08,0-27.49-.12-55,0-82.48.05-8.65,2.61-16.54,9.78-22.15,4.18-3.27,8.8-5.68,14.31-5.7,7.66,0,15.33,0,23,0h4.61V226.24h-136c-.94,3.61-1.28,38.51-.48,50.17,1.1,1.09,2.5.58,3.77.59,7.49.05,15,.48,22.48-.08,11.52-.85,23.83,11,24.71,21.18.34,3.92.79,7.84.79,11.79,0,26.16.1,52.32,0,78.49-.05,10.11-4,18.45-12.81,23.95A24,24,0,0,1,113.73,416c-29.66.13-59.32.32-89-.06-11.81-.14-21.34-8.44-24.53-19.79-.39-1.4-.09-3-.09-4.49C.13,361.79.37,332,0,302.14c-.13-11,7.64-20.95,17.48-24.13a19.66,19.66,0,0,1,6.27-1c8.17.09,16.34.05,24.5,0a3.48,3.48,0,0,0,2.54-.49c.69-1.25.32-2.77.32-4.22,0-13.67.08-27.33,0-41a60,60,0,0,1,2-15.56c2.44-9.5,8.27-16.15,16.61-21,6.17-3.55,12.8-4.78,19.79-4.78H223.37c1-3.83,1.32-38.79.52-50.38-1.09-1.09-2.5-.59-3.76-.6q-11.25-.08-22.5,0c-8.81.05-15.24-4.23-20.51-10.9-3.89-4.91-4.81-10.83-4.87-16.61q-.41-41.49,0-83c.05-6.9,1.71-13.71,6.29-19.19a26.49,26.49,0,0,1,13-8.31,33.49,33.49,0,0,1,9.77-1c28,.05,56,0,84,.05,11.79,0,22.18,7.14,25.35,19.17a40.07,40.07,0,0,1,1.51,10.17c0,27.16.09,54.32-.09,81.48-.05,8.61-2.39,16.56-9.55,22.25-4.3,3.43-9,5.9-14.73,5.91Zm-18.19-21c11.32,0,22.65,0,34,0,8.9,0,15-6.23,15-15.21q0-33.23,0-66.44a12.82,12.82,0,0,0-.45-4.4c-3.19-9.25-7.89-11.63-16.55-11.8-21.3-.43-42.62-.24-63.93-.05-3.49,0-7.29.32-10.25,2.68a16.87,16.87,0,0,0-6.86,14c.14,21.81.05,43.62.06,65.43,0,9.65,6,15.74,15.52,15.75Q225.38,118.05,242.11,118Zm-49,228.47c0,11,.13,22,0,33-.15,9.53,7,16.67,16.58,16.6q32.46-.21,64.93,0a16,16,0,0,0,16.57-16.62c-.17-14.65,0-29.3,0-43.95,0-7.32.07-14.65,0-22-.06-4.79-1.68-9.27-5.46-12.12A17.89,17.89,0,0,0,274.58,298c-14,.15-28,.06-41.95.06-8,0-16-.06-24,0-4.79.05-9.26,1.68-12.13,5.44a17.58,17.58,0,0,0-3.45,11.05C193.23,325.19,193.13,335.85,193.13,346.5Zm271,.46c0-12,0-24,0-36,0-2.23-.26-4.31-1.67-6-3.6-4.42-8-7-14-7-17.65.14-35.3,0-53,0-4.83,0-9.66-.11-14.49,0a14.23,14.23,0,0,0-13.9,14.32q0,34.72,0,69.45a11.43,11.43,0,0,0,.94,5.27C371,393,375.59,396,382.16,396q23,0,46,0c7.16,0,14.33-.14,21.48,0,6.64.16,15.38-6.75,14.75-14.65C463.45,370,464.13,358.45,464.13,347Zm-444,.09c0,12,0,24,0,36,0,2.21.17,4.34,1.63,6,3.66,4.31,8,7.08,14,7,16.81-.15,33.63-.05,50.44-.05,5.66,0,11.33.11,17,0a14.19,14.19,0,0,0,13.93-14.27q0-34.71,0-69.43a12.11,12.11,0,0,0-.33-3.92c-2.46-6.69-7.9-10.34-15.21-10.35H57.13c-7.49,0-15,.14-22.47,0-6.66-.17-15.4,6.77-14.77,14.62C20.81,324,20.13,335.57,20.13,347.05Z"/></g></g></svg>