<svg xmlns="http://www.w3.org/2000/svg" viewBox="0 0 484.98 492.27"><defs><style>.cls-1{fill:#fec432;}.cls-2{fill:#fec535;}.cls-3{fill:#fec532;}.cls-4{fill:#fec533;}.cls-5{fill:#fec739;}</style></defs><title>Asset 6</title><g id="Layer_2" data-name="Layer 2"><g id="Layer_1-2" data-name="Layer 1"><path class="cls-1" d="M106.57,492.18c-17,0-34,.12-51-.06a27,27,0,0,1-19.54-8.5c-3.86-3.94-5.8-8.86-6.91-14.09-2-9.26-.29-18.49.59-27.7A103.39,103.39,0,0,1,33,425.31a51.7,51.7,0,0,1,10.77-21c5.6-6.41,13-9.47,21.49-10.06a8,8,0,0,1,5.07,1.73c2.9,1.94,5.82,3.83,8.65,5.87,16.17,11.67,39.13,11.34,55.16.29,2.86-2,5.74-4,8.54-6,2.45-1.83,5.07-2,8-1.61,11.68,1.68,19.51,8.35,24.82,18.57a77.5,77.5,0,0,1,7.39,23.56A137.36,137.36,0,0,1,185,462.84a34.39,34.39,0,0,1-2.59,12.56c-4.67,10.92-13.24,16.48-24.87,16.7C140.55,492.42,123.56,492.18,106.57,492.18Z"/><path class="cls-2" d="M319.07,383c0-27.32,0-54.63-.06-81.95,0-3.78,1-6.81,4-9.17,2.24-1.79,4.86-1.86,7.56-1.86q36.22,0,72.45,0c7.82,0,15.65,0,23.48,0,6.63,0,12.25,2.61,17.08,7,11.37,10.28,22,21.32,33,32a26.53,26.53,0,0,1,8.21,19.63c.13,38.64.07,77.28,0,115.92,0,6.63-2.33,10.05-7.67,12a11,11,0,0,1-3.92.51q-71.19,0-142.4,0c-3.67,0-6.81-1-9.33-3.81-2.05-2.27-2.48-4.89-2.47-7.83.06-18.49,0-37,0-55.46Zm14.1,80H470.39c1-6.13.73-102.4-.3-106h-9.9c-10.84,0-21.67.08-32.5,0-8.23-.08-12.28-4.21-12.43-12.24,0-.83,0-1.67,0-2.5,0-11.67,0-23.33,0-35,0-1.25.49-2.66-.64-3.73H333.17ZM468.89,343c.6-2.65-1.33-3.78-2.68-5.11q-15.73-15.33-31.53-30.59c-1.44-1.39-2.9-2.71-5.26-2.77V343Z"/><path class="cls-3" d="M402.74.16a158.74,158.74,0,0,1,26.43,1.15C442.64,2.86,456,5.12,468.7,10.22A37.48,37.48,0,0,1,481,17.6a9.67,9.67,0,0,1,3.26,7.52c-.1,3.82-.18,7.67,0,11.49.22,4.12-1.73,7-4.78,9.32a48.45,48.45,0,0,1-13.12,7,146,146,0,0,1-25.95,6.34,247.42,247.42,0,0,1-49.15,2.8,199.7,199.7,0,0,1-48.48-7.21,72,72,0,0,1-14.64-6.13A26.16,26.16,0,0,1,321.3,43,8.86,8.86,0,0,1,319,36.58c.11-3.49.16-7,0-10.49-.19-3.86,1.6-6.66,4.3-9.07,4.17-3.72,9.18-6,14.33-7.83C348.13,5.39,359,3.32,370,2A227.78,227.78,0,0,1,402.74.16Z"/><path class="cls-4" d="M.22,110.92V64.45H219.77v46.47ZM141,80.38H16.26V94.86c8.35,1,121.38.64,124.76-.36Zm67.11,7.39c0-6.88-4.63-11.29-11.39-11.76-6.1-.43-12.31,5.71-11.87,11.86.47,6.82,4.81,11.07,11.71,11.5C202.54,99.73,209,93.44,208.13,87.77Z"/><path class="cls-4" d="M.39,127.23H219.75v46.61H.39ZM16.26,158H140.93V143.24H16.26Zm191.87-7.14c.05-6.92-4.5-11.67-11.28-11.75-7-.1-11.77,4.38-11.88,11.13-.12,7.2,4.48,12,11.5,12C203.34,162.23,208.07,157.6,208.13,150.81Z"/><path class="cls-3" d="M219.91,1.5V48H.37V1.5ZM141.47,17.42H16c0,4.62,0,8.93,0,13.23a14.13,14.13,0,0,0,.29,2H141.47Zm55.07,18.9c6.24.85,12.06-6,11.68-11.52-.46-6.66-5.14-11.54-11.75-11.68-6.25-.13-11.65,5.62-11.69,11.69C184.75,30.42,190.43,37.19,196.54,36.32Z"/><path class="cls-3" d="M149.28,353.24c0,20.6-7.26,34-22,43.07-8,4.86-16.65,6.19-26.2,5.24-17.86-1.78-33.64-19.25-36.25-36.06-2.44-15.67,1-29.48,11.73-41,17.26-18.45,45.32-17.6,61.86,1.76C145.61,334.72,149.59,344.46,149.28,353.24Z"/><path class="cls-4" d="M286.84,240.06c6.9,7.35,13.49,14.4,20.11,21.41,4.36,4.62,4.47,8,.56,13a105.93,105.93,0,0,1-8.87,9.47c-3.13,3.18-7.28,3.26-10.67.33a54.79,54.79,0,0,1-3.78-4l-17.63-18.61a47.36,47.36,0,0,0-8.73,8.5c-4.1,4.84-8.65,9.23-13.06,13.76-3.24,3.34-7.17,3.31-10.48.06s-6.6-6.6-9.75-10-3.25-6.18-.93-10a24.41,24.41,0,0,1,3.13-3.85c5.69-6.07,11.42-12.11,17.12-18.17.56-.59,1-1.26,1.37-1.68.12-1.71-.95-2.39-1.72-3.21q-8.89-9.45-17.84-18.87c-4.71-5-4.79-8.73-.08-13.85,2.7-3,5.51-5.8,8.35-8.61,3.84-3.78,7.34-3.82,11.23.12,4.33,4.38,8.37,9,12.66,13.44,2.76,2.83,5.21,6,8.54,8.23,2.5-1.21,4.06-3.24,5.63-5.12,4.92-5.89,10.75-10.92,15.73-16.73a7.49,7.49,0,0,1,11.35.13c3.08,3.49,6.36,6.81,9.43,10.3a8.1,8.1,0,0,1,.1,10.08c-1.77,2.2-3.69,4.28-5.62,6.34C297.65,228.28,291.85,233.56,286.84,240.06Z"/><path class="cls-4" d="M319.07,95.86c3.92,1.76,7.32,3.37,10.8,4.83,11.06,4.62,22.7,6.87,34.51,8.59a239.79,239.79,0,0,0,39.65,2.6c20-.43,40-1.83,59.39-7.62a95.8,95.8,0,0,0,17.95-7.14c.83-.46,1.59-1.3,3.39-.55,0,5.92.92,12.17-.86,18.26-.95,3.28-3.87,5.37-6.62,7.23-6.82,4.61-14.58,7.05-22.46,9a196.07,196.07,0,0,1-38.77,5.34c-6,.23-11.93.82-17.9.61-19-.7-38-2.22-56.34-7.88A64.67,64.67,0,0,1,326,122c-4.54-2.9-7.6-6.73-7-12.76C319.4,104.94,319.07,100.6,319.07,95.86Z"/><path class="cls-4" d="M319.07,58.13a98,98,0,0,0,22.28,9.22,221.13,221.13,0,0,0,25.75,5c16,2.33,32.13,2.19,48.23,1.81a219.8,219.8,0,0,0,32.52-3.59,129,129,0,0,0,28.95-8.38,47.27,47.27,0,0,0,7.81-4.28c0,6.11.35,11.55-.1,16.93s-4.27,8.4-8.58,10.89c-8.42,4.85-17.65,7.39-27.05,9.42C427.11,99.81,405,100,383,98.91a164.36,164.36,0,0,1-40.94-7c-6.31-2-12.49-4.36-17.8-8.6-3.36-2.68-5.26-5.81-5.17-10.17C319.14,68.32,319.07,63.51,319.07,58.13Z"/><path class="cls-4" d="M484.57,133.11a69.6,69.6,0,0,1-.6,18.65c-.49,2.89-2.7,4.82-5.1,6.49-7.2,5-15.27,7.87-23.69,9.91a219,219,0,0,1-34.31,5.23,229.91,229.91,0,0,1-29.91.55c-18.7-.95-37.29-2.92-55-9.72-5-1.91-9.71-4.27-13.57-8.1a10.29,10.29,0,0,1-3.36-8c.15-4.82,0-9.64,0-14.35,1.53-1.06,2.43.15,3.27.62,10.26,5.77,21.46,8.63,32.89,10.7a280.82,280.82,0,0,0,29.1,3.38,220.68,220.68,0,0,0,27.92.48c20.68-1.07,41.26-3.11,60.86-10.65C476.94,136.85,480.38,134.53,484.57,133.11Z"/><path class="cls-4" d="M57.22,349.35c-1.11,13.18,1.29,25.47,8.56,37.14-6.08,1.06-11.64,1.74-16.49,4.61S40.05,397,36.62,402.05c-8-.38-16.23,1.05-24.38-1.69A17.78,17.78,0,0,1,0,383.52C0,373.22.39,363,3.17,353c1.44-5.18,3.52-10.17,10.15-11.53,3.1.93,6.11,3,9.37,4.63,7.72,3.79,15.74,6,24.46,5.17C50.43,351,53.48,349.74,57.22,349.35Z"/><path class="cls-4" d="M147.52,386.82a56.67,56.67,0,0,0,8.3-37.62c8,2,15.57,2.92,23.29,1.19s13.93-6.06,20.66-9c5.22.7,7.56,4.23,9.28,8.35,2.57,6.18,3.41,12.77,3.88,19.37.36,5,.14,10,.22,15,.13,7.55-3.68,12.5-10.27,15.57a24.33,24.33,0,0,1-9.09,2.29c-5.47.25-11,.07-16.6.07C169.63,393,160.15,387.46,147.52,386.82Z"/><path class="cls-4" d="M42.63,341.28c-13.82,1.14-25.42-11.87-27.74-23-3-14.31,4.25-27.47,13.8-33.17a27.47,27.47,0,0,1,31.92,2.84c13.83,11.94,13.83,33.84,1.43,45.69C56.51,338.91,50.08,342,42.63,341.28Z"/><path class="cls-4" d="M171,341.28c-12.83,1.16-24-9.59-27.29-19.72-4.47-13.6,1.1-28.46,11.75-35.66a27.07,27.07,0,0,1,31.6.86c17.54,13.63,15.34,39.71-1.8,50.66A22.54,22.54,0,0,1,171,341.28Z"/><path class="cls-5" d="M443.12,425.39c0,2.23.07,4.72,0,7.2-.12,3-1.25,4.19-4.14,4.46-.83.07-1.66,0-2.5,0H366.64a23,23,0,0,1-2.49,0c-3.25-.37-4-1.74-4-7.18,0-5,.77-6.26,4-6.61a23,23,0,0,1,2.49,0h69.83C438.66,423.24,440.9,422.87,443.12,425.39Z"/><path class="cls-1" d="M442.22,383H362.45a3.8,3.8,0,0,1-2.22-3.45c.08-2.46-.62-5,.5-7.38a3.15,3.15,0,0,1,2.68-2c1.16-.06,2.33,0,3.49,0q35,0,69.92,0c1.92,0,4-.64,6,1.53C443.06,375.1,443.73,379,442.22,383Z"/><path class="cls-4" d="M442.24,397.28c1.5,4,.66,7.47.78,10.77-1.27,1.83-3,2.11-4.91,2.11-24.3,0-48.61,0-72.92,0-3.84,0-5-1.18-5-5.12,0-2.58-.73-5.37,1.68-7.72Z"/></g></g></svg>