<?xml version="1.0" encoding="iso-8859-1"?>
<!-- Generator: Adobe Illustrator 22.1.0, SVG Export Plug-In . SVG Version: 6.00 Build 0)  -->
<svg version="1.1" id="Layer_1" xmlns="http://www.w3.org/2000/svg" xmlns:xlink="http://www.w3.org/1999/xlink" x="0px" y="0px"
	 viewBox="0 0 1000 1000" style="enable-background:new 0 0 1000 1000;" xml:space="preserve">
<g>
	<path style="fill:#FEC431;" d="M974.7,928.8H95.5l107.1-97.4c6.5,3.5,13.9,5.5,21.7,5.5c15.6,0,29.4-7.8,37.7-19.8l84.9,23.2
		c1.7,23.8,21.6,42.6,45.8,42.6c25.3,0,45.9-20.6,45.9-45.9c0-8-2.1-15.5-5.7-22.1L536,699.6l19.8,32c-6.3,7.9-10.1,17.9-10.1,28.7
		c0,25.3,20.6,45.9,45.9,45.9c16,0,30-8.2,38.3-20.6l222.2,55.6c2.2,23.3,21.9,41.6,45.7,41.6c25.3,0,45.9-20.6,45.9-45.9
		S923.1,791,897.8,791c-16,0-30,8.2-38.3,20.6L637.6,756c-2.2-23.3-21.9-41.6-45.7-41.6c-3.4,0-6.6,0.4-9.8,1.1l-24.6-39.7
		l78.1-87.3c5.4,2.2,11.3,3.5,17.5,3.5c25.3,0,45.9-20.6,45.9-45.9c0-13.8-6.2-26.2-15.9-34.7L820,163.1c0.5,0,1.1,0,1.6,0
		c25.3,0,45.9-20.6,45.9-45.9s-20.6-45.9-45.9-45.9s-45.9,20.6-45.9,45.9c0,13.8,6.2,26.2,15.9,34.7L654.7,500c-0.5,0-1.1,0-1.6,0
		c-25.3,0-45.9,20.6-45.9,45.9c0,8,2.1,15.5,5.7,22.1L410.3,794.4c-5.4-2.2-11.3-3.5-17.5-3.5c-15.6,0-29.4,7.8-37.7,19.8
		l-84.9-23.2c-1.7-23.8-21.6-42.6-45.8-42.6c-25.3,0-45.9,20.6-45.9,45.9c0,6.3,1.3,12.3,3.6,17.8L71.3,909.4V507l137.8,53
		c0,0.4,0,0.8,0,1.3c0,25.3,20.6,45.9,45.9,45.9s45.9-20.6,45.9-45.9c0-6.1-1.2-12-3.4-17.3l73.1-65c6.6,3.6,14.1,5.7,22.2,5.7
		c3.4,0,6.6-0.4,9.8-1.1l91,146.9c2.9,4.7,7.9,7.3,13,7.3c2.8,0,5.5-0.7,8-2.3c7.2-4.5,9.4-13.9,5-21.1l-91-146.9
		c6.3-7.9,10.1-17.9,10.1-28.7c0-25.3-20.6-45.9-45.9-45.9s-45.9,20.6-45.9,45.9c0,6.1,1.2,12,3.4,17.3l-73.1,65
		c-6.6-3.6-14.1-5.7-22.2-5.7c-14,0-26.5,6.3-34.9,16.1L71.3,474.2V25.3C71.3,16.8,64.4,10,56,10s-15.3,6.9-15.3,15.3v76.6H25.3
		c-8.5,0-15.3,6.9-15.3,15.3c0,8.5,6.9,15.3,15.3,15.3h15.3v61.3H25.3c-8.5,0-15.3,6.9-15.3,15.3c0,8.5,6.9,15.3,15.3,15.3h15.3
		v61.3H25.3c-8.5,0-15.3,6.9-15.3,15.3c0,8.5,6.9,15.3,15.3,15.3h15.3v61.3H25.3c-8.5,0-15.3,6.9-15.3,15.3
		c0,8.5,6.9,15.3,15.3,15.3h15.3v61.3H25.3c-8.5,0-15.3,6.9-15.3,15.3S16.9,500,25.3,500h15.3v61.3H25.3c-8.5,0-15.3,6.9-15.3,15.3
		s6.9,15.3,15.3,15.3h15.3v61.3H25.3c-8.5,0-15.3,6.9-15.3,15.3s6.9,15.3,15.3,15.3h15.3V745H25.3c-8.5,0-15.3,6.9-15.3,15.3
		s6.9,15.3,15.3,15.3h15.3v61.3H25.3c-8.5,0-15.3,6.9-15.3,15.3s6.9,15.3,15.3,15.3h15.3v61.3H25.3c-8.5,0-15.3,6.9-15.3,15.3
		s6.9,15.3,15.3,15.3h15.3v15.3c0,8.5,6.9,15.3,15.3,15.3s15.3-6.9,15.3-15.3v-15.3h61.3v15.3c0,8.5,6.9,15.3,15.3,15.3
		s15.3-6.9,15.3-15.3v-15.3h61.3v15.3c0,8.5,6.9,15.3,15.3,15.3s15.3-6.9,15.3-15.3v-15.3h61.3v15.3c0,8.5,6.9,15.3,15.3,15.3
		s15.3-6.9,15.3-15.3v-15.3h61.3v15.3c0,8.5,6.9,15.3,15.3,15.3s15.3-6.9,15.3-15.3v-15.3H500v15.3c0,8.5,6.9,15.3,15.3,15.3
		c8.4,0,15.3-6.9,15.3-15.3v-15.3h61.3v15.3c0,8.5,6.9,15.3,15.3,15.3s15.3-6.9,15.3-15.3v-15.3h61.3v15.3c0,8.5,6.9,15.3,15.3,15.3
		s15.3-6.9,15.3-15.3v-15.3h61.3v15.3c0,8.5,6.9,15.3,15.3,15.3s15.3-6.9,15.3-15.3v-15.3h61.3v15.3c0,8.5,6.9,15.3,15.3,15.3
		s15.3-6.9,15.3-15.3v-15.3h76.6c8.5,0,15.3-6.9,15.3-15.3S983.1,928.8,974.7,928.8z M898.1,821.6c8.4,0,15.3,6.9,15.3,15.3
		s-6.9,15.3-15.3,15.3s-15.3-6.9-15.3-15.3S889.7,821.6,898.1,821.6z M607.2,760.3c0,8.4-6.9,15.3-15.3,15.3s-15.3-6.9-15.3-15.3
		s6.9-15.3,15.3-15.3S607.2,751.9,607.2,760.3z M821.6,101.9c8.4,0,15.3,6.9,15.3,15.3s-6.9,15.3-15.3,15.3s-15.3-6.9-15.3-15.3
		S813.1,101.9,821.6,101.9z M392.8,423.4c8.4,0,15.3,6.9,15.3,15.3s-6.9,15.3-15.3,15.3s-15.3-6.9-15.3-15.3
		S384.4,423.4,392.8,423.4z M255,545.9c8.4,0,15.3,6.9,15.3,15.3s-6.9,15.3-15.3,15.3s-15.3-6.9-15.3-15.3S246.6,545.9,255,545.9z
		 M653.1,530.6c8.4,0,15.3,6.9,15.3,15.3s-6.9,15.3-15.3,15.3s-15.3-6.9-15.3-15.3S644.7,530.6,653.1,530.6z M392.8,821.6
		c8.4,0,15.3,6.9,15.3,15.3s-6.9,15.3-15.3,15.3s-15.3-6.9-15.3-15.3S384.4,821.6,392.8,821.6z M224.4,775.6
		c8.4,0,15.3,6.9,15.3,15.3s-6.9,15.3-15.3,15.3s-15.3-6.9-15.3-15.3S215.9,775.6,224.4,775.6z"/>
</g>
</svg>
