<?xml version="1.0" encoding="iso-8859-1"?>
<!-- Generator: Adobe Illustrator 22.1.0, SVG Export Plug-In . SVG Version: 6.00 Build 0)  -->
<svg version="1.1" id="Layer_1" xmlns="http://www.w3.org/2000/svg" xmlns:xlink="http://www.w3.org/1999/xlink" x="0px" y="0px"
	 viewBox="0 0 1000 1000" style="enable-background:new 0 0 1000 1000;" xml:space="preserve">
<g>
	<g transform="translate(0.000000,494.000000) scale(0.100000,-0.100000)">
		<path style="fill:#FEC431;" d="M4782.3,4655.1c-602.3-76.7-1162.5-460.4-1440.6-991.8C3186.3,3371.7,3123,3107,3123,2769.4
			c1.9-681,341.5-1277.6,930.4-1628.6c132.4-80.6,358.7-172.6,504.5-207.2c59.5-13.4,107.4-36.4,118.9-57.5s19.2-305,19.2-707.8
			c0-669.5,0-671.4-42.2-719.4c-65.2-71-1277.6-932.3-1312.1-932.3c-17.3,0-84.4,42.2-149.6,94
			c-508.3,404.8-1175.9,521.8-1795.5,316.5C84.4-1510.3-333.8-3167.7,617.7-4167.1c665.7-696.3,1732.2-790.3,2505.3-220.6
			c663.7,487.3,936.1,1390.8,656.1,2169.6c-28.8,82.5-49.9,163.1-46,178.4c3.8,15.4,38.4,51.8,76.7,78.7
			c38.4,26.8,320.4,228.3,625.4,447s565.9,395.2,581.3,391.3c42.2-7.7,1269.9-884.3,1281.4-913.1c3.8-13.4-11.5-74.8-36.5-134.3
			c-101.7-241.7-134.3-414.3-134.3-723.2c-1.9-237.9,5.8-318.4,42.2-458.5C6345.7-4052,6915.5-4602.5,7621.4-4756
			c184.1-38.4,562.1-44.1,729-9.6c402.8,82.5,719.4,251.3,997.5,529.4s447,594.7,529.4,997.5c34.5,165,28.8,544.8-11.5,728.9
			c-193.7,911.2-1034,1555.8-1954.7,1500.1c-107.4-7.7-266.6-30.7-356.8-51.8c-211-51.8-508.3-195.7-690.6-331.9
			c-78.6-61.4-151.6-109.3-163.1-109.3c-28.8,1.9-1279.5,895.8-1327.5,951.5c-44.1,48-44.1,49.9-44.1,719.4
			c0,402.8,7.7,686.7,19.2,707.8s59.5,44.1,118.9,57.5c299.2,69.1,663.7,278.2,890.1,506.4c347.2,354.9,519.9,755.8,539.1,1260.3
			c15.3,372.1-32.6,592.7-195.7,928.4C6361.1,4321.3,5555.4,4751,4782.3,4655.1z M5261.9,3958.8c113.2-57.5,199.5-143.9,260.9-262.8
			c38.4-71,46.1-115.1,46.1-249.4c0-140-7.7-176.5-51.8-259c-222.5-422-811.4-422-1026.3,0c-57.5,111.3-76.7,289.7-46,406.7
			c46,172.6,222.5,354.9,393.2,408.6C4945.4,4035.5,5156.4,4014.4,5261.9,3958.8z M5401.9,2692.7c184.1-49.9,329.9-188,414.3-393.3
			c46.1-115.1,67.1-448.9,30.7-493c-36.5-44.1-1651.6-44.1-1688.1,0c-36.4,42.2-13.4,377.9,32.6,493
			c80.6,203.3,224.4,343.4,404.8,391.3C4720.9,2725.3,5271.5,2725.3,5401.9,2692.7z M2252.1-1681
			c195.7-99.8,314.6-293.5,314.6-512.2c0-166.9-48-282-170.7-404.7c-136.2-134.3-255.1-180.3-443.1-166.9
			c-412.4,30.7-654.1,456.6-471.9,830.6C1619.1-1656.1,1974-1539,2252.1-1681z M8212.2-1686.7c115.1-38.4,239.8-151.6,310.8-278.2
			c49.9-90.2,57.5-122.8,57.5-257.1c0-182.2-42.2-291.6-157.3-406.7c-120.8-120.8-237.9-168.8-408.6-168.8
			c-245.5,1.9-427.8,118.9-527.5,337.6c-46,105.5-51.8,136.2-44.1,264.7c13.4,232.1,124.7,397.1,330,493
			C7890-1646.5,8078-1640.7,8212.2-1686.7z M2493.8-2985.4c134.3-67.1,249.4-191.8,305-337.6c51.8-130.4,74.8-464.2,36.4-510.3
			c-21.1-24.9-140-28.8-836.4-28.8c-930.4,0-870.9-11.5-870.9,170.7c0,395.2,180.3,673.3,489.2,752c32.6,7.7,216.8,13.4,412.4,11.5
			C2376.8-2931.7,2386.4-2933.6,2493.8-2985.4z M8417.5-2979.7c178.4-49.9,349.1-220.6,412.4-412.4c46-140,61.4-435.4,24.9-466.1
			c-23-17.3-220.6-23-861.3-19.2l-832.5,5.8l1.9,211c0,189.9,5.8,222.5,55.6,331.9c67.1,149.6,220.6,297.3,351,337.6
			C7677.1-2958.6,8310.1-2949,8417.5-2979.7z"/>
	</g>
</g>
</svg>
