<?xml version="1.0" encoding="iso-8859-1"?>
<!-- Generator: Adobe Illustrator 22.1.0, SVG Export Plug-In . SVG Version: 6.00 Build 0)  -->
<svg version="1.1" id="Layer_1" xmlns="http://www.w3.org/2000/svg" xmlns:xlink="http://www.w3.org/1999/xlink" x="0px" y="0px"
	 viewBox="0 0 1000 1000" style="enable-background:new 0 0 1000 1000;" xml:space="preserve">
<g>
	<g transform="translate(0.000000,512.000000) scale(0.100000,-0.100000)">
		<path style="fill:#FEC431;" d="M480.3,4966.5l-55.5-55.5V390.6v-4520.4H310c-101.5,0-122.5-5.7-162.7-49.8
			c-65.1-70.8-63.2-149.4,7.7-220.2c49.8-47.9,70.8-55.5,162.7-55.5h107.2v-107.2c0-91.9,7.7-113,55.5-162.7
			c59.4-59.4,113-68.9,180-32.5c70.8,36.4,88.1,76.6,90,193.4v109.1h4520.4h4520.399l55.5,55.5c76.6,76.6,68.9,178.1-19.2,245.1
			c-23,19.2-1028.1,23-4552.9,24.9H750.3V394.4c-1.9,3524.8-5.7,4530-24.9,4552.9C658.4,5035.5,556.9,5043.1,480.3,4966.5z"/>
		<path style="fill:#FEC431;" d="M1133.2,4486c-51.7-51.7-65.1-122.5-34.5-183.8c40.2-88.1,97.6-105.3,325.5-99.6
			c185.7,5.7,208.7,9.6,252.7,51.7c65.1,61.3,68.9,168.5,5.8,227.8c-40.2,38.3-65.1,42.1-277.6,42.1
			C1198.3,4524.3,1167.7,4520.4,1133.2,4486z"/>
		<path style="fill:#FEC431;" d="M1137.1,3835c-88.1-82.3-70.8-208.7,34.5-262.3c68.9-34.5,407.8-32.5,476.7,3.8
			c93.8,47.9,109.1,172.3,30.6,248.9c-44,46-57.4,47.9-273.8,47.9C1204.1,3873.3,1173.4,3869.5,1137.1,3835z"/>
		<path style="fill:#FEC431;" d="M1125.6,3163c-65.1-76.6-63.2-141.7,5.7-210.6c55.5-53.6,61.3-55.5,260.4-55.5
			c210.6,0,298.7,23,323.6,86.2c24.9,67,11.5,145.5-36.4,191.5c-44,46-57.4,47.9-275.7,47.9h-227.8L1125.6,3163z"/>
		<path style="fill:#FEC431;" d="M1131.3,2515.8c-32.5-34.5-55.5-76.6-55.5-107.2c0-30.6,23-72.7,55.5-107.2
			c55.5-55.5,59.4-55.5,279.5-55.5c210.6,0,224,1.9,268,47.9c65.1,63.2,65.1,166.6,0,229.8c-44,46-57.4,47.9-268,47.9
			C1190.7,2571.4,1186.8,2571.4,1131.3,2515.8z"/>
		<path style="fill:#FEC431;" d="M1131.3,1864.9c-68.9-68.9-70.8-134-5.7-210.6l49.8-59.4h227.8c218.3,0,231.7,1.9,275.7,47.9
			c47.9,46,61.3,124.4,36.4,191.5c-24.9,63.2-113,86.2-323.6,86.2C1192.6,1920.4,1186.8,1918.5,1131.3,1864.9z"/>
		<path style="fill:#FEC431;" d="M8653.8,1386.2c-314-103.4-574.4-367.6-670.1-677.8c-55.5-181.9-44-430.8,28.7-606.9L8064.1-23
			l-712.2-712.2c-677.8-677.8-714.2-712.2-752.4-685.4c-277.6,204.9-520.8,270-788.8,214.4c-74.7-17.2-168.5-47.9-210.6-68.9
			l-72.8-38.3l-404,404l-405.9,402.1l49.8,118.7c70.8,170.4,82.3,449.9,23,624.2c-160.8,476.7-647.1,777.3-1102.8,681.6
			c-203-42.1-359.9-128.3-515-287.2C2888.9,344.7,2808.5-7.6,2942.5-375.2l51.7-141.7l-314-312.1l-312.1-314l-124.4,51.7
			c-176.1,72.8-425,84.3-606.9,28.7c-415.5-126.4-714.1-520.8-714.1-942c1.9-427,327.4-834.8,756.3-947.7
			c597.4-155.1,1229.2,371.4,1192.8,993.7c-11.5,187.6-63.2,337-168.5,494l-80.4,116.8l292.9,292.9L3208.7-762l67-53.6
			c178.1-139.8,455.7-225.9,656.7-203c189.5,19.2,379.1,99.6,520.8,216.3l55.5,44.1l371.4-369.5c203-202.9,369.5-375.3,369.5-381
			c0-7.6-36.4-67-82.3-134c-260.4-390.6-210.6-857.7,130.2-1198.5c365.7-367.6,857.7-404,1263.6-95.7
			c137.9,103.4,235.5,227.8,319.7,407.8c61.3,126.4,63.2,141.7,63.2,361.9c0,210.6-3.8,239.3-53.6,344.6l-53.6,112.9l716,716.1
			l716.2,716l116.8-80.4c390.6-266.1,876.9-216.3,1215.8,122.5c396.3,396.4,398.2,961.2,3.8,1363.2
			c-82.3,84.2-160.8,139.8-283.3,199.1c-158.9,78.5-176.2,82.3-363.8,90C8805.1,1420.7,8740,1414.9,8653.8,1386.2z M9207.1,1041.6
			c118.7-51.7,260.4-195.3,314-319.7c21.1-46,44.1-143.6,49.8-216.3c23-277.6-114.9-530.4-354.2-647.2
			c-95.7-47.9-130.2-53.6-292.9-53.6c-172.3,0-191.5,3.8-314,67c-210.6,107.2-314,275.7-329.3,528.5
			c-21,329.3,124.5,561,415.5,666.3C8820.4,1110.5,9075,1099,9207.1,1041.6z M4143,547.6c143.6-63.2,264.2-193.4,319.7-342.7
			c36.4-93.8,42.1-141.7,36.4-285.3c-9.6-206.8-44-285.3-193.4-436.5c-124.5-128.3-247-174.2-453.8-172.3
			c-247,1.9-404,84.3-530.4,271.9c-172.3,256.6-151.3,599.3,49.8,831C3539.9,603.1,3880.7,662.5,4143,547.6z M2167.1-1399.5
			c147.4-68.9,237.4-155.1,306.3-289.1c63.2-122.5,67-141.7,67-314c0-227.8-44-340.8-183.8-471
			c-145.5-135.9-239.3-172.3-457.6-170.4c-149.3,0-201,7.7-281.5,44.1c-126.4,55.5-273.8,210.6-323.6,337
			c-45.9,118.7-49.8,405.9-9.6,507.4c72.8,178.1,222.1,319.7,392.5,375.3C1782.3-1345.9,2077.1-1357.4,2167.1-1399.5z
			 M6237.6-1558.5c130.2-44,296.8-214.4,352.3-363.8c53.6-143.6,47.9-388.7-13.4-524.6c-149.3-333.1-564.8-467.1-917.1-294.8
			c-409.7,201-444.2,838.6-61.3,1106.6C5781.9-1506.8,6007.8-1480,6237.6-1558.5z"/>
		<path style="fill:#FEC431;" d="M1171.5,1244.5c-103.4-51.7-120.6-180-38.3-262.3c34.5-34.5,65.1-38.3,268-38.3
			c220.2,0,233.6,1.9,277.6,47.9c80.4,78.5,59.4,201-42.1,254.6C1581.2,1277.1,1232.8,1275.2,1171.5,1244.5z"/>
		<path style="fill:#FEC431;" d="M1158.1,582.1c-74.7-46-95.7-130.2-55.5-208.7c15.3-30.6,44-61.3,59.4-68.9
			c17.2-5.8,132.1-11.5,256.6-11.5c210.6,0,227.8,1.9,266.1,44c59.4,63.2,55.5,166.6-7.7,225.9c-44,42.1-67,45.9-252.7,51.7
			C1248.1,618.5,1211.7,614.6,1158.1,582.1z"/>
	</g>
</g>
</svg>
