<?xml version="1.0" encoding="iso-8859-1"?>
<!-- Generator: Adobe Illustrator 22.1.0, SVG Export Plug-In . SVG Version: 6.00 Build 0)  -->
<svg version="1.1" id="Layer_1" xmlns="http://www.w3.org/2000/svg" xmlns:xlink="http://www.w3.org/1999/xlink" x="0px" y="0px"
	 viewBox="0 0 1000 1000" style="enable-background:new 0 0 1000 1000;" xml:space="preserve">
<g>
	<g transform="translate(0.000000,512.000000) scale(0.100000,-0.100000)">
		<path style="fill:#FEC431;" d="M221.8,5004.7c-21.1-9.6-55.5-36.4-76.6-59.4c-38.3-42.1-38.3-72.8-44-2554
			c-3.8-1859.1,1.9-2523.4,17.2-2563.6c13.4-28.7,40.2-63.2,63.2-76.6c30.6-17.2,562.9-24.9,2222.8-32.5L4587-291l3.8-2173
			c3.8-1673.4,11.5-2182.6,28.7-2217.1c53.6-103.4-72.8-99.6,2640.2-99.6h2510l65.1,65.1l65.1,65.1v2510
			c0,2713,3.8,2586.6-99.6,2640.2c-34.5,17.2-543.7,24.9-2217.1,28.7l-2173.1,3.8l-9.6,2182.6c-5.7,1200.4-17.2,2197.9-26.8,2217.1
			c-45.9,93.8,49.8,90-2619.2,88.1C1382,5020.1,242.8,5012.4,221.8,5004.7z M4998.6,2580.9v-2039h-109.1
			c-212.5,0-312.1-99.6-312.1-310.2v-111h-2039h-2039v2236.2c0,1231.1,5.7,2243.9,13.4,2249.6c5.7,7.7,1018.6,13.4,2249.6,13.4
			h2236.2L4998.6,2580.9L4998.6,2580.9z M9494.1-2123.3l-5.7-2245.8l-2243.9-5.7l-2245.8-3.8V-2129V120.6h2249.6h2249.6
			L9494.1-2123.3z"/>
		<path style="fill:#FEC431;" d="M2632.2,4164.2c-76.6-61.3-84.2-105.3-84.2-442.3v-327.4h-517c-572.5,0-624.2-7.6-677.8-112.9
			c-38.3-72.8-38.3-122.5-1.9-193.4c40.2-78.5,93.8-101.5,256.6-112.9l139.8-11.5l47.9-162.7c84.2-292.9,319.7-719.9,591.6-1076
			c45.9-59.3,84.2-116.8,84.2-126.4c0-23-411.6-471-589.7-639.5c-86.2-82.3-139.8-149.3-147.4-185.7
			c-17.2-82.3,36.4-183.8,116.8-222.1c126.4-59.3,157-38.3,547.6,356.1l358,361.8l99.6-111c55.5-59.3,214.4-222.1,352.3-359.9
			c185.7-183.8,270-254.6,314-262.3c162.7-32.5,302.5,139.8,227.8,279.5c-11.5,23-132.1,153.2-266.1,287.2
			c-135.9,135.9-294.8,302.5-354.2,369.5l-109.1,124.4l61.3,80.4c337,449.9,568.6,880.7,652.9,1215.8l21.1,80.4H3871
			c199.1,0,304.4,72.8,304.4,210.6c0,80.4-38.3,143.6-114.9,181.9c-45.9,23-153.2,28.7-583.9,28.7H2950v346.6v346.5l-55.5,55.5
			c-45.9,44-72.8,55.5-139.8,55.5C2705,4198.7,2655.2,4185.3,2632.2,4164.2z M3321.5,2921.7c-24.9-97.6-118.7-308.2-201-449.9
			C3001.7,2265,2772,1939.5,2749,1945.2c-9.6,3.8-86.2,99.6-166.6,216.4c-149.3,208.7-361.9,605-396.3,740.9l-17.2,70.8h582h582
			L3321.5,2921.7z"/>
		<path style="fill:#FEC431;" d="M7148.7-319.7c-23-9.6-55.5-36.4-70.8-61.3s-304.4-781.2-641.4-1682.9
			c-405.9-1079.8-614.6-1661.9-614.6-1709.7c0-97.6,84.2-183.8,180-183.8c157,0,178.1,32.5,358,522.7l103.4,281.4l781.1-3.8
			l783.1-5.7l132.1-354.2c143.6-386.7,180-440.4,294.9-440.4c126.4,0,220.2,82.3,220.2,193.4c0,36.4-1173.6,3197.4-1246.4,3354.3
			C7386.1-317.8,7257.9-275.7,7148.7-319.7z M7581.4-1970.1l285.3-762h-622.2c-585.9,0-622.2,1.9-608.8,34.5
			c7.7,17.2,139.8,373.3,296.8,788.8s291,771.6,298.7,792.6C7248.3-1074.1,7210-980.2,7581.4-1970.1z"/>
		<path style="fill:#FEC431;" d="M5881.3,4145.1c-67-67-78.5-158.9-30.6-250.8c36.4-72.8,99.6-91.9,331.2-105.3
			c645.2-38.3,1240.6-306.3,1709.7-775.4c342.7-344.6,561-716.1,687.3-1173.7l38.3-135.9l-225.9,220.2
			c-157,153.2-243.2,225.9-285.3,233.6c-135.9,30.6-273.8-107.2-245.1-243.2c19.2-82.3,871.1-943.9,957.3-966.9
			c134-38.3,157-17.2,526.5,476.7c308.2,411.6,344.6,467.1,344.6,534.2c0,90-70.8,183.8-151.3,201c-105.3,23-176.1-28.7-337-247
			c-84.2-111.1-157-203-162.7-203s-23,53.6-36.4,120.6c-170.4,842.4-842.4,1682.9-1654.2,2069.7
			c-382.9,181.9-760.1,277.6-1156.4,294.8l-252.7,9.6L5881.3,4145.1z"/>
		<path style="fill:#FEC431;" d="M1037.4-717.9c-45.9-23-160.8-160.8-398.2-478.7C344.4-1594.8,308-1652.3,308-1717.4
			c0-90,70.8-183.8,151.3-201c105.3-23,176.1,28.7,337,247c84.2,111,157,202.9,162.7,202.9s23-53.6,36.4-118.7
			c172.3-850.1,840.5-1682.9,1661.9-2075.4c373.3-178.1,744.8-271.9,1148.8-289.1l252.7-11.5l57.4,59.3c67,67,78.5,158.9,30.6,250.8
			c-36.4,72.8-97.6,91.9-335,107.2c-651,38.3-1234.9,304.4-1705.9,773.5c-342.7,344.6-561,716-687.3,1173.6l-38.3,135.9l225.9-220.2
			c157-153.2,243.2-225.9,285.3-233.6c135.9-30.6,273.8,107.2,245.1,243.1c-11.5,46-122.5,170.4-455.7,505.5
			c-243.2,245.1-459.5,451.8-480.6,457.6c-23,5.7-53.6,13.4-68.9,19.2C1115.9-687.3,1071.8-698.8,1037.4-717.9z"/>
	</g>
</g>
</svg>
