<?xml version="1.0" encoding="iso-8859-1"?>
<!-- Generator: Adobe Illustrator 22.1.0, SVG Export Plug-In . SVG Version: 6.00 Build 0)  -->
<svg version="1.1" id="Layer_1" xmlns="http://www.w3.org/2000/svg" xmlns:xlink="http://www.w3.org/1999/xlink" x="0px" y="0px"
	 viewBox="0 0 1000 1000" style="enable-background:new 0 0 1000 1000;" xml:space="preserve">
<g>
	<g transform="translate(0.000000,512.000000) scale(0.100000,-0.100000)">
		<path style="fill:#FEC431;" d="M480.3,4966.3l-55.5-55.5V390.6v-4520.2H309.9c-101.5,0-122.5-5.7-162.7-49.8
			c-65.1-70.8-63.2-149.3,7.7-220.2c49.8-47.9,70.8-55.5,162.7-55.5h107.2v-107.2c0-91.9,7.7-113,55.5-162.7
			c59.4-59.4,113-68.9,180-32.6c70.8,36.4,88.1,76.6,90,193.4v109.1h4520.1h4520.2l55.5,55.5c59.4,59.3,68.9,112.9,32.5,180
			c-40.2,78.5-74.7,88.1-277.6,90h-197.2v1876.2v1876.2h-976.4H7451v-1878.1v-1876.2l-80.4,5.7l-82.3,5.7l-5.7,1144.9l-3.8,1143
			h-976.4H5326v-1148.7v-1148.7h-76.6h-76.6v3675.8V3222h-986h-986V-453.7v-3675.8h-76.6h-76.6v3024.9v3024.9h-986h-986v-3024.9
			v-3024.9H913H750.3v4524c-1.9,3524.6-5.7,4529.7-24.9,4552.7C658.4,5035.2,556.9,5042.9,480.3,4966.3z M4071.9,2848.8
			c-99.6-97.6-28.7-277.6,109.1-277.6c72.7,0,168.5,91.9,168.5,162.7c0,30.6-23,72.7-55.5,107.2l-55.5,55.5h294.8h294.8v-291v-289.1
			l-44,40.2c-47.9,44.1-143.6,55.5-204.9,23c-101.5-53.6-76.6-245,36.4-283.3c68.9-24.9,107.2-15.3,170.4,40.2l42.1,38.3v-415.4
			V1344l-49.8,38.3c-139.8,109.1-327.4-34.5-247-189.6c53.6-101.5,176.1-120.6,258.5-38.3c38.3,38.3,38.3,36.4,38.3-382.9V352.3
			l-47.9,45.9c-97.6,99.6-266.1,26.8-266.1-114.9s168.5-214.4,266.1-114.9l47.9,46v-423.1c0-404-1.9-419.3-32.5-381
			c-91.9,113-281.4,42.1-281.4-103.4c0-137.8,155.1-208.7,264.2-122.5l49.8,38.3v-417.4c-1.9-271.8-7.7-405.9-19.2-386.7
			c-9.6,17.2-44,42.1-76.6,55.5c-76.6,30.6-162.7-3.8-202.9-80.4c-78.5-153.2,128.3-302.5,254.6-183.8l44,40.2v-417.4v-417.4
			l-44,40.2c-47.9,44-143.6,55.5-204.9,23c-101.5-53.6-76.6-245.1,36.4-283.3c68.9-24.9,107.2-15.3,170.4,40.2l42.1,38.3v-415.4
			v-415.4l-49.8,38.3c-139.8,109.1-327.4-34.5-247-189.5c53.6-101.5,176.1-120.6,258.5-38.3c38.3,38.3,38.3,38.3,38.3-172.3v-210.6
			h-239.3c-195.3,0-239.3,5.7-239.3,26.8c0,15.3-21.1,51.7-45.9,80.4c-32.6,40.2-63.2,53.6-113,53.6c-78.5,0-166.6-67-166.6-126.4
			c0-30.6-21.1-34.5-248.9-34.5h-248.9v222.1v224l38.3-49.8c97.6-122.5,285.3-59.4,287.2,97.6c1.9,164.7-218.3,216.3-302.5,70.8
			c-17.2-28.7-21.1,63.2-21.1,411.6c0,329.3,3.8,440.3,19.2,415.4c26.8-46,139.8-93.8,183.8-76.6c116.8,40.2,155.1,166.6,80.4,262.3
			c-55.5,70.9-172.3,70.9-237.4,0l-47.9-51.7v436.5v436.5l47.9-51.7c97.6-105.3,277.6-36.4,277.6,109.1
			c0,143.6-185.7,210.6-279.5,101.5l-45.9-51.7v442.3V-737l49.8-59.3c122.5-145.5,333.1-1.9,264.2,180
			c-15.3,36.4-105.3,86.2-160.8,86.2c-23,0-67-24.9-97.6-55.5l-55.5-55.5v436.5v436.5l55.5-55.5c109.1-107.2,270-44,270,107.2
			c0,151.3-160.8,214.4-270,107.2l-55.5-55.5v440.3v442.2l38.3-49.8c97.6-122.5,285.3-59.3,287.2,97.6
			c1.9,164.7-218.3,216.3-302.5,70.8c-17.2-28.7-21.1,63.2-21.1,411.6c0,314,5.7,440.3,19.2,415.4c28.7-49.8,128.3-93.8,176.1-78.5
			c122.5,36.4,166.6,166.5,88.1,264.2c-53.6,68.9-170.4,70.8-237.4,1.9l-47.9-45.9v294.8v296.7H3823h294.8L4071.9,2848.8z
			 M2712.6-1267.4V-4120l-654.8-5.7l-656.7-3.8v2862.2v2862.2l656.7-3.8l654.8-5.7V-1267.4z M9078.4-2416.1v-1713.5h-650.9h-650.9
			v1713.5v1713.5h650.9h650.9V-2416.1z M6953.3-3143.6v-986h-650.9h-650.9v972.6c0,536.1,5.7,980.2,13.4,986
			c5.7,7.7,298.7,13.4,650.9,13.4h637.5V-3143.6z"/>
		<path style="fill:#FEC431;" d="M4110.2,1897.3c-145.5-84.2-93.8-304.4,70.8-302.5c70.8,1.9,112.9,26.8,145.5,90
			c36.4,67,26.8,120.6-32.5,180C4234.7,1922.2,4173.4,1933.7,4110.2,1897.3z"/>
		<path style="fill:#FEC431;" d="M4138.9,930.5c-67-24.9-114.9-90-114.9-153.2c0-116.8,122.5-191.4,239.3-147.4
			c36.4,15.3,86.2,105.3,86.2,158.9C4349.5,873.1,4217.4,961.1,4138.9,930.5z"/>
		<path style="fill:#FEC431;" d="M4064.3-101.4c-49.8-65.1-51.7-141.7-1.9-204.8c105.3-134,314-26.8,277.6,143.6
			C4313.2-47.8,4137-7.6,4064.3-101.4z"/>
		<path style="fill:#FEC431;" d="M4071.9-1075.9c-70.8-68.9-65.1-164.7,13.4-229.7c72.7-61.3,155.1-55.5,222.1,21.1
			c49.8,55.5,53.6,103.4,13.4,178C4273-1012.7,4148.5-997.4,4071.9-1075.9z"/>
		<path style="fill:#FEC431;" d="M4071.9-2052.3c-99.6-97.6-28.7-277.6,109.1-277.6c72.7,0,168.5,91.9,168.5,162.7
			c0,30.6-23,72.7-55.5,107.2C4221.3-1989.1,4137-1985.3,4071.9-2052.3z"/>
		<path style="fill:#FEC431;" d="M4110.2-3003.8c-145.5-84.2-93.8-304.4,70.8-302.5c70.8,1.9,112.9,26.8,145.5,90
			c36.4,67,26.8,120.6-32.5,180C4234.7-2978.9,4173.4-2967.4,4110.2-3003.8z"/>
	</g>
</g>
</svg>
