<svg xmlns="http://www.w3.org/2000/svg" viewBox="0 0 566.04 482.3"><defs><style>.cls-1{fill:#fec431;}.cls-2{fill:#f0f0f0;}.cls-3{fill:#eaeaea;}</style></defs><title>Asset 10</title><g id="Layer_2" data-name="Layer 2"><g id="Layer_1-2" data-name="Layer 1"><path class="cls-1" d="M566,185.92c0,23.83,0,47.67,0,71.5,0,5.67-2.33,9.59-7.22,12.46-12.12,7.13-24.37,14-36.53,21.08s-24.61,14.25-37,21.22c-12.11,6.82-24,14-36,20.94-12.33,7.09-24.86,13.82-37.06,21.12-13.47,8.05-27.23,15.61-40.72,23.62-9.83,5.84-19.87,11.35-29.76,17.09-9.61,5.58-19.39,10.86-28.84,16.73-7.63,4.75-15.61,8.92-23.42,13.4s-15.56,9-23.34,13.49c-7.22,4.17-14.41,8.39-21.67,12.49-7.83,4.41-15.7,8.76-23.36,13.48-5.42,3.34-11,6.37-16.6,9.49-3.42,1.93-7,3.54-10.31,5.69-5.28,3.5-10.44,3.31-15.71.25-10.75-6.23-21.58-12.34-32.21-18.77-11.19-6.78-22.64-13.08-33.91-19.73-9.84-5.8-19.83-11.41-29.76-17.1-9.64-5.52-19.17-11.23-28.8-16.78-7.5-4.32-15.09-8.5-22.61-12.8-8.51-4.86-17.08-9.63-25.44-14.73A11.64,11.64,0,0,1,0,369.69q0-73,0-146a11.87,11.87,0,0,1,5.72-10.37c4.24-2.76,8.79-5,13.17-7.56,10.47-6.06,20.89-12.2,31.39-18.22,9.78-5.61,19.65-11,29.43-16.67s19.41-11.5,29.24-17c7.27-4.09,14.45-8.32,21.67-12.51,7.77-4.5,15.68-8.77,23.33-13.5,5.43-3.35,11.08-6.33,16.6-9.51,7.79-4.48,15.55-9,23.35-13.48s15.38-8.68,23-13.1c12.16-7,24.15-14.4,36.46-21.18,9.88-5.44,19.57-11.22,29.39-16.76s19.46-11.41,29.22-17c7.5-4.33,15.18-8.36,22.6-12.82,12.2-7.33,24.88-13.82,36.88-21.48,5.33-3.41,10.84-3.12,16.28.08,10.44,6.12,20.92,12.16,31.37,18.26C430.42,27.37,441.68,34,453,40.58c5.51,3.21,11.07,6.33,16.61,9.5Q483.41,58,497.22,65.92c5.81,3.36,11.57,6.8,17.38,10.16,9.19,5.3,18.42,10.54,27.62,15.84,5.67,3.27,11.26,6.67,17,9.86A12.37,12.37,0,0,1,566,113.42Q566,149.68,566,185.92ZM539.88,126.5a13.1,13.1,0,0,0-2.42,1c-10.19,6.54-20.92,12.13-31.38,18.18-7.08,4.09-14.17,8.15-21.24,12.25-7.63,4.42-15.24,8.89-22.89,13.29-5.66,3.26-11.4,6.41-17.06,9.69-9.75,5.64-19.45,11.4-29.22,17S396,209,386.26,214.6s-19.16,11.24-28.81,16.76c-9.92,5.68-19.79,11.46-29.78,17C314,256.05,300.62,264.3,287,272.16c-12.3,7.11-24.74,14-37.07,21.06q-23.4,13.41-46.72,26.94c-4.08,2.37-8.09,4.84-12,7.18V451c1.62-.76,3-1.28,4.29-2,8.34-4.84,16.64-9.76,25-14.6,5.23-3,10.53-5.95,15.76-9,9.91-5.71,19.79-11.47,29.7-17.17,7.36-4.25,14.76-8.43,22.13-12.66q11.68-6.72,23.34-13.47c5.53-3.18,11.17-6.19,16.6-9.53,9.88-6.08,20.07-11.62,30.13-17.39q11.06-6.36,22.08-12.75,11.46-6.61,22.91-13.24c5.67-3.26,11.37-6.46,17-9.72,7.64-4.41,15.25-8.86,22.89-13.27,7.36-4.25,14.74-8.46,22.1-12.71,7.64-4.42,15.25-8.88,22.89-13.28,5.67-3.26,11.38-6.43,17.06-9.68,7.79-4.47,15.68-8.78,23.29-13.54,3.84-2.41,8.4-3.78,11.44-7.19ZM186.3,319.15c8.53-4.81,17.1-9.59,25.61-14.46,7.94-4.53,15.82-9.17,23.73-13.75,5.53-3.19,11.07-6.34,16.6-9.53,7.64-4.4,15.26-8.84,22.9-13.24,7.36-4.26,14.73-8.48,22.09-12.74,7.64-4.41,15.25-8.87,22.9-13.26,7.94-4.55,16-8.86,23.85-13.6,10.07-6.08,20.35-11.78,30.57-17.6,7.25-4.13,14.44-8.34,21.66-12.52,7.63-4.42,15.25-8.87,22.9-13.27,5.67-3.27,11.39-6.43,17.05-9.71,9.76-5.65,19.45-11.4,29.22-17S485,147.36,494.8,141.76c10.35-5.93,20.69-11.87,30.95-18,2.85-1.7,6.1-2.93,8.69-6L379.59,28.37c-6.64,3.85-13.24,7.72-19.89,11.52-7.53,4.3-15.11,8.48-22.62,12.81-9.62,5.54-19.16,11.23-28.78,16.77-9.92,5.71-19.92,11.26-29.84,17-9.76,5.63-19.43,11.43-29.2,17s-19.91,11.26-29.83,17c-9.76,5.63-19.43,11.43-29.2,17.06s-19.92,11.25-29.83,17c-11.89,6.86-23.68,13.89-35.57,20.73-12.33,7.09-24.76,14-37.08,21.08C72.87,204.85,58,213.44,43.26,222.2c-4,2.4-8.54,4.11-12,7.37ZM26.11,361.23c17,10.09,34.45,20,51.86,30s34.36,20.18,51.68,30,34.41,20.18,52.08,29.85V327.25L26.11,237.36Z"/><path class="cls-1" d="M385.57,71.13c12,.5,23.8,1.83,35.09,6.11,8,3,15.5,7.05,21.41,13.51a30.07,30.07,0,0,1,7.84,18.1c.48,5.47-1.46,10.45-4.19,15.33C440.56,133.4,432.07,138.25,423,142a75,75,0,0,1-30,6.14c-2.35,0-4.38,1.24-6.8,1.07-16.22-1.16-32.2-3.09-46.54-11.81-9-5.46-15.26-12.92-17.42-23.28a22.43,22.43,0,0,1,1.22-12.67A36,36,0,0,1,336.3,85.05c9.38-6.77,19.92-10.17,31.19-11.93C373.49,72.17,379.45,71,385.57,71.13Zm-3.65,68.1c.71,1.44,1.95.9,3.06.8h2c.88.21,1.7.27,2.09-.79a70.22,70.22,0,0,0,28.29-5.05c7.09-2.73,13.77-6.21,19-11.91,7.19-7.87,7.19-17.08-.51-24.76A51.4,51.4,0,0,0,418.7,86.41c-9.66-4-19.75-5.55-30-6.17a83.78,83.78,0,0,0-26.27,3.07C351.83,86.07,342,90.38,334.59,99a16.9,16.9,0,0,0-.34,22,41.87,41.87,0,0,0,14.47,10.94C359.18,136.74,370.19,139.8,381.92,139.23Z"/><path class="cls-1" d="M282,130.16c13,0,24.41,1.68,35.48,5.75,7.5,2.75,14.62,6.27,20.21,11.79,9.72,9.61,13.28,23.05,4.6,36.69-3.56,5.61-8.62,9.52-14.2,12.71A81.73,81.73,0,0,1,301,206.41c-4.54.77-9.14.26-13.66,1.58a13.8,13.8,0,0,1-8.82-.43c-1.31-.53-2.93-.29-4.42-.37a81.77,81.77,0,0,1-28.4-6.64,53.08,53.08,0,0,1-18.21-12.26A29.53,29.53,0,0,1,220,173.17c-1.9-9.53,1.45-17.3,7.7-24.08,8.08-8.74,18.6-13.15,29.89-15.83C266,131.25,274.56,129.64,282,130.16Zm1.23,9c-4.15.21-8.08.44-12,.81a83.76,83.76,0,0,0-21.7,5.51,44.14,44.14,0,0,0-18.35,13,12.24,12.24,0,0,0-3.09,6.08c-1,8,1.3,14.7,8.19,19.76,5.19,3.82,10.56,7.18,16.63,9.22,7.26,2.43,14.62,4.62,22.4,4.64a14.2,14.2,0,0,1,5.36.69,9.79,9.79,0,0,0,5.4.21c6.22-1.42,12.63-1.15,18.86-2.8,11.33-3,21.91-7.29,29.6-16.36,5.24-6.18,6.55-11.81,1.46-20.28-3.94-6.57-10.31-10.23-16.78-13.18A83.58,83.58,0,0,0,283.27,139.16Z"/><path class="cls-1" d="M178.7,267.19c-12.3-.6-26.66-2.5-40-9.09A46,46,0,0,1,121,242.75c-6.36-9.23-5.17-24.11,2.75-32.85s18.28-13.62,29.52-16.72a77.4,77.4,0,0,1,20.31-3.11c2.89,0,5.78-1.2,8.79-.88,12,1.24,24.08,2.41,35.38,7.06,10.52,4.33,19.56,10.44,24.42,21.39,3.88,8.75,2.91,16.82-1.83,25.06-3.64,6.32-9.09,10.2-15,13.74a71,71,0,0,1-25.75,8.8A117.49,117.49,0,0,1,178.7,267.19Zm-1.79-68.05c-7.48-.48-14.67,1.07-21.81,3-10,2.76-19,7.2-25.84,15.27-6.09,7.19-5.16,14.11-1.48,19.91,3.33,5.26,8.31,8.82,13.72,11.58,9.23,4.71,19.07,7.08,29.4,8.51,7.87,1.08,15.43.18,23.1-.35,3.53-.24,7-1.33,10.51-2.12a59.44,59.44,0,0,0,13.24-4.89c5.3-2.64,10.34-5.77,14.25-10.39a17.79,17.79,0,0,0,1.18-21c-3.39-5-8.07-8.11-13.07-10.87A70.9,70.9,0,0,0,196.58,200c-5.86-.91-11.78-.6-17.58-1.67C178.13,198.14,177.31,198.08,176.91,199.14Z"/><path class="cls-2" d="M381.92,139.23c1.06.12,2.33-.58,3.06.8C383.87,140.13,382.63,140.67,381.92,139.23Z"/><path class="cls-2" d="M387,140c.42-1,1.28-.82,2.09-.79C388.72,140.3,387.9,140.24,387,140Z"/><path class="cls-3" d="M179,198.35c-.42,1-1.28.82-2.09.79C177.31,198.08,178.13,198.14,179,198.35Z"/></g></g></svg>