<?xml version="1.0" encoding="iso-8859-1"?>
<!-- Generator: Adobe Illustrator 22.1.0, SVG Export Plug-In . SVG Version: 6.00 Build 0)  -->
<svg version="1.1" id="Layer_1" xmlns="http://www.w3.org/2000/svg" xmlns:xlink="http://www.w3.org/1999/xlink" x="0px" y="0px"
	 viewBox="0 0 1000 1000" style="enable-background:new 0 0 1000 1000;" xml:space="preserve">
<g>
	<g>
		<path style="fill:#FEC431;" d="M316.3,735.1l-26.8,26.8c-3.6,3.6-7.7,5.4-12.3,5.4c-4.6,0-8.7-1.8-12.3-5.4L15.4,512.3
			c-3.6-3.6-5.4-7.7-5.4-12.3c0-4.6,1.8-8.7,5.4-12.3L265,238.1c3.6-3.6,7.7-5.4,12.3-5.4c4.6,0,8.7,1.8,12.3,5.4l26.8,26.8
			c3.6,3.6,5.4,7.7,5.4,12.3c0,4.6-1.8,8.7-5.4,12.3L105.9,500l210.5,210.5c3.6,3.6,5.4,7.7,5.4,12.3
			C321.7,727.4,319.9,731.5,316.3,735.1L316.3,735.1z M632.8,163.7L433.1,855c-1.4,4.6-4.2,8.1-8.3,10.4c-4.1,2.3-8.3,2.8-12.6,1.3
			l-33.2-9.1c-4.6-1.4-8.1-4.2-10.4-8.3s-2.8-8.5-1.3-13.1L566.9,145c1.4-4.6,4.2-8.1,8.3-10.4c4.1-2.3,8.3-2.8,12.6-1.3l33.2,9.1
			c4.6,1.4,8.1,4.2,10.4,8.3C633.8,154.7,634.2,159.1,632.8,163.7L632.8,163.7z M984.6,512.3L735.1,761.9c-3.6,3.6-7.7,5.4-12.3,5.4
			s-8.7-1.8-12.3-5.4l-26.8-26.8c-3.6-3.6-5.4-7.7-5.4-12.3s1.8-8.7,5.4-12.3L894.1,500L683.7,289.5c-3.6-3.6-5.4-7.7-5.4-12.3
			c0-4.6,1.8-8.7,5.4-12.3l26.8-26.8c3.6-3.6,7.7-5.4,12.3-5.4s8.7,1.8,12.3,5.4l249.6,249.6c3.6,3.6,5.4,7.7,5.4,12.3
			C990,504.6,988.2,508.7,984.6,512.3L984.6,512.3z"/>
	</g>
</g>
</svg>
