<svg xmlns="http://www.w3.org/2000/svg" viewBox="0 0 389.83 389.89"><defs><style>.cls-1{fill:#fec431;}</style></defs><title>Asset 9</title><g id="Layer_2" data-name="Layer 2"><g id="Layer_1-2" data-name="Layer 1"><path class="cls-1" d="M309,389.89a1.11,1.11,0,0,0-1.19-.8c-7.85-.24-15.06-2.85-22.09-6.06-6.25-2.85-11.65-6.9-17-11.24-10.09-8.25-16.37-19-20.9-30.82a47.53,47.53,0,0,1-3.62-18.34c.06-1.77-.9-3.23-.91-5a83.14,83.14,0,0,1,3.31-22.06c.34-1.23.87-2.42,1.23-3.44L98,142.24a63.82,63.82,0,0,1-11.45,3.22c-5.81.9-11.61,2.16-17.57.55-2.49-.66-5.19-.37-7.82-.78a65.43,65.43,0,0,1-16.43-4.77,77.58,77.58,0,0,1-19.27-12A72.9,72.9,0,0,1,3,93.77,85.23,85.23,0,0,1,.9,83.06,68,68,0,0,1,.27,70.41,63.26,63.26,0,0,1,2.65,55a71.66,71.66,0,0,1,3.19-9.61c.55-1.29.76-2.82,2.35-3.45,1.46.56,2.27,1.84,3.28,2.85Q33.84,67.07,56.16,89.43C61.9,95.19,68.83,97.92,76.87,97a22.23,22.23,0,0,0,13.8-7.33c2.65-2.81,4.83-5.88,5.66-9.74,1.34-6.31,1.27-12.36-2.08-18.24a30.65,30.65,0,0,0-5.1-6.49L44.75,10.82c-.94-.94-2-1.79-3-2.73C58.77-2.8,91.22-4,115,12.48a73.82,73.82,0,0,1,27.83,84.75L293,247.37c2.48-.39,5.72-1.79,9.15-2.53,7.73-1.68,15.32-1.51,23.11-.72a77.84,77.84,0,0,1,13,2.58,66.2,66.2,0,0,1,21.67,10.53,58.68,58.68,0,0,1,8.78,7.27,78.45,78.45,0,0,1,9.38,11.62c5.38,8.74,9.84,17.81,11,28.19a.92.92,0,0,0,.76.78v21.6c-1.58,1.18-.54,2.92-.92,4.37a97,97,0,0,1-6.13,17.33c-1.45-.64-2.3-1.87-3.3-2.87-14.82-14.79-29.68-29.53-44.36-44.44A29.52,29.52,0,0,0,325,294.34a21,21,0,0,0-14.8-.71c-4.76,1.51-8.31,4.35-11.62,7.84a20.42,20.42,0,0,0-5.52,13.08,24,24,0,0,0,7.38,19.2q22.5,22.47,45,45a13.06,13.06,0,0,1,2.92,3.29c-.47.49-.76,1-1.19,1.21-6.58,2.89-13.32,5.25-20.55,5.88-.84.08-1.93-.47-2.39.79Z"/><path class="cls-1" d="M29,389.89c-4-1.47-8-2.82-11.66-5A36.53,36.53,0,0,1,3.42,369.73c-3.64-7.14-3.84-14.82-3-22.38a31.47,31.47,0,0,1,9.12-19.1q59.31-59.43,118.72-118.74c.73-.73,1.29-1.71,2.06-1.89l52.2,52.21c-.47,1.05-1.71,1.89-2.72,2.9Q122,320.55,64.16,378.36c-5.47,5.48-11.64,9.7-19.51,10.93-.16,0-.28.39-.42.6Z"/><path class="cls-1" d="M389.83,27.49c-3,4.13-4.6,9-7.15,13.39-4.62,7.93-8.23,16.37-12.64,24.39-2.15,3.9-4.27,7.81-6.15,11.83a6,6,0,0,1-3,2.9c-10.19,5.08-20.23,10.45-30.37,15.63-5.93,3-11.84,6.14-17.77,9.2a13.37,13.37,0,0,0-3.36,2.72Q280,136.92,250.58,166.32c-1,1-1.81,2.32-3.25,2.78-2.53-1.19-23.71-22-26.32-25.9.08-1.65,1.53-2.38,2.52-3.37q29.22-29.3,58.52-58.5a23.33,23.33,0,0,0,4.35-6c5.49-10.86,10.9-21.77,16.66-32.48,2.47-4.61,4.91-9.24,7.25-13.91A5.6,5.6,0,0,1,313,26.25q16.62-8.46,33.18-17c5-2.58,9.95-5.23,14.95-7.8,1.26-.65,2.5-1.59,4.64-.79,6.65,6.67,13.7,13.75,20.77,20.79,1,1,1.85,2.27,3.25,2.87Z"/></g></g></svg>