<svg xmlns="http://www.w3.org/2000/svg" viewBox="0 0 55.17 42"><defs><style>.cls-1{fill:#fec638;}</style></defs><title>Asset 28</title><g id="Layer_2" data-name="Layer 2"><g id="Layer_1-2" data-name="Layer 1"><path class="cls-1" d="M43.59,16a34.18,34.18,0,0,0-11,10.8c.43.83,1.13,1.13,1.75,1.67a52.4,52.4,0,0,1,15-2.54c0-.81-.79-1-1.06-1.61a1.53,1.53,0,0,1,.35-2,1.39,1.39,0,0,1,1.85,0C52,23.63,53.4,25,54.75,26.48a1.55,1.55,0,0,1-.15,2.25c-1.22,1.24-2.47,2.46-3.72,3.69a1.61,1.61,0,0,1-2.24.27c-.73-.51-.74-1.39,0-2.41A17.22,17.22,0,0,1,49.81,29c-5.08.38-9.65.78-14.13,2.41a14.52,14.52,0,0,1,.06,3.95,8.29,8.29,0,0,1-4.52,5.86c-.4.21-1,.18-1.13.81h-5c-.06-.55-.58-.54-.92-.69a8.35,8.35,0,0,1-4.7-9.62c-2.31-1.44-9.37-2.78-13.65-2.57,0,.76.8,1,1.06,1.56a1.52,1.52,0,0,1-.35,2,1.39,1.39,0,0,1-1.85,0C3.21,31.37,1.77,30,.42,28.52a1.55,1.55,0,0,1,.14-2.24C1.79,25,3,23.81,4.28,22.59a1.63,1.63,0,0,1,2.25-.29c.73.51.74,1.39,0,2.41a11.42,11.42,0,0,1-1,1.1c2.71.27,5.22.37,7.67.8a31.68,31.68,0,0,1,7.36,1.87c.84-.23,1.27-.88,2.09-1.44A33.29,33.29,0,0,0,11.58,16c-.09-.11,0-.57-.32-.16-.06.09.16.21.34.14,0,.58,0,1.15,0,1.73,0,1-.33,1.64-1.36,1.74a1.37,1.37,0,0,1-1.63-1.18c-.48-2.25-1.31-4.46-.93-7,2.18-1.22,4.79-.78,6.92-1.67A2.46,2.46,0,0,1,16,11c-.08,1.6-1.3,1.83-2.6,2.23A42.48,42.48,0,0,1,25.53,25.65c.69-1.85.89-13.39.44-19.94-.67,0-.91.67-1.39,1a1.49,1.49,0,0,1-2-.1,1.47,1.47,0,0,1,0-2.22C23.62,3.2,24.77,2.11,25.88,1c.28-.28.67-.5.71-1h2c1.09,1.69,2.75,2.84,4,4.35a1.5,1.5,0,0,1,0,2.23,1.48,1.48,0,0,1-2,.1c-.27-.19-.48-.47-.74-.67a5.18,5.18,0,0,0-.67-.36V26c2.15-2.62,3.64-5.08,5.68-7.07a66,66,0,0,1,6.89-5.76c-1.29-.29-2.31-.6-2.61-1.72-.06-1,.59-1.37,1.33-1.86,2.23.84,4.82.47,7,1.68.47,2.54-.42,4.73-.89,7A1.37,1.37,0,0,1,45,19.46c-1-.1-1.37-.79-1.36-1.74,0-.58,0-1.16,0-1.73.25,0,.47,0,.25-.33ZM32.68,33.83c.26-3.21-2.71-5.27-5-5.33a5.27,5.27,0,0,0-5.19,5.19c.1,3.07,2.08,5.26,5.05,5.3A5,5,0,0,0,32.68,33.83Z"/></g></g></svg>