<svg xmlns="http://www.w3.org/2000/svg" viewBox="0 0 368.9 430.09"><defs><style>.cls-1{fill:#fec431;}.cls-2{fill:#fef3d7;}</style></defs><title>Asset 11</title><g id="Layer_2" data-name="Layer 2"><g id="Layer_1-2" data-name="Layer 1"><path class="cls-1" d="M0,215Q0,119.49,0,24C0,13.8,4.73,6.61,13.7,2.14,17.15.42,21,0,24.84,0q61.24,0,122.49,0c28.16,0,56.32.13,84.49-.06a68.43,68.43,0,0,1,34.76,8.69A47.47,47.47,0,0,1,277,16.31C302.22,41.52,327.51,66.67,352.61,92c8.54,8.62,12.81,19.57,15.4,31.25a54.66,54.66,0,0,1,.86,11.9q0,135,0,270c0,7.71-2.26,14.37-8.14,19.55-3.7,3.26-7.89,5.48-13,5.39-1.5,0-3,0-4.5,0h-318c-4,0-7.92.24-11.69-1.73C4.89,423.79,0,417,0,407Q0,311,0,215ZM214,31.12c-.67,0-1.33-.13-2-.13q-89,0-177.95,0c-1,0-2-.3-2.81.58-1,9.91-.54,364.52.47,368H337.66V154.33c-2.05-.68-3.88-.37-5.68-.37q-46,0-92,0a32.08,32.08,0,0,1-7.92-.57c-8.69-2.13-17.32-12.06-17.2-22.45.34-30,.13-60,.12-90,0-3-.09-6-.14-9C214.92,31.3,214.67,31,214,31.12Zm121.42,91.66a24.15,24.15,0,0,0-6.08-10.89Q293.1,75.72,256.93,39.51a11.72,11.72,0,0,0-1.43-1.39c-2.77-2-5.53-4-9.23-4.21v88.87Z"/><path class="cls-2" d="M214.87,31.94l-.87-.82C214.67,31,214.92,31.3,214.87,31.94Z"/><path class="cls-1" d="M184.34,276.88h-81.4a35.53,35.53,0,0,1-4-.05c-3.73-.42-6.63-3.06-6.79-6.8-.25-5.64-.24-11.32,0-17,.15-4,3.05-6.67,7.06-7.07,1-.09,2,0,3,0H266.49c1,0,2-.05,3,0a7.13,7.13,0,0,1,6.62,6.8c.15,5.66.14,11.33,0,17a7.1,7.1,0,0,1-6.89,7.07c-1.32.09-2.66,0-4,0Z"/><path class="cls-1" d="M184,215.09H103.52c-1.5,0-3,0-4.5,0a7.09,7.09,0,0,1-6.92-7c-.14-5.33-.13-10.66,0-16,.1-4.21,3-7,7.29-7.19,1.33-.06,2.67,0,4,0H265.32a20.68,20.68,0,0,0,2.49,0c5.57-.62,8.8,2.84,8.43,8.36a103.53,103.53,0,0,0,0,14c.36,5.06-3.11,8.46-7.81,8-2.81-.26-5.66,0-8.49,0Z"/><path class="cls-1" d="M184.73,307.75h81c1.5,0,3-.05,4.49.08,3.35.29,5.76,2.38,5.85,5.63.19,6.32.18,12.66,0,19a5.83,5.83,0,0,1-5.46,5.49,29.17,29.17,0,0,1-3.5.1q-82.71,0-165.42,0c-2.47,0-5,.36-7-1.78C93.11,334.61,92,333,92,330.57c.11-5.17-.06-10.33.06-15.5a7.08,7.08,0,0,1,7.18-7.28c3.33-.12,6.67,0,10,0Z"/></g></g></svg>