<svg xmlns="http://www.w3.org/2000/svg" viewBox="0 0 18.33 18.37"><defs><style>.cls-1{fill:#fec431;}</style></defs><title>Asset 36</title><g id="Layer_2" data-name="Layer 2"><g id="Layer_1-2" data-name="Layer 1"><path class="cls-1" d="M10.15,0s0,0,0,0A4.19,4.19,0,0,1,11,.16a7,7,0,0,1,1.09.29c.29.12.59.2.88.35s.63.31.92.5a9.13,9.13,0,0,1,.91.62,9.6,9.6,0,0,1,.9.79,8.21,8.21,0,0,1,.67.77,7.68,7.68,0,0,1,.66.95,6.88,6.88,0,0,1,.77,1.62,1.07,1.07,0,0,1,.12.37.91.91,0,0,0-.4,0H16.35A7.67,7.67,0,0,0,15.61,5H14.2c.16.46.22.93.34,1.38,0,0,0,0,0,0H13.05c-.16-.45-.24-.94-.41-1.4h-7c-.18.45-.26.94-.42,1.4H3.72A13.69,13.69,0,0,1,4.08,5H2.66a6.48,6.48,0,0,0-.73,1.41H.77a.72.72,0,0,0-.42.06,7.8,7.8,0,0,1,.27-.78c.15-.31.29-.63.46-.93l.34-.56c.14-.22.3-.42.45-.63s.37-.44.55-.66a1.72,1.72,0,0,1,.44-.41l.06-.05a8.2,8.2,0,0,1,1.23-1A8.77,8.77,0,0,1,5,1c.21-.1.42-.22.64-.3A7.49,7.49,0,0,1,7.16.2c.09,0,.18-.06.27-.07A4.08,4.08,0,0,1,8,0s.07,0,.08,0Zm1.79,3.49s0-.05-.06-.08a4.77,4.77,0,0,0-1.14-1.35A2.94,2.94,0,0,0,9.59,1.5a2.15,2.15,0,0,0-.8,0,2.24,2.24,0,0,0-.65.21,3.32,3.32,0,0,0-.77.51,4.58,4.58,0,0,0-1,1.29Zm-7.29,0L4.87,3c.07-.14.21-.25.24-.43a5.69,5.69,0,0,0-1.19.89Zm8.51-.87c.17.29.32.58.46.87h.73A5,5,0,0,0,13.16,2.62Z"/><path class="cls-1" d="M5.63,13.39h7c.17-.45.25-.94.41-1.4h1.5c-.13.47-.18.94-.35,1.4h1.41a6.64,6.64,0,0,0,.73-1.4c.53,0,1,0,1.57,0-.09.25-.15.51-.26.74a7.87,7.87,0,0,1-.49,1c-.11.17-.2.36-.31.53s-.3.42-.45.63-.37.44-.55.66a1.29,1.29,0,0,1-.4.37l-.07.07a7.32,7.32,0,0,1-1.24,1,6.65,6.65,0,0,1-.86.5c-.21.1-.42.23-.64.31a7.46,7.46,0,0,1-1.53.45c-.1,0-.19.06-.29.08a5.58,5.58,0,0,1-.57.08,19,19,0,0,1-2,0,3.21,3.21,0,0,1-.43-.07,8.42,8.42,0,0,1-1.09-.22,1.94,1.94,0,0,1-.58-.17c-.19-.1-.39-.13-.58-.22a12.29,12.29,0,0,1-1.14-.59c-.27-.18-.54-.34-.8-.53s-.39-.32-.58-.49a5,5,0,0,1-.42-.38c-.25-.26-.48-.53-.71-.81a8.66,8.66,0,0,1-.7-1,8.14,8.14,0,0,1-.41-.77C.63,12.73.51,12.35.36,12a3.4,3.4,0,0,0,.78,0h.79a7.34,7.34,0,0,0,.73,1.42H4.07c-.16-.46-.22-.93-.34-1.4h1.5C5.38,12.45,5.46,12.93,5.63,13.39Zm6.29,1.49H6.34a5,5,0,0,0,1.22,1.44,2.83,2.83,0,0,0,1,.51,2.39,2.39,0,0,0,1,0,2.15,2.15,0,0,0,.78-.32,2.34,2.34,0,0,0,.41-.29,3.19,3.19,0,0,0,.56-.54A4,4,0,0,0,11.92,14.88Zm-8,0a5.14,5.14,0,0,0,1.19.86,9,9,0,0,1-.46-.86Zm9.7,0-.22.46c-.07.14-.21.25-.24.43a5.69,5.69,0,0,0,1.19-.89Z"/><path class="cls-1" d="M2.06,10.72H1.19A5.07,5.07,0,0,1,.85,10C.74,9.66.6,9.36.48,9.05S.25,8.53.16,8.26A.49.49,0,0,0,0,8V7.79a.34.34,0,0,1,.32-.15H.81c.09,0,.16.05.26.05.2.58.43,1.14.61,1.73.25-.58.49-1.16.76-1.72a1.67,1.67,0,0,1,.7-.06c.11,0,.18.08.23.19.19.36.29.74.48,1.09.07.15.12.3.18.46l.65-1.66A.59.59,0,0,1,5,7.64H5.4a.32.32,0,0,1,.36.23c-.15.33-.32.67-.45,1s-.33.66-.44,1a1.92,1.92,0,0,1-.14.29,2.21,2.21,0,0,0-.12.27.36.36,0,0,1-.17.25h-.8a.3.3,0,0,1-.14-.17L3,9.5,2.86,9C2.59,9.59,2.37,10.17,2.06,10.72Z"/><path class="cls-1" d="M16.63,9.37a.33.33,0,0,0,.06-.1A7.26,7.26,0,0,1,17,8.39a3.78,3.78,0,0,1,.21-.56.32.32,0,0,1,.32-.19,3.38,3.38,0,0,0,.45,0c.09,0,.15,0,.24,0a.36.36,0,0,1,0,.41c-.19.34-.31.72-.48,1.07s-.24.49-.33.74-.19.43-.29.64-.05.14-.15.18h-.81c-.3-.54-.5-1.13-.77-1.68-.24.56-.49,1.13-.78,1.68h-.87a3.6,3.6,0,0,1-.32-.69c-.1-.23-.18-.46-.28-.68s-.22-.57-.35-.85-.15-.42-.25-.62a.31.31,0,0,1,.09-.19,2,2,0,0,1,.88,0,.2.2,0,0,1,.17.17c.08.28.21.54.3.82s.17.47.24.72a6.88,6.88,0,0,0,.42-.92A4.42,4.42,0,0,0,15,7.83a.27.27,0,0,1,.28-.19h.46A.25.25,0,0,1,16,7.8a4.11,4.11,0,0,1,.25.61,3,3,0,0,0,.21.45A2.49,2.49,0,0,0,16.63,9.37Z"/><path class="cls-1" d="M8,9.4c.1-.23.18-.47.3-.7s.22-.55.35-.82A.37.37,0,0,1,9,7.64h.34a.29.29,0,0,1,.29.18c.13.31.28.61.39.93s.2.4.27.64L11,7.7a2.28,2.28,0,0,1,.82-.06.23.23,0,0,1,.2.15c.05.2-.08.36-.15.52-.24.56-.5,1.11-.74,1.67-.09.19-.16.38-.25.57a.32.32,0,0,1-.14.17H9.94a.63.63,0,0,1-.23-.38,1,1,0,0,0-.08-.2c-.18-.34-.3-.72-.48-1.08-.22.46-.45.91-.62,1.38,0,.11-.14.18-.19.28h-.8a.66.66,0,0,1-.23-.35C7.16,10,7,9.63,6.86,9.27s-.29-.77-.48-1.13a1.77,1.77,0,0,1-.08-.31l0-.11a1.67,1.67,0,0,1,1,0C7.6,8.25,7.76,8.83,8,9.4Z"/></g></g></svg>