<svg xmlns="http://www.w3.org/2000/svg" viewBox="0 0 397.61 312.81"><defs><style>.cls-1{fill:#fec431;}</style></defs><title>Asset 12</title><g id="Layer_2" data-name="Layer 2"><g id="Layer_1-2" data-name="Layer 1"><path class="cls-1" d="M0,282.41v-252c1.64-1.06.82-2.91,1.25-4.33A37.77,37.77,0,0,1,11,10.1,32.84,32.84,0,0,1,35.09.08Q198.88-.08,362.65,0a38.43,38.43,0,0,1,9.28,1.5,31,31,0,0,1,11.16,5.61c9.22,7,14.43,16.14,14.45,27.64q.18,120.2,0,240.37a51.63,51.63,0,0,1-.66,8.66,33.29,33.29,0,0,1-7.43,15.85c-7.43,9-17.24,13.15-28.82,13.15H37.92c-8.59,0-16.72-1.72-23.61-7.23a38,38,0,0,1-12-15.87C1.34,287.3,1.34,284.65,0,282.41ZM365.92,30.2c-4.65-1.7-9-1.39-13.39-1.39H208.94q-84.19,0-168.38,0a28.11,28.11,0,0,0-6.63.91c-3,.73-5.47,5-4.63,8A11.87,11.87,0,0,1,29.56,42a29.23,29.23,0,0,0,1.07,9.41A78.8,78.8,0,0,0,51.57,89.57c6.28,6.44,13.7,11.54,20.6,17.25,8.28,6.86,16.91,13.31,25.39,19.94q7.29,5.7,14.57,11.41c4,3.17,8,6.38,12,9.58,4.41,3.53,8.82,7.08,13.23,10.6l14.49,11.53c3.92,3.12,7.52,6.65,11.47,9.69a198.12,198.12,0,0,0,18.6,13.16c5.58,3.34,11.37,6,18.13,5.72,4.22-.16,8-1.72,11.58-3.51,7.3-3.63,13.78-8.6,20.17-13.62s12.54-10.44,18.88-15.57c4.69-3.8,9.53-7.41,14.27-11.15,4-3.16,8-6.39,12-9.58,4.42-3.53,8.82-7.08,13.26-10.57s8.73-6.72,13-10.15c4.62-3.7,9-7.72,13.79-11.18,7.24-5.24,14.19-10.86,21-16.59A92.09,92.09,0,0,0,356,76c4-6.17,8-12.32,10.14-19.45,1.11-3.66,1.41-7.46,2.11-11.17A23.48,23.48,0,0,0,365.92,30.2Zm2.88,78.11c-1.65.45-2.38,1.64-3.25,2.59A125.63,125.63,0,0,1,349,125.71c-8.37,6.34-16.56,12.91-24.91,19.27-9.51,7.24-18.78,14.76-28.23,22.06-8.43,6.5-16.65,13.27-24.87,20-7.53,6.18-14.94,12.48-22.52,18.59a121.83,121.83,0,0,1-22,14.42c-9.73,4.86-19.71,7.83-30.72,7.2a53.7,53.7,0,0,1-16.08-3.36c-4.57-1.72-8.78-4.17-13.16-6.27-6.09-2.92-11.38-7-16.54-11.28-3.45-2.86-7-5.56-10.37-8.55-3.82-3.4-7.93-6.47-11.9-9.72-3.56-2.92-7.06-5.92-10.65-8.81-4.7-3.79-9.48-7.47-14.2-11.24S93.69,160.53,89,156.88c-5.26-4.13-10.66-8.08-15.92-12.2-5.59-4.37-11-9-16.68-13.24-8.5-6.26-16.91-12.6-24.17-20.34-.95-1-1.79-2.26-3.46-2.87v164.6a13.72,13.72,0,0,0,0,2.4c.56,3.14,1.18,6.21,4.71,7.58a11.39,11.39,0,0,0,4.32.38q161,0,322,0c.54,0,1.07,0,1.6,0,3.68-.11,5.55-1.85,6.67-5.41a17.65,17.65,0,0,0,.69-5.46v-164Z"/></g></g></svg>