<svg xmlns="http://www.w3.org/2000/svg" viewBox="0 0 202.22 202.09"><defs><style>.cls-1{fill:#fec534;}</style></defs><title>Asset 19</title><g id="Layer_2" data-name="Layer 2"><g id="Layer_1-2" data-name="Layer 1"><path class="cls-1" d="M44.87,179.27V123.7c-1-1.18-2.45-.66-3.71-.67-7.5,0-15,0-22.49,0-9,0-16-6.1-17.82-14.84A48.28,48.28,0,0,1,0,98.3C0,78.14.05,58,0,37.82A23.24,23.24,0,0,1,2.49,26.36C5.83,20.43,11,16.81,18.2,17c1.33,0,2.66,0,4,0,1.33-2.09.64-4.3.71-6.39A10.67,10.67,0,0,1,33.73,0C40.1-.07,44.82,4.38,45,10.62c.05,2,0,3.92,0,6.1H89.51c1.15-3,.06-6.38,1.4-9.51,1.83-4.3,5-7,9.74-7.19S109,1.41,111.32,5.77c.93,1.76.61,3.56.82,5.34s-.48,3.67,1,5.57h44.36c1.05-1.88.42-4.07.5-6.16A10.69,10.69,0,0,1,168.81,0c6.38,0,11,4.39,11.16,10.68,0,1.83,0,3.66,0,5.39,1.54,1.5,3.31.91,4.88.86,9.64-.34,17.36,9.08,17.29,16.83-.22,24-.33,48,.07,72,.14,8.23-9,17.75-17.59,17.35-7.31-.35-14.66-.1-22-.06-1.64,0-3.31-.29-4.91.28-1.1,5.24-.81,52.48.4,56.35,3.69.75,7.51.21,11.29.33A11,11,0,0,1,180,189.3c.54,3.5-1.31,9.76-6.69,11.56a17.22,17.22,0,0,1-5.78,1.2c-14.32-.11-28.65,0-43-.08-7.3,0-12-5.31-11.53-12.53a10.35,10.35,0,0,1,9.77-9.43c4-.11,7.91,0,12.09,0V123.35h-67c-1.06,4.14-1.09,51.8,0,56.18,3.44,1,7.1.34,10.69.42,6.51.16,11.34,4.48,11.45,10.43a11,11,0,0,1-11,11.56q-22.49.3-45,0c-6.06-.09-9.71-3.35-10.87-9a10.9,10.9,0,0,1,6.29-12.26,11,11,0,0,1,4.35-.71c3.49-.06,7-.07,10.48-.12C44.33,179.86,44.45,179.65,44.87,179.27ZM178.77,39.45c-6.35-1-151.53-.68-155,.34-1.18,3.45-1.6,52-.52,59.6,1.77,2.1,4.2,1.6,6.48,1.6H173.09c.66,0,1.33,0,2,0a5.17,5.17,0,0,0,5-2.25c0-18.42,0-37.06,0-55.7C180.05,41.71,180,40.37,178.77,39.45Z"/></g></g></svg>