<?xml version="1.0" encoding="iso-8859-1"?>
<!-- Generator: Adobe Illustrator 22.1.0, SVG Export Plug-In . SVG Version: 6.00 Build 0)  -->
<svg version="1.1" id="Layer_1" xmlns="http://www.w3.org/2000/svg" xmlns:xlink="http://www.w3.org/1999/xlink" x="0px" y="0px"
	 viewBox="0 0 1000 1000" style="enable-background:new 0 0 1000 1000;" xml:space="preserve">
<g>
	<path style="fill:#FEC431;" d="M206,826.7v-65.3c0-8.8-3.2-16.5-9.7-23c-6.4-6.5-14.1-9.7-23-9.7H108c-8.8,0-16.5,3.2-23,9.7
		c-6.5,6.4-9.7,14.1-9.7,23v65.3c0,8.8,3.2,16.5,9.7,23c6.4,6.5,14.1,9.7,23,9.7h65.3c8.8,0,16.5-3.2,23-9.7S206,835.6,206,826.7z
		 M206,630.7v-65.3c0-8.8-3.2-16.5-9.7-23c-6.4-6.5-14.1-9.7-23-9.7H108c-8.8,0-16.5,3.2-23,9.7c-6.5,6.4-9.7,14.1-9.7,23v65.3
		c0,8.8,3.2,16.5,9.7,23c6.4,6.5,14.1,9.7,23,9.7h65.3c8.8,0,16.5-3.2,23-9.7S206,639.6,206,630.7z M206,434.7v-65.3
		c0-8.8-3.2-16.5-9.7-23c-6.4-6.5-14.1-9.7-23-9.7H108c-8.8,0-16.5,3.2-23,9.7c-6.5,6.4-9.7,14.1-9.7,23v65.3c0,8.8,3.2,16.5,9.7,23
		s14.1,9.7,23,9.7h65.3c8.8,0,16.5-3.2,23-9.7S206,443.6,206,434.7z M728.7,826.7V565.3c0-8.8-3.2-16.5-9.7-23s-14.1-9.7-23-9.7H304
		c-8.8,0-16.5,3.2-23,9.7c-6.5,6.4-9.7,14.1-9.7,23v261.3c0,8.8,3.2,16.5,9.7,23c6.4,6.5,14.1,9.7,23,9.7h392c8.8,0,16.5-3.2,23-9.7
		C725.5,843.2,728.7,835.6,728.7,826.7L728.7,826.7z M206,238.7v-65.3c0-8.8-3.2-16.5-9.7-23c-6.4-6.5-14.1-9.7-23-9.7H108
		c-8.8,0-16.5,3.2-23,9.7c-6.5,6.4-9.7,14.1-9.7,23v65.3c0,8.8,3.2,16.5,9.7,23c6.4,6.5,14.1,9.7,23,9.7h65.3c8.8,0,16.5-3.2,23-9.7
		C202.8,255.2,206,247.6,206,238.7z M924.7,826.7v-65.3c0-8.8-3.2-16.5-9.7-23c-6.4-6.5-14.1-9.7-23-9.7h-65.3
		c-8.8,0-16.5,3.2-23,9.7c-6.5,6.4-9.7,14.1-9.7,23v65.3c0,8.8,3.2,16.5,9.7,23c6.4,6.5,14.1,9.7,23,9.7H892c8.8,0,16.5-3.2,23-9.7
		S924.7,835.6,924.7,826.7z M728.7,434.7V173.3c0-8.8-3.2-16.5-9.7-23c-6.4-6.5-14.1-9.7-23-9.7H304c-8.8,0-16.5,3.2-23,9.7
		c-6.5,6.4-9.7,14.1-9.7,23v261.3c0,8.8,3.2,16.5,9.7,23c6.4,6.5,14.1,9.7,23,9.7h392c8.8,0,16.5-3.2,23-9.7
		C725.5,451.2,728.7,443.6,728.7,434.7z M924.7,630.7v-65.3c0-8.8-3.2-16.5-9.7-23c-6.4-6.5-14.1-9.7-23-9.7h-65.3
		c-8.8,0-16.5,3.2-23,9.7c-6.5,6.4-9.7,14.1-9.7,23v65.3c0,8.8,3.2,16.5,9.7,23c6.4,6.5,14.1,9.7,23,9.7H892c8.8,0,16.5-3.2,23-9.7
		S924.7,639.6,924.7,630.7z M924.7,434.7v-65.3c0-8.8-3.2-16.5-9.7-23c-6.4-6.5-14.1-9.7-23-9.7h-65.3c-8.8,0-16.5,3.2-23,9.7
		c-6.5,6.4-9.7,14.1-9.7,23v65.3c0,8.8,3.2,16.5,9.7,23s14.1,9.7,23,9.7H892c8.8,0,16.5-3.2,23-9.7S924.7,443.6,924.7,434.7z
		 M924.7,238.7v-65.3c0-8.8-3.2-16.5-9.7-23c-6.4-6.5-14.1-9.7-23-9.7h-65.3c-8.8,0-16.5,3.2-23,9.7c-6.5,6.4-9.7,14.1-9.7,23v65.3
		c0,8.8,3.2,16.5,9.7,23c6.4,6.5,14.1,9.7,23,9.7H892c8.8,0,16.5-3.2,23-9.7C921.5,255.2,924.7,247.6,924.7,238.7z M990,157v686
		c0,22.5-8,41.7-24,57.7s-35.2,24-57.7,24H91.7c-22.5,0-41.7-8-57.7-24S10,865.5,10,843V157c0-22.5,8-41.7,24-57.7s35.2-24,57.7-24
		h816.7c22.5,0,41.7,8,57.7,24C982,115.3,990,134.5,990,157z"/>
</g>
</svg>
