<?xml version="1.0" encoding="iso-8859-1"?>
<!-- Generator: Adobe Illustrator 22.1.0, SVG Export Plug-In . SVG Version: 6.00 Build 0)  -->
<svg version="1.1" id="Layer_1" xmlns="http://www.w3.org/2000/svg" xmlns:xlink="http://www.w3.org/1999/xlink" x="0px" y="0px"
	 viewBox="0 0 1000 1000" style="enable-background:new 0 0 1000 1000;" xml:space="preserve">
<g>
	<g transform="translate(0.000000,511.000000) scale(0.100000,-0.100000)">
		<path style="fill:#FEC431;" d="M570.2,4035.9c-197.6-75.1-310.2-173.9-407-357.6c-43.5-83-53.3-126.5-53.3-249
			c0-132.4,7.9-162,67.2-272.7c77.1-140.3,156.1-217.3,304.3-294.4c85-43.5,128.4-53.3,250.9-53.3s166,9.9,250.9,53.3
			c148.2,77.1,227.2,154.1,300.3,290.4l63.2,118.5h1001.7h1001.7L3073.6,3135c-482.1-237.1-853.6-509.8-1234.9-902.9
			c-561.1-579-936.5-1244.8-1124.2-1995.6C657.2,9.2,594-362.2,594-470.9v-51.4H347H100v-632.3v-632.2h632.3h632.3v632.2v632.3
			h-229.2H904.2L916-372.1c19.8,221.3,100.8,598.7,183.8,847.6c85,260.8,300.3,709.3,442.6,928.6c217.3,330,573,725.1,875.3,968.1
			c472.2,381.3,1118.3,685.6,1718.9,808.1l221.3,45.4l5.9-213.4l5.9-215.4H5000h632.3v215.4v215.4l134.4-25.7
			c1098.6-211.4,2029.1-823.9,2659.4-1756.5C8765.9,945.8,9034.6,200.9,9084-378l11.8-144.2h-231.2h-229.2v-632.3v-632.2h632.3H9900
			v632.2v632.3h-247h-247v51.4c0,108.7-63.2,480.1-120.5,707.3c-187.7,746.8-567,1418.6-1124.2,1995.5
			c-381.3,393.2-733,650-1223,897l-286.5,142.3h1001.7h999.8l63.2-118.5c73.1-136.3,152.1-213.4,300.3-290.4
			c146.2-75.1,355.7-75.1,501.9,0c148.2,77.1,227.2,154.1,304.3,294.4c57.3,110.6,65.2,142.3,65.2,272.7s-7.9,162-65.2,272.7
			c-77.1,140.3-156.1,217.3-304.3,294.4c-142.3,75.1-351.7,77.1-497.9,5.9c-126.5-61.3-264.8-199.6-322.1-320.1l-43.5-94.8H7143.7
			H5632.3v237.1v237.1H5000h-632.3v-237.1v-237.1H2856.2H1344.8l-49.4,98.8c-71.1,142.3-150.2,221.3-288.5,296.4
			C864.6,4057.7,688.8,4079.4,570.2,4035.9z M925.9,3694.1c86.9-65.2,126.5-160,116.6-290.4c-11.9-197.6-130.4-298.3-335.9-284.5
			C509,3131,408.2,3249.6,422.1,3455c7.9,130.4,51.4,203.5,154.1,256.9C665.1,3759.3,848.8,3749.4,925.9,3694.1z M5316.1,3429.4
			v-316.1H5000h-316.1v316.1v316.1H5000h316.1V3429.4z M9461.4,3694.1c86.9-65.2,126.5-160,116.6-290.4
			c-11.9-197.6-130.4-298.3-335.9-284.5c-197.6,11.9-298.4,130.4-284.5,335.9c7.9,130.4,51.4,203.5,154.1,256.9
			C9200.6,3759.3,9384.3,3749.4,9461.4,3694.1z M1048.4-1154.5v-316.1H732.3H416.1v316.1v316.1h316.1h316.1v-316.1H1048.4z
			 M9583.9-1154.5v-316.1h-316.1h-316.1v316.1v316.1h316.1h316.1V-1154.5z"/>
		<path style="fill:#FEC431;" d="M4203.8,232.5C3773-775.2,3419.4-1609,3419.4-1622.8c0-11.9,128.4-438.6,284.5-948.4
			c156.1-507.8,308.2-1001.7,337.9-1096.6l51.4-173.9H5002c497.9,0,906.9,4,906.9,7.9s152.1,497.9,335.9,1098.5
			c185.7,600.7,335.9,1102.5,335.9,1114.4c0,29.6-1568.8,3686.9-1580.6,3686.9C4994.1,2066,4636.5,1242.1,4203.8,232.5z
			 M4841.9,100.1v-800.2l-92.9-43.5c-122.5-57.3-260.8-195.6-322.1-322.1c-37.5-77.1-47.4-130.4-49.4-247
			c0-132.4,7.9-162,67.2-272.7c122.5-227.2,314.2-345.8,555.2-347.7c132.4-2,162,5.9,272.7,65.2c140.3,77,217.3,156.1,294.4,304.3
			c45.4,85,55.3,126.5,53.3,250.9c0,130.4-7.9,164-65.2,272.7C5478-899.7,5399-820.7,5256.8-749.6l-98.8,49.4V104
			c0,440.6,4,798.2,7.9,794.3c21.7-23.7,1078.8-2515.2,1078.8-2542.9c0-19.8-128.4-446.5-282.5-952.3l-282.5-918.7H5000h-679.7
			l-282.5,918.7c-156.1,505.8-282.5,934.6-282.5,954.3c0,31.6,1066.9,2542.9,1080.8,2542.9C4840,900.3,4841.9,540.7,4841.9,100.1z
			 M5193.6-1047.8c86.9-65.2,126.5-160,116.6-290.4c-11.9-197.6-130.4-298.4-335.9-284.5c-197.6,11.9-298.3,130.4-284.5,335.9
			c7.9,130.4,51.4,203.5,154.1,256.9C4932.8-982.6,5116.6-992.5,5193.6-1047.8z"/>
	</g>
</g>
</svg>
