<?xml version="1.0" encoding="iso-8859-1"?>
<!-- Generator: Adobe Illustrator 22.1.0, SVG Export Plug-In . SVG Version: 6.00 Build 0)  -->
<svg version="1.1" id="Layer_1" xmlns="http://www.w3.org/2000/svg" xmlns:xlink="http://www.w3.org/1999/xlink" x="0px" y="0px"
	 viewBox="0 0 1000 1000" style="enable-background:new 0 0 1000 1000;" xml:space="preserve">
<g>
	<path style="fill:#FEC431;" d="M784.9,59.6c7.2-7.2,18.9-7.2,26.2,0l129.3,129.3c7.2,7.2,7.2,18.9,0,26.2l-51.7,51.7L798,176.1
		c-7.2-7.2-18.8-7.2-25.9,0c-7.2,7.2-7.2,18.8,0,25.9l90.7,90.7l-77.7,77.7l-38.9-38.9c-7.2-7.2-18.8-7.2-25.9,0
		c-7.2,7.2-7.2,18.8,0,25.9l38.9,38.9l-51.8,51.8l25.9,25.9l245.9-245.9c14.5-14.5,14.5-37.9,0-52.3l-155-155
		c-14.4-14.4-37.9-14.4-52.3,0l-246,246l25.9,25.9L784.9,59.6z"/>
	<path style="fill:#FEC431;" d="M396.3,759.1l-38.9-38.9c-7.2-7.2-18.8-7.2-25.9,0c-7.2,7.2-7.2,18.8,0,25.9l38.9,38.9l-77.7,77.7
		L202,772.1c-7.2-7.2-18.8-7.2-25.9,0c-7.2,7.2-7.2,18.8,0,25.9l90.7,90.7l-51.7,51.7c-7.2,7.2-18.9,7.2-26.2,0L59.6,811.1
		c-7.2-7.2-7.2-18.9,0-26.2l233.1-233.1l-25.9-25.9l-246,245.9c-14.5,14.5-14.5,37.9,0,52.3l155,155c14.4,14.4,37.9,14.4,52.3,0
		L474,733.2l-25.9-25.9L396.3,759.1z"/>
	<path style="fill:#FEC431;" d="M901.9,689.7L240,27.8c-3.6-3.6-10.6-7.3-15.6-8.3c0,0-65.8-20-143.9,58.1S22.4,221.5,22.4,221.5
		c0.8,5,4.7,12,8.3,15.6L692.6,899c3.6,3.6,10.5,7.6,15.5,9L987,984.1l-76.1-278.9C909.6,700.2,905.5,693.3,901.9,689.7z
		 M846.6,686.7l-45.1,1.8c-10.8,0.4-19.3,9.6-18.9,20.4l1.7,46.4L201.4,172.4c32.4-25.5,71.7-34.8,92.7-38.1L846.6,686.7z
		 M75.8,229.9c-3.6-3.6-7.5-10.6-8.4-15.6c0,0-17-49.9,41.5-108.4s108.4-41.5,108.4-41.5c5,1,12,4.8,15.6,8.4l30,30
		c-29.7,7.7-68.9,23.2-100.3,54.6c-33.1,33.1-48.1,74.4-54.9,104.2L75.8,229.9z M709,781.7c-10.7,0-19.5,8.6-19.7,19.3l-0.7,41.7
		L139.7,293.8c1.9-17.5,9-59.5,35.8-95l583.7,583.7l-49.9-0.7C709.2,781.7,709.1,781.7,709,781.7z M887.3,927.6l-149.3-42
		c-3.9-1.1-9.2-3.9-13-6.9l1-59.7l77.1,1.1c0.1,0,0.2,0,0.3,0c5.3,0,10.3-2.1,14-5.9c3.7-3.8,5.8-9.1,5.6-14.4l-2.8-75l61.6-2.4
		c2.9,3.8,5.6,8.8,6.7,12.7l42,149.3L887.3,927.6z"/>
</g>
</svg>
