<?xml version="1.0" encoding="iso-8859-1"?>
<!-- Generator: Adobe Illustrator 22.1.0, SVG Export Plug-In . SVG Version: 6.00 Build 0)  -->
<svg version="1.1" id="Layer_1" xmlns="http://www.w3.org/2000/svg" xmlns:xlink="http://www.w3.org/1999/xlink" x="0px" y="0px"
	 viewBox="0 0 1000 1000" style="enable-background:new 0 0 1000 1000;" xml:space="preserve">
<g>
	<path style="fill:#FEC431;" d="M511.9,204.4C368.1,204.4,251,321.5,251,465.3c0,59,19.3,114.6,55.8,161c7,8.9,14.5,17.6,21.8,26.1
		c21.8,25.3,42.3,49.1,49.6,75.9c0.2,0.6,1.5,6.2,1.3,25.4v2.8c-0.2,15.6-0.5,36.9,15.3,52.9c10.8,10.9,25.9,16.3,46.3,16.3h141.1
		c22,0,37.8-5.4,48.3-16.4c14.2-15,13.3-34.3,12.6-47c-0.1-2.3-0.2-4.5-0.3-6.8c-0.2-19.2,1.2-24.6,1.3-24.8
		c7.4-26.8,31.5-55.1,52.8-80.1c7.1-8.3,13.8-16.2,20-24.1c36.6-46.4,55.9-102,55.9-161C772.8,321.5,655.8,204.4,511.9,204.4z
		 M675.7,593.8c-5.6,7.1-12,14.6-18.8,22.6c-24.8,29.1-52.9,62.1-63.4,100.1c-1.5,5.4-3.5,15.4-3.2,39.5c0,2.9,0.2,5.9,0.3,8.8
		c0.1,2.3,0.3,5.3,0.2,7.7c-1.9,0.3-4.6,0.6-8.7,0.6h-141c-4.5,0-7.1-0.5-8.4-0.8c-0.7-3.4-0.6-10.5-0.5-15v-3
		c0.3-24.2-1.7-34.3-3.2-39.8c-10.4-38.3-37.1-69.2-60.5-96.4c-7.2-8.4-14.1-16.3-20.4-24.3c-29.2-37-44.6-81.4-44.6-128.4
		C303.6,350.5,397.1,257,512,257s208.3,93.5,208.3,208.4C720.3,512.4,704.9,556.8,675.7,593.8z"/>
	<path style="fill:#FEC431;" d="M576.8,849.4H447c-28,0-50.8,22.8-50.8,50.8v39c0,28,22.8,50.8,50.8,50.8h129.8
		c28,0,50.8-22.8,50.8-50.8v-39C627.6,872.2,604.8,849.4,576.8,849.4z M575.1,937.4H448.8V902h126.3V937.4z"/>
	<path style="fill:#FEC431;" d="M511.9,170.4c14.5,0,26.3-11.8,26.3-26.3V36.3c0-14.5-11.8-26.3-26.3-26.3s-26.3,11.8-26.3,26.3
		v107.8C485.6,158.6,497.4,170.4,511.9,170.4z"/>
	<path style="fill:#FEC431;" d="M857.7,131.2c-10-10.5-26.7-10.9-37.2-0.9l-79.8,76.1c-10.5,10-10.9,26.7-0.9,37.2
		c5.2,5.4,12.1,8.1,19,8.1c6.5,0,13.1-2.4,18.1-7.3l79.8-76.1C867.3,158.4,867.7,141.7,857.7,131.2z"/>
	<path style="fill:#FEC431;" d="M936,394L936,394l-102.7,0.2c-14.5,0-26.3,11.8-26.2,26.3c0,14.5,11.8,26.2,26.3,26.2l0,0l102.7-0.2
		c14.5,0,26.3-11.8,26.2-26.3C962.3,405.8,950.5,394,936,394z"/>
	<path style="fill:#FEC431;" d="M270.6,236.7c10-10.5,9.6-27.1-0.9-37.2L190,123.4c-10.5-10-27.1-9.6-37.2,0.9
		c-10,10.5-9.6,27.1,0.9,37.2l79.8,76.1c5.1,4.9,11.6,7.3,18.1,7.3C258.6,244.8,265.5,242.1,270.6,236.7z"/>
	<path style="fill:#FEC431;" d="M166.7,394.2L64,394l0,0c-14.5,0-26.3,11.7-26.3,26.2s11.7,26.3,26.2,26.3l102.7,0.2l0,0
		c14.5,0,26.3-11.7,26.3-26.2C193,406,181.2,394.2,166.7,394.2z"/>
</g>
</svg>
