<?xml version="1.0" encoding="iso-8859-1"?>
<!-- Generator: Adobe Illustrator 22.1.0, SVG Export Plug-In . SVG Version: 6.00 Build 0)  -->
<svg version="1.1" id="Layer_1" xmlns="http://www.w3.org/2000/svg" xmlns:xlink="http://www.w3.org/1999/xlink" x="0px" y="0px"
	 viewBox="0 0 1000 1000" style="enable-background:new 0 0 1000 1000;" xml:space="preserve">
<g>
	<path style="fill:#FEC431;" d="M988.3,949.4l-6.3-45.2l0,0l-28.9-207.7c-0.9-6.5-3.9-12.6-8.6-17.2L311.9,46.7
		c-23.5-23.5-54.8-36.5-88-36.5c-33.3,0-64.5,12.9-88,36.4l-89.6,89.6c-48.4,48.5-48.4,127.4,0,176L679,944.8
		c4.6,4.7,10.7,7.7,17.2,8.6l258.7,36c1.4,0.2,2.8,0.3,4.2,0.3c0.3,0,0.4,0,0.6,0c16.7,0,30.3-13.6,30.3-30.3
		C990,955.9,989.4,952.5,988.3,949.4z M896.1,920.1l-131.2-18.3l136.7-136.7l18.3,131.3L896.1,920.1z M842.4,738.6L434.8,330.9
		l37.9-37.9l407.7,407.7L842.4,738.6z M402.9,320c-0.1,0.1-0.2,0.2-0.3,0.2c-0.1,0.1-0.2,0.2-0.2,0.3l-131.1,131l-95.1-95.1
		l179.9-179.9l95.1,95.1L402.9,320z M413.4,352.3L821,760l-60.4,60.4L352.9,412.7L413.4,352.3z M89.2,179l89.5-89.5
		c24.1-24.1,66.3-24.1,90.4,0l65.6,65.6L154.8,335l-65.6-65.6C64.3,244.5,64.3,204,89.2,179z M292.7,473l38.8-38.8l407.7,407.7
		l-38.8,38.8L292.7,473z"/>
</g>
</svg>
