<?xml version="1.0" encoding="iso-8859-1"?>
<!-- Generator: Adobe Illustrator 22.1.0, SVG Export Plug-In . SVG Version: 6.00 Build 0)  -->
<svg version="1.1" id="Layer_1" xmlns="http://www.w3.org/2000/svg" xmlns:xlink="http://www.w3.org/1999/xlink" x="0px" y="0px"
	 viewBox="0 0 1000 1000" style="enable-background:new 0 0 1000 1000;" xml:space="preserve">
<g>
	<g transform="translate(0.000000,511.000000) scale(0.100000,-0.100000)">
		<path style="fill:#FEC431;" d="M1267.9,5007.4c-313-51.2-553.2-173.3-777.7-399.7c-133.9-133.9-185.1-204.8-252-336.7
			C122,4032.8,90.5,3879.2,102.3,3601.6c13.8-378,122.1-620.2,399.7-897.8C761.9,2442,1067,2316,1445.1,2316
			c301.2,0,531.6,70.9,781.6,248.1l114.2,78.8l187-141.7c102.4-78.8,187-145.7,187-147.7s-55.1-114.2-124-248.1
			c-224.5-445-295.3-744.2-295.3-1240.4c0-374.1,29.5-569,135.8-880.1c68.9-204.8,236.3-523.7,374.1-716.7
			c141.7-196.9,464.6-511.9,657.6-641.8c372.1-250,862.3-431.2,1260.1-462.7l68.9-5.9l5.9-131.9c5.9-131.9,5.9-131.9-49.2-145.7
			c-848.6-187.1-1313.2-1027.7-1008-1819.2c145.7-380,454.8-669.4,854.5-801.3c135.8-45.3,191-51.2,403.6-51.2s267.8,5.9,403.6,51.2
			c783.6,259.9,1173.4,1149.8,817.1,1868.4c-198.9,399.7-527.7,655.6-970.6,752.1c-55.1,13.8-55.1,13.8-49.2,145.7l5.9,131.9
			l68.9,5.9c293.3,23.6,661.5,133.9,960.8,289.4c281.6,145.7,482.4,297.3,708.8,529.6c374.1,385.9,598.5,813.1,716.7,1360.4
			c61,281.5,61,763.9,0,1047.4c-70.9,328.8-198.8,649.7-368.2,925.4l-49.2,80.7l175.2,139.8c96.4,76.8,179.2,139.8,185,139.8
			c5.9,0,76.8-47.2,157.5-104.3c255.9-183.1,480.4-255.9,791.5-255.9c236.3,0,393.8,35.4,612.3,143.7
			c297.3,145.7,555.2,441,667.4,761.9c70.9,204.8,88.6,539.5,41.3,744.2c-57.1,242.2-175.2,450.9-366.2,641.8
			c-141.8,145.7-194.9,183.1-354.4,259.9c-236.3,112.2-354.4,139.8-600.5,139.8c-236.3,0-391.8-37.4-612.3-145.7
			C7322,4558.5,7028.7,3753.2,7312.2,3135c27.6-59.1,49.2-116.2,49.2-122.1c0-15.8-346.5-297.3-366.2-297.3
			c-5.9,0-82.7,66.9-169.4,147.7c-350.4,328.8-791.5,553.2-1301.4,663.5c-285.5,59.1-765.9,59.1-1051.3,0
			c-521.7-112.2-958.8-338.6-1323.1-685.2c-96.5-90.6-181.1-165.4-189-165.4c-5.9,0-88.6,59.1-183.1,131.9
			c-94.5,72.8-173.3,133.9-177.2,133.9c-2,2,25.6,68.9,65,149.6C3075.3,3954,2461,4968,1504.1,5009.3
			C1407.7,5013.3,1301.3,5011.3,1267.9,5007.4z M1592.7,4603.8c482.4-76.8,838.7-527.6,801.3-1013.9
			c-9.8-137.8-84.7-364.2-122.1-376c-9.8-2-187,124-393.8,283.5c-204.8,157.5-399.7,303.2-433.1,322.9
			c-173.3,108.3-366.2-61-283.5-246.1c13.8-27.6,206.7-189,433.1-360.3s409.5-317,411.5-322.9c0-21.7-187-112.2-303.2-145.7
			c-159.5-47.2-409.5-43.3-553.2,7.9c-490.2,173.3-758,663.5-630,1153.7c104.3,397.7,476.5,693,905.7,716.7
			C1447,4623.4,1521.9,4615.6,1592.7,4603.8z M8971.9,4515.2c82.7-39.4,187-112.2,246.1-171.3c102.4-100.4,226.4-281.5,204.8-301.2
			c-5.9-5.9-65,0-131.9,13.8c-208.7,41.3-382,11.8-663.5-112.2c-35.4-15.7-88.6,104.4-98.4,228.4c-11.8,129.9,17.7,279.6,74.8,374.1
			c37.4,61,43.3,63,131.9,51.2C8786.8,4591.9,8893.1,4554.5,8971.9,4515.2z M8158.8,4493.5c-7.9-19.7-19.7-110.2-25.6-200.8
			c-9.8-187,17.7-340.6,86.6-478.4l47.3-94.5l-72.9-31.5c-45.3-19.7-131.9-31.5-216.6-33.5c-116.1,0-159.5,7.9-255.9,57.1
			c-104.3,53.2-114.2,61-106.3,116.2c11.8,102.4,82.7,271.7,165.4,387.9C7895,4383.3,8208,4609.7,8158.8,4493.5z M9387.3,3611.5
			l120.1-55.1l-11.8-70.9c-33.5-181.1-137.8-370.1-277.6-508c-88.6-84.7-255.9-194.9-271.7-179.2c-5.9,3.9,0,39.4,9.8,76.8
			c35.4,118.1,23.6,381.9-21.6,515.8c-21.7,67-53.2,141.8-68.9,165.4c-31.5,49.2-23.6,57.1,98.4,96.5
			C9078.2,3692.2,9245.6,3674.5,9387.3,3611.5z M8542.7,3302.4c66.9-147.7,37.4-433.1-57.1-549.3c-35.4-43.3-41.3-43.3-145.7-19.7
			c-244.2,53.2-482.4,228.4-606.4,443c-31.5,55.1-57.1,106.3-57.1,112.2s65-2,143.7-17.7c175.2-35.4,383.9-11.8,547.4,63
			c57.1,25.6,114.2,49.2,122.1,49.2C8497.4,3385.1,8523,3347.6,8542.7,3302.4z M5244.9,3168.5c364.2-41.3,750.1-181.1,1033.6-374.1
			c155.5-104.3,397.7-313,389.8-334.7c-3.9-9.8-90.6-82.7-191-165.4l-187-147.7l-80.7,74.8c-486.3,448.9-1238.4,582.8-1884.2,334.7
			c-175.2-68.9-409.5-214.6-547.3-344.6l-96.5-90.6l-189,143.7c-104.3,78.8-192.9,149.6-198.9,157.5
			c-11.8,19.7,208.7,218.5,376,336.7c285.5,204.8,702.9,366.2,1055.3,407.5C4933.8,3190.1,5044.1,3190.1,5244.9,3168.5z
			 M5345.3,2243.1c84.6-21.7,208.7-66.9,275.6-98.4c120.1-59.1,340.6-214.6,342.6-240.2c0-7.9-94.5-88.6-208.7-181.1L5544.2,1558
			l-66.9,47.2c-183.1,124-460.7,173.3-669.4,118.1c-112.2-27.6-259.9-94.5-342.6-153.6c-27.6-17.7-66.9,3.9-240.2,133.9
			c-114.2,84.6-208.7,165.4-208.7,179.2c-2,33.5,220.5,192.9,364.2,261.9C4672,2284.5,5036.2,2321.9,5345.3,2243.1z M7087.7,1859.2
			c543.4-1132.1,76.8-2492.5-1049.4-3063.5c-242.1-122.1-624.1-234.3-795.4-234.3h-47.2v244.1v244.1l133.9,23.6
			c695,130,1256.1,657.6,1433.3,1350.6c59.1,236.3,67,582.8,19.7,809.2c-35.4,165.4-128,415.4-196.9,525.7l-47.3,78.8l191,151.6
			l189,153.6l37.4-43.3C6975.5,2075.8,7036.6,1967.5,7087.7,1859.2z M3258.4,1941.9l179.2-135.8l-45.3-82.7
			c-135.8-242.2-208.7-541.4-208.7-858.4c2-517.8,171.3-921.4,543.4-1289.6c279.6-277.6,572.9-433.1,943.1-502.1l131.9-23.6v-244.1
			v-244.1h-47.2c-88.6,0-370.1,61-509.9,112.2c-693,248.1-1226.6,791.5-1449.1,1478.6c-80.8,246-108.4,433.1-108.4,712.7
			c0,281.5,27.6,466.6,108.3,714.7c72.8,220.5,230.4,529.6,259.9,511.9C3069.4,2083.7,3159.9,2016.7,3258.4,1941.9z M6290.4,1467.4
			c96.5-210.7,131.9-409.5,120.1-671.4c-13.8-346.5-106.3-588.7-326.8-852.5c-104.4-126-293.4-277.6-437.1-348.5
			c-86.6-45.3-279.6-110.3-395.7-135.8l-55.1-11.8V-277c0,246.1,3.9,277.6,35.4,287.5c110.3,33.4,295.3,139.8,378,216.6
			c108.3,102.4,222.5,305.2,254,456.8c37.4,177.2,29.5,254-49.2,527.7c-9.8,37.4,19.7,68.9,191,202.8
			c110.3,88.6,208.7,159.5,218.5,159.5S6262.8,1526.5,6290.4,1467.4z M3979,1392.6c153.6-116.2,210.7-169.3,202.8-192.9
			c-33.5-82.7-68.9-254-68.9-328.8c0-224.4,116.2-494.2,275.6-643.8c82.7-76.8,267.8-183.1,380-216.6C4798,0.7,4802-30.9,4802-277
			v-275.6l-53.2,11.8c-31.5,5.9-112.2,29.5-183.1,51.2C4097.1-345.9,3728.9,53.8,3610.8,544c-49.2,206.7-33.5,574.9,35.4,763.9
			c57.1,161.5,94.5,246.1,108.3,246.1C3760.4,1554,3860.8,1481.2,3979,1392.6z M4801.9-2950.6v-427.2l-297.3-295.3l-295.3-295.3
			l-37.4,45.3c-70.9,84.7-126,295.3-124,476.5c2,378,202.8,693,547.3,858.4C4817.7-2480.1,4801.9-2454.5,4801.9-2950.6z
			 M5410.3-2590.3c368.2-177.2,594.6-596.6,533.6-984.4c-23.6-151.6-88.6-330.8-130-366.2c-25.6-21.7-72.9,19.7-324.9,269.7
			l-293.3,293.4v427.2C5195.7-2452.5,5179.9-2480.1,5410.3-2590.3z M5262.6-3996.1l254-254l-49.2-31.5
			c-240.2-157.5-697-157.5-937.1,0l-49.2,31.5l254,254c139.8,139.8,257.9,254,263.8,254S5122.8-3856.3,5262.6-3996.1z"/>
	</g>
</g>
</svg>
