<?xml version="1.0" encoding="iso-8859-1"?>
<!-- Generator: Adobe Illustrator 22.1.0, SVG Export Plug-In . SVG Version: 6.00 Build 0)  -->
<svg version="1.1" id="Layer_1" xmlns="http://www.w3.org/2000/svg" xmlns:xlink="http://www.w3.org/1999/xlink" x="0px" y="0px"
	 viewBox="0 0 1000 1000" style="enable-background:new 0 0 1000 1000;" xml:space="preserve">
<g>
	<path style="fill:#FEC431;" d="M74.5,827.9h26.4v47.4H74.5V827.9L74.5,827.9z M364.1,827.3h26.4v80.9h-26.4V827.3L364.1,827.3z
		 M190.3,826h26.4v81.6h-26.4V826L190.3,826z M132.4,827.9h26.4v47.4h-26.4V827.9L132.4,827.9z M248.2,829.3h26.4v47.4h-26.4
		L248.2,829.3L248.2,829.3z M306.2,829.3h26.4v47.4h-26.4V829.3L306.2,829.3z M422,829.3h26.4v47.4H422V829.3L422,829.3z
		 M479.9,829.3h26.4v47.4h-26.4V829.3L479.9,829.3z M537.8,826h26.4v80.9h-26.4V826L537.8,826z M595.8,828.4h26.4v47.4h-26.4V828.4
		L595.8,828.4z M653.7,827.9h26.4v47.4h-26.4V827.9L653.7,827.9z M711.6,826.6H738v79.9h-26.4V826.6L711.6,826.6z M769.5,827.7h26.4
		v47.4h-26.4V827.7L769.5,827.7z M827.5,827.7h26.3v47.4h-26.3V827.7L827.5,827.7z M885.4,828.1h26.4v79.1h-26.4V828.1L885.4,828.1z
		 M967,774.6H33c-12.7,0-23,10.7-23,23.9v169.2c0,13.2,10.3,24,23,24h934c12.7,0,23-10.8,23-24V798.5
		C990,785.3,979.7,774.6,967,774.6L967,774.6z M946.5,819.7v126.8h-893V819.7H946.5L946.5,819.7z M528.7,425.2
		c-26.4,0-51.3,10.3-69.9,29c-22.9,22.9-24.9,37.4-29.7,72.6c-3.3,24.1-7.8,57-21,110l-2.7,10.6l10.7-2.7
		c53-13.2,85.9-17.8,109.9-21c35.2-4.8,49.7-6.8,72.7-29.7c38.6-38.6,38.6-101.4,0-139.9C580,435.5,555.2,425.2,528.7,425.2
		L528.7,425.2z M513.5,589.2c-15.2,1.7-33.7,3.8-58.1,8.3c4.5-24.4,6.6-42.9,8.3-58.1c3.4-30,4.9-43.7,20.8-59.6
		c11.8-11.8,27.6-18.3,44.3-18.3s32.5,6.5,44.3,18.3c24.4,24.5,24.4,64.2,0,88.7C557.2,584.3,543.5,585.9,513.5,589.2L513.5,589.2z
		 M983,137.8L915.1,70c-9.3-9.4-24.5-9.4-33.9,0L559.1,392.1c-5.3,5.3-7.3,12.4-6.6,19.2c21.1,4.9,41.1,15.2,57.4,31.6
		c16.4,16.4,26.7,36.4,31.6,57.4c6.9,0.7,14-1.3,19.3-6.5L983,171.7C992.3,162.3,992.3,147.2,983,137.8L983,137.8z M643.8,443
		l-33.9-33.9l220.4-220.4l33.9,33.9L643.8,443L643.8,443z M881.2,205.6l-33.9-33.9l50.9-50.9l33.9,33.9L881.2,205.6L881.2,205.6z
		 M389.3,686.4H99.1l134.2-134.2c9-9,9-23.6,0-32.6c-4.3-4.4-10.1-6.8-16.3-6.8s-11.9,2.4-16.3,6.8L66.4,653.8V31.4
		c0-12.7-10.3-23-23-23s-23.1,10.3-23.1,23v678.1c0,9.2,6.2,23,23.1,23h345.9c12.7,0,23-10.4,23-23
		C412.3,696.8,402,686.4,389.3,686.4L389.3,686.4z"/>
</g>
</svg>
