<?xml version="1.0" encoding="iso-8859-1"?>
<!-- Generator: Adobe Illustrator 22.1.0, SVG Export Plug-In . SVG Version: 6.00 Build 0)  -->
<svg version="1.1" id="Layer_1" xmlns="http://www.w3.org/2000/svg" xmlns:xlink="http://www.w3.org/1999/xlink" x="0px" y="0px"
	 viewBox="0 0 1000 1000" style="enable-background:new 0 0 1000 1000;" xml:space="preserve">
<g>
	<g transform="translate(0.000000,511.000000) scale(0.100000,-0.100000)">
		<path style="fill:#FEC431;" d="M8052,4094.7c-23.3-11.7-42-51.3-42-84c0-49,70-133,315-378l315-317.3L7678.7,2354l-959-959
			l114.3-58.3c135.4-70,219.4-154,289.4-294l51.3-102.7l959,959l961.3,961.3l317.3-315c245-245,329-315,378-315
			c37.3,0,70,18.7,86.3,44.3c14,30.3,23.3,331.3,23.3,823.7c0,735-2.3,781.7-46.7,854c-25.7,42-79.3,95.7-121.3,121.3
			c-72.3,44.3-119,46.7-858.7,46.7C8385.7,4118,8075.3,4111,8052,4094.7z"/>
		<path style="fill:#FEC431;" d="M100,3700.4v-116.7h3826.7c3059,0,3824.4,7,3810.3,30.3c-11.7,14-44.3,67.7-74.7,116.7l-53.7,86.3
			H3854.3H100V3700.4z"/>
		<path style="fill:#FEC431;" d="M4335,2683c-86.3-44.3-149.3-100.3-179.7-161c-149.3-275.3,42-595,354.7-595
			c245,0,438.7,249.7,375.7,483C4818,2659.7,4547.3,2792.7,4335,2683z"/>
		<path style="fill:#FEC431;" d="M5084,2109c-42-119-177.3-282.3-282.3-340.7c-30.3-16.3-37.3-32.7-23.3-46.7
			c14-11.7,277.7-212.3,585.6-443.3l562.4-420l30.3,93.3c39.7,140,133,266,247.3,343l102.7,67.7l-578.7,434
			c-319.7,238-585.7,434-590.3,434C5133,2230.4,5107.3,2174.4,5084,2109z"/>
		<path style="fill:#FEC431;" d="M2384.3,650.7c-819-819-1498-1512-1512-1540c-70-137.6,2.3-345.3,147-413
			c98-46.7,156.3-46.7,254.3-4.6c42,18.7,709.3,667.3,1565.7,1526l1491,1493.3l-81.7,35c-119,49-261.3,184.3-310.3,296.3
			c-23.3,51.3-49,93.3-56,93.3C3875.3,2137.1,3201,1467.4,2384.3,650.7z"/>
		<path style="fill:#FEC431;" d="M100,1647.1v-116.7h1278.7h1278.7l114.3,116.7l114.3,116.7H1493H100V1647.1z"/>
		<path style="fill:#FEC431;" d="M8481.3,1663.4c-53.7-53.7-98-107.3-98-116.7c0-9.3,340.7-16.3,758.3-16.3H9900v116.7v116.7h-660.3
			h-660.3L8481.3,1663.4z"/>
		<path style="fill:#FEC431;" d="M6386,1136c-137.7-63-203-168-214.7-340.7c-7-116.7,0-154,46.7-221.7
			c86.3-126,193.7-186.7,331.3-186.7c338.3,2.3,527.3,371,322,627.7C6743,1175.7,6570.3,1220.1,6386,1136z"/>
		<path style="fill:#FEC431;" d="M4076,109.4c-301-135.3-303.3-560-4.7-716.3c95.7-49,266-42,373.3,18.7
			c277.7,156.3,256.7,564.7-37.3,697.7C4286,163,4197.3,163,4076,109.4z"/>
		<path style="fill:#FEC431;" d="M8063.7-9.6c-37.3-14-53.7-42-53.7-84c0-51.3,67.7-133,319.7-387.3l319.7-322l-578.7-581
			c-525-527.3-574-581-522.6-592.7c105-28,252-154,324.3-287l74.7-130.7l574,574l574,574l315-315c172.7-172.7,336-322,359.3-329
			c30.3-11.7,60.7,2.3,88.7,37.3c39.7,46.7,42,114.3,42,826c0,849.3-4.7,875-147,980c-63,46.7-98,49-851.7,53.7
			C8455.7,9,8091.7,2,8063.7-9.6z"/>
		<path style="fill:#FEC431;" d="M100-406.3V-523h252h252l114.3,116.7l114.3,116.7H466.3H100V-406.3z"/>
		<path style="fill:#FEC431;" d="M5560-299c0-4.6,65.3-58.3,144.7-116.7L5849.3-523H6799h952l-72.4,116.7l-72.3,116.7h-1022
			C6019.7-289.6,5560-294.3,5560-299z"/>
		<path style="fill:#FEC431;" d="M4834.3-446c-21-77-65.3-147-147-231c-65.3-65.4-135.3-126-154-130.7c-23.3-9.3-28-21-11.7-37.3
			c14-14,506.3-387.3,1096.7-830.7c998.7-749,1075.6-802.7,1094.3-753.7c72.3,189,102.7,235.7,189,315
			c53.7,46.7,114.4,98,137.7,109.7c32.7,18.7-147,163.3-1050,840c-599.7,450.3-1096.7,819-1106,823.7
			C4874-338.6,4853-385.3,4834.3-446z"/>
		<path style="fill:#FEC431;" d="M2277-1913.6c-742-805-1367.3-1488.7-1388.3-1523.7c-56-81.7-53.7-228.7,4.7-324.3
			c91-149.3,333.7-186.7,459.7-70c79.3,72.3,2723,2935.3,2732.3,2956.3c2.3,9.3-32.7,30.3-79.3,46.7c-109.7,39.6-256.7,175-315,287
			c-25.7,49-49,88.7-53.7,88.7C3630.3-453,3019-1111,2277-1913.6z"/>
		<path style="fill:#FEC431;" d="M7205-2184.3c-158.7-56-268.3-212.3-268.3-380.3c0-128.3,42-217,140-301
			c350-294,833,144.7,576.3,525C7559.7-2200.6,7354.3-2128.3,7205-2184.3z"/>
		<path style="fill:#FEC431;" d="M100-2459.6v-116.7h497h494.7l100.3,116.7l100.3,116.7h-595H100V-2459.6z"/>
		<path style="fill:#FEC431;" d="M3215-2459.6l-114.3-116.7H4601h1502.7l-154,116.7l-154,116.7h-1232H3329.3L3215-2459.6z"/>
		<path style="fill:#FEC431;" d="M8488.3-2459.6L8374-2576.3h763h763v116.7v116.7h-648.7h-648.7L8488.3-2459.6z"/>
	</g>
</g>
</svg>
