<?xml version="1.0" encoding="iso-8859-1"?>
<!-- Generator: Adobe Illustrator 22.1.0, SVG Export Plug-In . SVG Version: 6.00 Build 0)  -->
<svg version="1.1" id="Layer_1" xmlns="http://www.w3.org/2000/svg" xmlns:xlink="http://www.w3.org/1999/xlink" x="0px" y="0px"
	 viewBox="0 0 1000 1000" style="enable-background:new 0 0 1000 1000;" xml:space="preserve">
<g>
	<path style="fill:#FEC431;" d="M671.5,451C604,451,549,396,549,328.5S604,206,671.5,206S794,261,794,328.5S739.1,451,671.5,451
		L671.5,451z M671.5,255c-40.5,0-73.5,33-73.5,73.5s33,73.5,73.5,73.5s73.5-33,73.5-73.5S712.1,255,671.5,255L671.5,255z M34.5,990
		c-6.4,0-12.6-2.5-17.3-7.2c-6.7-6.7-9-16.8-5.7-25.7c75.4-207.3,154.7-312.5,235.6-312.5c26.7,0,51.6,11.5,74.2,34
		c35.7,35.7,36.9,71.2,31.8,94.7c-16.4,73.9-120.7,146.3-310.2,215.2C40.2,989.6,37.3,990.1,34.5,990L34.5,990L34.5,990z
		 M247.1,693.7c-24.3,0-52.8,21.3-82.6,61.5C135.3,794.7,105.9,851,77,923.1c65.4-26.3,118-53,156.8-79.6
		c52.3-35.9,67.8-63.7,71.5-80.7c3.8-17-2.3-33.2-18.6-49.4C273.5,700.1,260.5,693.7,247.1,693.7L247.1,693.7z M965.5,10
		c-127.2,0-240.4,21.6-336.8,64.1c-79.4,35.1-147.4,84.3-202.2,146.3c-10.2,11.6-19.6,23.3-28.4,35c-42.2,2.8-85.5,19.6-128.6,50
		c-36.5,25.7-73.2,61.3-109,105.7c-60.3,74.7-97.3,148.3-98.9,151.4c-5.3,10.7-2.2,23.8,7.5,30.8c4.3,3.1,9.4,4.7,14.4,4.7
		c6.3,0,12.5-2.4,17.3-7.1c0.2-0.2,23.7-23.3,63.6-45.9c32.9-18.6,83.7-40.5,145.1-44.4c15.5,39.7,60,87.3,81.3,108.6
		s68.8,65.8,108.6,81.3c-3.9,61.4-25.8,112.2-44.4,145.1c-22.6,40-45.6,63.4-45.8,63.6c-8.5,8.5-9.6,21.9-2.6,31.7
		c4.8,6.6,12.2,10.2,19.9,10.2c3.7,0,7.4-0.8,10.9-2.6c3.1-1.6,76.7-38.6,151.4-98.9c44.4-35.9,80-72.5,105.7-109
		c30.4-43.2,47.1-86.3,50-128.6c11.7-8.7,23.4-18.2,35-28.4c62-54.7,111.2-122.7,146.3-202.2c42.6-96.5,64.2-209.8,64.2-337V9.9
		L965.5,10L965.5,10z M162.3,490.6c46.7-67.8,118.1-151.8,198.6-178.2c-31.8,55.7-48.3,106.9-54.2,139.3
		C249.8,455.2,200.9,471.7,162.3,490.6L162.3,490.6z M509.5,837.6c18.9-38.6,35.4-87.5,38.9-144.3c32.4-5.9,83.6-22.4,139.3-54.1
		C661.2,719.5,577.2,790.9,509.5,837.6L509.5,837.6z M747.2,536.8C645.3,626.7,539.7,647,524.5,647c-0.1,0-10.1-0.2-37.2-19.3
		c-18.9-13.3-40.9-32.2-61.8-53.2c-21-21-39.9-43-53.2-61.8c-19.1-27.1-19.3-37.1-19.3-37.2c0-15.2,20.3-120.7,110.2-222.7
		C570.9,131,735.6,64.3,940.8,59.3C935.9,264.5,869.2,429.2,747.2,536.8L747.2,536.8z"/>
</g>
</svg>
