<svg xmlns="http://www.w3.org/2000/svg" viewBox="0 0 65.04 41.53"><defs><style>.cls-1{fill:#fec739;}</style></defs><title>Asset 39</title><g id="Layer_2" data-name="Layer 2"><g id="Layer_1-2" data-name="Layer 1"><path class="cls-1" d="M0,31.53c3.23-3.15,7.36-4.26,11.61-4.93a3.23,3.23,0,0,0,2.74-2.13q3.36-7.59,6.81-15.15A3.89,3.89,0,0,1,23.05,7c2.94,2.26,4.42,6,7.29,8.69L39.68.21a1.48,1.48,0,0,1,2.26,1Q45.21,9.6,48.51,18c1.08,2.76,2.18,5.51,3.27,8.25,3.4.63,6.67,1.16,9.63,2.72a12.2,12.2,0,0,1,1.91,1.14c2.33,1.88,2.28,4.16-.08,6A16.87,16.87,0,0,1,56.43,39,76.57,76.57,0,0,1,41.22,41c-.36,0-.65.08-.72.49h-13a.73.73,0,0,0-.78-.45,80.1,80.1,0,0,1-15.45-1.57c-4.13-.77-8.18-1.81-11.27-5Zm47.87-3.34c-.47-.44-.32-1.14-.33-1.79,0-1.42,0-2.83,0-4.25,0-.83,0-1.69-.87-2.14-.2,1.29.2,2.63-.21,3.79a1,1,0,0,1-1.37.05c-.76-3.72.81-7.84-1.39-11.84-.18,1.37.1,2.44-.23,3.34-.62.42-1.05.38-1.45-.14-.44-3.23.49-6.63-.89-9.82C41,8,41,10.54,41,13.11c0,1,0,2,0,3s-.57,1.68-2,1.21v-11a1.08,1.08,0,0,0-.93.66L32,17c-1,1.7-1,1.7-2.88,1.42-.29.67.18,1.52-.48,2.13C27.42,20.81,27,20.12,27,19c0-1.33,0-2.66,0-4-1.3-1.46-2.17-3.16-3.67-4.52-.65,1.56.17,3.13-.39,4.16-.78.8-1.57,0-1.88.39a3.48,3.48,0,0,0-.63,2.66c0,1.83,0,3.66,0,5.49,0,.94-.11,1.81-1.13,2.25-1.66-1.08-.41-2.87-1.07-4.19a3.31,3.31,0,0,0-.81,2.62c0,1.42,0,2.83,0,4.25,0,1-.54,1.52-1.57,1.24-.62-.42-.27-1.13-.58-1.62-.82,1.48-.82,1.48-.6,3.42,1.86,1,2,1,3.62,1,.41-1.33-.24-2.8.42-4.1,1.35-.3,1.7.45,1.72,1.51s0,2.13,0,3.39c1.31-.21,2.28,1,3.49.16.24-1.06-.24-2.39,1.13-3.12,1.85.51.27,2.62,1.48,3.49.73-.54.45-1.25.46-1.85,0-2.08,0-4.16,0-6.25,0-1.13.53-1.69,2-1.21v9.67c1.48,0,2.68.27,4-.25V27.32a1.32,1.32,0,0,1,1.93.17c0,1,0,2.13,0,3.27s-.31,2.2.48,3.4c.92-1.64,0-3.25.87-4.75,2.78.37.82,3,2,4.11a9.48,9.48,0,0,0,3.23-.2c.75-1.44,0-3.11.57-4.72.44-.07.89-.34,1.32.26a11.23,11.23,0,0,1,.16,2.41c.09.66-.47,1.8,1,1.65.64-1.58-.24-3.34.71-5.07,2.36,1,.39,3.4,1.67,4.66a9.25,9.25,0,0,0,3.48-1.46c-.16-.93.2-1.93-.34-3C49.5,28,48.92,28.92,47.87,28.19Zm-44.79,5C5.16,35,7.37,35.45,9.5,36c6.69,1.76,13.57,2.07,20.43,2.38a111.47,111.47,0,0,0,17.88-1A43.62,43.62,0,0,0,58.67,35a5.79,5.79,0,0,0,3.1-1.92c-2.29-2.55-5.57-2.56-8.45-3.52-.48,2.85-.68,3-3.36,4-4.63,1.86-9.53,1.9-14.37,2.31a60.25,60.25,0,0,1-11.93-.48,36.49,36.49,0,0,1-8.47-1.76c-2-.74-3.62-1.59-3.39-4.2C8.79,30.59,5.61,30.67,3.08,33.19Z"/><path class="cls-1" d="M21.1,24c0-1.41,0-2.83,0-4.24,0-.73.41-1.29,1.24-1.23a1.1,1.1,0,0,1,1,1.19c0,3,0,6,0,9,0,.72-.29,1.35-1.13,1.37s-1.15-.61-1.16-1.33C21.07,27.2,21.1,25.62,21.1,24Z"/><path class="cls-1" d="M25.14,15.6c.39.17.78.33.78.67,0,3.36,0,6.72,0,10-1,.53-1.78.11-1.81-.7-.1-3,0-6.1,0-9.15C24.15,16.05,24.54,15.75,25.14,15.6Z"/><path class="cls-1" d="M37.45,15.52c1,2.89.24,5.82.52,8.47-.61.78-1.15.64-1.84.44a58.05,58.05,0,0,1-.18-7.1C35.92,16.56,36,15.82,37.45,15.52Z"/><path class="cls-1" d="M39.05,29.36V21.29c1.08-.48,1.81-.16,1.87,1,.11,2,.07,3.95,0,5.92C40.92,29.22,40.36,29.7,39.05,29.36Z"/><path class="cls-1" d="M32,28.25a1.52,1.52,0,0,1-1.8.07,36.23,36.23,0,0,1-.1-6.33c.55-.7,1.09-.58,1.77-.35A40.44,40.44,0,0,1,32,28.25Z"/><path class="cls-1" d="M33,18.31c.92-.45,1.42-.29,1.92.35-.18,1.39.8,3.1-.94,4.47C32.19,21.71,33.33,19.91,33,18.31Z"/><path class="cls-1" d="M42.88,23.08c-.9-.25-1.25-.69-1.27-1.32a4.26,4.26,0,0,1,.18-2.18,1,1,0,0,1,1.81-.18c.49.66.26,1.42.31,2.15A1.5,1.5,0,0,1,42.88,23.08Z"/></g></g></svg>