<?xml version="1.0" encoding="iso-8859-1"?>
<!-- Generator: Adobe Illustrator 22.1.0, SVG Export Plug-In . SVG Version: 6.00 Build 0)  -->
<svg version="1.1" id="Layer_1" xmlns="http://www.w3.org/2000/svg" xmlns:xlink="http://www.w3.org/1999/xlink" x="0px" y="0px"
	 viewBox="0 0 1000 1000" style="enable-background:new 0 0 1000 1000;" xml:space="preserve">
<g>
	<g transform="translate(0.000000,512.000000) scale(0.100000,-0.100000)">
		<path style="fill:#FEC431;" d="M7545.7,4647.7c-752.2-202.9-2561-689.1-4019.5-1079.5c-1471.9-396.2-2672-727.3-2696.9-746.5
			C725.9,2749,703,2693.4,704.9,2536.5l3.8-147.4l-107.2-76.6c-220.1-158.9-415.4-461.3-472.8-731.2c-23-109-28.7-570.3-28.7-2976.3
			v-2846.2l42.1-111c55.5-153.1,231.6-329.2,384.7-384.7l111-42.1H5000h4362.2l111,42.1c153.1,57.4,329.2,231.6,384.7,384.7
			l42.1,111l-3.8,2850c-5.7,2844.3-5.7,2850-45.9,2901.7c-21.1,28.7-63.2,70.8-91.9,91.9c-51.7,40.2-59.3,40.2-3154.4,49.8
			l-3104.6,9.6l2966.8,790.5c1663.3,444.1,2985.9,805.8,3010.8,825c78.5,55.5,120.6,126.3,130.1,214.4
			c11.5,122.5-331.1,1355.1-398.1,1426c-57.4,63.2-151.2,103.3-231.6,101.4C8943,5019,8297.9,4850.6,7545.7,4647.7z M8778.4,4299.3
			c63.2-218.2,147.4-545.5,141.6-551.3c-7.6-9.6-654.6-181.8-679.5-181.8c-23,0-474.7,493.8-463.2,505.3
			c13.4,9.6,924.5,256.5,959,258.4C8753.5,4331.9,8772.6,4316.6,8778.4,4299.3z M7335.2,3633.2c124.4-137.8,223.9-250.7,222-252.7
			c-3.8-5.7-1372.4-369.4-1389.6-369.4c-19.1,0-467,495.7-457.5,505.3c15.3,11.5,1366.7,373.2,1382,369.4
			C7101.6,3882.1,7210.7,3769.1,7335.2,3633.2z M5183.7,3170c82.3-93.8,185.7-204.8,225.9-250.7c40.2-44,70.8-84.2,65.1-90
			c-9.6-9.6-1362.8-373.2-1389.6-373.2c-17.2,0-444.1,476.6-444.1,495.7c0,9.6,1318.8,375.2,1380,382.8
			C5026.8,3336.6,5099.5,3261.9,5183.7,3170z M3154.8,2567.1c103.4-118.7,204.8-233.5,222-254.6l32.5-42.1l-522.5-137.8
			l-522.5-139.7L2194,2165.1c-97.6,97.6-220.1,199.1-283.3,235.4c-68.9,38.3-103.4,67-86.1,72.7c32.5,9.6,1114,304.3,1129.3,306.3
			C2959.6,2781.5,3049.6,2685.8,3154.8,2567.1z M1602.5,1902.9c53.6-23,124.4-68.9,158.9-103.4c227.8-218.2,231.6-681.4,7.7-899.6
			c-157-153.1-423-206.7-668-132.1c-162.7,51.7-256.5,126.3-325.4,268c-47.9,97.6-53.6,128.2-53.6,310.1
			c0,162.7,7.7,216.3,40.2,287.1c76.6,166.5,187.6,254.6,380.9,304.3C1267.6,1968,1493.4,1950.8,1602.5,1902.9z M3430.5,733.4
			l-153.1-306.3h-585.7H2106l116.8,128.3c109.1,116.7,269.9,392.4,269.9,457.5c0,23,93.8,26.8,545.5,26.8h545.5L3430.5,733.4z
			 M5574.2,733.4l-153.1-306.3h-727.3h-727.3l153.1,306.3l153.1,306.3H5000h727.3L5574.2,733.4z M7718,733.4l-153.1-306.3h-727.3
			h-727.3l153.1,306.3l153.1,306.3h727.3h727.3L7718,733.4z M9287.5,733.4V427.2h-516.8h-516.8L8407,733.4l153.1,306.3h363.7h363.7
			V733.4z M9287.5-2175.9v-1990.6H5000H712.5v1990.6v1990.6H5000h4287.5V-2175.9z"/>
		<path style="fill:#FEC431;" d="M1506.8-824.6c-128.2-55.5-201-202.9-174.2-346.5c17.2-90,112.9-195.2,199.1-220.1
			c49.8-15.3,859.4-19.1,2591.6-15.3c2511.3,5.7,2520.8,5.7,2572.5,45.9c101.5,74.6,132.1,135.9,132.1,256.5
			s-30.6,181.8-132.1,256.5c-51.7,40.2-59.3,40.2-2591.6,44C2021.7-799.7,1554.7-803.6,1506.8-824.6z"/>
		<path style="fill:#FEC431;" d="M1506.8-2049.6c-128.2-55.5-201-202.9-174.2-346.5c17.2-90,112.9-195.2,199.1-220.1
			c49.8-15.3,859.4-19.1,2591.6-15.3c2511.3,5.7,2520.8,5.7,2572.5,45.9c101.5,74.6,132.1,135.9,132.1,256.5
			s-30.6,181.8-132.1,256.5c-51.7,40.2-59.3,40.2-2591.6,44C2021.7-2024.7,1554.7-2028.6,1506.8-2049.6z"/>
	</g>
</g>
</svg>
