<svg xmlns="http://www.w3.org/2000/svg" viewBox="0 0 185.95 123.56"><defs><style>.cls-1{fill:#fec534;}</style></defs><title>Asset 21</title><g id="Layer_2" data-name="Layer 2"><g id="Layer_1-2" data-name="Layer 1"><path class="cls-1" d="M10.92,72.91c.18-2.3,1.71-3,3.22-3.73,10.94-5,21.88-10,33-15,1.87,2.1,3.77,4.14,5.57,6.27A109.89,109.89,0,0,0,74.87,80.27c10.53,7.2,22,12.59,34.71,14.76,1,.17,1.9.59,2.85.75a11.53,11.53,0,0,0,7.23-.58c16.73-7.8,33.59-15.32,50.32-23.13,3.14-1.47,6.19-.56,9.53-.37-4.54,2.26-9.06,4.57-13.63,6.75Q146,88,126.16,97.37c-3.27,1.56-6.45,3.79-9.9,4.38a40.24,40.24,0,0,1-13.41,0c-4.57-.8-9.19-.8-13.77-1.51-7.31-1.13-14.67-1.87-21.92-3.47a201.14,201.14,0,0,1-31-9.53A147.1,147.1,0,0,1,13.63,76,5.51,5.51,0,0,1,10.92,72.91Z"/><path class="cls-1" d="M185.74,55.84c.83,3-.94,4.14-3,5.21-4.08,2.17-8.36,3.91-12.55,5.85-16,7.42-32.19,14.32-48.13,21.81-4.75,2.24-9.09,1.23-13.47.12A100.82,100.82,0,0,1,68.5,68.27c-13.06-10.85-23.32-23.9-32-38.34-1.59-2.64-3.78-5-3.65-8.51.17-4.32,1-5.77,5.09-7.49,4.58-1.94,9.5-2.51,14.26-3.72C65.58,6.81,79,3.63,92.37.35a12.27,12.27,0,0,1,13.55,5.87c3.94,6.71,8,13.32,13.36,19.06a93.74,93.74,0,0,0,15,12.89c12.3,8.5,26.29,12.71,40.7,15.75a23.81,23.81,0,0,0,5.48.2A7.39,7.39,0,0,1,185.74,55.84Zm-89.11-50C78.82,9.87,60.52,14.25,42.27,18.9c-1.31.34-2.65.38-3.34,2-.3,2.85,2,4.68,3.33,6.88a142.05,142.05,0,0,0,26.38,32.7,96.93,96.93,0,0,0,32.24,19.88A112.68,112.68,0,0,0,114.63,84a8.85,8.85,0,0,0,5.73-1c15.24-7,30.53-14,45.78-21,1.54-.71,3.35-1.08,4.52-2.66-1.55-.46-2.95-.93-4.38-1.29-12.31-3.17-24-7.54-34.79-14.65A87.79,87.79,0,0,1,102.91,13C101.55,10.57,100.31,7.93,96.63,5.81Z"/><path class="cls-1" d="M2.51,114.08c3.13-1.33,6.24-2.7,9.38-4,9.59-3.94,19.2-7.81,28.77-11.78a8.49,8.49,0,0,1,6.63-.14c9.83,3.89,20.18,5.86,30.5,7.57,7.1,1.17,14.29,2.49,21.6,2.36,4.81-.08,9.53,1.23,14.39,1a15.38,15.38,0,0,0,6.14-1.51c13.2-6.34,26.74-12,39.56-19.07,7.2-4,14.35-3,21.85-2.92-3.7,1.78-7.37,3.63-11.12,5.31-7.66,3.41-15.37,6.69-23,10.08-9.65,4.26-19.26,8.62-28.94,12.81a14.66,14.66,0,0,1-5.81,1.09q-54.93-.08-109.85,0Z"/><path class="cls-1" d="M.25,123.56a15.49,15.49,0,0,1,.11-6.11H115.75a20.15,20.15,0,0,1,0,6.11Z"/><path class="cls-1" d="M118.28,117.11,182.58,88a13.77,13.77,0,0,1,.1,6.26l-64.15,29A10.45,10.45,0,0,1,118.28,117.11Z"/></g></g></svg>