<svg xmlns="http://www.w3.org/2000/svg" viewBox="0 0 60.55 42"><defs><style>.cls-1{fill:#fec637;}</style></defs><title>Asset 38</title><g id="Layer_2" data-name="Layer 2"><g id="Layer_1-2" data-name="Layer 1"><path class="cls-1" d="M39.39,42h-7c-1.88-1.15-4.11-1.53-5.94-2.79a2.26,2.26,0,0,0-1.2-.19c-3,0-5.93,0-9,0a8.08,8.08,0,0,1-2.87,3h-12A5.56,5.56,0,0,1,0,37.9c.07-6.33,0-12.66,0-19A11.6,11.6,0,0,1,12.05,7c3.48.18,7,0,10.37,0,2-2.31,3.38-4.95,5.47-7h16c2,2,3.34,4.6,5.36,6.79.38-1.19-.12-2.44,1.29-3.31,2,.19,4.31-.27,6.38.23.78,1.13.2,2.23.66,3.09,2.65.66,3,1,3,3.51q0,12.72,0,25.45c0,2.64-.61,3.22-3.24,3.24-3.33,0-6.66,0-10,0-.66,0-1.48-.16-2,.16C43.51,40.44,41.27,40.84,39.39,42ZM22.68,35.9c-5.16-10-4.21-17.34,3-23.38A16.62,16.62,0,0,1,45.43,12a16.43,16.43,0,0,1,6.43,9.23c1.4,5.3.18,10.14-2.9,14.63h8.46V10c-2.58,0-5.06-.07-7.53,0a3.75,3.75,0,0,1-3.57-1.79c-1.2-1.78-2.54-3.48-3.77-5.14H29.2C28,4.7,26.83,6.2,25.8,7.8a4.42,4.42,0,0,1-4.35,2.25C18.3,9.89,15.13,10,12,10a2.54,2.54,0,0,0-2,.44A5.72,5.72,0,0,1,8.45,14.9c-1.41,1.37-3.23,1-4.82,1.16-.53,2.65-.51,20.75,0,22.75a2.24,2.24,0,0,0,.46.15c1.83,0,3.67,0,5.5,0,3.33.09,3.88,0,3.83-3.7-.07-5.75,0-11.49,0-17.24a12.6,12.6,0,0,1,0-1.74A1.36,1.36,0,0,1,15,15a1.31,1.31,0,0,1,1.36,1.21A11.21,11.21,0,0,1,16.39,18c0,5.33,0,10.66,0,16,0,.63-.23,1.34.36,1.93ZM35.8,39a13.67,13.67,0,0,0,13.59-13.4,13.5,13.5,0,0,0-27-.17A13.61,13.61,0,0,0,35.8,39ZM55.31,5.46c-1.38.22-2.59-.28-3.79.35,0,.39-.13.74.41,1.11a7.45,7.45,0,0,0,3.38-.2ZM5,13.72c2,.09,2.56-.41,2.72-2.5A4.61,4.61,0,0,0,5,13.72Z"/><path class="cls-1" d="M47.54,25.48c.3,6.29-5.18,11.6-11.5,11.54a11.52,11.52,0,0,1,.2-23C42.48,14,47.82,19.3,47.54,25.48Zm-20.79,0A9.33,9.33,0,0,0,36.2,35,9.47,9.47,0,0,0,36.08,16,9.33,9.33,0,0,0,26.75,25.44Z"/><path class="cls-1" d="M36.23,23.53a2.14,2.14,0,0,1,1.9,2.19A2.19,2.19,0,0,1,36,27.47a2.13,2.13,0,0,1-1.89-2.19A2.17,2.17,0,0,1,36.23,23.53Z"/></g></g></svg>