<svg xmlns="http://www.w3.org/2000/svg" viewBox="0 0 156.11 146.44"><defs><style>.cls-1{fill:#fec534;}</style></defs><title>Asset 23</title><g id="Layer_2" data-name="Layer 2"><g id="Layer_1-2" data-name="Layer 1"><path class="cls-1" d="M91.54,79.78c4,11.24,7.77,21.92,11.7,32.52a11.89,11.89,0,0,1,.09,8.17c-1.92,6.11-3.55,12.31-5.38,18.45a19.61,19.61,0,0,1-1.63,3.59A7.47,7.47,0,0,1,87,146c-2.85-1-4.65-5.31-3.57-8.81,1.64-5.32,3.28-10.65,5.06-15.92a10.14,10.14,0,0,0-1.14-9.39c-3.36-5.27-6.31-10.79-9.45-16.2a3.3,3.3,0,0,0-2.18-1.75,55.32,55.32,0,0,1-6.5,12.86c-5.36,8-13.68,10.7-23.46,6.3-6-2.7-10.81-7.06-15.11-11.94a5.48,5.48,0,0,1-.95-6.44,6.1,6.1,0,0,1,5.44-3.62,9.15,9.15,0,0,1,8.08,2.85c3.21,3.32,6.35,6.84,11.11,8C57,98.89,57,98.89,58.48,86.3,69.37,84.72,79.94,81,91.54,79.78Z"/><path class="cls-1" d="M44.4,65.06H39.08c-7.48-3.87-4.9-12.91-.23-17.74a24.93,24.93,0,0,1,13.38-7.07c7.12-1.36,14.3-2.49,21.64-2.2,11.11.43,18.6-5.39,24-14.48a35.74,35.74,0,0,0,5-13.82c.57-4.58,2.25-7.48,7.54-8.38-.37,0,0-.07.28,0,5.64,1.92,7.38,4.34,6.31,10a63.92,63.92,0,0,1-8.39,22.46A35.59,35.59,0,0,1,92.44,47.43c-.85,2.15,0,4.52-.65,7.38-10.79,2.42-22,4.56-33,7.85-1.51-3.31-.18-6.41-1.13-9.44A46.94,46.94,0,0,0,53,54.61c-2.21.89-4.44,2.3-4.71,4.7C47.92,62.26,46,63.52,44.4,65.06Z"/><path class="cls-1" d="M5.37,63.33c3.79,2,7.12,5.07,11.49,6.44,3.8,1.18,7.52,2.42,11.55,2.42,3.82,0,7.54,1.26,11.4.81,8.83-1,17.67-1.94,26.29-4.29a197.23,197.23,0,0,1,24.49-5.46,124.1,124.1,0,0,1,27.83-1,97.32,97.32,0,0,1,29.69,7,20.71,20.71,0,0,1,6.41,3.73c1.35,1.26,2,2.71,1.24,4.44a4.11,4.11,0,0,1-4.31,2.74,6.59,6.59,0,0,1-2.82-.75c-9.14-4.91-19.2-7.08-29.31-8a116.92,116.92,0,0,0-23.85.45C81.34,73.37,68,78.35,54,80.4c-8.84,1.29-17.63,2.34-26.66,1A117.6,117.6,0,0,1,13,78.1a27.94,27.94,0,0,1-9.9-5.53c-1.62-1.32-3.52-2.71-3-5.34C.64,64.4,2.85,63.82,5.37,63.33Z"/><path class="cls-1" d="M72.34,28.09c-8.69,0-15.36-6.66-15.18-14.24C57.35,6,64.74-.34,72.77,0c8.4.37,14,6.1,14.47,14.32C87.7,21.87,79.63,28.68,72.34,28.09Z"/></g></g></svg>