<svg xmlns="http://www.w3.org/2000/svg" viewBox="0 0 65.02 42.07"><defs><style>.cls-1{fill:#fec431;}</style></defs><title>Asset 40</title><g id="Layer_2" data-name="Layer 2"><g id="Layer_1-2" data-name="Layer 1"><path class="cls-1" d="M0,20V1L1,0H64a3.35,3.35,0,0,1,1,2.68C65,7.84,65,13,65,18.17c0,2.4-.38,2.74-2.71,2.84-.71,0-1.5-.25-2.13.3-.4,4.44-.25,15.85.26,17.7,1,0,2,0,3,0S65,39.5,65,40.52,64.28,42,63.32,42s-2.17,0-3.25,0C57.33,42,57,41.69,57,39c0-5.33,0-10.66,0-16,0-.64.22-1.34-.39-2a7.85,7.85,0,0,0-3.6.27c0,4.72,0,9.38,0,14,0,2.19-.45,2.63-2.66,2.63q-17.85,0-35.7,0C12.45,38,12,37.53,12,35.32c0-4.08,0-8.16,0-12.23A2.62,2.62,0,0,0,11.57,21c-1.06.15-2.28-.29-3.57.3v9c0,3.08,0,6.16,0,9.24,0,1.59-.44,2.34-1.6,2.37-2.14,0-4.32.46-6.39-.43v-2c1.49-.91,3.25-.2,4.83-.68V21.14C3.11,20.74,1.27,21.55,0,20Zm15.14-6.89V34.84H49.82c.42-4.12.27-20-.19-21.73ZM61.8,17.88c.4-3.64.29-13-.16-14.75-6.34-.5-56.75-.26-58.5.25V17.83h8.91c-.23-1.7.29-3.26-.38-4.85a21.88,21.88,0,0,1-2.3,0A1.36,1.36,0,0,1,8,11.46,1.4,1.4,0,0,1,9.46,10c.57,0,1.16,0,1.74,0H53.68c.59,0,1.17,0,1.75,0A1.41,1.41,0,0,1,57,11.59c0,.89-.61,1.3-1.46,1.4s-1.67-.27-2.38.34v4.55Z"/><path class="cls-1" d="M46.89,31.12c-.55,1-1.33.88-2.07.88H20.13c-.75,0-1.53.07-2-.77.71-1.71,5.73-6.87,7.83-8,1.36.19,1.81,1.64,3.12,2.24,1.07-.87,2.18-1.82,3.35-2.73s2-2.28,3.57-2.52C37.94,21.31,45.88,29.3,46.89,31.12Zm-11-8.47a1.39,1.39,0,0,0-.39.19c-1.2,1-2.45,2-3.59,3.06-2.64,2.49-3.27,2.27-5.48-.06a.63.63,0,0,0-.32-.12l-3.95,4.14H43Z"/><path class="cls-1" d="M25.51,16.64c2-.21,2.65,0,2.91,1a1.88,1.88,0,0,1-.9,2.35,1.8,1.8,0,0,1-2.28-.33C24.41,18.86,24.48,18.22,25.51,16.64Z"/><path class="cls-1" d="M53.08,5.51c1.79-1,3.86-.35,5.82-.46.66,0,1,.43,1.06,1.41-1.83,1-3.9.38-5.86.49C53.45,7,53.06,6.54,53.08,5.51Z"/><path class="cls-1" d="M50.92,6c-.12.55-.42,1-1,.88a.86.86,0,0,1-.81-1A.85.85,0,0,1,50,5.1C50.54,5.09,50.83,5.46,50.92,6Z"/></g></g></svg>