<svg xmlns="http://www.w3.org/2000/svg" viewBox="0 0 198.78 157.09"><defs><style>.cls-1{fill:#fecd50;}</style></defs><title>Asset 17</title><g id="Layer_2" data-name="Layer 2"><g id="Layer_1-2" data-name="Layer 1"><path class="cls-1" d="M16.15,128.27c-2.43-3.92-2.51-4.8-.07-7.35A79.25,79.25,0,0,0,25,110.22a41.86,41.86,0,0,0,4.34-8.52A61.55,61.55,0,0,1,10,85.07C4.61,78,1,70.42.18,61.22-1,47.42,3.5,36.2,12.65,26.15c10.52-11.56,23.67-18,38.42-22.26C58.79,1.68,66.66,1.21,74.48.22c6.59-.83,13.14.87,19.7,1.64a91.09,91.09,0,0,1,20,5.1,69.86,69.86,0,0,1,25,14.86c6.57,6.26,12.28,13.39,14.92,22.47,4.22,14.49,1.72,27.76-7.22,39.75-11.78,15.8-28.44,23.78-47.1,27.85A96.22,96.22,0,0,1,72.63,114c-4.43-.31-8.82-1-14.08-1.6C46,120.41,32.05,127.29,16.15,128.27Zm27.41-22.78c2.81-1.95,5.08-3.49,7.31-5.08,2.81-2,5.53-3,9.21-1.73a26.62,26.62,0,0,0,8.76,1.24c7.94,0,15.91.8,23.85-.77,9.27-1.83,18.25-4.35,26.49-9.06,7.59-4.35,14.15-10,18.8-17.41a27.78,27.78,0,0,0,3.91-21.41c-2.19-9.48-7.94-16.7-15.69-22.22A74.87,74.87,0,0,0,88.78,14.93a110.91,110.91,0,0,0-21.71,0A78.24,78.24,0,0,0,45.6,20.18C34.41,24.75,24.45,31,18,41.77c-6.15,10.18-6,20.19-.14,30.4C22.35,80,29,85.54,36.65,90.11c3.23,1.94,6.49,3.84,9.81,5.81C46,99.12,43.58,101.57,43.56,105.49Z"/><path class="cls-1" d="M169.5,130.77a33,33,0,0,0,6.94,11.72c2.07,2.37,4,4.86,6.1,7.2,2.84,3.19,2.74,3.89-.92,7.4a85.83,85.83,0,0,1-20.73-5.34c-6.15-2.38-12.27-4.95-17.52-9.1a7.46,7.46,0,0,0-7.06-1.37c-2.47.82-4.89.71-7.35.84-2.14.11-4.31-.22-6.4.7a4.78,4.78,0,0,1-2.47.13c-7-1-14.1-1-21.09-2.46A94.87,94.87,0,0,1,71,129.7c1.17-1.39,2.66-.46,3.94-.62,1.48-.18,3,0,4.5,0,18.14-.67,35.54-4.3,51.71-12.92,13-6.9,23.88-16.14,31.33-28.89,4.5-7.7,7.56-16,8-25.18a87.74,87.74,0,0,0-1.19-19.21c1.2-1.13,1.84-.36,2.48,0,11.57,7,20.51,16.32,24.67,29.31,3.8,11.9,3.13,23.62-3.3,34.81a63.51,63.51,0,0,1-21.71,22.09c-.55.35-1.07.75-1.59,1.14A2.79,2.79,0,0,0,169.5,130.77Z"/></g></g></svg>