<?xml version="1.0" encoding="iso-8859-1"?>
<!-- Generator: Adobe Illustrator 22.1.0, SVG Export Plug-In . SVG Version: 6.00 Build 0)  -->
<svg version="1.1" id="Layer_1" xmlns="http://www.w3.org/2000/svg" xmlns:xlink="http://www.w3.org/1999/xlink" x="0px" y="0px"
	 viewBox="0 0 1000 1000" style="enable-background:new 0 0 1000 1000;" xml:space="preserve">
<g>
	<g transform="translate(0.000000,512.000000) scale(0.100000,-0.100000)">
		<path style="fill:#FEC431;" d="M2643.9,4983.6c-32.5-21.1-68.9-65.1-82.3-99.5c-15.3-44-21.1-1144.6-21.1-4098
			c0-3445.3,3.8-4046.3,26.8-4101.8c57.4-134-178-124.4,3102.7-124.4c2727.5,0,2964.9,1.9,3014.6,32.5
			c30.6,17.2,63.2,51.7,74.6,76.6c15.3,32.5,21.1,978.1,21.1,3219.4v3173.5L7811.8,4040l-968.5,980H4774.2
			C2772.1,5020,2701.3,5018.1,2643.9,4983.6z M6560,3852.4c0-614.4,3.8-738.8,28.7-800.1c42.1-97.6,99.5-155,210.5-206.7
			c95.7-45.9,99.6-45.9,819.2-45.9H8340V-100.1v-2899.8H5670H2999.9V789.9v3789.8H4780h1780V3852.4z M7526.6,3756.7l516.8-516.8
			h-522.5h-520.6v516.8c0,285.2,1.9,516.8,5.7,516.8C7007.9,4273.5,7243.3,4041.9,7526.6,3756.7z"/>
		<path style="fill:#FEC431;" d="M1311.7,3649.5c-28.7-15.3-61.2-44-72.7-65.1c-13.4-23-19.1-1370.5-19.1-4134.4
			c0-4524.8-9.6-4165,118.7-4209c42.1-15.3,951.3-21,2995.5-21c3209.9,0,3033.8-5.7,3085.5,107.2c13.4,30.6,21,181.8,21,419.2v373.2
			h-220.1h-220.1V-4110v-229.7H4330.2H1660v3789.8v3789.8h220.1h220.1V3460v220.1h-367.5C1443.8,3678.2,1351.9,3672.5,1311.7,3649.5
			z"/>
	</g>
</g>
</svg>
