<svg xmlns="http://www.w3.org/2000/svg" viewBox="0 0 591.92 540.13"><defs><style>.cls-1{fill:#fec431;}</style></defs><title>Asset 7</title><g id="Layer_2" data-name="Layer 2"><g id="Layer_1-2" data-name="Layer 1"><path class="cls-1" d="M135.23,437.79a185.8,185.8,0,0,0,59.58,0v24.82c2.44,1,3.83-.51,5.35-1.26q42.93-21.4,85.86-42.85c22.43-11.19,44.77-22.55,67.32-33.46,18.18-8.79,36-18.25,54.32-26.75,10-4.64,20.25-3.41,29.3,3.39,8.29,6.22,11.64,14.69,12.08,25,.55,12.81,5.64,23.6,16.29,31.59a41.2,41.2,0,0,0,27,8.73,42.33,42.33,0,0,0,22.87-7.7c7-4.84,11.57-11.49,14.66-19.22a38.64,38.64,0,0,0,3-14.29q.06-162,0-323.95c0-1.12.3-2.31-.56-3.57H194c-.15,4.28-.05,8.71-.06,13.13s0,9,0,13.49v40.91c-10.2-1.34-19.92-2.85-29.78-2.74-9.65.1-19.19,1.51-28.71,2.83-.92-1.72-.48-3.41-.49-5,0-30-.09-60,0-90C135,19,140.07,9.61,150.29,3.35A22.9,22.9,0,0,1,162.44,0q201.46,0,402.93,0c5.4,0,10,2.19,14,5.17a30,30,0,0,1,12.24,19.35,22.61,22.61,0,0,1,.25,3.95q0,180.48-.14,360.94c0,11.71-3,23.16-7.55,34.19a96.9,96.9,0,0,1-14.61,24.8,101.79,101.79,0,0,1-56.09,35.27C507.36,485.22,501,486,494.75,487c-7.88,1.31-15.77,2.55-23.64,3.79-6.93,1.09-13.87,2.21-20.79,3.31-7.4,1.18-14.79,2.46-22.18,3.64s-14.44,2.72-21.78,3.34c-4.7.4-9.35,1.43-14,2.22-5.13.88-10.27,1.74-15.39,2.73-7.51,1.47-15.14,2.23-22.66,3.71-4.46.88-9,1.46-13.51,2.25-7.86,1.37-15.77,2.53-23.65,3.78-6.92,1.09-13.85,2.24-20.78,3.33-7.4,1.17-14.8,2.4-22.18,3.64q-10.37,1.74-20.78,3.36c-7.39,1.14-14.8,2.33-22.18,3.62-5,.87-10,1.59-15,2.4-7.39,1.21-14.8,2.44-22.18,3.63s-14.43,2.82-21.79,3.33c-2.59.18-5.12.88-7.78,1-13.61.63-24.84-9.73-28.11-21.22a34.92,34.92,0,0,1-1.41-9.18c-.11-23.33-.05-46.66,0-70C134.92,439.4,135,439.08,135.23,437.79Z"/><path class="cls-1" d="M63.32,340.51a117,117,0,0,1-15-72.23c3.05-28.2,15.3-52.44,35.86-71.74,26.05-24.45,57.71-34.68,93.15-31.32a110.82,110.82,0,0,1,64.05,28c47,41.68,53.05,107.8,18.49,157-29.18,41.49-93.05,66.72-153.79,33.15L87.82,401.62c-11.54,11.54-23.15,23-34.61,34.65-5.49,5.57-11.74,9-19.7,9.87-12.08,1.25-23.31-4.11-30-15.75-7-12.13-2.57-28.14,5.66-36.2,16.9-16.55,33.5-33.41,50.24-50.12C60.56,342.9,61.85,341.83,63.32,340.51Zm157.58-58.9c1-30.82-25.54-56.28-55.35-56.49a56.13,56.13,0,0,0-40.42,16.22c-11.35,10.92-16.91,24.71-17,40.08a54.4,54.4,0,0,0,14.66,38c10.46,11.38,23.29,17.77,38.83,18.64C195.09,339.91,222.16,312.08,220.9,281.61Z"/></g></g></svg>