<?xml version="1.0" encoding="iso-8859-1"?>
<!-- Generator: Adobe Illustrator 22.1.0, SVG Export Plug-In . SVG Version: 6.00 Build 0)  -->
<svg version="1.1" id="Layer_1" xmlns="http://www.w3.org/2000/svg" xmlns:xlink="http://www.w3.org/1999/xlink" x="0px" y="0px"
	 viewBox="0 0 1000 1000" style="enable-background:new 0 0 1000 1000;" xml:space="preserve">
<g>
	<g transform="translate(0.000000,511.000000) scale(0.100000,-0.100000)">
		<path style="fill:#FEC431;" d="M4871.1,4961.5c-58.7-48.5-61.3-61.3-74-543.7l-12.8-492.7l-102.1-7.7
			c-393.1-28.1-919-168.5-1312.1-352.3c-768.4-359.9-1465.3-1056.8-1825.2-1825.2c-183.8-393.1-324.2-919-352.3-1312.1l-7.6-102.1
			l-492.7-12.8c-482.5-12.8-495.2-15.3-543.7-74C123,205.7,100,147,100,108.7s23-97,48.5-130.2c48.5-58.7,61.3-61.3,543.7-74
			l492.7-12.8l7.6-102.1c23-382.9,165.9-911.3,352.3-1312.1c359.9-768.4,1056.8-1465.3,1825.2-1825.2
			c388-181.2,936.8-329.3,1299.3-352.3l114.9-7.7l12.8-492.7c12.8-482.5,15.3-495.2,74-543.7c76.6-61.3,183.8-61.3,260.4,0
			c58.7,48.5,61.3,61.3,74,543.7l12.8,492.7l114.9,7.7c564.2,33.2,1273.8,288.5,1815,645.8c321.7,214.4,801.6,694.4,1016,1016
			c357.4,541.2,612.7,1250.8,645.8,1815l7.7,114.9l492.7,12.8c482.5,12.8,495.2,15.3,543.7,74c61.3,76.6,61.3,183.8,0,260.4
			c-48.5,58.7-61.3,61.3-543.7,74l-492.7,12.8l-7.7,114.9c-23,362.5-171,911.3-352.3,1299.3c-360,768.4-1056.8,1465.3-1825.2,1825.2
			c-400.8,186.4-929.2,329.3-1312.1,352.3l-102.1,7.7l-12.8,492.7c-12.8,482.5-15.3,495.2-74,543.7c-33.2,25.5-91.9,48.5-130.2,48.5
			S4904.3,4987,4871.1,4961.5z M4797.1,3044.4v-482.5l-94.5-15.3c-630.5-102.1-1077.2-334.4-1488.2-768.4
			c-191.5-204.2-329.3-403.3-434-628c-79.1-173.6-204.2-576.9-204.2-668.8c0-28.1-7.6-79.1-15.3-109.8
			c-15.3-58.7-20.4-58.7-495.2-58.7h-479.9l12.8,109.8c51.1,464.6,168.5,860.3,370.1,1250.8c525.9,1023.7,1539.3,1712.9,2700.8,1838
			c48.5,5.1,97,12.8,109.8,12.8C4789.4,3526.9,4797.1,3312.4,4797.1,3044.4z M5639.5,3463c635.6-112.3,1299.4-462.1,1776.7-939.4
			c556.5-556.5,896-1276.4,987.9-2100.9l12.8-109.8H7937h-482.5l-15.3,97c-94.5,566.7-296.1,993-650.9,1368.3
			c-411,434-857.7,666.3-1485.7,768.4l-97,15.3v485v482.5l109.8-15.3C5374,3506.4,5519.5,3483.5,5639.5,3463z M4797.1,1653.1
			c0-497.8,0-500.3,63.8-561.6c38.3-40.8,91.9-63.8,140.4-63.8s102.1,23,140.4,63.8c63.8,61.3,63.8,63.8,63.8,561.6v500.3l97-15.3
			c339.5-56.2,727.5-229.8,993-446.7c372.7-301.2,653.5-791.3,735.2-1281.5l15.3-97h-500.3c-497.8,0-500.3,0-561.6-63.8
			c-40.8-38.3-63.8-91.9-63.8-140.4s23-102.1,63.8-140.4c61.3-63.8,63.8-63.8,561.6-63.8H7046l-15.3-94.5
			c-81.7-492.7-362.5-982.8-735.2-1284c-265.5-217-653.5-390.6-993-446.7l-97-15.3v500.3c0,497.8,0,500.3-63.8,561.6
			c-81.7,84.2-199.1,84.2-280.8,0c-63.8-61.3-63.8-63.8-63.8-561.6V-1936l-94.5,15.3c-342.1,56.2-730.1,229.7-995.6,446.7
			c-372.7,301.2-653.5,791.4-735.2,1284l-15.3,94.5h500.3c497.8,0,500.3,0,561.6,63.8c84.2,81.7,84.2,199.1,0,280.8
			c-61.3,63.8-63.8,63.8-561.6,63.8h-500.3l15.3,97c81.7,490.1,362.5,980.3,735.2,1281.5c288.5,232.3,740.3,428.9,1059.4,456.9
			C4789.4,2150.9,4797.1,2036.1,4797.1,1653.1z M2563.4-190c102.1-630.5,334.4-1077.3,768.4-1488.3
			c375.2-354.8,801.6-556.5,1370.8-650.9l94.5-15.3V-2827v-479.9l-107.2,12.8C3490-3158.8,2499.6-2490,1968.6-1456.1
			c-201.7,390.6-301.2,727.5-372.7,1253.4l-15.3,107.2h482.5h485L2563.4-190z M8404.1-202.7c-51.1-467.1-168.5-862.8-370.1-1253.4
			c-531-1033.9-1521.4-1702.7-2718.7-1838l-109.8-12.8v482.5c0,265.5,5.1,482.5,10.2,482.5c63.8,0,456.9,91.9,592.2,137.9
			c686.7,232.3,1273.8,819.4,1506.1,1506.1c46,135.3,137.9,528.4,137.9,592.2c0,5.1,217,10.2,482.5,10.2h482.5L8404.1-202.7z"/>
	</g>
</g>
</svg>
