<?xml version="1.0" encoding="iso-8859-1"?>
<!-- Generator: Adobe Illustrator 22.1.0, SVG Export Plug-In . SVG Version: 6.00 Build 0)  -->
<svg version="1.1" id="Layer_1" xmlns="http://www.w3.org/2000/svg" xmlns:xlink="http://www.w3.org/1999/xlink" x="0px" y="0px"
	 viewBox="0 0 1000 1000" style="enable-background:new 0 0 1000 1000;" xml:space="preserve">
<g>
	<g transform="translate(0.000000,511.000000) scale(0.100000,-0.100000)">
		<path style="fill:#FEC431;" d="M1264.7,4535.2c-100.1-98-78.4-145.9,189.4-418l243.8-246l-243.8-246
			c-200.3-204.6-243.8-259.1-243.8-313.5c0-91.4,71.8-158.9,167.6-158.9c71.8,0,102.3,24,320,239.5l243.8,239.5l237.3-239.5
			c215.5-215.5,246-239.5,317.8-239.5c98,0,150.2,54.4,150.2,154.6c0,65.3-28.3,102.3-239.5,313.5L2168,3858.2l239.5,243.8
			c215.5,217.7,239.5,248.2,239.5,320c0,95.8-67.5,167.6-158.9,167.6c-54.4,0-108.8-43.5-313.5-243.8l-246-243.8l-246,243.8
			C1410.5,4613.5,1362.6,4635.3,1264.7,4535.2z"/>
		<path style="fill:#FEC431;" d="M8378.8,3731.9c-452.8-87.1-838.1-433.2-977.4-877.3c-50.1-158.9-56.6-206.8-47.9-424.5
			c15.2-365.7,117.5-609.5,365.7-857.7c232.9-232.9,505-354.8,838.1-372.3c381-21.8,694.4,104.5,968.7,383.1
			c320,324.4,441.9,753.2,337.4,1197.3C9711.1,3424.9,9038.4,3856,8378.8,3731.9z M9031.9,3320.4
			c481.1-237.3,666.1-788,428.9-1271.3c-176.3-354.8-598.7-576.9-977.5-511.6c-267.8,47.9-472.4,172-626.9,383.1
			c-374.4,507.2-141.5,1236.5,463.7,1449.8c104.5,34.8,169.8,43.5,337.4,37C8849,3403.2,8881.7,3394.5,9031.9,3320.4z"/>
		<path style="fill:#FEC431;" d="M6308.6,3181.1c-43.5-17.4-93.6-132.8-80.5-187.2c8.7-28.3,76.2-115.4,154.6-191.6
			c76.2-76.2,139.3-143.7,139.3-152.4s-947-15.2-2107.3-15.2c-1587,0-2133.4-8.7-2213.9-28.3c-546.4-135-947-603-984-1153.8
			c-17.4-224.2,24-431,126.3-648.7c69.7-148,117.6-215.5,254.7-348.3c265.6-261.2,498.5-354.8,960-381
			C3089,41.9,3520-136.6,3885.7-476.2c346.1-320,589.9-785.9,644.4-1232.1l15.2-119.7l-115.4-23.9
			c-304.8-65.3-642.2-313.5-809.8-592.1c-224.2-381-239.5-838.1-37-1238.7c145.9-289.6,439.7-539.9,746.7-635.7
			c206.8-65.3,574.7-69.6,755.4-8.7c418,141.5,720.6,444.1,862.1,862.1c61,178.5,56.6,548.6-6.5,751
			c-128.4,409.2-461.5,724.9-899.1,851.2l-161.1,47.9l-26.1,169.8c-41.4,285.2-91.4,441.9-226.4,716.2
			c-215.6,435.4-503,748.9-925.3,1003.6C3371.9,277.1,3028,377.3,2559.9,409.9c-189.4,13.1-311.3,32.7-396.2,65.3
			c-250.3,93.6-465.9,309.1-563.8,561.6c-67.5,174.2-67.5,465.9,0,637.8c102.3,263.4,298.2,468,546.4,570.3l119.7,47.9l2133.4,6.5
			l2133.4,4.4l-132.8-135c-154.6-158.9-191.6-217.7-169.8-285.2c24-84.9,76.2-124.1,158.9-124.1c71.8,0,104.5,26.1,400.5,322.2
			c422.3,422.3,422.3,367.9-2.2,792.4c-274.3,274.3-330.9,322.2-385.3,320C6365.2,3194.2,6323.8,3187.7,6308.6,3181.1z
			 M5106.9-2237.2c289.5-137.1,492-402.7,546.4-720.6c50.1-289.5-58.8-605.2-283-820.7c-304.8-289.6-696.6-344-1084.1-154.6
			c-404.9,200.3-600.8,670.5-465.9,1116.7c84.9,285.2,317.8,522.5,603,616.1c98,32.7,176.3,39.2,335.2,34.8
			C4937.1-2169.7,4985-2180.6,5106.9-2237.2z"/>
		<path style="fill:#FEC431;" d="M4606.2,1476.6c-28.3-28.3-43.5-71.8-43.5-121.9c0-71.8,21.8-104.5,232.9-315.7l232.9-237.3
			l-232.9-237.3c-211.2-211.2-232.9-243.8-232.9-315.7c0-100.1,61-165.4,158.9-165.4c61,0,102.3,32.6,309.1,239.5L5268,560.1
			l243.8-237.3c217.7-213.3,252.5-239.5,320-239.5c56.6,0,89.3,15.2,121.9,56.6c84.9,106.7,65.3,148-198.1,415.8l-243.8,246
			l243.8,246c263.4,267.8,283,309.1,198.1,415.8c-32.6,41.4-63.1,56.6-121.9,56.6c-69.7,0-102.3-24-320-239.5L5268,1041.2
			l-237.3,239.5c-206.8,206.8-248.2,239.5-309.1,239.5C4678.1,1520.1,4632.3,1502.7,4606.2,1476.6z"/>
		<path style="fill:#FEC431;" d="M143.5-199.6C117.4-225.8,100-271.5,100-315c0-60.9,32.7-102.3,239.5-309.1L579-861.4l-239.5-243.8
			C126.1-1318.6,100-1355.6,100-1423.1c0-91.4,74-169.8,163.3-169.8c47.9,0,111,47.9,309.1,243.8l246,243.8l246-243.8
			c267.8-263.4,309.1-283,415.8-198.1c41.4,32.7,56.6,63.1,56.6,121.9c0,69.7-24,102.3-239.5,320l-239.5,243.8l239.5,237.3
			C1504.1-417.3,1536.8-376,1536.8-315c0,98-65.3,158.9-165.4,158.9c-71.8,0-104.5-21.8-315.7-233L818.4-621.9L581.1-389
			C369.9-177.8,337.3-156,265.4-156C215.4-156.1,171.8-171.3,143.5-199.6z"/>
	</g>
</g>
</svg>
