<?xml version="1.0" encoding="iso-8859-1"?>
<!-- Generator: Adobe Illustrator 22.1.0, SVG Export Plug-In . SVG Version: 6.00 Build 0)  -->
<svg version="1.1" id="Layer_1" xmlns="http://www.w3.org/2000/svg" xmlns:xlink="http://www.w3.org/1999/xlink" x="0px" y="0px"
	 viewBox="0 0 1000 1000" style="enable-background:new 0 0 1000 1000;" xml:space="preserve">
<g>
	<path style="fill:#FEC431;" d="M984.7,748.4c-3.6-3.6-8.1-5.3-13.6-5.3H401.2c-5.5,0-10.1,1.8-13.7,5.3c-3.6,3.6-5.3,8.1-5.3,13.7
		v38c0,5.5,1.8,10.1,5.3,13.6c3.6,3.6,8.1,5.3,13.7,5.3H971c5.5,0,10.1-1.8,13.6-5.3c3.6-3.6,5.3-8.1,5.3-13.6v-38
		C990,756.5,988.2,752,984.7,748.4z"/>
	<path style="fill:#FEC431;" d="M72.9,186.9c-4-4-8.5-5.9-13.7-5.9c-5.1,0-9.7,2-13.6,5.9l-29.7,29.7c-4,4-5.9,8.5-5.9,13.7
		s2,9.7,5.9,13.7l233.3,233.3L15.9,710.4c-4,4-5.9,8.5-5.9,13.6c0,5.2,2,9.7,5.9,13.7l29.7,29.7c4,4,8.5,5.9,13.6,5.9
		s9.7-2,13.7-5.9l276.6-276.6c4-4,5.9-8.5,5.9-13.7c0-5.1-2-9.7-5.9-13.7L72.9,186.9z"/>
</g>
</svg>
