<?xml version="1.0" encoding="iso-8859-1"?>
<!-- Generator: Adobe Illustrator 22.1.0, SVG Export Plug-In . SVG Version: 6.00 Build 0)  -->
<svg version="1.1" id="Layer_1" xmlns="http://www.w3.org/2000/svg" xmlns:xlink="http://www.w3.org/1999/xlink" x="0px" y="0px"
	 viewBox="0 0 1000 1000" style="enable-background:new 0 0 1000 1000;" xml:space="preserve">
<g>
	<g transform="translate(0.000000,511.000000) scale(0.100000,-0.100000)">
		<path style="fill:#FEC431;" d="M4521.3,3942.7c-608.4-67.9-1287.1-298.1-1784-603.6C2007.7,2890.7,1362.9,2168.3,1045.4,1446
			l-60.6-135.8l176.9-72.7l174.5-72.7l101.8,208.5C2216.1,2948.9,3942,3824,5682.3,3521c1209.6-210.9,2293-1010.8,2865.101-2118.5
			c67.9-128.5,126.1-237.6,130.9-242.4c7.3-7.3,312.7,109.1,344.2,133.3c17,12.1-244.8,499.3-375.7,700.5
			C7973,3014.4,6901.6,3707.6,5682.3,3908.8C5396.3,3957.3,4792.7,3974.3,4521.3,3942.7z"/>
		<path style="fill:#FEC431;" d="M1268.3,932.2c-259.4-75.1-509-295.7-608.4-545.4c-41.2-106.7-53.3-186.7-55.7-356.3
			c0-198.8,7.3-232.7,77.6-378.1c94.5-193.9,269-363.6,463-453.3c118.8-55.7,169.7-65.4,368.4-65.4c208.5,0,244.8,7.3,387.8,75.2
			c356.3,172.1,550.2,494.5,528.4,879.9c-19.4,349-225.4,649.6-543,795C1724,956.4,1438,980.7,1268.3,932.2z M1801.6,495.9
			c203.6-135.7,295.7-404.8,220.6-635.1c-67.9-206-273.9-349-506.6-351.5c-426.6,0-673.9,453.3-448.4,816.9
			C1217.4,571,1566.5,651,1801.6,495.9z"/>
		<path style="fill:#FEC431;" d="M8268.7,939.5c-249.7-63-504.2-276.3-613.3-516.3c-94.5-203.6-109.1-477.5-38.8-678.7
			c223-635.1,1013.2-829,1502.9-370.9c368.4,344.2,390.3,913.8,50.9,1287.1C8998.3,847.4,8802,941.9,8552.3,954
			C8445.6,958.9,8319.6,951.6,8268.7,939.5z M8738.9,508c264.2-138.2,358.8-441.2,223-707.8c-92.1-181.8-225.4-271.5-416.9-286
			c-174.5-12.1-293.3,24.2-407.2,123.6c-113.9,99.4-177,240-177,400C7960.8,452.3,8370.5,701.9,8738.9,508z"/>
		<path style="fill:#FEC431;" d="M4829.1,837.7C4198.9,760.2,3716.5,214.8,3711.7-430c-4.9-623,404.8-1141.7,1015.6-1287.1
			c453.3-106.7,969.6,67.9,1270.1,429C6761-369.5,6016.8,985.5,4829.1,837.7z M5246,367.4c254.5-75.2,467.8-271.5,559.9-516.3
			c67.8-184.2,58.2-494.5-24.2-656.9c-101.8-198.8-210.9-307.9-397.5-400c-150.3-75.1-201.2-87.3-346.6-87.3
			c-92.1,0-201.2,7.3-242.4,17c-220.6,53.3-475.1,269.1-572.1,489.6c-77.6,174.5-87.3,441.2-19.4,618.1
			C4368.6,270.5,4809.7,495.9,5246,367.4z"/>
		<path style="fill:#FEC431;" d="M650.2-825.2c-375.7-298.1-516.3-584.2-535.7-1100.5L100-2235.9h1410.7H2919v261.8
			c0,441.2-113.9,746.6-378.1,1008.4c-179.4,181.8-317.5,261.8-349,208.5c-12.1-19.4-55.7-92.1-94.5-162.4l-75.1-126l82.4-48.5
			c201.2-126,385.4-407.2,416.9-639.9l17-113.9h-1023c-1168.3,0-1059.3-26.7-972,244.8c60.6,191.5,181.8,358.7,341.8,472.7
			l121.2,87.3L921.7-893c-46,80-99.4,150.3-118.8,155.1C783.5-733,715.7-774.3,650.2-825.2z"/>
		<path style="fill:#FEC431;" d="M7604.5-842.1c-353.9-264.2-516.3-623-516.3-1132v-261.8h1405.9H9900v237.5
			c0,269.1-55.7,530.8-155.1,727.2c-109.1,213.3-475.1,562.4-555.1,530.9c-17-7.3-65.4-77.6-109.1-157.6l-77.6-145.4l121.2-87.3
			c157.6-113.9,278.8-281.2,339.4-472.7c87.2-271.5,196.3-244.8-972-244.8H7468.8l17,116.3c31.5,232.7,210.9,501.8,443.6,659.3
			l53.3,36.4L7893-883.3c-48.5,82.4-101.8,150.3-116.3,150.3C7759.7-733,7682.1-781.5,7604.5-842.1z"/>
		<path style="fill:#FEC431;" d="M3803.8-1729.3c-172.1-109.1-402.4-353.9-518.7-547.8c-218.2-366-293.3-661.7-293.3-1146.5v-315.1
			h2009.4h2009.4l14.6,176.9c17,177-14.6,555.1-60.6,732c-87.3,324.8-271.5,649.6-499.3,872.6c-128.5,128.5-358.8,303-400,303
			c-16.9,0-213.3-332.1-213.3-363.6c0-9.7,43.6-46,94.5-82.4c179.4-126,387.9-366,475.1-552.7c82.4-172.1,155.1-446,157.6-581.7
			v-67.9h-1578H3425.6l14.5,140.6c55.7,443.6,295.7,843.6,647.2,1076.2l89.7,58.2l-101.8,179.4c-55.8,97-113.9,181.8-126,186.6
			C3934.7-1656.6,3869.2-1688.1,3803.8-1729.3z"/>
	</g>
</g>
</svg>
