<svg xmlns="http://www.w3.org/2000/svg" viewBox="0 0 412.69 252.81"><defs><style>.cls-1{fill:#fec431;}</style></defs><title>Asset 16</title><g id="Layer_2" data-name="Layer 2"><g id="Layer_1-2" data-name="Layer 1"><path class="cls-1" d="M0,142.1c2.34-1.77-.15-4.91,1.92-6.76,1.44-10.07,6.13-18.83,11.13-27.45a30,30,0,0,1,3.9-5C24.86,94.2,33.21,86,44.12,81c3.73-1.72,7.59-2.9,11.73-4.35,5.72-18.23,17.62-31.51,35.29-39A56.93,56.93,0,0,1,129.55,35c1.4-1.39,3.08-3,4.66-4.65A94.35,94.35,0,0,1,177.34,4.15,98.42,98.42,0,0,1,205.41,0a101.07,101.07,0,0,1,36.08,6.12,98.18,98.18,0,0,1,29.4,17.27A87.94,87.94,0,0,1,278,29.55c12.79,13.41,21.68,29,25.93,47.07.72,3,1.86,5,4.63,6.36A61,61,0,0,1,326.2,96.05c10.3,10.75,17.82,23.27,20.88,38.17.86,4.14.72,8.33,2.3,12.66H314.71c-2.08-2.64-1.75-6.09-2.6-9.17-4.34-15.68-14.18-25.51-29.93-29.79-3.27-.89-6.54-.26-9.66-1.09-.92-1.3-.47-2.67-.5-4-.35-14.9-4.34-28.72-12.84-41a59.61,59.61,0,0,0-22.37-19.72A75,75,0,0,0,217.88,36a68.21,68.21,0,0,0-19.78-.67,64.1,64.1,0,0,0-27.47,9.37c-12.78,7.72-21.11,18.91-27.44,32-.35.72,0,1.68-1.14,2.65-4.24-3.2-7.63-7.68-13.27-9.44a33.12,33.12,0,0,0-16.87-.91A31.56,31.56,0,0,0,97,75.87C87.64,84,83.83,94.29,87.75,107.05c-12.81-2.7-24.33.06-34.76,7.56-10.78,7.75-16.26,18.8-17.85,31.46-2.71,21.67,11.51,47,42.21,49.66,1.3,3.6.47,7.43.62,11.17s0,7.33,0,11v11.67a20.38,20.38,0,0,1-9.38.42,77.82,77.82,0,0,1-36-14.13A79.4,79.4,0,0,1,10.82,192c-4.66-7.86-7-16.42-9.75-24.9-.64-1.93,1-4.29-1.07-6Z"/><path class="cls-1" d="M107.15,252.81V176.39H412.69v76.42Zm100.2-22.05h14.79c4.35-10.9,8.6-21.52,13-32.46h-14.8Q213.8,214.62,207.35,230.76Zm-51-32.53H141.56c-2.21,5.51-4.46,10.89-6.53,16.34s-4.65,10.48-6.17,16.32h14.41C147.55,220.17,151.82,209.49,156.31,198.23ZM169.44,231c2.21-5.51,4.46-10.89,6.54-16.34s4.65-10.48,6.14-16.31H167.8c-4.37,10.78-8.88,21.42-12.9,32.65Zm39.5-32.73a130.5,130.5,0,0,0-14.82.09l-13,32.63h14.72Zm24.61,32.65h14.7l13-32.58h-14.8C242.18,209.16,238,219.79,233.55,230.88ZM366,214.28c0,5.7,4.65,10.77,9.87,10.82,5.94.06,11.28-5.09,11.13-10.72a10.82,10.82,0,0,0-10.43-10.28C370.32,204.08,366,208.27,366,214.28Z"/></g></g></svg>