<?xml version="1.0" encoding="iso-8859-1"?>
<!-- Generator: Adobe Illustrator 22.1.0, SVG Export Plug-In . SVG Version: 6.00 Build 0)  -->
<svg version="1.1" id="Layer_1" xmlns="http://www.w3.org/2000/svg" xmlns:xlink="http://www.w3.org/1999/xlink" x="0px" y="0px"
	 viewBox="0 0 1000 1000" style="enable-background:new 0 0 1000 1000;" xml:space="preserve">
<g>
	<g transform="translate(0.000000,512.000000) scale(0.100000,-0.100000)">
		<path style="fill:#FEC431;" d="M3871.5,5000.4c-1229-139.7-2299.1-955.3-2768.2-2113.4l-61.3-153.1l-82.3-5.7
			c-204.8-11.5-317.8-74.7-373.3-208.7c-38.3-90-38.3-1033.8,0-1121.8c36.4-86.1,126.4-164.6,222.1-193.4l82.3-24.9l42.1-247
			c91.9-539.8,210.6-897.8,670-2008.2c204.8-495.8,354.2-940,423.1-1253.9l53.6-239.3l5.8-1104.6L2093-4780h153.1h151.2v984
			c0,545.6-9.6,1072.1-19.1,1181.2c-45.9,453.7-206.7,985.9-536,1778.4c-402,968.7-543.7,1391.7-618.3,1862.7l-26.8,166.6h2226.4
			h2226.4l53.6-49.8c109.1-103.4,204.8-143.6,593.4-256.5c220.1-65.1,411.6-120.6,426.9-124.4c17.2-5.7,68.9-46,116.8-91.9
			c107.2-101.5,1198.4-775.3,1319-813.6c93.8-30.6,899.8-57.4,1024.2-34.5c82.3,15.3,197.2,113,231.6,197.2
			c15.3,34.5,26.8,105.3,26.8,158.9V274h-153.2H9136v-76.6v-76.6h-306.3h-306.3v1837.8v1837.8h306.3H9136v-76.6v-76.6h153.1h153.2
			v95.7c0,53.6-11.5,124.4-26.8,158.9c-34.5,84.2-149.3,181.9-231.6,197.2c-107.2,19.2-928.5-3.8-1014.6-30.6
			c-111-32.5-1202.2-700.7-1322.8-809.8c-99.5-90-112.9-95.7-528.4-216.3c-436.5-128.3-465.2-139.7-601.1-250.8l-78.5-63.2H3502
			H1363.7l40.2,101.5c126.4,319.7,354.2,670,618.3,947.6c451.8,470.9,974.4,758.1,1627.2,888.3c308.2,63.2,865.3,61.2,1173.5,0
			c415.4-84.2,846.1-268,1186.9-507.3c93.8-65.1,271.8-222.1,398.2-350.3l231.6-231.6l103.4,86.1c57.4,45.9,107.2,91.9,111,99.5
			c9.6,24.9-336.9,377.1-503.5,511.1C5659.5,4826.2,4734.9,5098.1,3871.5,5000.4z M8217.1,3235.4v-522.6l-126.3-53.6
			c-178-78.5-315.9-210.6-403.9-390.5c-67-134-72.7-158.9-72.7-310.1s5.7-176.1,72.7-310.1c88.1-180,225.9-312,403.9-390.5
			l126.3-53.6V679.7V157.1l-44,24.9c-24.9,13.4-285.3,172.3-578.1,350.3c-580,354.2-639.4,405.8-716,612.6
			c-38.3,101.5-40.2,145.5-40.2,813.6c0,1014.6-44,934.2,794.5,1447.2c315.9,193.4,576.2,352.3,580,352.3
			C8215.2,3758,8217.1,3522.6,8217.1,3235.4z M6549.7,2710.9c-9.6-40.2-17.2-379-17.2-752.3s7.7-712.1,17.2-750.4
			c21-90,24.9-88.1-220.2-17.2c-103.4,30.6-225.9,67-271.8,78.5c-101.5,26.8-208.7,118.7-254.6,220.2c-30.6,67-36.4,130.2-36.4,469
			s5.7,402,36.4,469c44,101.5,153.2,193.3,254.6,220.2c45.9,11.5,164.6,45.9,264.2,76.6C6568.8,2798.9,6570.7,2798.9,6549.7,2710.9z
			 M5470,1958.5v-459.4H3168.9h-2303v459.4V2418h2303H5470V1958.5z M8217.1,1960.4v-440.3l-53.6,19.1
			c-80.4,26.8-189.5,147.4-224,245c-59.3,172.3-23,377.1,91.9,497.7c47.9,49.8,141.7,109.1,181.9,116.8
			C8215.2,2398.8,8217.1,2201.7,8217.1,1960.4z"/>
		<path style="fill:#FEC431;" d="M1478.5,1958.5v-153.1h153.1h153.2v153.1v153.1h-153.2h-153.1V1958.5z"/>
		<path style="fill:#FEC431;" d="M2091.1,1958.5v-153.1h153.2h153.1v153.1v153.1h-153.1h-153.2V1958.5z"/>
		<path style="fill:#FEC431;" d="M2703.7,1958.5v-153.1h153.2H3010v153.1v153.1h-153.1h-153.2V1958.5z"/>
		<path style="fill:#FEC431;" d="M9136,3183.7v-153.2h153.1h153.2v153.2v153.1h-153.2H9136V3183.7z"/>
		<path style="fill:#FEC431;" d="M9136,2571.1V2418h153.1h153.2v153.1v153.1h-153.2H9136V2571.1z"/>
		<path style="fill:#FEC431;" d="M9136,1958.5v-153.1h153.1h153.2v153.1v153.1h-153.2H9136V1958.5z"/>
		<path style="fill:#FEC431;" d="M9136,1345.9v-153.1h153.1h153.2v153.1V1499h-153.2H9136V1345.9z"/>
		<path style="fill:#FEC431;" d="M9136,733.3V580.2h153.1h153.2v153.1v153.1h-153.2H9136V733.3z"/>
		<path style="fill:#FEC431;" d="M7353.7-528.2l-46-36.4l-9.6-830.8l-9.6-830.8l-70.8-145.5c-86.1-170.4-179.9-264.2-358-348.4
			l-126.3-59.3l-788.7-5.7l-790.6-5.7V-2944v-151.2h153.1h153.1v-842.3V-4780h153.2h153.1v842.3v842.3H6184
			c488.2,0,591.5,15.3,802.1,116.8c298.6,143.6,541.8,455.6,597.3,771.5c13.4,67,21.1,386.7,21.1,761.9v647.1h382.9h382.9V-645
			v153.2H7884C7434.1-491.8,7393.9-493.8,7353.7-528.2z"/>
	</g>
</g>
</svg>
