<?xml version="1.0" encoding="iso-8859-1"?>
<!-- Generator: Adobe Illustrator 22.1.0, SVG Export Plug-In . SVG Version: 6.00 Build 0)  -->
<svg version="1.1" id="Layer_1" xmlns="http://www.w3.org/2000/svg" xmlns:xlink="http://www.w3.org/1999/xlink" x="0px" y="0px"
	 viewBox="0 0 1000 1000" style="enable-background:new 0 0 1000 1000;" xml:space="preserve">
<g>
	<g transform="translate(0.000000,512.000000) scale(0.100000,-0.100000)">
		<path style="fill:#FEC431;" d="M712.7,4995.9c-281.4-78.5-511.2-310.2-585.8-593.5c-19.1-72.8-26.8-247-26.8-668.2v-570.5
			l47.9-45.9l45.9-47.9h4482c4436,0,4480,0,4518.299,38.3c82.3,82.3,65.1,210.6-38.3,262.3c-38.3,19.2-955.4,24.9-4390,24.9H423.6
			l5.7,474.8c5.7,442.3,7.7,478.6,47.9,549.5c47.9,90,141.7,181.9,235.5,231.7c65.1,34.5,208.7,36.4,4288.6,36.4h4221.6l76.6-42.1
			c90-47.9,181.9-141.7,231.7-235.5c34.5-65.1,36.4-208.7,36.4-4288.6V-4100l-42.1-76.6c-47.9-90-141.7-181.9-235.5-231.7
			c-65.1-34.5-208.7-36.4-4288.6-36.4s-4223.5,1.9-4288.6,36.4c-93.8,49.8-187.6,141.7-235.5,231.7l-42.1,76.6l-9.6,3373.4
			l-9.6,3373.4l-40.2,42.1c-61.3,59.4-176.1,55.5-231.7-11.5l-44-49.8l3.8-3394.5l5.7-3392.6l70.8-143.6
			C268.5-4481.1,414-4624.7,592-4709l130.2-61.3l4212-5.7c3141.8-3.8,4238.8,0,4317.3,15.3c306.3,65.1,564.8,325.5,629.9,631.8
			c17.2,78.5,21,1143,17.2,4317.3l-5.7,4212l-61.3,130.2c-84.2,178.1-227.8,323.6-405.9,411.6l-143.6,70.8l-4240.7,3.8
			C1683.3,5018.8,781.6,5015,712.7,4995.9z"/>
		<path style="fill:#FEC431;" d="M1277.4,4337.3c-135.9-65.1-214.4-201-193.4-337c28.7-180,170.4-291,348.5-275.7
			c172.3,15.3,275.7,118.7,291,289.1C1744.6,4264.5,1499.5,4442.6,1277.4,4337.3z"/>
		<path style="fill:#FEC431;" d="M2251.9,4335.3c-197.2-90-250.8-331.2-111-499.7c91.9-107.2,233.6-145.5,365.7-93.8
			c258.5,97.6,269.9,478.6,19.1,593.5C2424.3,4379.4,2351.5,4381.3,2251.9,4335.3z"/>
		<path style="fill:#FEC431;" d="M3228.4,4335.3c-113-51.7-166.6-137.9-176.1-279.5c-5.7-95.7,0-124.4,38.3-180
			c63.2-93.8,132.1-137.9,231.7-149.3c120.6-13.4,174.2,3.8,260.4,80.4c176.1,158.9,132.1,430.8-82.3,528.4
			C3400.7,4379.4,3327.9,4379.4,3228.4,4335.3z"/>
		<path style="fill:#FEC431;" d="M1133.9,2361.4c-86.2-86.2-63.2-214.4,47.9-258.5c53.6-23,191.5-28.7,718-28.7
			c725.6,0,763.9,5.7,800.3,112.9c24.9,68.9,15.3,107.2-40.2,170.4l-38.3,42.1H1896C1200.9,2399.7,1170.2,2397.8,1133.9,2361.4z"/>
		<path style="fill:#FEC431;" d="M5374.6,2351.9c-61.3-59.4-61.3-143.6-1.9-214.4l45.9-53.6h392.5c390.6,0,394.4,0,442.3,45.9
			c61.3,57.4,65.1,149.3,9.6,220.2l-38.3,49.8h-402.1C5420.5,2399.7,5420.5,2399.7,5374.6,2351.9z"/>
		<path style="fill:#FEC431;" d="M6686,2361.4c-86.2-86.2-55.5-225.9,59.3-266.1c82.3-28.7,681.6-28.7,763.9,0
			c42.1,15.3,70.8,42.1,88.1,86.2c28.7,70.8,21.1,111-36.4,176.1c-38.3,40.2-47.9,42.1-438.4,42.1
			C6751.1,2399.7,6722.4,2397.8,6686,2361.4z"/>
		<path style="fill:#FEC431;" d="M7991.8,2355.7c-59.4-63.2-55.5-166.6,7.6-225.9c47.9-44,59.4-45.9,400.1-51.7
			c279.5-5.8,363.8,0,419.3,23c112.9,45.9,135.9,174.2,49.8,260.4c-36.4,36.4-65.1,38.3-436.5,38.3
			C8039.6,2399.7,8032,2399.7,7991.8,2355.7z"/>
		<path style="fill:#FEC431;" d="M1782.9,1373.5l-45.9-49.8l-5.7-1355.5l-3.8-1355.5l49.8-59.4l49.8-59.3h892.2h892.2l612.7,612.7
			l614.6,610.7l289.1-285.3c271.9-270,294.9-287.2,363.8-287.2s91.9,19.1,528.4,453.8l455.7,453.7l455.7-453.7
			c396.3-394.4,463.3-453.8,515-453.8c120.6,0,197.2,112.9,149.3,224c-13.4,28.7-256.6,283.3-539.9,566.7
			c-471,469-520.8,511.2-580.1,511.2c-59.3,0-103.4-38.3-516.9-449.9c-247-247-457.6-449.9-465.2-449.9
			c-7.7,0-141.7,124.5-296.8,277.6C5041.4-22.2,4895.9,108,4871,115.7c-23,5.7-67,0-95.7-11.5c-28.7-13.4-337-306.3-683.5-652.9
			L3460-1180.4h-702.6h-704.5V-41.3v1139.1h2948.4h2948.4V-41.3v-1139.2H6205.5H4461.3l-55.5-55.5c-70.8-72.7-74.7-157-7.7-222.1
			l45.9-47.9h1864.8h1864.8l45.9,49.8l46,49.8V-41.3v1365.1l-46,49.8l-45.9,49.8H5001.2H1828.8L1782.9,1373.5z"/>
		<path style="fill:#FEC431;" d="M3010.1,732.2c-183.8-82.3-287.2-243.1-287.2-442.3c0-271.9,180-467.1,449.9-490.1
			C3393-217.4,3605.5-70,3668.7,142.5c38.3,126.4,38.3,157,0,283.3C3588.3,697.7,3264.7,849,3010.1,732.2z M3308.8,401
			c111-93.8,38.3-279.5-109.1-279.5c-82.3,0-151.3,74.7-151.3,162.7C3048.4,425.8,3201.6,494.8,3308.8,401z"/>
		<path style="fill:#FEC431;" d="M4281.4-1858.2c-149.3-65.1-97.6-298.7,67-298.7c88.1,0,130.2,28.7,155.1,103.4
			c26.8,82.3-9.6,164.7-86.2,199.1C4356-1825.7,4356-1825.7,4281.4-1858.2z"/>
		<path style="fill:#FEC431;" d="M4962.9-1844.8c-168.5-61.3-143.6-312.1,32.6-312.1c86.2,0,118.7,17.2,151.2,80.4
			c42.1,80.4,19.1,162.7-55.5,208.7C5028-1829.5,5010.8-1827.6,4962.9-1844.8z"/>
		<path style="fill:#FEC431;" d="M5602.4-1850.5c-101.5-40.2-132.1-168.5-63.2-256.6c84.2-107.2,285.3-36.4,285.3,101.5
			C5824.5-1896.5,5698.1-1810.4,5602.4-1850.5z"/>
		<path style="fill:#FEC431;" d="M1807.8-2840.4c-13.4-5.7-36.4-34.5-51.7-63.2c-38.3-74.7-42.1-1054.9-3.8-1129.6
			c51.7-103.4,180-120.6,262.3-38.3c36.4,36.4,38.3,65.1,38.3,478.6v440.3h660.5h660.5v-440.3c0-413.5,1.9-442.3,38.3-478.6
			c82.3-82.3,210.6-65.1,262.3,38.3c17.2,34.5,24.9,189.6,24.9,561c0,536.1-9.6,603.1-86.2,633.7
			C3574.9-2825.1,1844.2-2825.1,1807.8-2840.4z"/>
		<path style="fill:#FEC431;" d="M4065-2876.7c-38.3-49.8-40.2-72.8-40.2-599.3c1.9-574.4,1.9-583.9,90-629.9
			c67-36.4,120.6-26.8,180,32.5l55.5,55.5v432.7v432.7h650.9h651v-432.7v-432.7l55.5-55.5c59.3-59.4,112.9-68.9,180-32.5
			c88.1,45.9,88.1,55.5,90,633.7v551.4l-47.9,45.9l-46,47.9h-890.2h-890.3L4065-2876.7z"/>
		<path style="fill:#FEC431;" d="M6383.5-2840.4c-13.4-5.7-36.4-34.5-51.7-63.2c-38.3-74.7-42.1-1054.9-3.8-1129.6
			c51.7-103.4,180-120.6,262.3-38.3c36.4,36.4,38.3,65.1,38.3,478.6v440.3h660.5h660.5v-440.3c0-413.5,1.9-442.3,38.3-478.6
			c82.3-82.3,210.6-65.1,262.3,38.3c30.6,61.3,34.5,1024.3,5.7,1102.8c-40.2,105.3-17.2,101.5-966.8,101.5
			C6804.7-2828.9,6397-2834.6,6383.5-2840.4z"/>
	</g>
</g>
</svg>
